<svg transform="scale(1)" version="1.1" id="Layer_1" xmlns="http://www.w3.org/2000/svg" xmlns:xlink="http://www.w3.org/1999/xlink" x="0px" y="0px" viewBox="0 0 500 500" xml:space="preserve" class="show_show__wrapper__graphic__5Waiy "><title>React</title><style type="text/css">
	.st0{opacity:0.77;}
	.st1{fill:#F3CB5C;}
	.st2{fill:#FFFFFF;}
	.st3{opacity:0.57;}
	.st4{opacity:0.75;}
	.st5{fill:#469F78;}
	.st6{opacity:0.59;}
	.st7{fill:#EA8383;}
	.st8{fill:#000001;}
	.st9{fill:#F2EBEB;}
	.st10{fill:#87CCDB;}
	.st11{clip-path:url(#SVGID_2_);}
	.st12{fill:#A04040;}
</style><g id="screen"><g class="st0"><polygon class="st1" points="334.6,165.1 206.5,165.1 241.1,65.2 369.3,65.3 		"></polygon><path class="st2" d="M243.3,118.8c7.1-0.4,14.3-0.6,21.4-0.8c7.1-0.2,14.3-0.2,21.4-0.2s14.3,0.1,21.4,0.2s14.3,0.4,21.4,0.8
			c-7.1,0.4-14.3,0.6-21.4,0.8c-7.1,0.2-14.3,0.2-21.4,0.2s-14.3-0.1-21.4-0.2S250.4,119.2,243.3,118.8z"></path><g class="st3"><path class="st2" d="M235.8,140.2c7.1-0.4,14.3-0.6,21.4-0.8c7.1-0.2,14.3-0.2,21.4-0.2s14.3,0.1,21.4,0.2s14.3,0.4,21.4,0.8
				c-7.1,0.4-14.3,0.6-21.4,0.8c-7.1,0.1-14.3,0.2-21.4,0.2s-14.3-0.1-21.4-0.2S243,140.6,235.8,140.2z"></path></g><path class="st2" d="M296.8,91.9c-0.6,0-1.1-0.2-1.6-0.5c-0.5-0.4-0.7-1-0.6-1.6c0.2-1.6,2.4-4.4,5.4-6.9
			c-0.3-0.8-0.6-1.5-1.1-2.2c-0.8-1.3-2.5-1.8-4.8-1.5c-3,0.5-5.8,1.7-8.3,3.4c0.2,1.1,0.3,2.2,0.1,3.3c-0.3,2.8-1.6,5-3.3,5.7
			c-1.2,0.4-2.5,0.1-3.4-0.9c-0.9-0.8-1.2-2.1-0.7-3.3c0.6-1.8,2.5-3.8,4.9-5.6c-0.4-1.2-1.2-2.2-2.2-2.8
			c-3.9-2.5-14.4,5.8-20.1,11.7l-1.4-1.4c1.6-1.7,16-16.2,22.6-12c1.3,0.8,2.3,2,2.9,3.4c2.6-1.7,5.6-2.9,8.7-3.4
			c4-0.5,5.9,1,6.8,2.4c0.4,0.6,0.7,1.3,1,2c1.8-1.4,3.7-2.4,5.8-3.2c3.7-1.3,6.8-1,9.1,1l-1.3,1.5c-2-1.7-4.8-1.8-8.3-0.2
			c-1.7,0.8-3.2,1.8-4.7,2.9c0.5,2.5-0.4,5.1-2.2,6.9C299.1,91.3,298,91.8,296.8,91.9z M296.6,89.9c0.8,0,1.5-0.3,2-0.9
			c1-1,1.7-2.3,1.7-3.7C298.8,86.5,297.6,88.1,296.6,89.9L296.6,89.9z M283.9,83.8c-1.5,1-2.7,2.5-3.5,4.1c-0.2,0.7,0,1,0.2,1.2
			c0.7,0.7,1.2,0.5,1.3,0.5c0.8-0.3,1.7-1.8,2-4C284,84.9,284,84.3,283.9,83.8L283.9,83.8z"></path><path class="st2" d="M322.4,91.4l-1.6-1.2c0.5-0.7-0.5-2.7-1.4-4l1.6-1.1C321.5,85.8,323.9,89.3,322.4,91.4z"></path></g><path class="st2" d="M250.4,113.4c0,0-7.8,0.4-5.4,5.7s7.2,2.4,9.1,0.9S253.1,112.9,250.4,113.4z"></path><path class="st2" d="M278.4,136.8c0,0-6.1,0.3-4.3,4.6s5.6,1.9,7.1,0.7S280.6,136.3,278.4,136.8z"></path><g class="st4"><polygon class="st5" points="366.7,297.8 264.2,297.8 284.1,232.5 386.6,232.5 		"></polygon><path class="st2" d="M299.2,245.9c-0.6,3.3-1.3,6.5-1.9,9.8c-0.6,3.3-1.3,6.5-2,9.7c-1.4,6.5-2.8,13-4.3,19.4l-0.9-1.2
			c5.3,0,10.5-0.1,15.8,0s10.5,0,15.8,0.1s10.5,0.2,15.8,0.3c2.6,0.1,5.3,0.2,7.9,0.2s5.3,0.2,7.9,0.3c-2.7,0.1-5.3,0.2-7.9,0.3
			c-2.6,0.1-5.3,0.2-7.9,0.2c-5.3,0.1-10.6,0.2-15.8,0.3s-10.6,0.1-15.8,0.1s-10.6,0-15.8,0h-1.2l0.3-1.2c1.6-6.4,3.2-12.9,4.8-19.3
			c0.9-3.2,1.7-6.4,2.6-9.6S298.3,249.1,299.2,245.9z"></path><path class="st2" d="M352.3,281.8c0,0,7.3,2.8,5.3,4s-7.8,2-6.9,1.8S358.4,282.5,352.3,281.8z"></path><path class="st2" d="M296.2,250.4c0,0,1.8-7.6,3.3-5.8s3.1,7.4,2.7,6.6S296.1,244.2,296.2,250.4z"></path><path class="st2" d="M300.3,272.7c1.8-1,3.7-1.9,5.6-2.8s3.8-1.8,5.6-2.7c3.8-1.8,7.6-3.5,11.4-5.2l0.8-0.4l0.4,0.8l4.4,8.3
			l-1.3-0.4c4.9-2.3,9.8-4.7,14.8-6.9c2.5-1.1,5-2.2,7.5-3.3s5-2.1,7.5-3.1c-2.4,1.4-4.8,2.6-7.1,4s-4.8,2.6-7.2,3.8
			c-4.8,2.5-9.7,4.9-14.6,7.3l-0.9,0.4l-0.4-0.9l-4.3-8.4l1.2,0.4c-3.8,1.6-7.7,3.2-11.6,4.7c-2,0.8-3.9,1.5-5.9,2.2
			S302.2,272,300.3,272.7z"></path></g><g class="st6"><polygon class="st7" points="329,259.9 215.9,259.9 237.6,187.9 350.7,187.9 		"></polygon></g><path class="st1" d="M237.2,284.6c-0.6,3.7-0.9,7.5-0.7,11.2c0.1,3.7,0.9,7.3,2.3,10.7c1.4,3.4,3.5,6.4,6.3,8.8
		c2.9,2.4,6.1,4.4,9.5,5.9c-3.8-0.8-7.4-2.4-10.5-4.7c-1.6-1.2-3-2.6-4.2-4.1c-1.2-1.6-2.2-3.3-2.9-5.1c-1.5-3.6-2.1-7.6-2-11.5
		C235,292,235.8,288.2,237.2,284.6z"></path><path class="st1" d="M245.2,304.2c1.3,2.9,3.1,5.6,5.3,8c1.1,1.1,2.3,2,3.7,2.7c1.5,0.7,3,1.3,4.6,1.6c-1.7,0.4-3.5,0.3-5.2-0.2
		c-1.7-0.5-3.3-1.5-4.5-2.8c-1.2-1.3-2.2-2.8-2.9-4.4C245.5,307.6,245.1,305.9,245.2,304.2z"></path><path class="st1" d="M342.5,167.9c0.4-0.6,0.7-1.1,0.9-1.8c0.3-0.6,0.6-1.2,0.8-1.8c0.3-0.6,0.5-1.2,0.8-1.8
		c0.2-0.6,0.5-1.2,0.7-1.8l2.9-7.4c1-2.4,2-4.9,3-7.3s2.2-4.9,3.4-7.2c-0.5,2.6-1.1,5.2-1.9,7.8c-0.8,2.5-1.7,5.1-2.6,7.5
		c-1,2.5-2.1,4.9-3.3,7.3c-0.6,1.2-1.3,2.4-2,3.5c-0.4,0.6-0.8,1.1-1.2,1.6C343.5,167,343,167.5,342.5,167.9z"></path><path class="st1" d="M355,155.7c-0.3,1.8-0.7,3.6-1.2,5.3c-0.5,1.7-1.1,3.4-1.8,5.1s-1.4,3.3-2.2,4.9c-0.8,1.6-1.7,3.2-2.7,4.7
		c0.3-1.8,0.7-3.6,1.2-5.3c0.5-1.7,1.1-3.4,1.8-5.1s1.4-3.3,2.2-4.9C353.1,158.7,354,157.2,355,155.7z"></path><path class="st2" d="M282,248.2c-3.2,0-6.3-0.4-9.4-1.2c-6.9-1.7-11.5-5.1-13.5-10.1c-4.6-11.7,5.8-27.8,6.2-28.5l0.3-0.4
		l17.7,13.4l29.4-10.1l0.1,0.6c1.1,6.3-1.6,19.8-11,28.6C296.5,245.6,289.4,248.4,282,248.2z M266,209.4c-1.7,2.7-9.9,17-5.9,27.1
		c1.9,4.7,6.2,7.9,12.8,9.5c11.3,2.7,21.1,0.6,28.4-6.3c8.5-8,11.6-20.6,10.8-27.1l-28.8,9.9L266,209.4z"></path><path class="st2" d="M283.2,222.5l-18-13.7l0.2-0.4c0.2-0.4,5.5-10.4,20.9-13.3c7.7-1.5,15.6,0.8,21.3,6.2c4,4,5.3,10.3,5.3,10.5
		l0.1,0.4L283.2,222.5z M266.5,208.5l16.9,12.9l28.4-9.7c-0.4-1.5-1.8-6.4-5-9.6l0,0c-5.4-5.1-13-7.3-20.4-5.9
		C273.2,198.7,267.6,206.8,266.5,208.5L266.5,208.5z"></path><rect class="st2" x="266.7" y="206.6" transform="matrix(0.3494 -0.937 0.937 0.3494 -17.0616 389.5961)" width="10.7" height="1"></rect><rect class="st2" x="267.8" y="206.1" transform="matrix(0.3828 -0.9238 0.9238 0.3828 -20.6527 382.3608)" width="16.1" height="1"></rect><rect class="st2" x="269.2" y="206.4" transform="matrix(0.3502 -0.9367 0.9367 0.3502 -12.2094 396.1212)" width="20.4" height="1"></rect><rect class="st2" x="271.3" y="206.9" transform="matrix(0.3486 -0.9373 0.9373 0.3486 -9.5248 401.0829)" width="25" height="1"></rect><rect class="st2" x="273.8" y="207.9" transform="matrix(0.3681 -0.9298 0.9298 0.3681 -11.5835 399.7122)" width="28.9" height="1"></rect><rect class="st2" x="282.2" y="207" transform="matrix(0.3665 -0.9304 0.9304 0.3665 -6.4182 405.6704)" width="24.9" height="1"></rect><rect class="st2" x="290.2" y="207.4" transform="matrix(0.3681 -0.9298 0.9298 0.3681 -3.5435 410.4983)" width="20" height="1"></rect><rect class="st2" x="297.7" y="209.2" transform="matrix(0.4212 -0.907 0.907 0.4212 -13.6546 398.0979)" width="14.7" height="1"></rect><rect class="st2" x="307" y="209.5" transform="matrix(0.5304 -0.8478 0.8478 0.5304 -32.6759 361.0077)" width="5" height="1"></rect><path class="st2" d="M243.6,253.3c-1.5,0-2.1-0.5-2.4-1c-1.1,0.5-2.2,0.9-3.4,1c-0.9,0.2-1.7-0.2-2.3-0.9l-0.1-0.2
		c-1,0.7-2.1,1-3.3,1.1c-1,0-1.8-0.7-1.9-1.7c-0.1-0.2-0.1-0.5-0.1-0.7c-0.8,0.7-1.6,1.3-1.9,1.5l-0.6-0.8c0.9-0.7,1.7-1.4,2.6-2.1
		c0.2-1.5,0.8-3,1.6-3.4c0.4-0.2,0.8-0.2,1.1,0.1c0.2,0.2,0.4,0.5,0.3,0.8c0,0.8-1,2-2.1,3c0,0.4,0,0.7,0,1.1
		c0.2,1.2,0.8,1.2,1.1,1.2c1.1-0.1,2.1-0.4,3-1.1c0-0.6,0.1-1.1,0.4-1.6c0.3-0.8,1-1.3,1.8-1.4c0.3-0.1,0.7,0.1,0.8,0.4
		c0.2,0.4,0.1,0.9-0.1,1.2c-0.5,0.7-1.1,1.3-1.8,1.9c0,0.1,0.1,0.2,0.1,0.2c0.3,0.4,0.9,0.5,1.4,0.4c1.1-0.1,2.3-0.5,3.3-1
		c0.2-1,0.9-1.7,1.9-1.8c0.8-0.1,0.9,0.5,0.9,0.6c0,0.5-0.7,1.2-1.7,1.8c0.2,0.3,0.8,0.5,1.7,0.5v1L243.6,253.3z M237.1,249.3
		c-0.3,0.2-0.6,0.4-0.7,0.8l-0.1,0.2C236.6,249.9,236.9,249.6,237.1,249.3L237.1,249.3z M232.1,246.9c-0.3,0.3-0.6,0.8-0.7,1.2
		C232,247.5,232.2,247,232.1,246.9L232.1,246.9z"></path><path class="st2" d="M365.9,245.2c-0.2,0-0.4,0-0.6-0.1c-0.3-0.2-0.6-0.5-0.5-0.9c0.1-0.6,0.9-1.4,1.9-2c0-0.1-0.1-0.3-0.1-0.4
		c-0.3-0.7-0.7-1-1.4-0.8c-0.4,0.1-0.8,0.3-1.2,0.6c-0.1,0.6-0.2,1.2-0.5,1.8c-0.1,0.2-1,1.9-1.9,1.7c-0.4-0.1-0.6-0.4-0.6-0.8
		c0-0.8,0.9-2.2,2-3.2c0-0.3-0.2-0.5-0.4-0.7c-0.2-0.1-0.4-0.2-0.6-0.2c-1.3,0.1-3.3,2.6-4,3.5l-0.8-0.6c0.3-0.4,2.7-3.7,4.7-4
		c0.5-0.1,1,0.1,1.4,0.4c0.2,0.2,0.4,0.5,0.5,0.8c0.3-0.2,0.7-0.4,1.1-0.5c1.1-0.3,2.2,0.4,2.5,1.4l0.1,0.3c0.2-0.1,0.3-0.1,0.5-0.2
		c1.1-0.4,2.3-0.1,3,0.8l-0.8,0.6c-0.4-0.5-1.1-0.7-1.7-0.5c-0.2,0.1-0.5,0.1-0.7,0.2c0.1,0.7-0.1,1.5-0.6,2
		C366.8,245,366.4,245.2,365.9,245.2z M365.8,244.2c0.2,0,0.4-0.1,0.6-0.2c0.2-0.2,0.4-0.5,0.4-0.8
		C366.4,243.5,366.1,243.8,365.8,244.2z"></path><path class="st2" d="M373.6,244.8l-1-0.2c0-0.1,0-0.1,0-0.2c0,0.1,0.1,0.1,0.1,0.1c0.1,0,0.1,0,0.2,0l-0.6-0.8
		c0.3-0.2,0.7-0.3,1-0.1C373.6,243.9,373.7,244.3,373.6,244.8z"></path></g><g id="plant"><path class="st5" d="M404,345.6c0,0-1.8,8.7-15.3,12.8s-15.7-3.9-6.5-10.7S404,345.6,404,345.6z"></path><path class="st5" d="M405.1,339.5c0,0,1.5-40.3-12.5-36.6C392.6,302.9,377.3,322.4,405.1,339.5z"></path><path class="st5" d="M410.7,403.4c0,0-1.4-23.7,11.3-20.7S415.8,404.7,410.7,403.4z"></path><path class="st5" d="M410,356.2c0,0,13.5,22.7,29.6,18.8s0.5-24-7.5-26.3S405.6,350.1,410,356.2z"></path><path class="st8" d="M380.4,355.2c1.9-1.3,3.9-2.5,6-3.5c2-1.1,4.2-2,6.3-3s4.3-1.8,6.5-2.4c1.1-0.4,2.3-0.7,3.4-0.9
		c0.3-0.1,0.6-0.1,0.9-0.1h0.5l0.4,0.1c0.6,0.1,1.1,0.3,1.7,0.5c-0.6,0-1.2,0.1-1.8,0.1H404l-0.4,0.1c-0.3,0.1-0.5,0.2-0.8,0.3
		c-1,0.4-2.1,0.9-3.1,1.4c-2.1,1-4.2,1.9-6.3,2.8s-4.3,1.8-6.4,2.5C384.8,353.8,382.6,354.6,380.4,355.2z"></path><path class="st8" d="M391.7,304.2c2.8,5.3,5.4,10.8,7.7,16.4c2.4,5.6,4.5,11.3,6.2,17.1c0.9,3,1.4,6,1.7,9.1c0.2,3,0.5,6,0.7,9
		c0.4,6,0.8,12,1.2,18.1c0.7,12.1,1.2,24.2,1.7,36.2c0.2,6,0.4,12.1,0.5,18.1s0.3,12.1,0.4,18.1l-2.2-36.2
		c-0.7-12.1-1.5-24.1-2.2-36.2c-0.4-6-0.8-12.1-1.3-18.1l-0.7-9c-0.2-3-0.8-5.9-1.6-8.7c-1.5-5.8-3.5-11.5-5.6-17.1
		S393.9,309.8,391.7,304.2z"></path><path class="st8" d="M442,368.5c-2.9-1.4-5.8-2.9-8.7-4.4s-5.7-3-8.6-4.4c-2.9-1.4-5.8-2.7-8.8-3.8c-1.5-0.6-3-1-4.6-1.3
		c-1.5-0.4-3.2-0.2-4.6,0.5c1.3-1.1,3-1.7,4.7-1.5c1.7,0,3.3,0.3,4.9,0.7c3.2,0.9,6.3,2.1,9.2,3.5c2.9,1.4,5.8,3,8.5,4.8
		C436.9,364.4,439.5,366.4,442,368.5z"></path><polygon class="st8" points="398.7,422 423.7,422 422.1,427.2 428.5,451.3 390.2,451.3 405.5,427.2 	"></polygon><path class="st8" d="M424.9,384c-3.2,3.6-6.3,7.3-9.1,11.1c-1.4,1.9-2.6,3.9-3.5,6l-0.3,0.8c-0.1,0.2-0.2,0.5-0.2,0.8l-0.1,0.8v0.9
		c0,1.2-0.1,2.4-0.1,3.6c-0.1,4.8-0.1,9.6-0.2,14.4s-0.3,9.6-0.6,14.4c-0.5-4.8-0.8-9.6-0.9-14.4s-0.2-9.6-0.2-14.4
		c0-1.2,0.1-2.4,0.1-3.6v-0.9l0.2-1c0.1-0.3,0.1-0.7,0.3-1l0.3-0.9c1.1-2.2,2.4-4.3,4-6.2C417.7,390.4,421.1,387,424.9,384z"></path></g><g id="character-1"><path class="st9" d="M242.3,439.9L242.3,439.9l-1.5-19.4l-186.9,3.8l0.2,16.2c-0.7,0.6-0.7,1.7-0.1,2.3c0,0,0.1,0.1,0.1,0.1
		c8.1,9.7,129.5,11.3,176.5,2.2C240.3,443.1,243.6,441.4,242.3,439.9z"></path><path class="st9" d="M130,414.2c0,0-84.2,0.3-76.1,10s129.5,11.3,176.5,2.2S173.7,412.6,130,414.2z"></path><path class="st8" d="M58.4,426.6c6.9,0.5,13.8,1,20.8,1.4s13.9,0.9,20.8,1.2c13.9,0.7,27.7,1.2,41.6,1.4s27.8,0.2,41.6-0.2
		c3.5-0.1,6.9-0.3,10.4-0.4c1.7-0.1,3.5-0.1,5.2-0.3l5.2-0.4l5.2-0.4l2.6-0.2l2.6-0.3c3.4-0.4,6.9-0.7,10.4-1.1
		c-3.4,0.5-6.9,1.1-10.3,1.6l-2.6,0.4l-2.6,0.3l-5.2,0.6l-5.2,0.5c-1.7,0.1-3.5,0.3-5.2,0.4c-3.5,0.2-6.9,0.5-10.4,0.7
		c-7,0.4-13.9,0.6-20.9,0.6c-3.5,0.1-7,0.1-10.4,0.1s-6.9,0-10.4,0l-10.4-0.3c-3.5-0.1-7-0.3-10.4-0.4s-7-0.3-10.4-0.5
		s-6.9-0.4-10.4-0.7c-6.9-0.5-13.9-1.1-20.8-1.7S65.2,427.5,58.4,426.6z"></path><g id="character-1-2"><path class="st8" d="M141.6,360.5c0,2.4-18.8,39.2-18.8,39.2l-25.3-15l21.7-91.8c0,0-25.2-74.2-22.4-84.6s39.1,40.9,39.1,40.9
			l13.4,46.4L141.6,360.5z"></path><path class="st8" d="M166,377l-2.6,28.5c0,0,4.2,9.7,5.2,10s15.5,7.1,13.6,8.4S156,424,156,424s3.2-7.1,0-6.5s-2.3,7.3-3.6,7
			c-1.5-0.1-3-0.1-4.5,0c0,0,1.9-16.5,1.9-23.8s-3.3-23.8-3.3-23.8H166z"></path><path class="st8" d="M126.6,375c0,0-21.3-6.8-21.8-5.3s-5.6,28.7-6.3,31.1s-7.5,12.5-7.5,12.5l4.4,4.6c0,0,3.6-7.8,5.3-4.1
			s-2.2,6.5-2.2,6.5s6.5,4.3,8.5,4.2s15.8,0.9,14.3-1s-6.8-3.4-8-5.3s-3.4-15.8-3.4-15.8L126.6,375z"></path><path class="st10" d="M152.1,203c0,0,22.8,83.7,22.8,90.4s-7.6,97-7.6,97l-30.9,6.6l4.8-99.4l-32.4-69.4c0,0-13.7-5.6-11.8-25.2
			S152.1,203,152.1,203z"></path><g><defs><path id="SVGID_1_" d="M152.1,203c0,0,22.8,83.7,22.8,90.4s-7.6,97-7.6,97l-30.9,6.6l4.8-99.4l-32.4-69.4
					c0,0-13.7-5.6-11.8-25.2S152.1,203,152.1,203z"></path></defs><clipPath id="SVGID_2_"><use xlink:href="#SVGID_1_" style="overflow: visible;"></use></clipPath><g class="st11"><path class="st2" d="M209.8,400.7c0,0-0.1,0-0.1,0l-216.1-68c-0.3-0.1-0.4-0.4-0.3-0.6c0,0,0,0,0,0c0.1-0.3,0.3-0.4,0.6-0.3
					c0,0,0,0,0,0l216.1,68c0.3,0.1,0.4,0.4,0.3,0.6C210.2,400.5,210,400.7,209.8,400.7z"></path><path class="st2" d="M214.1,385.4H214l-216.8-64c-0.3-0.1-0.4-0.4-0.3-0.6c0.1-0.3,0.4-0.4,0.6-0.3c0,0,0,0,0,0l216.8,64
					c0.3,0.1,0.4,0.4,0.3,0.6C214.5,385.3,214.3,385.4,214.1,385.4z"></path><path class="st2" d="M218.2,371.2h-0.1L0.8,309c-0.3-0.1-0.4-0.4-0.3-0.6c0.1-0.3,0.3-0.4,0.6-0.4c0,0,0,0,0,0l217.3,62.2
					c0.3,0,0.5,0.3,0.4,0.6S218.4,371.2,218.2,371.2L218.2,371.2z"></path><path class="st2" d="M222.1,357.7h-0.1L4.1,296.8c-0.3-0.1-0.4-0.4-0.3-0.6c0.1-0.3,0.4-0.4,0.6-0.3l217.8,60.9
					c0.3,0.1,0.4,0.3,0.4,0.6C222.5,357.5,222.3,357.7,222.1,357.7z"></path><path class="st2" d="M226.2,343.1c0,0-0.1,0-0.1,0L7.2,286.6c-0.3-0.1-0.4-0.3-0.4-0.6s0.3-0.4,0.6-0.4l218.9,56.5
					c0.3,0,0.5,0.3,0.4,0.6S226.5,343.2,226.2,343.1L226.2,343.1z"></path><path class="st2" d="M229.8,330.8h-0.1L10.4,275.7c-0.3-0.1-0.4-0.3-0.4-0.6c0.1-0.3,0.3-0.4,0.6-0.4l219.3,55.1
					c0.3,0,0.5,0.3,0.4,0.6S230.1,330.9,229.8,330.8L229.8,330.8z"></path><path class="st2" d="M232,323h-0.1L12.4,268.6c-0.3-0.1-0.4-0.3-0.4-0.6c0,0,0,0,0,0c0.1-0.3,0.3-0.4,0.6-0.4L232.2,322
					c0.3,0,0.5,0.3,0.4,0.6S232.3,323,232,323L232,323z"></path><path class="st2" d="M234,316.3c0,0-0.1,0-0.1,0l-219-56.5c-0.3-0.1-0.4-0.3-0.4-0.6s0.3-0.4,0.6-0.4l218.9,56.5
					c0.3,0.1,0.4,0.3,0.4,0.6c0,0,0,0,0,0C234.4,316.1,234.2,316.2,234,316.3z"></path><path class="st2" d="M35.1,398.2H35c-0.3-0.1-0.4-0.4-0.3-0.6l52.4-183.1c0.1-0.3,0.3-0.4,0.6-0.3c0,0,0,0,0,0
					c0.3,0.1,0.4,0.3,0.3,0.6L35.6,397.8C35.6,398,35.4,398.2,35.1,398.2z"></path><path class="st2" d="M24.1,394.7H24c-0.3-0.1-0.4-0.4-0.3-0.6l54-180.1c0.1-0.3,0.4-0.4,0.6-0.4s0.4,0.4,0.4,0.6l-54,180.1
					C24.5,394.6,24.3,394.7,24.1,394.7z"></path><path class="st2" d="M11.9,391.2h-0.1c-0.3-0.1-0.4-0.4-0.3-0.6l40-139.9c0.1-0.3,0.3-0.4,0.6-0.3c0,0,0,0,0,0
					c0.3,0.1,0.4,0.4,0.3,0.6l-40,139.9C12.4,391.1,12.2,391.2,11.9,391.2z"></path><path class="st2" d="M0,387.9h-0.1c-0.3-0.1-0.4-0.3-0.4-0.6l38.8-140.4c0.1-0.3,0.3-0.4,0.6-0.4c0.3,0.1,0.4,0.3,0.4,0.6
					c0,0,0,0,0,0L0.5,387.5C0.4,387.7,0.2,387.9,0,387.9z"></path><path class="st2" d="M-10,385h-0.1c-0.3-0.1-0.4-0.3-0.4-0.6c0,0,0,0,0,0L24,242.9c0.1-0.3,0.3-0.4,0.6-0.4
					c0.3,0.1,0.4,0.3,0.4,0.6l0,0L-9.5,384.6C-9.5,384.8-9.7,385-10,385z"></path><path class="st2" d="M-20.7,381.9h-0.1c-0.3-0.1-0.4-0.3-0.4-0.6l33.1-141.9c0.1-0.3,0.3-0.4,0.6-0.4c0.3,0.1,0.4,0.3,0.4,0.6
					c0,0,0,0,0,0l-33.1,141.9C-20.3,381.7-20.5,381.9-20.7,381.9z"></path><path class="st2" d="M-27.6,379.9h-0.1c-0.3-0.1-0.4-0.3-0.4-0.6L4.3,237.2c0.1-0.3,0.3-0.5,0.6-0.4s0.5,0.3,0.4,0.6l0,0
					l-32.4,142.1C-27.2,379.7-27.4,379.9-27.6,379.9z"></path><path class="st2" d="M77.3,419.7h-0.2c-0.3-0.1-0.4-0.4-0.3-0.6l71.5-228.8c0.1-0.3,0.4-0.4,0.6-0.3c0.3,0.1,0.4,0.4,0.4,0.6
					L77.8,419.4C77.7,419.6,77.5,419.8,77.3,419.7z"></path><path class="st2" d="M66.3,416.1c0,0-0.1,0-0.1,0c-0.3-0.1-0.4-0.4-0.3-0.6L133.4,186c0.1-0.3,0.3-0.4,0.6-0.3c0,0,0,0,0,0
					c0.3,0.1,0.4,0.4,0.3,0.6L66.8,415.8C66.7,416,66.5,416.1,66.3,416.1z"></path><path class="st2" d="M54.2,412.6c0,0-0.1,0-0.1,0c-0.3-0.1-0.4-0.4-0.3-0.6l65.8-230c0.1-0.3,0.4-0.4,0.6-0.3
					c0.3,0.1,0.4,0.4,0.3,0.6l-65.8,230C54.6,412.5,54.4,412.6,54.2,412.6z"></path><path class="st2" d="M42.2,409.3h-0.1c-0.3-0.1-0.4-0.4-0.3-0.6l64.5-230.4c0.1-0.3,0.4-0.4,0.6-0.4c0.3,0.1,0.4,0.4,0.3,0.6
					L42.7,409C42.6,409.2,42.4,409.3,42.2,409.3z"></path><path class="st2" d="M32.2,406.4h-0.1c-0.3-0.1-0.4-0.3-0.4-0.6c0,0,0,0,0,0L92,174.2c0.1-0.3,0.3-0.4,0.6-0.4s0.4,0.3,0.4,0.6
					L32.7,406C32.7,406.2,32.5,406.4,32.2,406.4z"></path><path class="st2" d="M21.5,403.2h-0.1c-0.3-0.1-0.4-0.3-0.4-0.6c0,0,0,0,0,0l58.9-231.9c0.1-0.3,0.3-0.4,0.6-0.4
					c0.3,0.1,0.4,0.3,0.4,0.6c0,0,0,0,0,0L22,402.9C21.9,403.1,21.7,403.2,21.5,403.2z"></path><path class="st2" d="M14.6,401.3h-0.1c-0.3-0.1-0.4-0.3-0.4-0.6c0,0,0,0,0,0l58.1-232.2c0.1-0.3,0.3-0.4,0.6-0.4c0,0,0,0,0,0
					c0.3,0.1,0.4,0.3,0.4,0.6c0,0,0,0,0,0L15.1,400.9C15,401.1,14.8,401.3,14.6,401.3z"></path><path class="st2" d="M5.9,398.8c0,0-0.1,0-0.1,0c-0.3-0.1-0.4-0.3-0.3-0.6l60.2-231.6c0.1-0.3,0.3-0.4,0.6-0.4
					c0.3,0.1,0.4,0.3,0.4,0.6c0,0,0,0,0,0L6.4,398.4C6.3,398.6,6.1,398.8,5.9,398.8z"></path><path class="st2" d="M203.4,304.3h-0.1l-177.8-57c-0.3-0.1-0.4-0.4-0.3-0.7c0.1-0.3,0.4-0.4,0.7-0.3l177.8,57
					c0.3,0.1,0.4,0.4,0.3,0.6C203.8,304.1,203.6,304.3,203.4,304.3z"></path><path class="st2" d="M207.8,289h-0.1L29.1,236c-0.3-0.1-0.4-0.3-0.3-0.6c0,0,0,0,0,0c0.1-0.3,0.4-0.4,0.6-0.3l178.5,53
					c0.3,0,0.5,0.3,0.4,0.6C208.3,288.9,208,289.1,207.8,289L207.8,289L207.8,289z"></path><path class="st2" d="M211.8,274.8c0,0-0.1,0-0.1,0l-179-51.2c-0.3-0.1-0.4-0.4-0.4-0.6s0.4-0.4,0.6-0.4l179,51.2
					c0.3,0.1,0.4,0.4,0.3,0.6C212.3,274.6,212.1,274.8,211.8,274.8z"></path><path class="st2" d="M215.7,261.3c0,0-0.1,0-0.1,0L36.1,211.4c-0.3-0.1-0.4-0.3-0.4-0.6c0,0,0,0,0,0c0.1-0.3,0.3-0.4,0.6-0.3
					c0,0,0,0,0,0l179.5,49.9c0.3,0,0.5,0.3,0.4,0.6C216.2,261.2,216,261.4,215.7,261.3L215.7,261.3z"></path><path class="st2" d="M219.9,246.8h-0.1L39.1,201.2c-0.3-0.1-0.4-0.3-0.4-0.6c0.1-0.3,0.3-0.4,0.6-0.4L220,245.8
					c0.3,0.1,0.4,0.3,0.4,0.6c0,0,0,0,0,0C220.3,246.6,220.1,246.8,219.9,246.8z"></path><path class="st2" d="M223.4,234.4h-0.1l-181-44.2c-0.3-0.1-0.4-0.3-0.4-0.6c0.1-0.3,0.3-0.4,0.6-0.4l181.1,44.2
					c0.3,0.1,0.4,0.3,0.4,0.6C223.9,234.3,223.7,234.4,223.4,234.4z"></path><path class="st2" d="M225.7,226.6h-0.1L44.3,183.2c-0.3-0.1-0.4-0.3-0.4-0.6c0.1-0.3,0.3-0.4,0.6-0.4l181.3,43.4
					c0.3,0,0.5,0.3,0.4,0.6C226.2,226.4,225.9,226.6,225.7,226.6L225.7,226.6z"></path><path class="st2" d="M227.6,219.9h-0.1L46.8,174.3c-0.3-0.1-0.4-0.3-0.4-0.6s0.3-0.4,0.6-0.4l180.7,45.6
					c0.3,0.1,0.4,0.3,0.4,0.6c0,0,0,0,0,0C228,219.7,227.8,219.9,227.6,219.9z"></path><path class="st2" d="M164,449.3c0,0-0.1,0-0.1,0c-0.3-0.1-0.4-0.4-0.3-0.6L235,219.8c0.1-0.3,0.4-0.4,0.6-0.3
					c0.3,0.1,0.4,0.4,0.3,0.6l-71.5,228.8C164.4,449.1,164.2,449.3,164,449.3z"></path><path class="st2" d="M153,445.6h-0.1c-0.3-0.1-0.4-0.4-0.3-0.6c0,0,0,0,0,0l67.5-229.4c0.1-0.3,0.4-0.4,0.6-0.3
					c0.3,0.1,0.4,0.4,0.3,0.6l-67.5,229.4C153.5,445.5,153.2,445.7,153,445.6z"></path><path class="st2" d="M140.9,442.2h-0.1c-0.3-0.1-0.4-0.4-0.4-0.6l65.8-229.9c0.1-0.3,0.3-0.4,0.6-0.4c0,0,0,0,0,0
					c0.3,0.1,0.4,0.4,0.4,0.6l-65.8,230C141.3,442.1,141.1,442.2,140.9,442.2z"></path><path class="st2" d="M128.9,438.9h-0.1c-0.3-0.1-0.4-0.3-0.4-0.6c0,0,0,0,0,0L193,207.8c0.1-0.3,0.3-0.4,0.6-0.4c0,0,0,0,0,0
					c0.3,0.1,0.4,0.4,0.4,0.6l-64.5,230.4C129.4,438.7,129.2,438.8,128.9,438.9z"></path><path class="st2" d="M119,435.9h-0.1c-0.3-0.1-0.4-0.3-0.3-0.6l60.2-231.5c0.1-0.3,0.3-0.4,0.6-0.4s0.4,0.3,0.4,0.6l-60.3,231.5
					C119.4,435.7,119.2,435.9,119,435.9z"></path><path class="st2" d="M108.2,432.8h-0.1c-0.3-0.1-0.4-0.3-0.4-0.6l58.9-231.9c0.1-0.3,0.3-0.4,0.6-0.4c0.3,0.1,0.4,0.3,0.4,0.6
					l-58.9,231.9C108.7,432.6,108.5,432.8,108.2,432.8z"></path><path class="st2" d="M101.3,430.8h-0.1c-0.3-0.1-0.4-0.3-0.4-0.6L159,198c0.1-0.3,0.3-0.4,0.6-0.4c0,0,0,0,0,0
					c0.3,0.1,0.4,0.3,0.4,0.6c0,0,0,0,0,0l-58.2,232.2C101.8,430.6,101.6,430.8,101.3,430.8z"></path><path class="st2" d="M92.6,428.3h-0.1c-0.3-0.1-0.4-0.3-0.4-0.6c0,0,0,0,0,0l60.2-231.6c0.1-0.3,0.3-0.4,0.6-0.4c0,0,0,0,0,0
					c0.3,0.1,0.4,0.3,0.4,0.6L93.1,427.9C93.1,428.2,92.9,428.3,92.6,428.3z"></path></g></g><polygon class="st8" points="152.1,203 147.4,149.3 135.8,148.4 138.2,201 		"></polygon><path class="st8" d="M120,101.8c0,0-41.8,55.4-37.5,61.2s28.9,28.6,28.9,28.6L120,101.8z"></path><path class="st7" d="M134.2,120.7c0.8,0.8,2,0.8,2.8,0.1c0.4-0.4,0.6-1,0.6-1.5c-0.4-8-2.4-31.8,2.5-32.2
			c9.1-0.8,14.4-12.2,14.4-12.2s7.7-2.3,7.9-4s-5.8-5.4-9.6-9.7s-6.2-10-11.1-9.1s0.5,7.5-3,13c-2.2,3.3-6.5,3-6.5,3
			s-0.7-5.7-6.7-1.9s3,10.6,2.4,12c-1.4,3-4.3,24.3-5.6,28.2C122.1,107,130.4,116.7,134.2,120.7z"></path><path class="st9" d="M141.1,65.6c0,0,8.2-1.8,10,4.2C151.1,69.7,142.6,71.4,141.1,65.6z"></path><path class="st8" d="M140.7,65.5c1-0.4,2-0.5,3.1-0.6c1.1,0,2.1,0.1,3.2,0.3c1.1,0.3,2,0.8,2.9,1.5c0.8,0.7,1.3,1.7,1.4,2.8
			c-0.4-0.9-1.1-1.6-1.9-2.2c-0.8-0.5-1.7-0.9-2.6-1.2C144.7,65.7,142.7,65.5,140.7,65.5z"></path><path class="st8" d="M148.3,66.3c0,0-2.2,0.3-1.6,3.6c0,0,5.1,0.6,4.5-0.5C151.2,69.4,150,66.4,148.3,66.3z"></path><path class="st8" d="M140.5,68.7c-0.1-0.2-0.1-0.4,0-0.6c0.1-0.2,0.2-0.3,0.3-0.4c0.3-0.2,0.8-0.1,1,0.2c-0.1,0.2-0.1,0.3-0.2,0.5
			c-0.1,0.1-0.1,0.2-0.2,0.2c-0.1,0-0.2,0.1-0.3,0.1C140.9,68.6,140.8,68.6,140.5,68.7z"></path><path class="st8" d="M142.4,69.9c-0.2-0.3-0.1-0.8,0.2-1c0.1-0.1,0.3-0.2,0.5-0.2c0.2,0,0.4,0.1,0.6,0.2c-0.2,0.4-0.2,0.6-0.4,0.8
			C143,69.8,142.7,69.9,142.4,69.9z"></path><path class="st12" d="M143.4,78.6c0.7-0.8,1.9-0.9,2.8-0.3c1.4,1.1-1.5,4.7-3.9,3.8S143.4,78.6,143.4,78.6z"></path><path class="st8" d="M143.3,76.4c0.1,0.6,0.2,1.2,0.4,1.8c0.2,0.5,0.5,1,0.8,1.4c0.4,0.4,0.8,0.8,1.3,1.1c0.2,0.2,0.5,0.3,0.8,0.5
			c0.3,0.1,0.6,0.3,0.8,0.5c-0.3,0-0.7,0-1,0c-0.3-0.1-0.7-0.1-1-0.2c-0.7-0.2-1.2-0.6-1.7-1.2C142.8,79.1,142.6,77.6,143.3,76.4z"></path><path class="st8" d="M142,62.2c0.4-1,1.4-1.7,2.5-1.8c0.5-0.1,1.1,0,1.6,0.2c0.5,0.2,0.9,0.5,1.3,0.9c-0.5,0-1-0.1-1.5-0.1
			c-0.4,0-0.9,0-1.3,0c-0.4,0-0.9,0.1-1.3,0.3C142.9,61.8,142.4,62,142,62.2z"></path><path class="st5" d="M145.8,51.8c0,0-5.1,16.6-16.5,21.5c0,0,9.3,6.6,6.8,12.2s7.2,8.6,6.2,13.1l-50.4-11c0,0,6.3-13.7,16.2-12.5
			s-1.4-11.6,10.7-20.5S145.8,51.8,145.8,51.8z"></path><path class="st5" d="M88.4,86.7c1.1-2.5,2.7-4.7,4.6-6.6c1.9-2,4.3-3.6,6.8-4.6c2.6-1,5.5-1.3,8.3-0.6c2.7,0.7,5.1,2,7.1,3.9
			c-2.3-1.2-4.8-2-7.4-2.4c-2.5-0.3-5,0.1-7.3,1c-2.4,1-4.5,2.3-6.5,3.9C92,82.9,90.2,84.8,88.4,86.7z"></path><path class="st8" d="M145.8,51.8c-0.6,3.3-1.7,6.4-3.2,9.3c-1.5,3-3.5,5.8-5.8,8.1c-1.2,1.2-2.6,2.2-4.1,3.1
			c-1.5,0.8-3.1,1.4-4.8,1.8c-3.3,0.6-6.8,0.1-9.8-1.3c3.1,0.7,6.4,0.6,9.4-0.2c3-0.9,5.7-2.6,7.9-4.8c2.3-2.2,4.2-4.7,5.9-7.4
			C142.9,57.6,144.4,54.7,145.8,51.8z"></path><polygon class="st8" points="137,97.4 124.2,97 124.7,94.7 		"></polygon><path class="st7" d="M215.9,134.3c0,0,9.5-8.9,15.2-12.1s17-6,17.9-5.3s-4.5,5.1-9.7,6.6c0,0,1.6,11.4-1.4,12.1c0,0-4.8,4-6,3.1
			s0.4-4.8-1.5-3.6c-1.6,0.9-3.2,1.5-5,1.9l-4.9,12.4L215.9,134.3z"></path><path class="st8" d="M235,129.6c1.2,1,2.3,2.2,3.1,3.6c0.2,0.3,0.4,0.7,0.6,1.1c0.1,0.2,0.2,0.5,0.2,0.7c0.1,0.2,0.1,0.4,0,0.7
			c0,0.1-0.1,0.2-0.1,0.3c-0.1,0.1-0.2,0.2-0.3,0.3l-0.1,0.1c-0.6,0.5-1.3,1-1.9,1.4c-0.7,0.4-1.4,0.8-2.1,1.2
			c-0.4,0.2-0.8,0.3-1.2,0.5c-0.3,0.1-0.5,0.1-0.8,0.2h-0.3c-0.2,0-0.3-0.1-0.4-0.1c-0.2-0.1-0.3-0.3-0.4-0.5c0-0.1-0.1-0.2-0.1-0.3
			c0-0.2,0-0.3,0-0.5l0.1-0.4c0.1-0.2,0.2-0.4,0.3-0.6c0.2-0.3,0.4-0.7,0.6-1c0.5-0.6,1-1.3,1.6-1.8c-0.2,0.8-0.5,1.5-0.7,2.2
			c-0.1,0.4-0.2,0.7-0.3,1.1c0,0.2-0.1,0.3-0.1,0.5v0.2c0,0,0,0.1,0,0.1c0,0,0,0,0-0.1c0-0.1-0.1-0.2-0.2-0.3
			c-0.1-0.1-0.1-0.1-0.2-0.1s0,0,0,0s0.2-0.1,0.3-0.1c0.3-0.1,0.6-0.3,0.9-0.5l1.9-1.2l1.9-1.2l0.1-0.1c-0.1,0.1-0.1,0.1-0.2,0.2
			c0,0,0,0.1-0.1,0.1c0,0.1,0,0.1,0,0.1c0-0.1,0-0.3-0.1-0.4c-0.1-0.3-0.2-0.6-0.4-1C236.1,132.5,235.5,131.1,235,129.6z"></path><path class="st8" d="M237.2,125.4c0.7,0.2,1.3,0.5,1.8,1c0.5,0.5,0.9,1,1.2,1.6c0.3,0.7,0.5,1.4,0.4,2.1c0,0.8-0.3,1.5-0.9,2
			c-0.2-0.6-0.4-1.2-0.6-1.7c-0.2-0.5-0.5-1-0.7-1.5C237.8,127.7,237.4,126.6,237.2,125.4z"></path><path class="st9" d="M216.9,131.8l10.2,30.2c0,0-48.5,25.8-58.1,25s-41.9-45.6-46.2-66.8s11.8-23.2,20.9-7s30.9,39.4,30.9,39.4
			L216.9,131.8z"></path><path class="st9" d="M151.3,270.7c-3.3,0-56.6-17.4-60.3-21.5s19.7-150.9,31.2-148.4s13.7,3.6,13.7,3.6L151.3,270.7z"></path><path class="st8" d="M127.4,133.1l9,14.9c3,4.9,6.1,9.9,9.3,14.7c1.6,2.4,3.2,4.8,4.9,7.2c1.6,2.4,3.4,4.7,5.2,6.9
			c1.8,2.2,3.7,4.4,5.9,6.3c1,1,2.2,1.9,3.4,2.6c1.2,0.8,2.6,1.2,4,1.3c-0.7,0.1-1.5,0-2.2-0.1c-0.7-0.2-1.4-0.4-2.1-0.7
			c-1.3-0.6-2.6-1.4-3.8-2.3c-2.3-1.8-4.5-3.8-6.4-6.1c-3.9-4.4-7.4-9.1-10.6-14c-3.2-4.9-6.2-9.9-8.9-15
			C132.3,143.6,129.7,138.4,127.4,133.1z"></path><path class="st8" d="M138.2,225c-1.8,0.2-3.7,0.3-5.5,0.2c-1.8-0.1-3.6-0.2-5.4-0.4s-3.6-0.5-5.4-0.8c-1.8-0.3-3.6-0.8-5.3-1.4
			c1.8-0.2,3.7-0.2,5.5-0.2c1.8,0.1,3.6,0.2,5.4,0.4C131.1,223.3,134.7,224,138.2,225z"></path><polygon class="st9" points="122.1,100.8 122.1,97.4 136.9,101.8 141.1,109.2 		"></polygon><path class="st10" d="M237.3,111.9c-0.7-0.2-1.3-0.6-1.9-1c-0.5-0.4-1-0.9-1.5-1.4c-0.4-0.5-0.8-1.1-1.1-1.7
			c-0.3-0.6-0.6-1.3-0.7-2.1c0.7,0.2,1.3,0.6,1.9,1.1c1.1,0.8,1.9,1.9,2.6,3.1C237,110.5,237.2,111.2,237.3,111.9z"></path><path class="st10" d="M245.9,107.9c-0.5-0.5-0.9-1.1-1.2-1.8c-0.3-0.6-0.5-1.3-0.6-1.9c-0.1-0.7-0.2-1.3-0.2-2
			c0-0.7,0.1-1.4,0.4-2.1c0.5,0.5,0.9,1.1,1.2,1.8c0.5,1.2,0.8,2.6,0.8,3.9C246.3,106.5,246.1,107.2,245.9,107.9z"></path><path class="st10" d="M254.6,106.3c-0.2-0.6-0.3-1.3-0.2-2c0-0.6,0.2-1.3,0.3-1.9c0.2-0.6,0.4-1.2,0.8-1.8
			c0.3-0.6,0.8-1.1,1.3-1.6c0.2,0.6,0.3,1.3,0.2,2c0,0.6-0.1,1.3-0.3,1.9c-0.2,0.6-0.4,1.2-0.7,1.8
			C255.6,105.3,255.1,105.9,254.6,106.3z"></path><path class="st1" d="M153.9,77h-0.1c-0.9-0.1-2.5-2.5-1.9-16.5l0,0c0.3-2.6,0.6-3.1,1.1-3.3c0.3-0.1,0.6,0,0.7,0.3
			c1.2,1.5,2.3,16.8,1,19.1C154.5,76.9,154.2,77,153.9,77z M152.8,60.5c-0.3,7.6,0.2,14.4,1,15.4c0.8-1.8,0.3-14.2-0.7-17.3
			C153,59.2,152.9,59.8,152.8,60.5L152.8,60.5z"></path><rect class="st1" x="140.5" y="63.5" transform="matrix(0.9985 -5.477591e-02 5.477591e-02 0.9985 -3.2885 8.0871)" width="10.8" height="1"></rect></g></g></svg>