<svg transform="scale(1)" version="1.1" id="Layer_1" xmlns="http://www.w3.org/2000/svg" xmlns:xlink="http://www.w3.org/1999/xlink" x="0px" y="0px" viewBox="0 0 500 500" xml:space="preserve" class="show_show__wrapper__graphic__5Waiy "><title>React</title><style type="text/css">
	.st0{fill:#87CCDB;}
	.st1{fill:#FFFFFF;}
	.st2{fill:#469F78;}
	.st3{fill:#EA8383;}
	.st4{fill:#F3CB5C;}
	.st5{fill:#000001;}
	.st6{clip-path:url(#SVGID_2_);}
	.st7{fill:#F2EBEB;}
</style><g id="speech-bubble-1"><path class="st0" d="M167.2,105.2l9.1,12.5l7.7-14.7c0,0,19.5,0.3,19.5-2.1s1.3-40.8,1.3-40.8S128,55.6,127.4,58
		s-6.7,45.9,2.7,45.9S167.2,105.2,167.2,105.2z"></path><path class="st1" d="M140.1,69.7c2-0.4,4.1-0.7,6.2-0.8c2-0.2,4.1-0.2,6.2-0.2s4.1,0.1,6.2,0.2c2.1,0.1,4.1,0.4,6.2,0.8
		c-2,0.4-4.1,0.6-6.2,0.8c-2.1,0.1-4.1,0.2-6.2,0.2s-4.1-0.1-6.2-0.2C144.2,70.3,142.1,70,140.1,69.7z"></path><path class="st1" d="M172.1,69.7c0.9-0.4,1.9-0.6,2.9-0.8c1-0.1,1.9-0.2,2.9-0.2c1,0,1.9,0.1,2.9,0.2c1,0.1,2,0.4,2.9,0.8
		c-0.9,0.4-1.9,0.6-2.9,0.8c-1,0.1-1.9,0.2-2.9,0.2c-1,0-1.9-0.1-2.9-0.2C174,70.3,173,70,172.1,69.7z"></path><path class="st1" d="M140.1,77.2c2.1-0.4,4.2-0.7,6.4-0.8c2.1-0.2,4.3-0.2,6.4-0.2s4.2,0.1,6.4,0.2c2.1,0.1,4.3,0.4,6.4,0.8
		c-2.1,0.4-4.2,0.6-6.4,0.8c-2.1,0.2-4.2,0.2-6.4,0.2s-4.3-0.1-6.4-0.2C144.3,77.8,142.2,77.6,140.1,77.2z"></path><path class="st1" d="M170.2,77.2c1.2-0.4,2.4-0.7,3.6-0.8c1.2-0.1,2.4-0.2,3.6-0.2c1.2,0,2.4,0.1,3.6,0.2c1.2,0.1,2.5,0.4,3.6,0.8
		c-1.2,0.4-2.4,0.7-3.6,0.8c-2.4,0.3-4.9,0.3-7.3,0C172.6,77.8,171.4,77.6,170.2,77.2z"></path><path class="st1" d="M141,86c0.6-0.4,1.3-0.6,2-0.8c1.3-0.3,2.7-0.3,4,0c0.7,0.1,1.4,0.4,2,0.8c-0.6,0.4-1.3,0.6-2,0.8
		c-1.3,0.3-2.7,0.3-4,0C142.3,86.6,141.6,86.4,141,86z"></path><path class="st1" d="M154.7,86c2.3-0.4,4.7-0.7,7.1-0.8c2.4-0.2,4.7-0.2,7.1-0.2s4.7,0.1,7.1,0.2c2.4,0.1,4.8,0.4,7.1,0.8
		c-2.3,0.4-4.7,0.6-7.1,0.8c-2.4,0.2-4.7,0.2-7.1,0.2s-4.7-0.1-7.1-0.2C159.4,86.7,157,86.4,154.7,86z"></path><path class="st1" d="M147.6,92.5c1.4-0.4,2.8-0.6,4.3-0.8c1.4-0.1,2.9-0.2,4.3-0.2s2.9,0.1,4.3,0.2c1.5,0.1,2.9,0.4,4.3,0.8
		c-1.4,0.4-2.8,0.7-4.3,0.8c-1.4,0.2-2.9,0.2-4.3,0.2c-1.4,0-2.9-0.1-4.3-0.2C150.4,93.2,149,92.9,147.6,92.5z"></path></g><g id="speech-bubble-2"><path class="st0" d="M335.6,395.6l-9.5-12.2l-7.3,14.9c0,0-19.5,0.3-19.4,2.7s0,40.9,0,40.9s76.9,2.1,77.4-0.3s5.2-46.1-4.1-45.8
		S335.6,395.6,335.6,395.6z"></path><path class="st1" d="M331.8,431.3c-0.9,0.4-1.9,0.7-2.9,0.9c-1.9,0.3-3.9,0.4-5.8,0.2c-1-0.1-2-0.3-2.9-0.7
		c0.9-0.4,1.9-0.7,2.9-0.9c1.9-0.4,3.9-0.4,5.8-0.2C329.9,430.7,330.9,431,331.8,431.3z"></path><path class="st1" d="M363.6,422.8c-2.1,0.5-4.2,0.8-6.4,1c-2.1,0.2-4.2,0.3-6.4,0.4s-4.3,0.1-6.4,0c-2.1-0.1-4.3-0.3-6.4-0.6
		c2.1-0.5,4.2-0.8,6.4-1c2.1-0.2,4.2-0.3,6.4-0.4s4.3-0.1,6.4,0C359.3,422.2,361.4,422.4,363.6,422.8z"></path><path class="st1" d="M333.4,423.7c-1.2,0.4-2.4,0.7-3.6,0.9c-2.4,0.4-4.9,0.4-7.3,0.2c-1.2-0.1-2.5-0.3-3.7-0.7
		c1.2-0.4,2.4-0.7,3.6-0.9c1.2-0.2,2.4-0.3,3.6-0.3c1.2,0,2.4,0,3.7,0.1C331,423.1,332.2,423.4,333.4,423.7z"></path><path class="st1" d="M348.7,414.4c-2.3,0.5-4.6,0.8-7,1c-2.4,0.2-4.7,0.4-7.1,0.4s-4.7,0.1-7.1,0c-2.4-0.1-4.7-0.2-7.1-0.6
		c2.3-0.5,4.6-0.8,7-1c2.4-0.2,4.7-0.4,7.1-0.5s4.7-0.1,7.1,0C344,413.9,346.3,414.1,348.7,414.4z"></path></g><g id="speech-bubble-3"><path class="st2" d="M55.3,348.5c1-0.3,2.1-0.6,3.2-0.7c2.1-0.2,4.2-0.1,6.3,0.2c1.1,0.2,2.1,0.5,3.1,0.9c-1,0.3-2.1,0.6-3.2,0.7
		c-2.1,0.2-4.2,0.1-6.3-0.2C57.3,349.2,56.3,348.9,55.3,348.5z"></path><path class="st2" d="M55.7,330.5c1.4,0.7,2.8,1.5,4.1,2.4c1.3,0.9,2.5,1.8,3.7,2.8c1.2,1,2.3,2,3.4,3.1c1.1,1.1,2.2,2.3,3.1,3.6
		c-1.4-0.7-2.8-1.5-4.1-2.4c-1.3-0.9-2.5-1.8-3.7-2.8c-1.2-1-2.3-2-3.4-3.1C57.7,332.9,56.6,331.7,55.7,330.5z"></path><path class="st2" d="M75,335.4c-0.7-0.4-1.3-0.8-1.9-1.4c-0.5-0.5-1-1.1-1.4-1.7c-0.4-0.6-0.7-1.3-1-1.9c-0.3-0.7-0.5-1.5-0.5-2.2
		c0.7,0.4,1.3,0.8,1.8,1.4c0.5,0.5,1,1.1,1.4,1.7c0.4,0.6,0.7,1.3,1,1.9C74.7,333.9,74.9,334.6,75,335.4z"></path><path class="st3" d="M104.1,379.1l6.7,9.3l5.7-10.9c0,0,14.5,0.2,14.5-1.5s1-30.2,1-30.2s-56.8-3.4-57.2-1.6s-4.9,34,2,34
		S104.1,379.1,104.1,379.1z"></path></g><g id="light"><path class="st4" d="M366.1,239.5c15.6-58.1-18.9-117.9-77-133.5s-117.9,18.9-133.5,77c-9.4,35.1-0.7,72.7,23.3,100l-0.5,79.5
		l70.9,18.9l35.4-63.7C324.3,308.9,355.7,278.7,366.1,239.5z"></path><path class="st2" d="M177,355.7l77.6,20.7l0,0l-1.7,6.3c-5.7,21.4-27.7,34.1-49.1,28.4l0,0l0,0c-21.4-5.7-34.1-27.7-28.4-49.1l0,0
		L177,355.7L177,355.7z"></path><path class="st2" d="M169.6,383.3l77.6,20.7l0,0l0,0c-5.7,21.4-27.7,34.1-49.1,28.4l0,0l0,0C176.6,426.7,163.8,404.7,169.6,383.3
		L169.6,383.3L169.6,383.3L169.6,383.3z"></path><path class="st3" d="M368.6,156.8c2.6-0.3,5.3-0.5,7.9-0.6c2.6-0.1,5.3-0.1,7.9,0s5.3,0.2,7.9,0.4c2.6,0.2,5.3,0.5,7.9,1
		c-2.6,0.3-5.3,0.5-7.9,0.6c-2.6,0.1-5.3,0.1-7.9,0s-5.3-0.2-7.9-0.4C373.9,157.6,371.2,157.3,368.6,156.8z"></path><path class="st3" d="M368.9,143.2c1.4-1.3,2.9-2.5,4.5-3.6c1.6-1.1,3.2-2.2,4.8-3.2c1.6-1,3.3-1.9,5-2.8c1.7-0.9,3.5-1.7,5.3-2.3
		c-1.4,1.3-2.9,2.5-4.5,3.6c-1.6,1.1-3.1,2.2-4.8,3.2s-3.3,1.9-5,2.8C372.5,141.8,370.8,142.6,368.9,143.2z"></path><path class="st3" d="M266.6,156.9c0,0-0.7-10.4-15.1-10.2s-18.9,11.3-18.9,11.3c-7.7,1.3-14.6,5.6-19.1,12
		c-7.4,10.6-3.5,25.4-3.5,25.4s-15.8,14.5-13.5,27.3s8.8,14.8,8.8,14.8s-9.2,15.8,1.6,31.5s34.9,3.3,34.9,3.3s3.4,15,18.7,17
		s28.4-10.4,31.6-31c0,0,14.7-1.2,17.8-18.9s-2.1-23.3-2.1-23.3s8.8-17.8,5.6-30.1c-1.7-7.2-7-13-13.9-15.5c0,0-0.7-12.7-11.2-17
		S266.6,156.9,266.6,156.9z"></path><path class="st1" d="M256.9,161.7c-1.3-0.4-2.7-0.8-4.1-1c-0.7-0.1-1.3-0.1-2,0c-0.3,0.1-0.4,0.2-0.4,0.4c0,0.3,0.1,0.5,0.2,0.8
		c1.2,2.4,3,4.7,4.1,7.5c0.1,0.4,0.2,0.8,0.3,1.2c0.1,0.5,0,1.1-0.2,1.5c-0.2,0.3-0.4,0.5-0.6,0.7c-0.2,0.1-0.5,0.2-0.8,0.3
		c-0.4,0.1-0.9,0.1-1.3,0c-0.8-0.1-1.5-0.3-2.2-0.5c-0.7-0.2-1.3-0.4-2-0.5c-2.7-0.7-5.4-1-8.1-1c-1.3,0-2.6,0.2-3.9,0.6
		c-0.5,0.2-1,0.4-1.5,0.8c-0.3,0.3-0.5,0.8-0.5,1.2c0,0.6,0.1,1.1,0.4,1.6c0.3,0.6,0.6,1.2,1,1.7c0.4,0.6,0.8,1.1,1.2,1.7
		s0.9,1.1,1.3,1.6c1.9,2.1,3.9,4,6.1,5.7c2.1,1.8,4.4,3.5,6.8,5.1c-5.1-2.5-9.9-5.8-14-9.8c-0.5-0.5-1-1.1-1.5-1.6s-0.9-1.1-1.3-1.8
		c-1-1.2-1.6-2.8-1.8-4.4c0-1,0.4-1.9,1.1-2.6c0.6-0.6,1.4-1,2.2-1.3c1.5-0.5,3-0.7,4.5-0.7c2.9,0,5.8,0.4,8.6,1.1
		c0.7,0.2,1.4,0.4,2.1,0.6c0.6,0.2,1.2,0.4,1.9,0.5c0.6,0.1,1.1,0,1.1-0.1c0.1-0.2,0.1-0.4,0.1-0.5c0-0.3-0.1-0.6-0.2-0.9
		c-0.5-1.3-1-2.6-1.7-3.8c-0.6-1.3-1.3-2.5-1.9-3.9c-0.2-0.4-0.2-0.9-0.1-1.3c0.1-0.3,0.2-0.5,0.4-0.6c0.2-0.1,0.4-0.2,0.6-0.3
		c0.8-0.1,1.5,0,2.2,0.2C254.3,160.5,255.6,161,256.9,161.7z"></path><path class="st1" d="M245.3,199.3c-4.2,0.7-8.5,1.3-12.7,2.2c-2.1,0.4-4.2,0.9-6.2,1.4c-2,0.5-4,1.1-5.9,2
		c-0.4,0.2-0.8,0.5-1.1,0.8c-0.1,0.1-0.2,0.2-0.2,0.3c0,0,0,0.1,0.1,0.2c0.6,0.7,1.3,1.4,2.1,1.9c1.8,1.1,3.7,2.1,5.6,2.9
		c1.9,0.9,3.9,1.7,5.9,2.6c0.5,0.2,1,0.5,1.5,0.8c0.3,0.2,0.5,0.3,0.8,0.5c0.2,0.1,0.3,0.3,0.4,0.4c0.1,0.1,0.2,0.2,0.2,0.4
		c0,0.1,0.1,0.2,0.1,0.3c0,0.1,0,0.3,0,0.4c0,0.1-0.1,0.3-0.2,0.4c-0.1,0.1-0.1,0.2-0.2,0.3c-0.1,0.1-0.2,0.2-0.4,0.3
		c-0.2,0.1-0.4,0.2-0.6,0.2c-0.3,0.1-0.6,0.1-0.9,0.2c-0.6,0.1-1.1,0.1-1.7,0.2c-4.4,0.2-8.6,0.1-12.8,0.5c-2.1,0.1-4.1,0.6-6.1,1.2
		c-0.9,0.3-1.6,0.8-2.2,1.5c-0.5,0.7-0.5,1.6-0.2,2.4c0.8,1.9,2,3.5,3.6,4.8c1.6,1.3,3.4,2.4,5.3,3.3c3.9,1.8,8,3.1,12.2,3.9
		c-2.1-0.2-4.3-0.6-6.4-1.1c-2.1-0.5-4.2-1.1-6.2-1.9c-2-0.8-4-1.9-5.8-3.2c-1.8-1.4-3.3-3.2-4.3-5.2c-0.1-0.3-0.2-0.6-0.3-0.9
		c-0.1-0.3-0.1-0.7-0.1-1c0-0.3,0.1-0.7,0.1-1c0.1-0.3,0.3-0.6,0.4-0.9c0.7-1,1.8-1.8,2.9-2.2c2.1-0.8,4.3-1.3,6.5-1.5
		c4.3-0.5,8.7-0.4,12.9-0.7c0.5,0,1-0.1,1.5-0.1c0.2,0,0.5-0.1,0.7-0.1l0.2-0.1c-0.1,0.1-0.2,0.2-0.2,0.4c0,0.1,0,0.3,0,0.4v0.1
		l-0.1-0.1c-0.2-0.1-0.4-0.3-0.6-0.4c-0.4-0.2-0.9-0.5-1.4-0.7c-1.9-0.9-3.9-1.7-5.9-2.6c-2-0.9-3.9-1.9-5.8-3.1
		c-1-0.6-1.9-1.5-2.6-2.4c-0.3-0.4-0.3-0.9-0.2-1.4c0.1-0.4,0.3-0.8,0.6-1.1c0.4-0.4,1-0.8,1.5-1.1c2-0.9,4.2-1.5,6.3-1.9
		c2.1-0.4,4.2-0.8,6.4-1.1C236.7,200,241,199.5,245.3,199.3z"></path><path class="st1" d="M227.7,250.7c-1.5,0.8-3.1,1.5-4.5,2.2c-0.7,0.4-1.5,0.7-2.1,1.2c-0.6,0.4-1.2,0.8-1.6,1.4
		c-0.2,0.2-0.3,0.4-0.3,0.6c0,0.1,0,0.2,0,0.4s0.1,0.3,0.1,0.4c0.3,0.6,0.7,1.2,1.3,1.6c1.3,1.1,2.6,2,4.1,2.8
		c-1.8-0.1-3.5-0.7-5-1.6c-0.9-0.5-1.6-1.2-2.1-2.1c-0.1-0.3-0.2-0.5-0.3-0.8c0-0.3-0.1-0.6-0.1-0.9c0.1-0.6,0.3-1.2,0.7-1.7
		c0.6-0.7,1.4-1.4,2.3-1.8c0.8-0.4,1.6-0.8,2.5-1C224.2,251,225.9,250.7,227.7,250.7z"></path><path class="st1" d="M267.6,171c-1.1,6.9-2.4,13.7-3.8,20.6c-1.4,6.8-2.9,13.6-4.4,20.4s-3.2,13.6-5.1,20.3
		c-2.1,6.6-3.9,13.3-5.7,20.1c1-6.9,2.4-13.7,4.2-20.5l4.6-20.3C260.6,198,263.8,184.4,267.6,171z"></path><path class="st1" d="M279.2,164.2c1.3,0,2.6,0.2,3.9,0.5c0.7,0.1,1.3,0.5,1.8,1c0.3,0.4,0.4,0.9,0.2,1.3c-0.1,0.4-0.4,0.7-0.6,0.9
		c-1.9,1.8-4.1,3.3-5.7,5.1c-0.4,0.4-0.6,0.8-0.8,1.3c0,0.2,0,0.2,0,0.2c0.1,0.1,0.2,0.2,0.4,0.3c0.5,0.2,1,0.3,1.6,0.4
		c0.6,0.1,1.3,0.2,2,0.4c2.6,0.6,5.1,1.6,7.4,2.9c1.2,0.7,2.3,1.6,3.2,2.7c0.5,0.6,0.8,1.3,1,2.1c0.2,0.8,0.1,1.7-0.2,2.5
		c-0.3,0.7-0.8,1.3-1.4,1.8c-0.5,0.5-1.1,0.9-1.7,1.2c-1.1,0.7-2.3,1.3-3.6,1.8c-2.4,0.9-5,1.6-7.6,2c-2.6,0.4-5.1,0.6-7.7,0.6
		c5-0.7,10-2.1,14.7-4.1c1.1-0.5,2.2-1.1,3.2-1.8c0.5-0.3,1-0.7,1.4-1.1c0.4-0.3,0.7-0.8,0.9-1.3c0.3-0.9,0.1-1.9-0.6-2.6
		c-0.8-0.9-1.7-1.6-2.7-2.2c-2.1-1.3-4.4-2.2-6.8-2.8c-0.6-0.2-1.2-0.3-1.8-0.4c-0.7-0.1-1.4-0.3-2.1-0.6c-0.4-0.2-0.8-0.5-1.1-0.9
		c-0.3-0.5-0.4-1.1-0.2-1.6c0.3-0.7,0.7-1.4,1.3-1.9c2-1.9,4.2-3.1,6.2-4.7c0.2-0.2,0.4-0.4,0.5-0.6c0.1-0.2,0.1-0.4,0-0.5
		c-0.4-0.4-0.9-0.8-1.4-0.9C281.7,164.8,280.4,164.4,279.2,164.2z"></path><path class="st1" d="M271.9,202.9c3.2,2.1,6.3,4.4,9.4,6.8c1.5,1.2,3,2.5,4.4,3.8c1.5,1.3,2.8,2.8,4,4.4c0.3,0.5,0.5,1,0.7,1.5
		c0,0.2,0.1,0.3,0.1,0.5c0,0.2,0,0.4,0,0.5c0,0.4-0.2,0.8-0.4,1.1c-0.1,0.1-0.3,0.3-0.5,0.4l-0.4,0.2c-0.3,0.1-0.5,0.2-0.8,0.3
		c-0.5,0.2-1,0.3-1.5,0.4c-2,0.3-4,0.4-6,0.3c-1.9-0.1-3.9-0.2-5.8-0.2c-0.4,0-0.9,0-1.3,0c-0.2,0-0.4,0-0.5,0.1h-0.1
		c0.1-0.1,0.2-0.2,0.3-0.4c0-0.1,0-0.2,0-0.2s0,0,0-0.1s0,0.1,0.1,0.1c0.1,0.1,0.3,0.3,0.4,0.4c0.3,0.3,0.7,0.5,1.1,0.8
		c3.1,2.1,6.6,4,9.7,6.4c1.6,1.2,3.1,2.6,4.3,4.2c0.7,0.9,1.1,2,1.2,3.1c0.1,1.2-0.3,2.4-1.2,3.2c-1.5,1.5-3.3,2.5-5.4,3
		c-1.9,0.4-3.9,0.6-5.9,0.4c-1.9-0.2-3.9-0.5-5.8-1c-1.9-0.5-3.7-1.1-5.5-1.9c3.6,1.2,7.4,1.9,11.3,2c1.9,0,3.7-0.2,5.5-0.7
		c1.7-0.5,3.3-1.4,4.5-2.7c0.5-0.6,0.8-1.3,0.7-2.1c-0.1-0.8-0.5-1.6-1-2.2c-1.1-1.4-2.5-2.7-4-3.7c-3-2.3-6.4-4.1-9.7-6.2
		c-0.4-0.3-0.8-0.6-1.2-0.9c-0.2-0.2-0.4-0.4-0.6-0.6c-0.1-0.1-0.2-0.3-0.3-0.5c-0.1-0.1-0.1-0.2-0.2-0.4c0-0.2,0-0.4,0-0.6
		c0.1-0.4,0.3-0.7,0.7-0.9c0.2-0.1,0.4-0.2,0.6-0.2c0.3-0.1,0.6-0.1,0.9-0.1c0.5,0,1,0,1.5,0c2,0.1,3.9,0.2,5.8,0.3
		c1.9,0.1,3.7,0.1,5.6-0.1c0.4-0.1,0.9-0.2,1.3-0.3c0.2-0.1,0.4-0.1,0.6-0.2l0.2-0.1c0,0,0.1-0.1,0.1-0.1c0.1-0.1,0.1-0.2,0-0.6
		c-0.1-0.4-0.3-0.8-0.5-1.1c-1-1.6-2.2-3-3.5-4.3c-1.3-1.4-2.7-2.7-4.1-4C277.8,207.8,274.8,205.3,271.9,202.9z"></path><path class="st1" d="M263.2,256.5c1.4,0.8,2.6,1.8,3.7,3c1.2,1.2,2,2.8,2.4,4.4c0,0.3,0,0.5,0,0.8c0,0.3,0,0.5-0.1,0.8
		c0,0.1-0.1,0.3-0.1,0.4l-0.2,0.3c-0.1,0.2-0.3,0.4-0.5,0.6c-0.7,0.7-1.6,1.1-2.5,1.2c-1.6,0.2-3.3,0-4.8-0.7c1.5-0.1,3-0.4,4.4-0.8
		c0.6-0.2,1.1-0.5,1.5-1c0.3-0.4,0.4-0.9,0.3-1.4c-0.4-1.4-0.9-2.6-1.7-3.8C264.9,259.2,264,257.9,263.2,256.5z"></path><path class="st5" d="M179.7,139.1c-5.5-2.5-11.1-4.8-16.7-7s-11.3-4.2-17-6.1s-11.5-3.6-17.4-5c-5.8-1.4-11.8-2.4-17.8-3
		c-5.9-0.5-12-0.5-17.7,1.1c-1.4,0.4-2.7,1-4,1.7c-0.6,0.3-1.2,0.7-1.8,1.1c-0.6,0.4-1.1,0.9-1.6,1.4c-2,2-3.4,4.6-4,7.4
		c-0.6,2.9-0.7,5.8-0.3,8.7c0.3,2.9,1,5.8,1.9,8.6c1.9,5.7,4.4,11.1,7.3,16.3c2.9,5.2,6.2,10.3,9.6,15.2s7,9.8,10.7,14.5
		c7.4,9.5,15.4,18.5,23.6,27.4c16.4,17.6,33.8,34.4,52,50.1c18.1,15.9,37,30.9,56.6,44.9c9.8,7,19.9,13.6,30.2,19.8
		c5.2,3.1,10.4,6.1,15.7,8.9c5.3,2.9,10.7,5.5,16.1,8s11.1,4.6,16.8,6.5c5.7,2,11.5,3.5,17.3,4.6c2.9,0.5,5.9,0.8,8.9,0.9
		c2.9,0.1,5.9-0.3,8.7-1.1l1-0.3c0.3-0.1,0.6-0.3,1-0.4c0.7-0.3,1.3-0.6,1.9-1c1.2-0.8,2.2-1.7,3.1-2.9c0.9-1.1,1.5-2.4,2-3.8
		c0.5-1.4,0.8-2.8,1-4.2c0.7-5.9-0.5-11.9-2.1-17.6c-1.7-5.8-3.8-11.4-6.2-16.9c-2.5-5.5-5.2-10.9-8.1-16.2s-5.9-10.5-9.2-15.6
		c6.8,10,12.8,20.5,18,31.5c2.6,5.5,4.8,11.1,6.6,16.9c1.7,5.8,3,11.9,2.4,18.1c-0.2,1.6-0.5,3.1-1,4.6c-0.5,1.5-1.3,2.9-2.2,4.2
		c-1,1.3-2.1,2.4-3.5,3.3c-0.7,0.4-1.4,0.8-2.1,1.2c-0.4,0.2-0.7,0.4-1.1,0.5l-1.1,0.4c-3,0.9-6.1,1.4-9.2,1.3
		c-3.1,0-6.1-0.3-9.1-0.8c-6-1-11.9-2.5-17.7-4.5c-5.8-1.9-11.5-4-17-6.4c-11.1-4.9-21.9-10.5-32.3-16.8
		c-10.4-6.2-20.5-12.9-30.4-19.8c-19.8-14-38.8-29-57-44.9c-18.2-15.9-35.6-32.8-52.1-50.6c-8.2-8.9-16.1-18.1-23.6-27.6
		c-7.6-9.5-14.4-19.6-20.3-30.2c-1.4-2.7-2.8-5.4-4.1-8.2c-1.3-2.8-2.4-5.7-3.3-8.6c-0.9-2.9-1.6-6-1.9-9.1
		c-0.4-3.1-0.2-6.3,0.5-9.3c0.7-3.1,2.3-6,4.6-8.2c0.6-0.5,1.2-1.1,1.8-1.5c0.6-0.4,1.3-0.9,2-1.2c1.4-0.7,2.9-1.3,4.4-1.7
		c6-1.7,12.2-1.6,18.3-0.9c6,0.7,12,1.8,17.9,3.4c5.9,1.5,11.6,3.3,17.4,5.3C157.6,129.3,168.8,133.9,179.7,139.1z"></path><path class="st5" d="M369.8,193.3c12.3-1.3,24.7-1.1,37,0.6c3.1,0.4,6.1,1.1,9.1,1.8c1.5,0.4,3,0.8,4.5,1.3l2.2,0.7l2.2,0.9
		c2.9,1.2,5.7,2.6,8.3,4.4c1.3,0.9,2.5,1.9,3.7,2.9c1.2,1.1,2.2,2.2,3.2,3.5c1,1.3,1.9,2.6,2.6,4c0.7,1.4,1.3,2.9,1.8,4.4l0.4,1.1
		l0.2,0.6l0.1,0.6l0.4,2.4c0.1,0.8,0.2,1.7,0.1,2.5c-0.1,0.8-0.3,1.7-0.6,2.4c-1.2,3-3,5.7-5.4,7.9c-2.2,2.2-4.6,4.2-7.2,6.1
		c-5.1,3.6-10.4,6.9-15.9,9.8c-5.5,2.9-11,5.6-16.7,8.2c-11.3,5.1-22.8,9.6-34.5,13.8s-23.4,8-35.3,11.6
		c-23.7,7.2-47.6,13.4-71.8,18.6c-24.2,5.2-48.6,9.2-73.2,12c-12.3,1.3-24.7,2.2-37.1,2.4s-24.9-0.3-37.2-2.7
		c-6.2-1.2-12.1-3.1-17.9-5.7c-2.9-1.3-5.6-2.9-8.2-4.8c-2.6-1.9-4.8-4.3-6.4-7.1c-0.8-1.4-1.4-3-1.7-4.6c-0.3-1.6-0.4-3.2-0.3-4.9
		c0.3-3.2,1.3-6.3,2.8-9.1c3-5.5,6.9-10.5,11.5-14.8c4.4-4.3,9.2-8.4,14.1-12.1c4.9-3.8,10-7.3,15.2-10.6
		c10.4-6.7,21.1-12.9,32.2-18.4c-5.5,2.9-10.8,6-16.1,9.2s-10.5,6.5-15.6,9.9s-10.1,7.1-15,10.9c-4.8,3.8-9.5,7.9-13.8,12.2
		c-4.3,4.4-8.3,9.1-11,14.5c-1.4,2.6-2.3,5.5-2.6,8.5c-0.1,0.7-0.1,1.5,0,2.2c0,0.7,0.1,1.4,0.3,2.2c0.3,1.4,0.8,2.8,1.6,4
		c1.5,2.5,3.6,4.7,6,6.4c2.5,1.7,5.1,3.2,7.8,4.5c5.6,2.5,11.4,4.3,17.5,5.4c6,1.1,12.1,1.8,18.2,2.1c6.1,0.3,12.3,0.4,18.4,0.3
		c12.3-0.2,24.6-1.2,36.8-2.6c24.5-2.9,48.8-6.9,72.9-12.2c24.1-5.1,48-11.2,71.7-18.3c23.7-6.9,46.9-15.2,69.6-24.9
		c5.6-2.5,11.2-5.1,16.6-8c5.5-2.8,10.7-6,15.8-9.5c2.5-1.7,4.8-3.7,7-5.8c2.2-2,3.9-4.5,5.1-7.2c0.5-1.3,0.7-2.8,0.4-4.2l-0.4-2.2
		l-0.1-0.6l-0.2-0.5l-0.3-1.1c-0.4-1.4-1-2.8-1.6-4.2c-0.7-1.3-1.5-2.6-2.4-3.8c-0.9-1.2-1.9-2.3-3-3.4c-1.1-1-2.3-2-3.5-2.9
		c-2.5-1.8-5.2-3.3-8-4.4l-2.1-0.9L420,198c-1.4-0.6-2.9-0.9-4.4-1.4c-3-0.8-6-1.5-9-2c-6.1-1-12.2-1.5-18.3-1.6
		C382.1,192.8,375.9,192.9,369.8,193.3z"></path><polygon class="st5" points="178.9,356.2 262.3,358.2 252.5,375.8 	"></polygon><path class="st1" d="M231.6,131.9c1,0.3,2,0.7,2.9,1.2c0.9,0.5,1.8,1.1,2.6,1.7c0.8,0.6,1.6,1.3,2.3,2c0.8,0.8,1.4,1.6,2,2.5
		c-1-0.3-2-0.7-2.9-1.2c-1.8-1-3.5-2.3-4.9-3.7C232.9,133.6,232.2,132.8,231.6,131.9z"></path><path class="st1" d="M244.7,123.4c0.6,1,1.2,2.2,1.6,3.3c0.4,1.1,0.7,2.3,1,3.4c0.3,1.2,0.5,2.3,0.6,3.5c0.1,1.2,0.1,2.4,0,3.7
		c-0.6-1-1.2-2.2-1.6-3.3c-0.4-1.1-0.7-2.3-1-3.4c-0.3-1.2-0.5-2.3-0.6-3.5C244.6,125.8,244.6,124.6,244.7,123.4z"></path><path class="st1" d="M256.8,136.8c-0.3-0.5-0.4-1.1-0.5-1.7c0-0.5,0-1.1,0.1-1.6c0.1-0.5,0.3-1,0.5-1.5c0.3-0.5,0.6-1,1.1-1.4
		c0.3,0.5,0.4,1.1,0.5,1.7c0,0.5,0,1.1-0.1,1.6c-0.1,0.5-0.3,1-0.5,1.5C257.6,136,257.3,136.4,256.8,136.8z"></path><path class="st1" d="M350.8,246.3c1.8-6.1,3-12.4,3.7-18.8c0.4-3.1,0.6-6.3,0.8-9.5l0.1-4.8c0-1.6-0.1-3.2-0.1-4.8
		c-0.2-6.4-0.8-12.7-2-18.9c-0.5-3.1-1.3-6.2-2-9.3c-0.3-1.6-0.8-3.1-1.3-4.6s-0.9-3.1-1.3-4.6c0.6,1.5,1.2,3,1.8,4.4s1.2,3,1.7,4.5
		l1.4,4.6c0.5,1.5,0.8,3.1,1.2,4.7c2.9,12.6,3.3,25.7,1.2,38.5c-0.5,3.2-1.2,6.3-2,9.4C353.1,240.3,352.1,243.3,350.8,246.3z"></path><path class="st1" d="M331.8,144.4c0.8,0.2,1.5,0.6,2.2,1.1c0.6,0.4,1.2,1,1.7,1.6c0.5,0.6,1,1.2,1.3,1.9c0.4,0.7,0.6,1.5,0.7,2.3
		c-0.7-0.4-1.4-0.8-2-1.3c-0.6-0.5-1.1-1-1.6-1.6c-0.5-0.6-1-1.2-1.4-1.8C332.4,145.9,332.1,145.1,331.8,144.4z"></path><g><defs><path id="SVGID_1_" d="M252.8,382.7l1.7-6.3L177,355.8l-1.7,6.2c-2,7.6-1.8,15.6,0.7,23.1l-6.4-1.7c-5.7,21.4,7,43.4,28.4,49.1
				c0,0,0,0,0.1,0l0,0c21.4,5.7,43.4-7,49.1-28.4l0,0l-6.4-1.7C246.6,397.2,250.8,390.3,252.8,382.7z"></path></defs><clipPath id="SVGID_2_"><use xlink:href="#SVGID_1_" style="overflow: visible;"></use></clipPath><g class="st6"><polygon class="st1" points="104.5,277.9 103.7,303.6 102.8,329.2 100.9,380.5 98.7,431.7 97.5,457.3 96.2,483 97,457.3 
				97.9,431.7 99.9,380.4 102.1,329.2 103.2,303.5 			"></polygon><polygon class="st1" points="121.2,278.3 121.1,303.9 120.9,329.5 120.3,380.6 119.6,431.8 119.1,457.4 118.6,483 118.6,457.4 
				118.8,431.8 119.3,380.6 120.1,329.5 120.6,303.9 			"></polygon><polygon class="st1" points="139.3,278.3 139.6,303.9 139.7,329.5 139.8,380.6 139.7,431.8 139.6,457.4 139.3,483 139.1,457.4 
				138.9,431.8 138.8,380.6 138.9,329.5 139.1,303.9 			"></polygon><polygon class="st1" points="157.1,278.2 157.6,303.8 158,329.4 158.6,380.6 159,431.8 159.1,457.4 159.1,483 158.6,457.4 
				158.2,431.8 157.6,380.6 157.2,329.4 157.1,303.8 			"></polygon><polygon class="st1" points="172.1,278.3 173.3,303.9 174.5,329.5 176.7,380.6 178.7,431.8 179.6,457.4 180.4,483 179.1,457.4 
				177.9,431.8 175.7,380.7 173.8,329.5 172.9,303.9 			"></polygon><polygon class="st1" points="188.1,278.4 189.6,303.9 191.1,329.5 193.8,380.7 196.2,431.8 197.4,457.4 198.4,483 196.9,457.4 
				195.5,431.9 192.8,380.7 190.3,329.5 189.2,304 			"></polygon><polygon class="st1" points="209.8,483 208.2,457.4 206.6,431.9 203.6,380.7 200.9,329.5 199.6,304 198.4,278.4 200.1,303.9 
				201.7,329.5 204.6,380.7 207.4,431.8 208.7,457.4 			"></polygon><polygon class="st1" points="211.4,278.4 212.7,303.9 213.9,329.5 216.1,380.7 218,431.8 218.9,457.4 219.7,483 218.4,457.4 
				217.2,431.9 215.1,380.7 213.1,329.5 212.2,304 			"></polygon><polygon class="st1" points="32,341.5 65.5,341.3 99,341.2 166,341 232.9,341.2 266.4,341.3 299.9,341.5 266.4,341.8 
				232.9,341.9 166,342 99,341.9 65.5,341.8 			"></polygon><polygon class="st1" points="32.4,328.8 65.5,328.9 98.5,329.1 164.6,329.6 230.7,330.4 263.8,330.8 296.8,331.4 263.8,331.3 
				230.7,331.1 164.6,330.6 98.5,329.8 65.5,329.4 			"></polygon><polygon class="st1" points="32.4,314.9 58,314.7 83.6,314.5 134.8,314.4 185.9,314.5 211.5,314.7 237.1,314.9 211.5,315.2 
				185.9,315.3 134.8,315.4 83.6,315.3 58,315.2 			"></polygon><polygon class="st1" points="32.3,301.3 58,300.9 83.5,300.6 134.7,300.1 185.9,299.8 211.5,299.8 237.1,299.8 211.5,300.3 
				185.9,300.6 134.7,301.1 83.5,301.3 58,301.4 			"></polygon><polygon class="st1" points="32.4,289.9 58,288.9 83.6,287.9 134.8,286.2 185.9,284.7 211.5,284.1 237.1,283.5 211.5,284.6 
				185.9,285.5 134.8,287.2 83.6,288.7 58,289.3 			"></polygon><polygon class="st1" points="32.5,277.6 58.1,276.4 83.6,275.3 134.8,273.2 186,271.3 211.5,270.5 237.1,269.7 211.6,270.9 
				186,272.1 134.8,274.2 83.7,276 58.1,276.9 			"></polygon><polygon class="st1" points="237.1,261 211.6,262.3 186,263.5 134.8,265.8 83.7,267.9 58.1,268.9 32.5,269.7 58.1,268.4 
				83.6,267.2 134.8,264.9 186,262.8 211.5,261.8 			"></polygon><polygon class="st1" points="32.5,259.8 58.1,258.7 83.6,257.8 134.8,256.1 186,254.6 211.6,254 237.1,253.4 211.6,254.5 
				186,255.4 134.8,257.1 83.7,258.6 58.1,259.2 			"></polygon><polygon class="st1" points="12.4,437.7 54.6,438.3 96.7,439 181,440.4 265.2,442.2 307.4,443.1 349.5,444.1 307.3,443.6 
				265.2,442.9 180.9,441.4 96.7,439.7 54.6,438.8 			"></polygon><polygon class="st1" points="13.1,425 55.2,425 97.2,425.2 181.3,425.5 265.4,426.2 307.4,426.5 349.5,427 307.4,427 
				265.4,426.9 181.3,426.5 97.2,425.9 55.1,425.5 			"></polygon><polygon class="st1" points="13.1,411.1 55.1,410.9 97.2,410.8 181.3,410.6 265.4,410.8 307.4,410.9 349.5,411.1 307.4,411.4 
				265.4,411.5 181.3,411.6 97.2,411.5 55.1,411.4 			"></polygon><polygon class="st1" points="12.9,397.5 55,397.1 97.1,396.8 181.2,396.3 265.3,396.1 307.4,396 349.5,396 307.4,396.5 
				265.3,396.7 181.2,397.3 97.1,397.5 55,397.6 			"></polygon><polygon class="st1" points="13.1,386.1 55.1,385.1 97.2,384.2 181.3,382.4 265.4,381 307.4,380.3 349.5,379.7 307.4,380.8 
				265.4,381.7 181.3,383.4 97.2,384.8 55.2,385.5 			"></polygon><polygon class="st1" points="13.2,373.8 55.2,372.6 97.2,371.5 181.3,369.4 265.4,367.6 307.5,366.7 349.5,365.9 307.5,367.2 
				265.5,368.2 181.4,370.4 97.3,372.2 55.2,373.1 			"></polygon><polygon class="st1" points="349.5,357.2 307.5,358.5 265.5,359.7 181.4,362.1 97.3,364.1 55.2,365.1 13.2,365.9 55.2,364.6 
				97.2,363.4 181.3,361.1 265.4,359 307.5,358 			"></polygon><polygon class="st1" points="13.2,356 55.2,354.9 97.3,354.1 181.4,352.3 265.4,350.9 307.5,350.2 349.5,349.6 307.5,350.7 
				265.5,351.6 181.4,353.3 97.3,354.7 55.2,355.4 			"></polygon><polygon class="st1" points="232.4,285.9 231.6,311.5 230.7,337.2 228.7,388.4 226.5,439.7 225.4,465.3 224.1,490.9 224.9,465.3 
				225.8,439.7 227.7,388.4 229.9,337.1 231.1,311.5 			"></polygon><polygon class="st1" points="249,286.3 248.9,311.9 248.7,337.5 248.2,388.6 247.4,439.8 247,465.4 246.4,490.9 246.5,465.4 
				246.7,439.8 247.2,388.6 248,337.4 248.4,311.9 			"></polygon><polygon class="st1" points="267.2,286.3 267.4,311.9 267.6,337.4 267.7,388.6 267.6,439.8 267.4,465.4 267.2,490.9 266.9,465.4 
				266.8,439.8 266.7,388.6 266.8,337.4 266.9,311.9 			"></polygon><polygon class="st1" points="285,286.2 285.5,311.8 285.9,337.4 286.5,388.6 286.8,439.7 286.9,465.3 286.9,490.9 286.4,465.3 
				286,439.8 285.5,388.6 285.1,337.4 285,311.8 			"></polygon><polygon class="st1" points="299.9,286.3 301.2,311.9 302.4,337.4 304.6,388.6 306.5,439.8 307.4,465.3 308.2,490.9 306.9,465.4 
				305.8,439.8 303.6,388.6 301.6,337.5 300.7,311.9 			"></polygon><polygon class="st1" points="316,286.3 317.5,311.9 318.9,337.5 321.6,388.6 324.1,439.8 325.2,465.4 326.3,491 324.8,465.4 
				323.3,439.8 320.6,388.7 318.2,337.5 317,311.9 			"></polygon><polygon class="st1" points="337.7,491 336,465.4 334.5,439.8 331.5,388.7 328.8,337.5 327.5,311.9 326.3,286.3 328,311.9 
				329.5,337.5 332.5,388.6 335.2,439.8 336.5,465.4 			"></polygon><polygon class="st1" points="339.3,286.3 340.5,311.9 341.7,337.5 343.9,388.6 345.9,439.8 346.8,465.4 347.6,491 346.3,465.4 
				345.1,439.8 342.9,388.7 341,337.5 340.1,311.9 			"></polygon></g></g></g><g id="bubble"><circle class="st7" cx="107.2" cy="411" r="6.9"></circle><circle class="st7" cx="320.2" cy="89.6" r="7.4"></circle><circle class="st7" cx="117" cy="156.1" r="9.8"></circle><circle class="st7" cx="394.3" cy="339.4" r="5.4"></circle></g></svg>