<svg transform="scale(1)" version="1.1" id="Layer_1" xmlns="http://www.w3.org/2000/svg" xmlns:xlink="http://www.w3.org/1999/xlink" x="0px" y="0px" viewBox="0 0 500 500" xml:space="preserve" class="show_show__wrapper__graphic__5Waiy "><title>React</title><style type="text/css">
	.st0{fill:#F2EBEB;}
	.st1{fill:#EA8383;}
	.st2{fill:#A04040;}
	.st3{fill:#000001;}
	.st4{fill:#F3CB5C;}
	.st5{opacity:0.62;}
	.st6{fill:#87CCDB;}
	.st7{opacity:0.65;}
	.st8{fill:#ffffff;}
</style><g id="character"><path class="st0" d="M271.5,274.4c0,0,7.8-23.5,25.5-1s77.1,82.6,77.1,82.6c5.1,9.8-5.7,54.5-13.6,52.1s-49.6-15.2-60.6-30
		S271.5,274.4,271.5,274.4"></path><path class="st0" d="M248,273.1c0,0-9.2-15.5-22.6-3.3c-17.1,15.6-72.1,119.6-72.1,119.6s13.9,43,22.9,38.6
		C236.5,398.1,248,273.1,248,273.1z"></path><path class="st0" d="M193.8,445.3c0,0,28.1-178,63.8-178.5s74.6,178.5,74.6,178.5H193.8z"></path><path class="st1" d="M270.9,241.2v42.9c0,0-8.2,14-11.5,16S247,281.5,247,281.5l1.5-38.6L270.9,241.2z"></path><path class="st1" d="M278.3,205.9c0,0,3.2-7.1,8.1-5.6s-0.4,18.9-6.8,17.5S278.3,205.9,278.3,205.9z"></path><path class="st1" d="M235.9,204.6c0,0-2.6-7.1-6.5-5.6s0.3,18.9,5.4,17.5S235.9,204.6,235.9,204.6z"></path><path class="st2" d="M257.6,266.8c0,0,6.5,7.9,11.8-2c8.4-15.6,11-23.6,11.9-56.1c0.5-17.6,2.8-29.2-2-35.7s-19.2-8.4-19.2-8.4
		s-17.3-23.3-32.3-15.6s6.4,31,6.4,31s-1.4,21.1-0.4,26.4C233.8,206.4,235.2,277.7,257.6,266.8z"></path><path class="st1" d="M237,184c0,0-1.1,13.9-1.1,26.6s2.2,13,6.9,11s7.8-4.6,10-4.6l7.4,0.2c3.5,0.4,7,1.6,10,3.5
		c4,2.4,7.1,3.7,8.1,1.2s1.9-22.4-0.6-29.4s-4.9-11.3-4.9-15.4C272.8,177,248,190.1,237,184z"></path><path class="st3" d="M270.8,227c0.5,0.6,0.7,1.3,0.5,2.1c-0.1,0.8-0.6,1.5-1.2,1.9c-0.6,0.4-1.3,0.7-2,0.8c-0.3,0-0.7,0-1-0.1
		c-0.3-0.1-0.7-0.2-1-0.4c0.3-0.2,0.5-0.4,0.8-0.6c0.2-0.2,0.5-0.3,0.8-0.5c0.5-0.3,0.9-0.6,1.2-0.9
		C269.8,228.8,270.4,228,270.8,227z"></path><path class="st2" d="M263.1,195.4c0.6-0.9,1.4-1.6,2.3-2.1c0.9-0.5,1.9-0.9,3-1c1.1-0.1,2.2,0.1,3.2,0.6c1,0.5,1.7,1.4,2.1,2.4
		c-0.8-0.4-1.7-0.7-2.6-0.9c-0.8-0.1-1.7-0.2-2.5-0.1C266.8,194.5,265.1,195,263.1,195.4z"></path><path class="st2" d="M249.8,194.4c-1.9-0.4-3.5-0.9-5-1c-0.7-0.1-1.5,0-2.2,0.1c-0.8,0.2-1.6,0.5-2.4,0.9c0.3-1,0.9-1.9,1.8-2.4
		c0.9-0.5,2-0.8,3-0.7c1,0.1,2,0.5,2.8,1C248.6,192.8,249.3,193.5,249.8,194.4z"></path><path class="st2" d="M217.1,158.3c1.8,4.8,4.3,9.3,7.4,13.4c3,4,6.9,7.2,11.5,9.2c2.3,0.9,4.7,1.5,7.2,1.6l0.9,0.1
		c0.3,0,0.6,0,0.9,0c0.6,0,1.2,0,1.9-0.1c1.2-0.1,2.5-0.3,3.7-0.6c5-1.1,9.8-2.9,14.3-5.4c-4.2,3.2-8.9,5.5-13.9,6.9
		c-5.2,1.5-10.7,1.3-15.7-0.7c-2.5-1-4.8-2.5-6.8-4.2c-2-1.7-3.8-3.7-5.2-5.9C220.2,168.2,218.1,163.4,217.1,158.3z"></path><path class="st4" d="M246,214.6h-0.4c-5.6-0.3-10.7-3.6-13.3-8.6c-4-8.3,3.8-14,3.9-14.1l0.1-0.1c5.2-2.9,10.9-1.9,15.2,2.5
		s5.8,10.9,3.2,15.2C252.9,212.8,249.6,214.7,246,214.6z M237.3,193.6c-0.6,0.5-6.4,5-3.2,11.5c2.3,4.3,6.7,7.1,11.6,7.4
		c3,0.2,5.9-1.3,7.4-3.9c2-3.5,0.8-9.1-3-12.8S241.5,191.2,237.3,193.6L237.3,193.6z"></path><path class="st4" d="M269.2,214.9c-2.3,0-4.5-0.8-6.2-2.3c-2.8-2.6-3.9-6.3-3.1-10.6c1.1-5.5,5.2-10.6,10-12.2
		c6.8-2.4,11.2,3.1,12.6,6.3v0.1c2,6.2-0.5,13-6.1,16.4C274.3,214,271.8,214.8,269.2,214.9z M273.2,191.2c-0.9,0-1.8,0.2-2.6,0.5
		c-4.1,1.4-7.7,5.9-8.7,10.7c-0.7,3.5,0.1,6.6,2.4,8.7c2.6,2.4,7.1,2.3,11-0.2c4.8-2.9,7-8.7,5.3-14.1
		C280.4,196.3,277.9,191.2,273.2,191.2L273.2,191.2z"></path><rect class="st4" x="254.6" y="201.1" width="6" height="2"></rect><polyline class="st1" points="256.7,203.7 242.9,218.5 261,216.9 	"></polyline><path class="st3" d="M256.7,203.7c-1,1.4-2,2.7-3.1,4.1s-2.1,2.6-3.2,3.9s-2.2,2.6-3.4,3.8s-2.3,2.5-3.4,3.7l-0.8-1.7
		c3-0.2,6.1-0.4,9.1-0.6c1.5-0.1,3-0.1,4.6-0.1c1.6,0,3,0,4.6,0.1c-1.5,0.3-3,0.6-4.5,0.9s-3,0.5-4.5,0.7c-3,0.4-6,0.8-9.1,1
		l-2.5,0.2l1.7-1.9c1.1-1.3,2.3-2.5,3.5-3.7s2.4-2.4,3.6-3.6s2.4-2.4,3.7-3.5S255.4,204.8,256.7,203.7z"></path><path class="st0" d="M278.5,199.5c0,0-10.9-4.7-15.3,4.6c-0.3,0.7-0.1,1.5,0.6,1.8c0.1,0,0.1,0.1,0.2,0.1
		C267.3,206.9,275.7,208.3,278.5,199.5z"></path><path class="st3" d="M279.1,199.4c-1.6-0.4-3.2-0.6-4.8-0.7c-1.6-0.1-3.1,0-4.7,0.4c-1.5,0.4-2.9,1.1-4.1,2.1
		c-1.2,1-2.2,2.3-2.8,3.8c0.3-1.7,1.1-3.2,2.3-4.4c1.2-1.2,2.7-2.1,4.4-2.5c1.6-0.4,3.3-0.5,5-0.2
		C276,198.2,277.6,198.7,279.1,199.4z"></path><path class="st3" d="M265.3,201c0,0-2.2,4.2,0.8,5.4s7.4,0.4,7.6-2.3s-1.4-5.8-2.7-5.7S265.3,201,265.3,201z"></path><path class="st0" d="M236.5,199.6c0,0,10.9-4.7,15.3,4.5c0.3,0.7,0.1,1.5-0.6,1.8c-0.1,0-0.1,0.1-0.2,0.1
		C247.7,206.9,239.3,208.4,236.5,199.6z"></path><path class="st3" d="M235.9,199.5c1.5-0.8,3-1.2,4.7-1.5c1.7-0.3,3.4-0.2,5,0.2c1.7,0.4,3.2,1.3,4.4,2.5c1.2,1.2,2,2.7,2.3,4.4
		c-0.6-1.5-1.6-2.8-2.8-3.8c-1.2-1-2.6-1.7-4.1-2.1c-1.5-0.4-3.1-0.5-4.7-0.4C239.1,198.9,237.5,199.1,235.9,199.5z"></path><path class="st3" d="M249.7,201c0,0,2.2,4.2-0.8,5.4s-7.4,0.4-7.6-2.3s1.4-5.8,2.7-5.7S249.7,201,249.7,201z"></path><path class="st1" d="M149.1,254.5c4-0.3,12.3,32.3,12.8,37s2.4,28.8-8,36.6s-17.5,4.8-17.5,4.8s-4.2,6.2-14.3,1.5s-17.1-26-17.1-26
		s-7,1.3-7.8-7.5c0,0-7,7.8-11.2,2.9s5.7-27.5,13.8-28.3c0,0,1.8-8.3,11.4-6.2l-0.2-6.5c-3.4-1.6-21.3-4.6-19.7-16.3
		c0.6-4.4,24.1,1.6,29.8,4.2s18.8,35.1,18.8,35.1s1.6-5.4,2.7-7.1C142.5,278.5,138.1,255.3,149.1,254.5z"></path><path class="st3" d="M113.2,296.5c-0.7,2.1-1.6,4.2-2.6,6.2c-0.5,1-1.1,2-1.8,2.9c-0.7,1-1.5,1.9-2.4,2.6c-1.1,0.8-2.4,1.2-3.8,1
		c-1.3-0.2-2.5-0.8-3.5-1.7c-1.8-1.8-2.8-4.1-3-6.6c-0.2-4.5-0.1-9.1,0.4-13.6c0.2-2.2,0.6-4.5,1-6.7c0.2-1.1,0.5-2.2,0.9-3.3
		c0.3-1.1,0.8-2.1,1.5-3.1c-0.3,0.5-0.4,1-0.6,1.6c-0.2,0.5-0.3,1.1-0.4,1.6c-0.2,1.1-0.3,2.2-0.4,3.3c-0.2,2.2-0.3,4.4-0.5,6.7
		S98,292,98,294.2s0,4.5,0.2,6.6c0.1,2,0.9,4,2.3,5.4c0.6,0.7,1.5,1.1,2.4,1.3c0.9,0.2,1.8,0,2.6-0.5c0.9-0.6,1.6-1.3,2.3-2.2
		c0.7-0.8,1.4-1.7,2-2.6C110.9,300.4,112.1,298.5,113.2,296.5z"></path><path class="st3" d="M111.2,269.1c0.6,2,1.1,4,1.6,6l1.5,5.9c0.5,2,1.1,3.9,1.7,5.8c0.6,1.9,1.5,3.8,2.6,5.5
		c-1.7-1.2-3.1-2.9-4-4.9c-1-1.9-1.7-3.8-2.2-5.9c-0.5-2-0.9-4.1-1.1-6.1C111,273.3,111,271.2,111.2,269.1z"></path><path class="st3" d="M133.9,308.5c0.1-2.6,0.4-5.2,0.9-7.8c0.4-2.6,1-5.1,1.6-7.7c0.7-2.5,1.4-5.1,2.4-7.5c0.5-1.2,1-2.5,1.6-3.6
		c0.6-1.2,1.3-2.3,2.1-3.4c-0.9,2.4-1.7,4.9-2.2,7.5l-1.9,7.6c-0.7,2.5-1.3,5-2.1,7.5S134.8,306.1,133.9,308.5z"></path><path class="st1" d="M366.9,220.6c0,0-17.1-12.2-23-38.8s-5.4-45.7,0-47.1s15.7,11.9,16.5,24.9c0,0,7-21.9,14.1-31.4
		s22.5-19.8,26.2-17.6s-3,23-10.6,26.3c0,0,11.6-5.7,24.4-6.2s6.2,11.9-6.8,17l-4.3,5.4c0,0,7.3-3,13,0.3s13.5,13,11.4,16.5
		s-17-4.3-17.9-4.4s-2.4,8-5.7,9.3c0,0,12.3,25-8.2,45.8L366.9,220.6z"></path><path class="st3" d="M379.4,197.5c-2.1-4.5-4.5-8.8-7.2-13c-1.3-2.1-2.8-4.1-4.3-6l-1.2-1.4c-0.4-0.5-0.8-0.9-1.2-1.4
		c-0.8-0.9-1.7-1.8-2.6-2.6l-0.2-0.2l0-0.2c-0.2-1.1-0.4-2.1-0.6-3.2s-0.4-2.2-0.6-3.2c-0.4-2.1-0.7-4.3-1-6.5
		c0.8,2.1,1.4,4.2,2.1,6.2c0.3,1.1,0.6,2.1,0.9,3.1s0.6,2.1,0.9,3.2l-0.3-0.4c1.9,1.7,3.7,3.5,5.3,5.5c1.6,2,3,4.1,4.3,6.3
		c1.3,2.2,2.4,4.5,3.4,6.8C378.1,192.7,378.8,195.1,379.4,197.5z"></path><path class="st3" d="M390.2,136.9c-0.1,2.4-0.5,4.9-1,7.3c-0.5,2.4-1.1,4.8-1.9,7.1c-0.8,2.3-1.7,4.6-2.9,6.8
		c-0.6,1.1-1.2,2.1-2,3.1c-0.7,1-1.8,1.8-2.9,2.3c0.9-0.8,1.6-1.7,2.1-2.8c0.5-1.1,1-2.1,1.4-3.2c0.4-1.1,0.9-2.2,1.2-3.4
		s0.8-2.3,1.2-3.4l2.3-6.8C388.4,141.5,389.2,139.2,390.2,136.9z"></path><path class="st3" d="M393.2,169.3c0.9-2,1.9-3.9,3-5.8c1.1-1.9,2.3-3.7,3.5-5.5s2.5-3.6,3.8-5.3c1.3-1.8,2.8-3.4,4.3-5
		c-0.9,2-1.9,4-3,5.8c-1.1,1.9-2.3,3.7-3.5,5.5s-2.5,3.6-3.8,5.3C396.1,166,394.7,167.7,393.2,169.3z"></path><path class="st1" d="M128.6,326.8c0,0,0.9,79.6,27.7,95.5s51.1,4.6-3.7-106.8L128.6,326.8z"></path><path class="st1" d="M396,220.6c0,0,10.1,123.9-2.9,154.3s-38.2,47-49.3,18.6s23-172.9,23-172.9S385,201.6,396,220.6z"></path><path class="st3" d="M332.2,445.3c-3.3-10.7-6.5-21.5-9.5-32.2c-3.1-10.8-6-21.6-9-32.4s-5.8-21.6-8.5-32.5s-5.5-21.8-8-32.7
		c3.3,10.7,6.5,21.5,9.5,32.3c3.1,10.8,6,21.6,9,32.4s5.8,21.7,8.5,32.5S329.6,434.4,332.2,445.3z"></path><path class="st3" d="M193.8,445.3c1.6-9.2,3.4-18.4,5.3-27.5c1.9-9.1,3.8-18.3,5.8-27.4s4.1-18.2,6.2-27.3s4.4-18.1,6.8-27.2
		c-1.6,9.2-3.4,18.4-5.3,27.5c-1.9,9.1-3.8,18.3-5.8,27.4s-4.1,18.2-6.2,27.3S196.2,436.3,193.8,445.3z"></path><g class="st5"><path class="st4" d="M96,236.7c0,0-17.3,2.5-12.8,17.1s20.9,9.7,23.3-2.7S97.8,236.3,96,236.7z"></path></g><g class="st5"><path class="st4" d="M399,100.5c0,0-17.2,2.5-12.8,17.1s20.9,9.7,23.3-2.8S400.8,100.1,399,100.5z"></path></g><path class="st6" d="M388.5,101.3c-0.7-1.1-1.3-2.2-1.8-3.4c-0.5-1.2-0.9-2.4-1.2-3.6c-0.3-1.2-0.6-2.5-0.8-3.7
		c-0.2-1.3-0.3-2.6-0.2-3.8c0.7,1.1,1.3,2.2,1.7,3.4c1,2.3,1.6,4.8,2,7.3C388.5,98.8,388.6,100,388.5,101.3z"></path><path class="st6" d="M380.4,105.2c-1.2-0.5-2.3-1.1-3.3-1.9c-2-1.4-3.9-3.1-5.5-4.9c-0.9-0.9-1.6-2-2.2-3.1
		c1.2,0.5,2.3,1.1,3.3,1.9c1,0.7,2,1.5,2.9,2.3c0.9,0.8,1.8,1.7,2.6,2.6C379,103.1,379.7,104.1,380.4,105.2z"></path><path class="st6" d="M372.2,109.5c-0.6,0.2-1.2,0.2-1.8,0.1c-0.5-0.1-1.1-0.2-1.6-0.4c-0.5-0.2-1-0.5-1.4-0.8
		c-0.5-0.4-0.9-0.8-1.2-1.3c0.6-0.2,1.2-0.2,1.8-0.1c0.5,0.1,1.1,0.2,1.6,0.4c0.5,0.2,1,0.5,1.4,0.8
		C371.4,108.6,371.9,109,372.2,109.5z"></path></g><g class="st7" id="code"><path class="st8" d="M28.8,56l51.5-0.8l51.5-0.7c34.3-0.4,68.7-0.8,103-1.1s68.7-0.5,103-0.6c17.2-0.1,34.3-0.1,51.5,0
		c17.2,0.1,34.3,0.2,51.5,0.6c8.6,0.2,17.2,0.4,25.8,1c1.1,0.1,2.1,0.2,3.2,0.3c0.5,0.1,1.1,0.2,1.6,0.3c0.3,0.1,0.7,0.2,1,0.3
		c0.3,0.1,0.5,0.4,0.5,0.7c0.1,0.2,0.1,0.4,0.1,0.5c0.3,2.2,0.4,4.3,0.5,6.5c0.2,4.3,0.4,8.6,0.5,12.9c0.5,17.2,0.6,34.3,0.8,51.5
		s0.2,34.3,0.3,51.5l0.1,51.5c0,34.3,0,68.6-0.2,103c-0.1,17.2-0.3,34.3-0.6,51.5c-0.1,8.6-0.3,17.2-0.7,25.8
		c-0.2,4.3-0.3,8.6-0.7,12.9c-0.1,1.1-0.2,2.2-0.4,3.2l-0.1,0.4c-0.1,0.2-0.1,0.4-0.2,0.5c-0.2,0.3-0.4,0.5-0.7,0.7
		c-0.5,0.3-1,0.6-1.5,0.8c-2,0.8-4.1,1.4-6.2,1.9c-4.2,1-8.5,1.6-12.7,2.3s-8.5,1.2-12.8,1.7c-8.5,1-17.1,1.8-25.6,2.6
		c-17.1,1.5-34.2,2.7-51.4,3.8c-34.3,2.1-68.5,3.8-102.9,5c-34.3,1.2-68.6,2.1-103,2.7c-17.2,0.3-34.3,0.4-51.5,0.3
		c-17.2-0.1-34.3-0.3-51.5-1.3c-4.3-0.3-8.6-0.6-12.9-1c-2.2-0.2-4.3-0.5-6.5-1c-1.1-0.2-2.2-0.5-3.3-0.9c-0.6-0.2-1.2-0.5-1.8-1
		c-0.3-0.3-0.5-0.6-0.6-1c-0.1-0.3-0.2-0.6-0.3-0.9c-0.5-2.1-0.9-4.3-1.1-6.5c-0.2-2.1-0.4-4.3-0.5-6.5c-0.3-4.3-0.5-8.6-0.7-12.9
		c-0.6-17.2-0.8-34.3-0.9-51.5c-0.1-34.3,0.2-68.7,0.6-103s1-68.6,1.6-103l1.1-51.5l0.6-25.7L28.4,69l0.2-6.4l0.1-3.2
		C28.7,58.2,28.7,57.2,28.8,56z M28.9,56.1l-1.6,102.9c-0.5,34.3-0.9,68.7-1.2,103c-0.2,34.3-0.4,68.6-0.1,103
		c0.2,17.1,0.4,34.3,1,51.4c0.2,4.3,0.4,8.6,0.7,12.8c0.1,2.1,0.3,4.3,0.5,6.4c0.2,2.1,0.5,4.1,1,6.2c0.1,0.4,0.2,0.7,0.4,1
		c0.3,0.2,0.6,0.4,1,0.5c1,0.3,1.9,0.6,2.9,0.8c2,0.4,4.2,0.7,6.3,0.9c4.2,0.5,8.5,0.8,12.8,1c17.1,1,34.3,1.2,51.4,1.3
		s34.3-0.1,51.5-0.3c34.3-0.4,68.6-1.3,102.9-2.5c34.3-1.2,68.6-2.7,102.8-4.7c17.1-1,34.2-2.1,51.3-3.6c8.5-0.7,17.1-1.5,25.6-2.5
		c4.3-0.5,8.5-1,12.8-1.6s8.5-1.3,12.6-2.2c2.1-0.4,4.1-1,6.1-1.8c0.5-0.2,0.9-0.4,1.3-0.7c0.2-0.1,0.3-0.3,0.5-0.4
		c0-0.1,0.1-0.1,0.1-0.2l0.1-0.4c0.2-1,0.3-2.1,0.4-3.1c0.4-4.2,0.6-8.5,0.8-12.8c0.3-8.6,0.5-17.1,0.7-25.7
		c0.4-17.2,0.6-34.3,0.7-51.5c0.3-34.3,0.4-68.7,0.3-103c-0.1-34.3-0.4-68.7-0.9-103c-0.3-17.2-0.6-34.3-1.1-51.5
		c-0.1-4.3-0.3-8.6-0.5-12.8c-0.1-2.1-0.2-4.3-0.5-6.3c0-0.2,0-0.2-0.1-0.2s0-0.1,0.1,0c-0.2-0.1-0.4-0.1-0.6-0.2
		c-0.5-0.1-1-0.2-1.5-0.2c-1-0.1-2.1-0.2-3.2-0.3c-8.5-0.6-17.1-0.7-25.7-0.9c-34.3-0.6-68.6-0.5-103-0.5s-68.6,0.2-103,0.3
		L28.9,56.1z"></path><path class="st8" d="M67.3,104.5v-0.5c-0.4,0.2-0.9,0.3-1.4,0.4c-0.5,0.1-1,0.1-1.5,0c-1.1-0.5-1.8-1.5-1.8-2.7
		c0-0.7,0.4-1.3,1-1.5c0.9-0.4,1.8-0.6,2.7-0.7l1.3-0.2v-0.2c0-0.4,0-0.7,0-1.1c-0.1-0.2-0.2-0.4-0.4-0.6c-0.3-0.3-0.6-0.4-1-0.5
		c-0.5-0.2-1.1-0.2-1.6,0.1L64.1,96c0.8-0.3,1.7-0.3,2.5,0c0.7,0.2,1.4,0.5,1.9,1c0.4,0.3,0.7,0.8,0.9,1.2c0.1,0.5,0.2,1.1,0.1,1.6
		c-0.1,1-0.2,2.1-0.2,3.1s-0.1,1.8-0.2,2.7l-1.9-0.5L67.3,104.5z M67.6,100.3l-0.7,0.1c-1.6,0.2-2.3,0.8-2.4,1.6
		c0,0.3,0,0.6,0.2,0.8c0.1,0.2,0.3,0.4,0.6,0.4c0.7,0.1,1.5-0.1,2.1-0.5C67.5,102,67.5,101.1,67.6,100.3z"></path><path class="st8" d="M73.3,110.8l-1.4-0.3c0.9-2,1.9-4,2.8-6l2.1,0.5C75.6,106.9,74.4,108.9,73.3,110.8z"></path><path class="st8" d="M82.9,95.2h0.3l0.4,0.1l-0.4,5.6c0.7-0.4,1.6-0.5,2.4-0.4c1.1,0.2,2.1,0.8,2.8,1.7c0.6,1,0.9,2.1,0.8,3.3
		c0,1.1-0.4,2.1-1.2,2.8c-0.8,0.7-1.9,1-3,0.7c-0.9-0.1-1.7-0.6-2.2-1.3l-0.1,0.9l-1.8-0.4c0.3-4.4,0.6-8.9,0.9-13.3L82.9,95.2z
		 M85.2,101.5c-0.8-0.1-1.6,0.1-2.2,0.6l-0.3,4.4c0.2,0.4,0.4,0.7,0.7,1c0.3,0.3,0.7,0.5,1.2,0.6c0.6,0.1,1.3-0.1,1.7-0.6
		c0.5-0.7,0.8-1.6,0.8-2.5c0.1-0.9,0-1.7-0.4-2.5C86.4,102,85.9,101.6,85.2,101.5z"></path><path class="st8" d="M94.4,103.4c-0.4,0-0.8-0.3-1-0.6c-0.2-0.3-0.3-0.6-0.3-1c0-0.4,0.2-0.7,0.5-0.9c0.3-0.2,0.6-0.3,1-0.2
		c0.4,0.1,0.7,0.3,1,0.6c0.2,0.3,0.4,0.6,0.3,1c0,0.4-0.2,0.7-0.5,0.9C95.1,103.3,94.7,103.4,94.4,103.4z M93.9,110.6
		c-0.4,0-0.8-0.3-1-0.6c-0.2-0.3-0.3-0.6-0.3-1c0-0.4,0.2-0.7,0.5-0.9c0.3-0.2,0.6-0.3,1-0.3c0.4,0,0.8,0.2,1,0.6
		c0.2,0.3,0.4,0.6,0.4,1c0,0.4-0.2,0.7-0.5,0.9C94.6,110.5,94.3,110.6,93.9,110.6z"></path><path class="st8" d="M104.4,111.2v-0.5c-0.4,0.2-0.9,0.4-1.4,0.6c-0.5,0.2-1,0.2-1.5,0.2c-1-0.2-1.8-1.1-1.9-2.2
		c0-0.7,0.4-1.3,1-1.6c0.9-0.5,1.8-0.8,2.7-1.1l1.3-0.3V106c0-0.3,0-0.7,0-1c-0.1-0.2-0.2-0.4-0.4-0.5c-0.3-0.2-0.6-0.3-1-0.3
		c-0.6-0.1-1.1,0-1.6,0.3l-0.6-0.8c0.8-0.4,1.7-0.6,2.5-0.4c0.7,0,1.3,0.2,1.9,0.6c0.4,0.2,0.7,0.6,0.9,1c0.1,0.5,0.2,1,0.1,1.5
		l-0.2,2.9l-0.2,2.5c0,0-0.3,0-1.8-0.2L104.4,111.2z M104.6,107.2l-0.7,0.2c-1.6,0.4-2.3,1.1-2.3,1.9c0,0.3,0,0.5,0.2,0.8
		c0.1,0.2,0.4,0.3,0.6,0.3c0.8,0,1.5-0.3,2.1-0.7L104.6,107.2z"></path><path class="st8" d="M110.2,103.9l0.1-1.5c3.3,0.3,6.5,0.5,9.8,0.7l0,1.4C116.7,104.4,113.5,104.2,110.2,103.9z M110,107.2l0.1-1.5
		c3.3,0.3,6.5,0.5,9.8,0.7l-0.1,1.5C116.5,107.7,113.3,107.5,110,107.2L110,107.2z"></path><path class="st8" d="M125.3,100.4h0.7l-0.3,5.4c0.7-0.5,1.6-0.8,2.4-0.8c1.1,0,2.1,0.4,2.8,1.2c0.7,0.9,1,1.9,0.8,3
		c0,1.1-0.4,2.1-1.2,2.9c-0.8,0.8-1.9,1.2-3,1.2c-0.8,0-1.6-0.3-2.2-0.9v0.8l-1.8-0.1c0.2-4.3,0.5-8.5,0.7-12.8L125.3,100.4z
		 M127.8,106c-0.8,0-1.6,0.4-2.2,1c-0.1,1.4-0.2,2.8-0.2,4.2c0.1,0.3,0.4,0.5,0.7,0.8c0.3,0.3,0.7,0.4,1.2,0.4
		c0.7,0,1.3-0.3,1.7-0.8c0.5-0.7,0.8-1.6,0.8-2.5c0.1-0.8-0.1-1.6-0.5-2.3C129,106.3,128.4,106,127.8,106L127.8,106z"></path><path class="st8" d="M146.6,112.4V112c-0.4,0.3-0.9,0.5-1.3,0.7c-0.5,0.2-1,0.4-1.5,0.4c-1-0.1-1.8-0.9-1.9-1.9
		c0-0.7,0.4-1.3,0.9-1.7c0.8-0.6,1.7-1,2.7-1.4l1.3-0.5v-0.2c0-0.3,0-0.7,0-1c-0.1-0.2-0.2-0.4-0.4-0.4c-0.3-0.2-0.7-0.2-1-0.2
		c-0.6,0-1.2,0.2-1.6,0.6l-0.6-0.6c0.7-0.5,1.6-0.8,2.5-0.8c0.7-0.1,1.3,0,1.9,0.3c0.4,0.2,0.7,0.5,0.9,0.9c0.1,0.5,0.2,1,0.2,1.5
		c0,1-0.1,2-0.1,2.9s-0.1,1.7-0.1,2.5c0,0-0.3,0-1.9,0L146.6,112.4z M146.8,108.5l-0.7,0.3c-1.6,0.7-2.3,1.4-2.3,2.2
		c0,0.3,0,0.5,0.2,0.7c0.2,0.2,0.4,0.2,0.6,0.2c0.8-0.1,1.5-0.5,2.1-1C146.8,110.1,146.8,109.3,146.8,108.5L146.8,108.5z"></path><path class="st8" d="M152.8,116.7l-1.4,0.1c0.9-2.1,1.7-4.2,2.6-6.3l2.1-0.1C155,112.5,153.9,114.6,152.8,116.7z"></path><path class="st8" d="M161.8,99.4h0.3h0.4c-0.1,1.8-0.1,3.6-0.2,5.4c0.7-0.6,1.5-0.9,2.4-1c1-0.1,2,0.2,2.8,0.9c0.7,0.8,1,1.9,0.9,3
		c0,1.1-0.4,2.2-1.1,3c-0.8,0.9-1.8,1.4-3,1.4c-0.8,0.1-1.6-0.1-2.2-0.7v0.8l-1.8,0.1l0.5-12.9L161.8,99.4z M164.4,104.7
		c-0.8,0.1-1.6,0.6-2.2,1.2c-0.1,1.4-0.1,2.8-0.2,4.2c0.1,0.3,0.4,0.5,0.7,0.7c0.4,0.2,0.8,0.3,1.2,0.3c0.7-0.1,1.3-0.4,1.7-1
		c0.5-0.8,0.8-1.7,0.7-2.6c0.1-0.8-0.1-1.6-0.5-2.3C165.5,104.9,164.9,104.7,164.4,104.7L164.4,104.7z"></path><path class="st8" d="M173.5,104.1c-0.4,0.1-0.7-0.1-1-0.3c-0.3-0.2-0.4-0.6-0.4-0.9c0-0.4,0.2-0.7,0.4-1c0.3-0.3,0.6-0.5,1-0.5
		c0.4-0.1,0.7,0.1,1,0.3c0.3,0.2,0.4,0.6,0.4,0.9c0,0.4-0.2,0.7-0.4,1C174.3,103.9,173.9,104.1,173.5,104.1z M173.3,111.3
		c-0.4,0.1-0.7-0.1-1-0.3c-0.2-0.2-0.4-0.6-0.4-0.9c0-0.4,0.2-0.7,0.4-1c0.3-0.3,0.6-0.5,1-0.5c0.4,0,0.7,0.1,1,0.3
		c0.3,0.2,0.4,0.6,0.4,0.9c0,0.4-0.2,0.7-0.4,1C174,111.1,173.7,111.2,173.3,111.3L173.3,111.3z"></path><path class="st8" d="M183.8,109.5V109c-0.4,0.3-0.9,0.6-1.3,0.9c-0.5,0.3-1,0.4-1.5,0.5c-1,0-1.9-0.8-1.9-1.8
		c0-0.7,0.3-1.4,0.9-1.8c0.8-0.7,1.7-1.2,2.6-1.7l1.3-0.7v-0.2c0-0.3,0-0.7,0-1c-0.1-0.2-0.2-0.3-0.4-0.4c-0.3-0.1-0.7-0.2-1-0.1
		c-0.6,0.1-1.2,0.3-1.6,0.7c-0.2-0.2-0.4-0.4-0.7-0.6c0.7-0.6,1.6-0.9,2.5-1c0.7-0.1,1.3-0.1,1.9,0.1c0.4,0.2,0.7,0.4,0.9,0.8
		c0.2,0.5,0.2,1,0.2,1.5c0,1-0.1,2-0.1,3s0,1.7-0.1,2.6c0,0-0.3,0-1.9,0.2L183.8,109.5z M183.9,105.5l-0.6,0.3
		c-1.6,0.8-2.2,1.6-2.3,2.4c0,0.3,0,0.5,0.2,0.7c0.2,0.1,0.4,0.2,0.6,0.2c0.8-0.2,1.4-0.7,2-1.2C183.8,107,183.8,106.2,183.9,105.5
		L183.9,105.5z"></path><path class="st8" d="M189.3,100.9v-1.5c3.2-0.4,6.5-0.9,9.8-1.4v1.5C195.8,100,192.6,100.4,189.3,100.9z M189.2,104.2
		c0-0.5,0-1,0-1.5c3.2-0.4,6.5-0.9,9.8-1.4v1.5C195.7,103.3,192.5,103.8,189.2,104.2L189.2,104.2z"></path><path class="st8" d="M204.3,94h0.3h0.4c0,1.9-0.1,3.8-0.1,5.6c0.7-0.6,1.5-1.1,2.4-1.2c1-0.2,2,0,2.8,0.6c0.7,0.8,1.1,1.9,0.9,3
		c0,1.2-0.4,2.3-1.1,3.2c-0.7,0.9-1.8,1.6-3,1.7c-0.8,0.2-1.6,0-2.2-0.5v0.9l-1.8,0.3c0.1-4.5,0.2-8.9,0.3-13.4L204.3,94z M207,99.3
		c-0.9,0.2-1.6,0.7-2.2,1.4l-0.1,4.4c0.1,0.3,0.4,0.5,0.8,0.7c0.4,0.2,0.8,0.3,1.2,0.2c0.7-0.1,1.3-0.5,1.7-1.1
		c0.5-0.8,0.7-1.8,0.7-2.7c0.1-0.8-0.1-1.6-0.6-2.3C208.1,99.4,207.6,99.2,207,99.3z"></path><path class="st8" d="M226,103.2v-0.5c-0.4,0.4-0.9,0.7-1.3,1c-0.4,0.3-0.9,0.5-1.5,0.6c-1,0.1-1.9-0.7-2-1.7c0,0,0-0.1,0-0.1
		c0-0.7,0.3-1.4,0.9-1.9c0.8-0.7,1.7-1.4,2.6-1.9L226,98v-0.2c0-0.4,0-0.7-0.1-1.1c-0.1-0.2-0.2-0.3-0.4-0.4c-0.3-0.1-0.7-0.1-1-0.1
		c-0.6,0.1-1.1,0.4-1.5,0.8l-0.7-0.6c0.7-0.6,1.6-1.1,2.5-1.2c0.7-0.2,1.4-0.1,2,0.1c0.4,0.1,0.7,0.4,0.9,0.8c0.2,0.5,0.2,1,0.2,1.6
		v3.1v2.7c0,0-0.3,0-1.9,0.3L226,103.2z M226,98.9l-0.6,0.4c-1.6,0.9-2.2,1.8-2.2,2.6c0,0.3,0.1,0.5,0.2,0.8
		c0.2,0.1,0.4,0.2,0.6,0.2c0.8-0.3,1.5-0.8,2-1.4C226.1,100.6,226.1,99.8,226,98.9L226,98.9z"></path><path class="st8" d="M230.6,106.8c3-4.9,3-11.1,0.1-16.1l1.1-0.2c1.9,2.1,2.9,4.8,2.9,7.7c-0.1,3-1.1,6-2.9,8.4L230.6,106.8z"></path><path class="st8" d="M238.7,105.9l-1.4,0.2c0.8-2.4,1.6-4.8,2.4-7.2l2.1-0.4C240.7,101,239.7,103.5,238.7,105.9z"></path><path class="st8" d="M248.9,103.6c-1.9-2.1-3-5-2.9-7.8c0.1-3.1,1.1-6.1,2.9-8.6L250,87c-2.9,5.1-2.9,11.4,0,16.4L248.9,103.6z"></path><path class="st8" d="M255.1,84.5h0.3l0.4-0.1v6c0.6-0.7,1.5-1.2,2.4-1.4c1-0.2,2.1,0,2.8,0.8c0.7,0.9,1.1,2,1,3.2
		c0.1,1.2-0.3,2.4-1,3.4c-0.7,1-1.7,1.6-2.9,1.9c-0.8,0.2-1.6,0-2.3-0.5v0.9l-1.8,0.3c0-4.7,0-9.5,0-14.2L255.1,84.5z M257.9,90.1
		c-0.9,0.2-1.6,0.8-2.1,1.5v4.7c0.1,0.3,0.5,0.5,0.8,0.7c0.4,0.2,0.8,0.3,1.2,0.2c0.7-0.1,1.3-0.6,1.7-1.2c0.5-0.9,0.7-1.9,0.6-2.9
		c0.1-0.9-0.1-1.7-0.6-2.5C259,90.2,258.4,90,257.9,90.1L257.9,90.1z"></path><path class="st8" d="M264.1,101c2.9-5.2,2.9-11.6-0.1-16.7l1.1-0.2c2,2.2,3,5.1,3,8c0,3.1-1,6.2-2.8,8.7L264.1,101z"></path><path class="st8" d="M272.1,100.2l-1.4,0.2c0.8-2.5,1.5-4.9,2.3-7.4l2.1-0.4C274.1,95.1,273.1,97.7,272.1,100.2z"></path><path class="st8" d="M282.3,98c-2-2.3-3-5.2-3-8.2c0-3.2,1-6.3,2.7-8.9l1.2-0.2c-2.9,5.4-2.8,11.8,0.2,17.1L282.3,98z"></path><path class="st8" d="M286.9,92c-0.8-0.8-1.3-2-1.2-3.2c-0.1-1.3,0.3-2.6,1.1-3.6c0.7-0.9,1.7-1.6,2.9-1.8c0.9-0.2,1.8,0,2.6,0.6
		l-0.6,0.8c-0.5-0.3-1-0.4-1.5-0.3c-0.8,0.1-1.4,0.6-1.8,1.3c-0.4,0.8-0.6,1.8-0.6,2.7c0,0.9,0.2,1.7,0.6,2.5
		c0.4,0.6,1.1,0.9,1.8,0.7c0.6-0.1,1.1-0.4,1.5-0.8l0.6,0.6c-0.7,0.8-1.6,1.3-2.6,1.4C288.8,93,287.7,92.7,286.9,92z"></path><path class="st8" d="M294.6,96.1c1.1-1.7,4.2-9.3-0.2-17.3l1.1-0.2c2,2.3,3.1,5.3,3.1,8.4c0,3.2-0.9,6.3-2.7,9L294.6,96.1z"></path><path class="st8" d="M302.6,95.4l-1.4,0.2c0.7-2.5,1.5-5.1,2.2-7.6l2.1-0.3C304.5,90.3,303.5,92.9,302.6,95.4z"></path><path class="st8" d="M311.3,89.7c-0.4,0.1-0.7-0.1-1-0.4c-0.3-0.3-0.4-0.7-0.4-1.1c0-0.4,0.1-0.8,0.4-1.2c0.2-0.3,0.6-0.5,1-0.6
		c0.4-0.1,0.7,0.1,1,0.3c0.3,0.3,0.4,0.7,0.4,1.1c0,0.4-0.1,0.9-0.4,1.2C312,89.4,311.7,89.7,311.3,89.7z"></path><path class="st8" d="M318.8,88.8c-0.4,0-0.8-0.1-1-0.4c-0.3-0.3-0.4-0.7-0.4-1.1c0-0.4,0.1-0.8,0.4-1.2c0.2-0.3,0.6-0.5,1-0.6
		c0.4,0,0.7,0.1,1,0.4c0.3,0.3,0.4,0.7,0.4,1.1c0,0.4-0.1,0.9-0.4,1.2C319.5,88.5,319.2,88.7,318.8,88.8z"></path><path class="st8" d="M324.6,92.7l-1.4,0.2c0.7-2.6,1.4-5.1,2.1-7.7l2.1-0.2C326.5,87.6,325.5,90.1,324.6,92.7z"></path><path class="st8" d="M336.4,86.1v-0.6c-0.4,0.4-0.8,0.7-1.3,1c-0.4,0.3-0.9,0.5-1.5,0.5c-1.1,0.1-2-1.3-2-2.2
		c-0.1-0.8,0.2-1.5,0.8-2.1c0.8-0.8,1.6-1.4,2.6-1.9l1.2-0.7V80c0-0.4,0-0.8-0.1-1.2c-0.1-0.2-0.2-0.4-0.4-0.5
		c-0.3-0.2-0.7-0.2-1-0.2c-0.6,0-1.2,0.3-1.6,0.8l-0.7-0.7c0.7-0.6,1.5-1,2.5-1.1c0.7-0.1,1.4,0,2,0.3c0.4,0.2,0.8,0.6,1,1
		c0.2,0.6,0.3,1.2,0.3,1.8c0,1.2,0.1,2.3,0.1,3.5l0.1,3c0,0-0.3,0-1.9,0.1L336.4,86.1z M336.2,81.4l-0.6,0.4
		c-1.5,0.9-2.2,1.8-2.1,2.7c0,0.3,0.1,0.6,0.3,0.9c0.2,0.2,0.4,0.3,0.6,0.2c0.8-0.2,1.5-0.7,2-1.3L336.2,81.4z"></path><path class="st8" d="M347.5,85.3v-0.6c-0.4,0.3-0.8,0.7-1.3,0.9c-0.4,0.3-0.9,0.4-1.4,0.5c-1.1,0.1-2-1.4-2.1-2.2
		c-0.1-0.8,0.2-1.5,0.8-2c0.8-0.7,1.6-1.3,2.5-1.8l1.2-0.7v-0.2c0-0.4-0.1-0.8-0.1-1.2c-0.1-0.2-0.2-0.4-0.4-0.5
		c-0.3-0.2-0.7-0.3-1-0.2c-0.6,0-1.2,0.3-1.6,0.7l-0.7-0.8c0.7-0.6,1.5-1,2.5-1c0.7-0.1,1.4,0,2,0.3c0.4,0.2,0.8,0.6,1,1.1
		c0.2,0.6,0.3,1.2,0.3,1.8l0.1,3.5c0,1,0.1,2,0.1,3.1c0,0-0.3,0-1.9,0.1L347.5,85.3z M347.4,80.6l-0.6,0.3c-1.5,0.8-2.2,1.7-2.1,2.7
		c0,0.3,0.1,0.6,0.3,0.9c0.1,0.2,0.4,0.3,0.6,0.2c0.8-0.2,1.5-0.7,2-1.3C347.4,82.5,347.4,81.5,347.4,80.6z"></path><path class="st8" d="M354,90.5l-1.4,0.1c0.7-2.5,1.4-5.1,2.1-7.6l2.1-0.1C355.9,85.4,355,88,354,90.5z"></path><path class="st8" d="M352.1,72.1h0.4v0.3h-0.1h-0.3H352v-0.3L352.1,72.1z M361.3,89.7h-1.4c-0.2-0.2-0.3-0.5-0.3-0.8L359,72.7
		c0-0.3,0-0.6,0-0.8h0.3h1.4h1.9V73h-1.7c0.2,5.2,0.4,10.4,0.6,15.6h1.7c0,0.4,0,0.8,0,1.1L361.3,89.7z"></path><path class="st8" d="M370.4,84.7v-0.6c-0.4,0.3-0.8,0.6-1.3,0.8c-0.4,0.2-0.9,0.4-1.5,0.4c-1.1,0-2-1.5-2.1-2.4
		c-0.1-0.8,0.2-1.5,0.8-2c0.8-0.7,1.6-1.2,2.5-1.7l1.2-0.6v-0.2c0-0.4-0.1-0.8-0.1-1.2c-0.1-0.2-0.2-0.4-0.4-0.6
		c-0.3-0.2-0.6-0.3-1-0.3c-0.6,0-1.2,0.2-1.6,0.6c-0.2-0.3-0.5-0.5-0.7-0.8c0.7-0.6,1.5-0.9,2.4-0.9c0.7,0,1.4,0.1,2,0.5
		c0.4,0.3,0.8,0.7,1,1.1c0.2,0.6,0.3,1.2,0.3,1.8l0.1,3.6c0,1,0.1,2,0.1,3.1c0,0-0.3,0-1.9,0L370.4,84.7z M370.2,79.9l-0.6,0.3
		c-1.5,0.7-2.1,1.6-2.1,2.6c0,0.3,0.1,0.6,0.3,0.9c0.2,0.2,0.4,0.3,0.6,0.3c0.8-0.2,1.5-0.6,2-1.2L370.2,79.9z"></path><path class="st8" d="M377.4,70.1h0.6c0.1,2.2,0.2,4.4,0.3,6.6c0.6-0.6,1.5-0.9,2.3-0.9c1.1,0.1,2.2,0.6,2.9,1.5
		c0.8,1.1,1.2,2.4,1.1,3.8c0.2,1.2-0.2,2.4-0.9,3.4c-0.7,0.9-1.8,1.4-2.9,1.3c-0.9,0-1.7-0.4-2.3-1.1c0,0.3,0,0.7,0,1l-1.8-0.1
		c-0.2-5.2-0.4-10.4-0.7-15.6L377.4,70.1z M380.4,76.9c-0.8,0-1.6,0.5-2.1,1.1c0.1,1.7,0.1,3.4,0.2,5.1c0.2,0.4,0.5,0.7,0.8,1
		c0.3,0.3,0.8,0.5,1.2,0.5c0.7,0,1.3-0.3,1.6-0.9c0.4-0.9,0.6-2,0.5-3c0-1-0.2-2-0.7-2.8C381.7,77.3,381.1,76.9,380.4,76.9
		L380.4,76.9z"></path><path class="st8" d="M389.6,90.3l-1.9-0.1c0-0.4,0-0.8,0-1.1l1.7,0.1l-0.8-15.5l-1.7-0.1l-0.1-1.1l1.9,0.1l1.4,0.1
		c0.2,0.3,0.3,0.6,0.3,0.9l0.8,16.1v0.8L389.6,90.3z"></path><path class="st8" d="M397.3,86.9c-0.4-0.1-0.8-0.3-1-0.6c-0.3-0.3-0.4-0.7-0.5-1.2c0-0.4,0.1-0.8,0.3-1.1c0.2-0.3,0.6-0.4,1-0.4
		c0.4,0.1,0.8,0.3,1,0.6c0.3,0.3,0.4,0.7,0.5,1.2c0,0.4-0.1,0.8-0.4,1.1C398.1,86.8,397.7,87,397.3,86.9z"></path><path class="st8" d="M404.8,87.8c-0.4-0.1-0.8-0.3-1-0.6c-0.3-0.3-0.4-0.7-0.5-1.2c0-0.4,0.1-0.8,0.3-1.1c0.3-0.3,0.6-0.4,1-0.4
		c0.4,0.1,0.8,0.3,1,0.6c0.3,0.3,0.4,0.7,0.5,1.2c0,0.4-0.1,0.8-0.4,1.1C405.6,87.7,405.2,87.8,404.8,87.8z"></path><path class="st8" d="M402.6,73.9h0.3h0.1v0.3h-0.1h-0.3h-0.1v-0.3H402.6z M412,92.8l-1.4-0.2c-0.2-0.3-0.3-0.6-0.3-0.9
		c-0.3-5.3-0.6-10.6-0.9-15.9l0-0.8h0.3l1.4,0.2l1.9,0.3c0,0.4,0,0.8,0.1,1.1l-1.7-0.3l0.9,15.3l1.7,0.3L414,93L412,92.8z"></path><path class="st8" d="M60.3,154.5c-0.4-0.1-0.8-0.3-1-0.6c-0.2-0.3-0.4-0.7-0.3-1.1c0-0.4,0.2-0.7,0.5-0.9c0.3-0.2,0.7-0.3,1-0.2
		c0.4,0.1,0.7,0.3,1,0.6c0.2,0.3,0.4,0.7,0.3,1.1c0,0.4-0.2,0.8-0.5,1C61,154.5,60.7,154.6,60.3,154.5z"></path><path class="st8" d="M69.1,159.5c-1.8-2.5-2.6-5.4-2.4-8.4c0.2-2.7,1.4-5.3,3.4-7.2l1.2,0.2c-1.3,1.2-5,7.1-1.2,15.6L69.1,159.5z"></path><path class="st8" d="M77.8,156.3v-0.5c-0.4,0.2-0.9,0.4-1.4,0.6c-0.5,0.2-1,0.2-1.5,0.2c-1.1-0.3-1.8-1.2-1.9-2.3
		c0-0.7,0.4-1.3,1-1.6c0.9-0.4,1.8-0.8,2.8-1l1.3-0.3v-0.2c0-0.4,0-0.7,0-1.1c-0.1-0.2-0.2-0.4-0.4-0.5c-0.3-0.2-0.6-0.3-1-0.4
		c-0.6-0.1-1.2,0-1.7,0.3l-0.7-0.8c0.8-0.4,1.7-0.6,2.6-0.4c0.7,0.1,1.4,0.3,2,0.7c0.4,0.3,0.7,0.6,0.9,1.1c0.1,0.5,0.2,1,0.1,1.6
		l-0.2,3l-0.2,2.6c0,0-0.3-0.1-1.9-0.2L77.8,156.3z M78.1,152.2l-0.7,0.2c-1.6,0.4-2.3,1.1-2.4,1.9c0,0.3,0,0.6,0.2,0.8
		c0.1,0.2,0.4,0.3,0.6,0.3c0.8,0,1.5-0.3,2.1-0.7C78,153.9,78,153.1,78.1,152.2z"></path><path class="st8" d="M82.3,161.1c1.3-1.3,4.9-7.1,1.1-15.3l1.2,0.1c1.7,2.3,2.6,5.2,2.4,8.1c-0.2,2.7-1.4,5.3-3.4,7.2L82.3,161.1z"></path><path class="st8" d="M90.4,162.3l-1.4-0.1c0.9-2,1.9-4.1,2.8-6.1l2.1,0.2L90.4,162.3z"></path><path class="st8" d="M100.8,162.6c-1.8-2.2-2.7-5-2.5-7.9c0.2-2.7,1.4-5.3,3.3-7.1l1.2,0.1c-1.2,1.2-4.9,7.2-1,15L100.8,162.6z"></path><path class="st8" d="M108.2,146.6h0.3h0.4l-0.3,5.4c0.7-0.5,1.6-0.7,2.5-0.7c1.1,0,2.1,0.5,2.8,1.3c0.7,0.9,1,2,0.8,3.1
		c0,1.1-0.4,2.1-1.2,2.9c-0.8,0.8-1.9,1.2-3.1,1.1c-0.8,0-1.7-0.3-2.2-0.9v0.8l-1.9-0.1l0.8-12.9L108.2,146.6z M110.7,152.3
		c-0.8,0-1.6,0.3-2.2,0.9c-0.1,1.4-0.2,2.8-0.2,4.2c0.1,0.3,0.4,0.6,0.7,0.8c0.3,0.3,0.8,0.4,1.2,0.4c0.7,0.1,1.3-0.2,1.8-0.8
		c0.5-0.7,0.8-1.6,0.8-2.5c0.1-0.8-0.1-1.6-0.5-2.3C111.8,152.7,111.3,152.4,110.7,152.3L110.7,152.3z"></path><path class="st8" d="M116.4,163.3c1.3-1.3,4.8-7.3,0.9-14.9h1.2c1.8,2.1,2.7,4.9,2.6,7.7c-0.2,2.7-1.4,5.3-3.3,7.2H116.4z"></path><path class="st8" d="M124.5,163.9h-1.4c0.9-2,1.8-4.1,2.7-6.1h2.1C126.8,159.9,125.7,161.9,124.5,163.9z"></path><path class="st8" d="M134.9,163.5c-1.8-2.1-2.7-4.8-2.6-7.6c0.2-2.7,1.3-5.3,3.2-7.3h1.2c-1.2,1.3-4.8,7.4-0.7,14.9L134.9,163.5z"></path><path class="st8" d="M139.9,159c-0.8-0.8-1.2-1.8-1.1-2.9c0-1.1,0.5-2.2,1.3-2.9c0.8-0.8,1.9-1.2,3-1.2c0.9-0.1,1.8,0.2,2.6,0.8
		l-0.7,0.6c-0.4-0.3-1-0.5-1.6-0.5c-0.7,0-1.4,0.3-1.9,0.9c-0.4,0.6-0.7,1.4-0.7,2.2c-0.1,0.8,0.1,1.6,0.5,2.2
		c0.4,0.6,1.1,0.9,1.8,0.8c0.6,0,1.1-0.2,1.6-0.5l0.6,0.6c-0.8,0.6-1.7,0.9-2.7,0.9C141.8,160.1,140.7,159.7,139.9,159z"></path><path class="st8" d="M147.5,163.3c3.2-4.4,3.5-10.3,0.7-14.9h1.1c1.8,2.1,2.8,4.8,2.6,7.5c-0.2,2.8-1.3,5.4-3.2,7.4L147.5,163.3z"></path><path class="st8" d="M155.6,163.5l-1.4,0.1l2.6-6.3l2.1-0.1L155.6,163.5z"></path><path class="st8" d="M164.7,159.3c-0.4,0-0.7-0.1-1-0.4c-0.3-0.2-0.4-0.6-0.4-0.9c0-0.4,0.2-0.7,0.4-1c0.3-0.3,0.6-0.4,1-0.5
		c0.4,0,0.7,0.1,1,0.4c0.3,0.2,0.4,0.6,0.4,0.9c0,0.4-0.2,0.7-0.5,1C165.4,159.1,165.1,159.2,164.7,159.3z"></path><path class="st8" d="M172.4,158.8c-0.4,0-0.7-0.1-1-0.4c-0.3-0.2-0.4-0.6-0.4-0.9c0-0.4,0.2-0.7,0.4-1c0.3-0.3,0.6-0.4,1-0.5
		c0.4,0,0.7,0.1,1,0.3c0.3,0.2,0.4,0.6,0.4,0.9c0,0.4-0.2,0.7-0.5,1C173.1,158.6,172.7,158.8,172.4,158.8z"></path><path class="st8" d="M178.1,162.4l-1.4,0.1l2.6-6.5l2.1-0.2C180.2,158,179.1,160.2,178.1,162.4z"></path><path class="st8" d="M190.4,156.8v-0.5c-0.4,0.3-0.9,0.6-1.4,0.8c-0.5,0.2-1,0.4-1.5,0.5c-1,0-1.9-0.8-2-1.9c0-0.7,0.4-1.4,0.9-1.8
		c0.8-0.6,1.7-1.2,2.7-1.6l1.3-0.6v-0.2c0-0.3,0-0.7-0.1-1c-0.1-0.2-0.2-0.4-0.4-0.4c-0.3-0.1-0.7-0.2-1-0.1c-0.6,0-1.2,0.3-1.6,0.7
		l-0.7-0.6c0.7-0.6,1.6-0.9,2.6-1c0.7-0.1,1.4,0,2,0.2c0.4,0.2,0.8,0.5,1,0.9c0.2,0.5,0.2,1,0.2,1.5c0,1,0,2-0.1,3l-0.1,2.6
		c0,0-0.3,0-1.9,0.1L190.4,156.8z M190.5,152.8l-0.7,0.3c-1.6,0.8-2.3,1.5-2.3,2.3c0,0.3,0.1,0.5,0.2,0.7c0.2,0.2,0.4,0.2,0.6,0.2
		c0.8-0.2,1.5-0.6,2.1-1.2L190.5,152.8z"></path><path class="st8" d="M201.7,155.8v-0.5c-0.4,0.3-0.9,0.6-1.4,0.9c-0.5,0.3-1,0.4-1.5,0.5c-1.1,0-1.9-0.8-2-1.9
		c0-0.7,0.3-1.4,0.9-1.8c0.8-0.6,1.7-1.2,2.7-1.7l1.3-0.6v-0.2c0-0.4,0-0.7-0.1-1.1c-0.1-0.2-0.2-0.3-0.4-0.4
		c-0.3-0.1-0.7-0.2-1-0.1c-0.6,0-1.2,0.3-1.6,0.7L198,149c0.7-0.6,1.6-0.9,2.5-1c0.7-0.1,1.4,0,2,0.2c0.4,0.2,0.8,0.5,1,0.9
		c0.2,0.5,0.2,1,0.2,1.5l-0.1,3c0,0.9,0,1.8,0,2.6c0,0-0.3,0-1.9,0.1L201.7,155.8z M201.8,151.7l-0.7,0.3c-1.6,0.8-2.3,1.6-2.3,2.4
		c0,0.3,0.1,0.5,0.2,0.8c0.2,0.2,0.4,0.2,0.6,0.2c0.8-0.2,1.5-0.6,2.1-1.2C201.8,153.4,201.8,152.5,201.8,151.7z"></path><path class="st8" d="M208.1,160l-1.4,0.1c0.8-2.2,1.7-4.5,2.5-6.7l2.1-0.2C210.2,155.4,209.2,157.7,208.1,160z"></path><path class="st8" d="M207.1,144.1h0.3h0.1v0.3h-0.1h-0.3h-0.1v-0.3H207.1z M215.5,158.8l-1.4,0.1c-0.2-0.2-0.3-0.4-0.3-0.7
		l0.2-14.1v-0.7h0.3l1.4-0.2l2-0.2v1l-1.7,0.2l-0.2,13.6l1.7-0.2c0,0.3,0,0.7,0,1L215.5,158.8z"></path><path class="st8" d="M225.1,153.5V153c-0.4,0.3-0.9,0.6-1.4,0.9c-0.5,0.3-1,0.4-1.5,0.5c-1.1,0-1.9-0.8-2-1.9
		c0-0.7,0.3-1.4,0.9-1.8c0.8-0.7,1.7-1.3,2.7-1.7l1.3-0.7v-0.2c0-0.4,0-0.7-0.1-1.1c-0.1-0.2-0.2-0.4-0.4-0.4
		c-0.3-0.1-0.7-0.2-1-0.1c-0.6,0-1.2,0.3-1.6,0.7l-0.7-0.6c0.7-0.6,1.6-1,2.5-1.1c0.7-0.1,1.4,0,2,0.2c0.4,0.2,0.8,0.5,1,0.9
		c0.2,0.5,0.2,1,0.2,1.6v3.1v2.7c0,0-0.3,0-1.9,0.2L225.1,153.5z M225.1,149.3l-0.7,0.4c-1.6,0.8-2.3,1.7-2.3,2.5
		c0,0.3,0.1,0.5,0.2,0.8c0.2,0.2,0.4,0.2,0.6,0.2c0.8-0.2,1.5-0.7,2.1-1.2L225.1,149.3z"></path><path class="st8" d="M232.9,139.5h0.3l0.4-0.1c0,2,0,3.9-0.1,5.8c0.7-0.6,1.5-1,2.4-1.2c1.1-0.2,2.1,0.2,2.9,0.9
		c0.7,0.9,1.1,2,1,3.2c0.1,1.2-0.3,2.3-1,3.2c-0.7,0.9-1.8,1.5-3,1.6c-0.8,0.1-1.7-0.1-2.3-0.7v0.9l-1.9,0.2c0-4.6,0.1-9.2,0.1-13.9
		L232.9,139.5z M235.7,145.2c-0.9,0.2-1.7,0.7-2.2,1.4c0,1.5,0,3.1,0,4.6c0.1,0.3,0.5,0.5,0.8,0.8c0.4,0.2,0.8,0.3,1.2,0.3
		c0.7-0.1,1.3-0.5,1.7-1.1c0.5-0.9,0.7-1.8,0.7-2.8c0.1-0.9-0.1-1.7-0.6-2.4C236.9,145.3,236.3,145,235.7,145.2z"></path><path class="st8" d="M244.4,155.9l-2,0.2v-1l1.7-0.2c0-4.7,0-9.4,0-14.1l-1.7,0.2v-1l2-0.2l1.4-0.2c0.2,0.2,0.3,0.5,0.3,0.7V155
		v0.8L244.4,155.9z"></path><path class="st8" d="M252.5,151.3c-0.4,0-0.7-0.1-1-0.4c-0.3-0.3-0.4-0.6-0.4-1c0-0.8,0.6-1.5,1.4-1.6c0.4,0,0.7,0.1,1,0.3
		c0.3,0.3,0.4,0.6,0.4,1C253.9,150.4,253.3,151.1,252.5,151.3L252.5,151.3z"></path><path class="st8" d="M260.1,150.4c-0.4,0-0.7-0.1-1-0.4c-0.3-0.3-0.4-0.6-0.4-1c0-0.4,0.1-0.8,0.4-1.1c0.3-0.3,0.6-0.5,1-0.6
		c0.4,0,0.7,0.1,1,0.3c0.3,0.3,0.4,0.6,0.4,1c0,0.4-0.1,0.8-0.4,1.1C260.8,150.2,260.5,150.4,260.1,150.4z"></path><path class="st8" d="M258.5,137.9h0.3h0.1v0.3h-0.1h-0.3h-0.1v-0.3H258.5z M267.3,153.5l-1.4,0.1c-0.2-0.2-0.3-0.5-0.3-0.8
		c0-5,0-10-0.1-15v-0.8h0.3l1.4-0.2l2-0.2v1.1l-1.7,0.2c0,4.8,0.1,9.7,0.1,14.5l1.7-0.2c0,0.4,0,0.7,0,1.1L267.3,153.5z"></path><path class="st8" d="M276.8,147.8v-0.6c-0.4,0.3-0.9,0.7-1.3,0.9c-0.5,0.3-1,0.5-1.5,0.6c-1.1,0.1-2-1.2-2-2
		c-0.1-0.8,0.3-1.5,0.9-2c0.8-0.7,1.7-1.3,2.6-1.8l1.3-0.7V142c0-0.4,0-0.8-0.1-1.2c-0.1-0.2-0.2-0.4-0.4-0.5
		c-0.3-0.2-0.7-0.2-1-0.1c-0.6,0.1-1.2,0.3-1.6,0.8l-0.7-0.7c0.7-0.6,1.6-1,2.5-1.1c0.7-0.1,1.4-0.1,2,0.2c0.4,0.2,0.8,0.5,1,0.9
		c0.2,0.5,0.3,1.1,0.2,1.7v3.3v2.9c0,0-0.3,0-1.9,0.2L276.8,147.8z M276.8,143.3l-0.7,0.4c-1.6,0.9-2.2,1.8-2.2,2.6
		c0,0.3,0.1,0.6,0.2,0.8c0.2,0.2,0.4,0.2,0.6,0.2c0.8-0.3,1.5-0.7,2-1.3C276.8,145.1,276.8,144.2,276.8,143.3L276.8,143.3z"></path><path class="st8" d="M284.4,133h0.3h0.4c0,2.1,0,4.1,0.1,6.2c0.6-0.7,1.5-1.1,2.4-1.2c1.1-0.2,2.2,0.2,2.9,1c0.8,1,1.1,2.2,1.1,3.4
		c0.1,1.2-0.3,2.4-1,3.4c-0.7,1-1.8,1.6-3,1.7c-0.8,0.1-1.7-0.1-2.3-0.7v1l-1.9,0.2c0-4.9-0.1-9.8-0.2-14.7L284.4,133z M287.2,139.1
		c-0.9,0.2-1.7,0.7-2.2,1.4l0.1,4.9c0.1,0.3,0.5,0.6,0.8,0.8c0.4,0.3,0.8,0.4,1.2,0.3c0.7-0.1,1.4-0.5,1.7-1.1c0.5-0.9,0.7-2,0.6-3
		c0.1-0.9-0.2-1.8-0.7-2.6C288.5,139.2,287.9,139,287.2,139.1L287.2,139.1z"></path><path class="st8" d="M296.2,150.6l-2,0.2v-1.1l1.7-0.2l-0.2-14.9l-1.7,0.2c0-0.4,0-0.7,0-1.1l2-0.2l1.4-0.1
		c0.2,0.2,0.3,0.5,0.3,0.8c0.1,5.2,0.2,10.4,0.2,15.5c0,0.3,0,0.5,0,0.8L296.2,150.6z"></path><path class="st8" d="M294.1,133.6h0.3h0.1v0.3h-0.1h-0.3h-0.1v-0.3L294.1,133.6z M303.1,150l-1.4,0.1c-0.2-0.2-0.3-0.5-0.3-0.8
		l-0.3-15.6c0-0.3,0-0.5,0-0.8h0.3l1.4-0.1l2-0.2c0,0.4,0,0.7,0,1.1l-1.7,0.2l0.3,15l1.7-0.1v1.1L303.1,150z"></path><path class="st8" d="M302.2,132.7h0.3h0.1v0.3h-0.1h-0.3h-0.1v-0.3H302.2z M311.2,149.3l-1.4,0.1c-0.2-0.2-0.3-0.5-0.3-0.8
		c-0.1-5.2-0.2-10.5-0.3-15.7v-0.8h0.3l1.4-0.1l2-0.2v1.1l-1.7,0.2l0.3,15.2l1.7-0.1v1.1L311.2,149.3z"></path><path class="st8" d="M322.8,144.5c-2.7-5.6-5.3-11.2-7.9-16.7l2.8-0.2l7.9,16.7L322.8,144.5z"></path><path class="st8" d="M330.5,143.9c-2.7-5.7-5.3-11.3-8-16.8l2.8-0.2l8,16.9L330.5,143.9z"></path><path class="st8" d="M341.9,142.5v-0.6c-0.4,0.3-0.9,0.6-1.3,0.9c-0.5,0.3-1,0.4-1.5,0.5c-1.1,0.1-2.1-1.4-2.1-2.2
		c-0.1-0.8,0.2-1.5,0.8-2c0.8-0.7,1.7-1.3,2.6-1.8l1.3-0.6v-0.2c0-0.4,0-0.8-0.1-1.2c-0.1-0.2-0.2-0.4-0.5-0.5
		c-0.3-0.2-0.7-0.2-1-0.2c-0.6,0-1.2,0.3-1.6,0.7l-0.7-0.8c0.7-0.6,1.6-1,2.5-1c0.7-0.1,1.4,0,2,0.4c0.4,0.2,0.8,0.6,1,1.1
		c0.2,0.6,0.3,1.2,0.3,1.8c0,1.2,0.1,2.4,0.1,3.5l0.1,3.1c0,0-0.3,0-1.9,0.1C341.9,142.9,341.9,142.7,341.9,142.5z M341.7,137.7
		l-0.6,0.3c-1.6,0.8-2.2,1.7-2.2,2.6c0,0.3,0.1,0.6,0.3,0.9c0.2,0.2,0.4,0.3,0.6,0.3c0.8-0.2,1.5-0.7,2-1.3L341.7,137.7z"></path><path class="st8" d="M351.8,142.9l-8.1-17.3l2.8-0.1l8.1,17.3L351.8,142.9z"></path><path class="st8" d="M363.2,141.8c0-0.2,0-0.4,0-0.6c-0.4,0.3-0.9,0.6-1.3,0.9c-0.4,0.3-1,0.4-1.5,0.4c-1.1,0-2.1-1.5-2.1-2.3
		c-0.1-0.8,0.2-1.5,0.8-2c0.8-0.7,1.7-1.3,2.6-1.7l1.3-0.6v-0.2c0-0.4-0.1-0.8-0.1-1.2c-0.1-0.2-0.2-0.4-0.4-0.6
		c-0.3-0.2-0.6-0.3-1-0.2c-0.6,0-1.2,0.2-1.6,0.6l-0.7-0.8c1.3-1,3-1.2,4.5-0.5c0.4,0.3,0.8,0.6,1,1.1c0.2,0.6,0.3,1.2,0.3,1.8
		c0,1.2,0.1,2.4,0.1,3.6l0.1,3.1c0,0-0.3,0-1.9,0L363.2,141.8z M363,137l-0.6,0.3c-1.6,0.8-2.2,1.6-2.2,2.6c0,0.3,0.1,0.6,0.3,0.9
		c0.2,0.2,0.4,0.3,0.6,0.3c0.8-0.2,1.5-0.6,2-1.2C363.1,138.9,363,138,363,137z"></path><path class="st8" d="M368.3,132.4c0-0.6,0-1.2-0.1-1.8c3.3,0,6.6,0,9.9,0.1c0,0.6,0,1.2,0.1,1.8
		C374.9,132.4,371.6,132.4,368.3,132.4z M368.4,136.3c0-0.6,0-1.2-0.1-1.8c3.3,0,6.6,0,10,0.1c0,0.6,0,1.2,0.1,1.8
		C375.1,136.3,371.7,136.3,368.4,136.3L368.4,136.3z"></path><path class="st8" d="M385.7,146.9c-2.1-2.7-3.2-5.9-3.4-9.3c-0.1-3.1,0.7-6.2,2.5-8.8h1.2c-1.1,1.6-4,8.9,0.8,18.1H385.7z"></path><path class="st8" d="M393.8,142.3v-0.6c-0.4,0.3-0.8,0.6-1.3,0.8c-0.5,0.2-1,0.4-1.5,0.4c-1.1-0.1-2.1-1.6-2.1-2.4
		c-0.1-0.8,0.2-1.5,0.8-2c0.8-0.6,1.7-1.1,2.6-1.5l1.3-0.5v-0.2c0-0.4-0.1-0.8-0.1-1.2c-0.1-0.2-0.3-0.4-0.5-0.6
		c-0.3-0.2-0.6-0.3-1-0.3c-0.6-0.1-1.2,0.1-1.6,0.5c-0.2-0.3-0.5-0.6-0.7-0.8c0.7-0.6,1.6-0.8,2.5-0.8c0.7,0,1.4,0.2,2,0.6
		c0.4,0.3,0.8,0.7,1,1.2c0.2,0.6,0.3,1.2,0.3,1.8l0.2,3.5l0.1,3c0,0-0.3,0-1.9-0.1L393.8,142.3z M393.6,137.5l-0.6,0.3
		c-1.6,0.6-2.2,1.5-2.1,2.4c0,0.3,0.1,0.6,0.3,0.9c0.2,0.2,0.4,0.3,0.6,0.3c0.8-0.1,1.5-0.5,2-1.1
		C393.7,139.4,393.6,138.5,393.6,137.5L393.6,137.5z"></path><path class="st8" d="M398.8,147.4c1.1-1.5,4-8.7-0.9-18l1.1,0.1c2,2.7,3.2,6,3.4,9.4c0.2,3.1-0.7,6.1-2.4,8.6L398.8,147.4z"></path><path class="st8" d="M407.5,128.6h0.3h0.4l0.4,6.5c0.7-0.6,1.5-0.8,2.4-0.8c1.2,0.1,2.3,0.7,3,1.7c0.8,1.1,1.2,2.4,1.2,3.7
		c0.2,1.2-0.1,2.4-0.9,3.3c-0.7,0.9-1.8,1.3-2.9,1.1c-0.9-0.1-1.8-0.5-2.4-1.2c0,0.3,0,0.7,0,1l-1.9-0.1c-0.3-5.1-0.6-10.3-0.8-15.4
		L407.5,128.6z M410.7,135.5c-0.8,0-1.6,0.3-2.1,1c0.1,1.7,0.2,3.4,0.3,5c0.2,0.4,0.5,0.7,0.8,1c0.3,0.3,0.8,0.5,1.2,0.6
		c0.7,0.1,1.3-0.3,1.6-0.9c0.5-0.9,0.6-1.9,0.5-2.9c0-1-0.3-2-0.8-2.8C411.9,135.9,411.4,135.6,410.7,135.5L410.7,135.5z"></path><path class="st8" d="M424.4,144.8v-0.6c-0.4,0.3-0.8,0.5-1.3,0.7c-0.5,0.2-1,0.3-1.5,0.2c-1.2-0.4-2-1.3-2.2-2.5
		c-0.1-0.7,0.2-1.4,0.8-1.8c0.8-0.6,1.6-1,2.6-1.3l1.3-0.4v-0.2c0-0.4-0.1-0.8-0.2-1.2c-0.1-0.2-0.2-0.4-0.5-0.6
		c-0.8-0.5-1.8-0.5-2.6,0c-0.2-0.3-0.5-0.6-0.7-0.9c0.7-0.5,1.6-0.7,2.5-0.5c0.7,0.1,1.4,0.3,2,0.7c0.4,0.3,0.8,0.7,1,1.2
		c0.2,0.6,0.3,1.2,0.3,1.8l0.2,3.4l0.2,3c0,0-0.3-0.1-1.9-0.3L424.4,144.8z M424.1,140.2l-0.6,0.2c-1.5,0.5-2.2,1.3-2.1,2.2
		c0,0.3,0.1,0.6,0.3,0.9c0.2,0.2,0.4,0.3,0.6,0.4c0.7-0.1,1.5-0.4,2-0.9L424.1,140.2z"></path><path class="st8" d="M431.2,151l-1.4-0.2c0.6-2.3,1.3-4.6,1.9-6.9l2.1,0.3C433,146.4,432.1,148.7,431.2,151z"></path><path class="st8" d="M56.5,204.6c-0.8-0.1-1.4-0.8-1.3-1.5c0-0.4,0.2-0.7,0.5-1c0.3-0.2,0.7-0.4,1.1-0.4c0.4,0,0.7,0.2,1,0.5
		c0.2,0.3,0.4,0.6,0.3,1c0,0.4-0.2,0.8-0.5,1C57.3,204.5,56.9,204.6,56.5,204.6z"></path><path class="st8" d="M64.3,205.1c-0.4,0-0.8-0.2-1-0.5c-0.3-0.3-0.4-0.6-0.3-1c0-0.4,0.2-0.8,0.5-1c0.3-0.3,0.7-0.4,1.1-0.4
		c0.4,0,0.7,0.2,1,0.5c0.3,0.3,0.4,0.6,0.3,1c0,0.4-0.2,0.8-0.5,1C65.1,205,64.7,205.1,64.3,205.1z"></path><path class="st8" d="M69.8,209.6l-1.4-0.1l2.9-6.3l2.1,0.1C72.2,205.4,71,207.5,69.8,209.6z M72.6,198.2c-0.4,0-0.8-0.2-1-0.5
		c-0.2-0.3-0.4-0.6-0.3-1c0-0.4,0.2-0.7,0.5-0.9c0.3-0.3,0.7-0.4,1.1-0.3c0.4,0,0.7,0.2,1,0.5c0.3,0.3,0.4,0.6,0.4,1
		c0,0.4-0.2,0.8-0.5,1C73.4,198.1,73,198.2,72.6,198.2L72.6,198.2z"></path><path class="st8" d="M82.2,205.3v-0.5c-0.5,0.3-0.9,0.5-1.4,0.7c-0.5,0.2-1,0.3-1.5,0.3c-1.1-0.1-1.9-1-1.9-2.1
		c0-0.7,0.4-1.3,1-1.6c0.9-0.5,1.8-1,2.8-1.3l1.4-0.4v-0.2c0-0.3,0-0.7,0-1.1c-0.1-0.2-0.2-0.4-0.4-0.5c-0.3-0.2-0.6-0.3-1-0.3
		c-0.6-0.1-1.2,0.1-1.7,0.4l-0.7-0.7c1.4-0.8,3.2-0.8,4.6-0.1c0.4,0.2,0.7,0.6,0.9,1c0.1,0.5,0.2,1,0.1,1.5c-0.1,1-0.1,2-0.2,3
		s-0.1,1.7-0.2,2.6c0,0-0.3,0-1.9-0.1L82.2,205.3z M82.4,201.3l-0.7,0.2c-1.7,0.5-2.4,1.2-2.4,2.1c0,0.3,0,0.5,0.2,0.8
		c0.2,0.2,0.4,0.3,0.6,0.3c0.8-0.1,1.5-0.4,2.2-0.9L82.4,201.3z"></path><path class="st8" d="M93.8,205.7v-0.5c-0.5,0.2-0.9,0.5-1.4,0.7c-0.5,0.2-1,0.3-1.5,0.3c-1.1-0.1-1.9-1-1.9-2.1
		c0-0.7,0.4-1.3,1-1.6c0.9-0.5,1.8-1,2.8-1.3l1.4-0.4v-0.2c0-0.3,0-0.7,0-1c-0.1-0.2-0.2-0.4-0.4-0.5c-0.3-0.2-0.6-0.3-1-0.3
		c-0.6,0-1.2,0.1-1.7,0.4l-0.7-0.7c0.8-0.5,1.7-0.7,2.6-0.6c0.7,0,1.4,0.2,2,0.5c0.4,0.2,0.7,0.6,0.9,1c0.1,0.5,0.2,1,0.1,1.5
		l-0.2,2.9l-0.2,2.6c0,0-0.3,0-1.9-0.1L93.8,205.7z M94,201.7l-0.7,0.2c-1.7,0.5-2.4,1.2-2.4,2c0,0.3,0,0.5,0.2,0.8
		c0.2,0.2,0.4,0.3,0.6,0.3c0.8-0.1,1.5-0.4,2.2-0.9L94,201.7z"></path><path class="st8" d="M100.1,210.5h-1.4l2.8-6.2l2.2,0.1L100.1,210.5z"></path><path class="st8" d="M109.8,193.9h0.6c-0.1,1.8-0.2,3.6-0.3,5.4c0.7-0.5,1.6-0.8,2.5-0.8c1.1,0,2.1,0.4,2.9,1.2
		c1.3,1.8,1.1,4.3-0.3,5.9c-0.8,0.8-2,1.2-3.1,1.2c-0.9,0-1.7-0.3-2.3-0.9v0.8h-1.9l0.8-12.9L109.8,193.9z M112.3,199.5
		c-0.9,0-1.7,0.4-2.3,1l-0.2,4.2c0.1,0.3,0.4,0.5,0.8,0.8c0.4,0.3,0.8,0.4,1.2,0.4c0.7,0,1.4-0.3,1.8-0.8c0.5-0.7,0.8-1.6,0.8-2.5
		c0.1-0.8-0.1-1.6-0.5-2.3C113.5,199.8,112.9,199.5,112.3,199.5L112.3,199.5z"></path><path class="st8" d="M121.8,199.9c-0.4,0-0.7-0.2-1-0.4c-0.2-0.2-0.4-0.6-0.4-0.9c0-0.4,0.2-0.7,0.5-0.9c0.3-0.3,0.7-0.4,1.1-0.4
		c0.4,0,0.7,0.1,1,0.4c0.3,0.2,0.4,0.6,0.4,0.9c0,0.4-0.2,0.8-0.5,1C122.6,199.8,122.2,199.9,121.8,199.9z M121.4,207
		c-0.4,0-0.7-0.1-1-0.4c-0.3-0.2-0.4-0.6-0.4-0.9c0-0.4,0.2-0.7,0.5-0.9c0.3-0.2,0.6-0.4,1-0.4c0.4,0,0.7,0.1,1,0.4
		c0.3,0.2,0.4,0.6,0.4,0.9c0,0.4-0.2,0.8-0.5,1C122.2,206.9,121.8,207,121.4,207L121.4,207z"></path><path class="st8" d="M132.3,206.3v-0.5c-0.5,0.3-0.9,0.5-1.4,0.7c-0.5,0.2-1,0.3-1.5,0.3c-1.1-0.1-1.9-0.9-2-2c0-0.7,0.4-1.3,1-1.6
		c0.9-0.6,1.8-1,2.8-1.4l1.3-0.5v-0.2c0-0.3,0-0.7,0-1c-0.1-0.2-0.2-0.4-0.4-0.5c-0.3-0.2-0.7-0.2-1-0.2c-0.6,0-1.2,0.2-1.7,0.5
		l-0.7-0.7c0.8-0.5,1.7-0.7,2.6-0.7c0.7,0,1.4,0.1,2,0.4c0.4,0.2,0.8,0.5,1,0.9c0.1,0.5,0.2,1,0.2,1.5c0,1-0.1,1.9-0.1,2.9l-0.1,2.5
		c0,0-0.3,0-1.9,0L132.3,206.3z M132.5,202.4l-0.7,0.3c-1.6,0.6-2.4,1.3-2.4,2.1c0,0.3,0,0.5,0.2,0.7c0.2,0.2,0.4,0.2,0.6,0.2
		c0.8-0.1,1.5-0.5,2.1-1L132.5,202.4z"></path><path class="st8" d="M138.3,198.6c0-0.5,0.1-1,0.1-1.4c3.4,0,6.8,0,10.1-0.1l-0.1,1.5C145,198.5,141.6,198.6,138.3,198.6z
		 M138.1,201.8l0.1-1.5c3.4,0,6.8-0.1,10.1-0.1l-0.1,1.5C144.9,201.8,141.5,201.8,138.1,201.8L138.1,201.8z"></path><path class="st8" d="M153.9,193.9h0.6c-0.1,1.8-0.1,3.6-0.2,5.4c0.7-0.5,1.6-0.8,2.5-0.9c1.1-0.1,2.1,0.3,2.9,1.1
		c0.7,0.8,1,1.9,0.9,3c0,1.1-0.4,2.1-1.2,2.9c-0.8,0.8-1.9,1.3-3.1,1.3c-0.8,0.1-1.7-0.2-2.3-0.8v0.8h-1.9c0.2-4.3,0.4-8.6,0.5-12.9
		L153.9,193.9z M156.6,199.4c-0.9,0.1-1.7,0.4-2.3,1.1c-0.1,1.4-0.1,2.8-0.2,4.2c0.1,0.3,0.4,0.5,0.8,0.8c0.4,0.2,0.8,0.4,1.2,0.4
		c0.7,0,1.4-0.3,1.8-0.9c0.5-0.7,0.8-1.6,0.8-2.6c0.1-0.8-0.1-1.6-0.5-2.3C157.8,199.6,157.2,199.3,156.6,199.4z"></path><path class="st8" d="M173,206.4c-0.4,0-0.7-0.1-1-0.4c-0.3-0.2-0.4-0.6-0.4-0.9c0-0.4,0.2-0.7,0.4-1c0.3-0.3,0.7-0.4,1.1-0.4
		c0.4,0,0.7,0.1,1,0.4c0.3,0.2,0.4,0.6,0.4,0.9c0,0.4-0.2,0.8-0.5,1C173.8,206.2,173.4,206.3,173,206.4z"></path><path class="st8" d="M180.8,206.2c-0.4,0-0.7-0.1-1-0.4c-0.3-0.2-0.4-0.6-0.4-0.9c0-0.4,0.2-0.7,0.4-1c0.3-0.3,0.7-0.4,1.1-0.4
		c0.4,0,0.7,0.1,1,0.4c0.3,0.3,0.4,0.6,0.4,1c0,0.4-0.2,0.7-0.5,1C181.5,206,181.1,206.1,180.8,206.2z"></path><path class="st8" d="M196.3,209.1c-1.9-2.1-2.9-4.9-2.9-7.8c0.1-2.8,1.2-5.6,3.1-7.7l1.3-0.1c-1.2,1.4-4.7,7.9-0.4,15.5
		L196.3,209.1z"></path><path class="st8" d="M205,204.6v-0.5c-0.4,0.3-0.9,0.6-1.4,0.8c-0.5,0.2-1,0.4-1.5,0.4c-1.1-0.1-1.9-0.9-2-2c0-0.7,0.4-1.4,1-1.7
		c0.9-0.6,1.8-1.1,2.7-1.5l1.3-0.6v-0.2c0-0.4,0-0.7-0.1-1.1c-0.1-0.2-0.2-0.4-0.4-0.5c-0.3-0.2-0.7-0.2-1-0.2
		c-0.6,0-1.2,0.2-1.7,0.6l-0.7-0.7c0.8-0.5,1.7-0.8,2.6-0.9c0.7-0.1,1.4,0,2,0.3c0.4,0.2,0.8,0.5,1,0.9c0.2,0.5,0.2,1,0.2,1.5
		c0,1,0,2.1,0,3.1s0,1.8-0.1,2.6c0,0-0.3,0-1.9,0L205,204.6z M205.1,200.5l-0.7,0.3c-1.6,0.7-2.3,1.5-2.3,2.3c0,0.3,0.1,0.5,0.2,0.8
		c0.2,0.2,0.4,0.2,0.6,0.2c0.8-0.2,1.5-0.5,2.1-1C205,202.1,205,201.3,205.1,200.5L205.1,200.5z"></path><path class="st8" d="M209.7,208.7c1.2-1.4,4.6-8.1,0.3-15.7l1.2-0.1c1.9,2.2,3,5,2.9,7.9c-0.1,2.9-1.2,5.6-3.1,7.8L209.7,208.7z"></path><path class="st8" d="M218.1,208.9h-1.4l2.5-6.7l2.1-0.1C220.2,204.4,219.2,206.6,218.1,208.9z"></path><path class="st8" d="M228.7,208c-2-2.2-3-5.1-3-8c0.1-2.9,1.1-5.7,3-8l1.3-0.1c-1.2,1.5-4.6,8.2-0.1,16L228.7,208z"></path><path class="st8" d="M235.3,190.1h0.3h0.4v5.9c0.7-0.6,1.6-0.9,2.5-1c1.1-0.1,2.2,0.3,2.9,1.1c0.7,0.9,1.1,2.1,1,3.2
		c0.1,1.2-0.3,2.3-1.1,3.2c-0.8,0.9-1.9,1.4-3.1,1.4c-0.9,0.1-1.7-0.2-2.3-0.8v0.9l-1.9,0.1l0.1-13.9L235.3,190.1z M238.1,195.9
		c-0.9,0.1-1.7,0.5-2.2,1.2v4.6c0.1,0.3,0.5,0.5,0.8,0.8c0.4,0.3,0.8,0.4,1.2,0.4c0.7,0,1.4-0.4,1.7-1c0.5-0.8,0.7-1.8,0.7-2.8
		c0.1-0.9-0.1-1.7-0.6-2.5C239.4,196.1,238.8,195.9,238.1,195.9L238.1,195.9z"></path><path class="st8" d="M244.5,207.3c1.2-1.5,4.5-8.4,0.1-16.4l1.2-0.1c2,2.3,3,5.2,3,8.2c0,3-1.1,5.9-3,8.2L244.5,207.3z"></path><path class="st8" d="M252.9,207.5l-1.4,0.1c0.8-2.3,1.6-4.6,2.4-7l2.1-0.1C255,202.8,253.9,205.2,252.9,207.5z"></path><path class="st8" d="M263.4,206.6c-2-2.3-3.1-5.3-3.1-8.4c0-3,1.1-6,2.9-8.3l1.3-0.1c-1.2,1.6-4.5,8.6,0.1,16.7L263.4,206.6z"></path><path class="st8" d="M268.3,201.3c-0.8-0.9-1.3-2.1-1.2-3.3c-0.1-1.2,0.4-2.5,1.2-3.4c0.8-0.9,1.8-1.4,3-1.4c1-0.1,1.9,0.2,2.7,0.8
		l-0.6,0.7c-0.5-0.4-1-0.5-1.6-0.5c-0.8,0-1.5,0.4-1.9,1.1c-0.4,0.8-0.7,1.7-0.6,2.6c0,0.9,0.2,1.7,0.6,2.5c0.4,0.6,1.1,1,1.9,0.9
		c0.6,0,1.2-0.2,1.6-0.6l0.7,0.6C272.4,202.8,269.9,202.8,268.3,201.3L268.3,201.3z"></path><path class="st8" d="M276.2,206.1c1.2-1.5,4.4-8.7-0.1-17l1.2-0.1c2,2.4,3.1,5.4,3.1,8.5c0,3.1-1,6-2.9,8.5L276.2,206.1z"></path><path class="st8" d="M284.6,206.3l-1.4,0.1c0.8-2.4,1.6-4.8,2.4-7.2l2.1-0.1C286.6,201.4,285.6,203.9,284.6,206.3z"></path><path class="st8" d="M293.6,201.5c-0.4,0-0.8-0.1-1-0.4c-0.3-0.3-0.4-0.7-0.4-1.1c0-0.4,0.1-0.8,0.4-1.1c0.3-0.3,0.6-0.5,1-0.5
		c0.4,0,0.7,0.1,1,0.4c0.3,0.3,0.4,0.7,0.4,1.1c0,0.4-0.1,0.8-0.4,1.1C294.3,201.3,294,201.4,293.6,201.5z"></path><path class="st8" d="M301.4,201.2c-0.4,0-0.8-0.1-1-0.4c-0.3-0.3-0.4-0.7-0.4-1.1c0-0.4,0.1-0.8,0.4-1.1c0.3-0.3,0.6-0.5,1-0.5
		c0.4,0,0.8,0.1,1,0.4c0.3,0.3,0.4,0.7,0.4,1.1c0,0.4-0.1,0.8-0.4,1.1C302.2,201,301.8,201.2,301.4,201.2z"></path><path class="st8" d="M307.4,205.5H306c0.8-2.4,1.5-4.9,2.3-7.4l2.1-0.1C309.4,200.5,308.4,203,307.4,205.5z"></path><path class="st8" d="M319.7,199.7v-0.6c-0.4,0.3-0.9,0.6-1.4,0.9c-0.5,0.3-1,0.4-1.5,0.5c-1.2,0-2.1-1.4-2.1-2.3
		c-0.1-0.8,0.3-1.5,0.9-2c0.8-0.7,1.7-1.3,2.7-1.7l1.3-0.6v-0.2c0-0.4,0-0.8-0.1-1.2c-0.1-0.2-0.3-0.4-0.5-0.5
		c-0.3-0.2-0.7-0.3-1-0.2c-0.6,0-1.2,0.2-1.6,0.7l-0.7-0.8c0.7-0.6,1.6-1,2.5-1c0.7-0.1,1.4,0.1,2,0.4c0.4,0.2,0.8,0.6,1,1.1
		c0.2,0.6,0.3,1.2,0.3,1.8c0,1.2,0,2.3,0.1,3.5c0,1,0,2,0.1,3c0,0-0.3,0-1.9,0L319.7,199.7z M319.6,195.1l-0.7,0.3
		c-1.6,0.8-2.3,1.6-2.2,2.6c0,0.3,0.1,0.6,0.3,0.9c0.2,0.2,0.4,0.3,0.6,0.3c0.8-0.2,1.5-0.6,2.1-1.2L319.6,195.1z"></path><path class="st8" d="M331.3,199.4c0-0.2,0-0.4,0-0.6c-0.4,0.3-0.9,0.6-1.3,0.9c-0.5,0.3-1,0.4-1.5,0.4c-1.2,0-2.1-1.4-2.1-2.3
		c-0.1-0.8,0.2-1.5,0.9-2c0.8-0.7,1.7-1.3,2.7-1.7l1.3-0.6v-0.2c0-0.4,0-0.8-0.1-1.2c-0.1-0.2-0.2-0.4-0.4-0.5
		c-0.3-0.2-0.7-0.3-1-0.2c-0.6,0-1.2,0.2-1.6,0.6l-0.7-0.8c0.7-0.6,1.6-1,2.5-1c0.7-0.1,1.4,0.1,2,0.4c0.4,0.2,0.8,0.6,1,1.1
		c0.2,0.6,0.3,1.2,0.3,1.8l0.1,3.5l0.1,3c0,0-0.3,0-1.9,0C331.3,199.8,331.3,199.6,331.3,199.4z M331.2,194.7l-0.7,0.3
		c-1.6,0.8-2.3,1.6-2.2,2.6c0,0.3,0.1,0.6,0.3,0.9c0.2,0.2,0.4,0.3,0.6,0.3c0.8-0.2,1.5-0.6,2.1-1.2
		C331.2,196.6,331.2,195.6,331.2,194.7L331.2,194.7z"></path><path class="st8" d="M338.1,204.7h-1.4l2.2-7.5l2.1-0.1C340,199.7,339,202.2,338.1,204.7z"></path><path class="st8" d="M336.2,186.4h0.5v0.3h-0.6v-0.3L336.2,186.4z M345.6,204h-1.4c-0.2-0.2-0.3-0.5-0.3-0.8
		c-0.2-5.3-0.3-10.7-0.5-16.1v-0.8h0.3h1.4h2c0,0.4,0,0.8,0,1.1h-1.8c0.2,5.2,0.4,10.3,0.5,15.5h1.7v1.1L345.6,204z"></path><path class="st8" d="M355.1,198.9v-0.6c-0.4,0.3-0.9,0.6-1.3,0.9c-0.5,0.3-1,0.4-1.5,0.4c-1.2,0-2.1-1.5-2.1-2.3
		c-0.1-0.8,0.2-1.5,0.8-2c0.8-0.7,1.7-1.2,2.7-1.7l1.3-0.6v-0.2c0-0.4-0.1-0.8-0.1-1.2c-0.1-0.2-0.2-0.4-0.5-0.6
		c-0.3-0.2-0.6-0.3-1-0.3c-0.6,0-1.2,0.2-1.6,0.6l-0.7-0.8c1.3-1,3.1-1.2,4.6-0.5c0.4,0.3,0.8,0.6,1,1.1c0.2,0.6,0.3,1.2,0.3,1.8
		c0,1.2,0.1,2.4,0.1,3.5c0,1,0.1,2,0.1,3.1c0,0-0.3,0-1.9,0C355.2,199.4,355.1,199.1,355.1,198.9z M355,194.2l-0.7,0.3
		c-1.6,0.8-2.2,1.6-2.2,2.6c0,0.3,0.1,0.6,0.3,0.9c0.2,0.2,0.4,0.3,0.6,0.3c0.8-0.2,1.5-0.6,2.1-1.2C355,196.1,355,195.1,355,194.2
		L355,194.2z"></path><path class="st8" d="M362.5,184.1h0.6c0.1,2.2,0.2,4.4,0.2,6.6c0.7-0.6,1.5-1,2.4-1c1.2,0,2.3,0.5,3,1.4c0.8,1.1,1.2,2.3,1.2,3.7
		c0.1,1.2-0.2,2.5-0.9,3.5c-0.7,0.9-1.8,1.5-3,1.5c-0.9,0-1.8-0.3-2.4-1v1h-1.9l-0.6-15.6L362.5,184.1z M365.6,190.8
		c-0.9,0.1-1.7,0.5-2.2,1.3c0.1,1.7,0.1,3.4,0.2,5.1c0.2,0.4,0.5,0.7,0.8,0.9c0.4,0.3,0.8,0.5,1.2,0.5c0.7,0,1.4-0.4,1.7-1
		c0.5-0.9,0.7-2,0.5-3.1c0-1-0.2-2-0.7-2.8C366.9,191.1,366.3,190.8,365.6,190.8z"></path><path class="st8" d="M375.1,203.8h-2c0-0.4,0-0.8,0-1.1h1.7c-0.2-5.2-0.4-10.4-0.6-15.6h-1.7c0-0.4,0-0.8,0-1.1h3.4
		c0.2,0.2,0.3,0.5,0.3,0.9c0.2,5.4,0.5,10.8,0.7,16.2c0,0.3,0,0.6,0,0.9L375.1,203.8z"></path><path class="st8" d="M383.1,199.7c-0.4,0-0.8-0.2-1.1-0.5c-0.3-0.3-0.4-0.7-0.5-1.1c0-0.4,0.1-0.8,0.4-1.1c0.2-0.3,0.6-0.5,1-0.5
		c0.4,0,0.8,0.2,1.1,0.5c0.3,0.3,0.4,0.7,0.5,1.1c0,0.4-0.1,0.8-0.4,1.2C383.8,199.5,383.5,199.7,383.1,199.7z"></path><path class="st8" d="M390.9,199.8c-0.4,0-0.8-0.2-1.1-0.5c-0.3-0.3-0.5-0.7-0.5-1.1c0-0.4,0.1-0.8,0.4-1.1c0.2-0.3,0.6-0.5,1-0.5
		c0.4,0,0.8,0.2,1.1,0.5c0.3,0.3,0.5,0.7,0.5,1.1c0,0.4-0.1,0.8-0.4,1.2C391.6,199.6,391.3,199.8,390.9,199.8z"></path><path class="st8" d="M388.7,185.9h0.5v0.3h-0.6v-0.3H388.7z M398.4,204l-1.4,0c-0.2-0.2-0.3-0.5-0.3-0.9
		c-0.3-5.4-0.5-10.7-0.8-16.1c0-0.3,0-0.6,0-0.8h0.3h1.4l2,0.1l0.1,1.1l-1.8-0.1c0.3,5.2,0.5,10.3,0.8,15.5h1.7l0.1,1.1L398.4,204z"></path><path class="st8" d="M407.9,199.3v-0.6c-0.4,0.3-0.9,0.6-1.3,0.8c-0.5,0.2-1,0.4-1.5,0.4c-1.2,0-2.1-1.6-2.2-2.4
		c-0.1-0.7,0.2-1.5,0.8-1.9c0.8-0.6,1.7-1.2,2.6-1.6l1.3-0.5v-0.2c0-0.4-0.1-0.8-0.1-1.2c-0.1-0.2-0.3-0.4-0.5-0.6
		c-0.3-0.2-0.6-0.3-1-0.3c-0.6-0.1-1.2,0.1-1.6,0.6c-0.2-0.3-0.5-0.5-0.8-0.8c0.7-0.6,1.6-0.8,2.5-0.8c0.7,0,1.4,0.2,2.1,0.5
		c0.4,0.3,0.8,0.7,1,1.1c0.2,0.6,0.3,1.2,0.3,1.8c0.1,1.2,0.1,2.3,0.2,3.5c0,1,0.1,2,0.2,3c0,0-0.3,0-1.9-0.1L407.9,199.3z
		 M407.6,194.6l-0.7,0.3c-1.6,0.7-2.2,1.5-2.2,2.4c0,0.3,0.1,0.6,0.3,0.9c0.2,0.2,0.4,0.3,0.6,0.3c0.8-0.1,1.5-0.5,2-1.1
		L407.6,194.6z"></path><path class="st8" d="M414.9,185.1h0.3h0.4c0.1,2.1,0.2,4.3,0.4,6.4c0.7-0.6,1.5-0.9,2.4-0.9c1.2,0.1,2.3,0.6,3,1.5
		c0.8,1,1.2,2.3,1.2,3.6c0.2,1.2-0.1,2.4-0.9,3.4c-0.7,0.9-1.8,1.4-3,1.3c-0.9,0-1.8-0.4-2.4-1.1l0.1,1l-1.9-0.1
		c-0.3-5.1-0.6-10.2-0.9-15.3L414.9,185.1z M418.2,191.8c-0.9,0-1.7,0.4-2.2,1.1c0.1,1.7,0.2,3.4,0.3,5c0.2,0.4,0.5,0.7,0.9,1
		c0.4,0.3,0.8,0.5,1.3,0.5c0.7,0.1,1.3-0.3,1.7-0.9c0.5-0.9,0.6-2,0.5-3c0-1-0.3-1.9-0.8-2.8C419.4,192.2,418.8,191.8,418.2,191.8
		L418.2,191.8z"></path><path class="st8" d="M427.9,204.9l-2-0.1c0-0.4,0-0.7-0.1-1.1l1.7,0.1c-0.3-5-0.6-10.1-0.9-15.1l-1.7-0.1c0-0.4,0-0.7-0.1-1.1
		l2,0.1l1.4,0.1c0.2,0.2,0.3,0.5,0.3,0.8l1,15.6l0,0.8L427.9,204.9z"></path><path class="st8" d="M424.9,187.4h0.3h0.1v0.3h-0.1h-0.3h-0.1v-0.3H424.9z M434.8,205.2l-1.4-0.1c-0.2-0.2-0.3-0.5-0.4-0.8
		c-0.3-5.2-0.7-10.4-1-15.6c0-0.3,0-0.6,0-0.8h0.3l1.4,0.1l2,0.2l0.1,1.1l-1.8-0.1c0.3,5,0.7,10,1,15l1.7,0.1l0.1,1.1L434.8,205.2z"></path><path class="st8" d="M433.2,188h0.3h0.1v0.3h-0.1h-0.3h-0.1V188L433.2,188z M443.2,205.7l-1.4-0.1c-0.2-0.2-0.3-0.5-0.4-0.8
		c-0.3-5.1-0.7-10.2-1-15.4c0-0.3,0-0.5,0-0.8h0.3l1.4,0.1l2,0.2l0.1,1.1l-1.8-0.2l1,14.8l1.7,0.1c0,0.4,0,0.7,0.1,1.1L443.2,205.7z
		"></path><path class="st8" d="M58.8,254.6c-2.2-5.1-4.4-10.2-6.6-15.4H55c2.2,5.2,4.4,10.3,6.7,15.3L58.8,254.6z"></path><path class="st8" d="M66.8,254.4c-2.2-5-4.5-10.1-6.7-15.2H63c2.2,5.1,4.5,10.1,6.7,15.1L66.8,254.4z"></path><path class="st8" d="M78.7,253.5V253c-0.5,0.3-0.9,0.5-1.4,0.7c-0.5,0.2-1,0.4-1.6,0.4c-1.1,0-2-0.9-2-2c0-0.7,0.4-1.3,1-1.7
		c0.9-0.6,1.9-1,3-1.4l1.4-0.5v-0.2c0-0.3,0-0.7,0-1.1c-0.1-0.2-0.2-0.4-0.4-0.5c-0.3-0.2-0.7-0.2-1-0.2c-0.6,0-1.2,0.2-1.7,0.5
		l-0.7-0.7c0.8-0.5,1.7-0.8,2.7-0.8c0.7,0,1.4,0.1,2.1,0.4c0.4,0.2,0.7,0.5,0.9,0.9c0.1,0.5,0.2,1,0.1,1.5c-0.1,1-0.1,2-0.2,3
		s-0.1,1.7-0.2,2.6c0,0-0.3,0-2,0L78.7,253.5z M79,249.5l-0.7,0.3c-1.7,0.6-2.4,1.4-2.5,2.2c0,0.3,0,0.5,0.2,0.8
		c0.2,0.2,0.4,0.2,0.6,0.2c0.8-0.1,1.6-0.5,2.2-1L79,249.5z"></path><path class="st8" d="M89,254c-2.3-4.9-4.6-9.8-6.8-14.8h2.9c2.3,4.9,4.5,9.9,6.8,14.7L89,254z"></path><path class="st8" d="M100.9,253.2v-0.5c-0.5,0.3-0.9,0.5-1.4,0.7c-0.5,0.2-1,0.3-1.6,0.4c-1.1,0-1.9-0.9-2-1.9c0-0.7,0.4-1.3,1-1.7
		c0.9-0.6,1.8-1,2.8-1.4l1.4-0.5v-0.2c0-0.3,0-0.7,0-1c-0.1-0.2-0.2-0.4-0.4-0.5c-0.3-0.2-0.7-0.2-1-0.2c-0.6,0-1.2,0.2-1.7,0.5
		l-0.7-0.7c0.8-0.5,1.7-0.7,2.7-0.7c0.7,0,1.4,0.1,2.1,0.4c0.4,0.2,0.8,0.5,1,0.9c0.1,0.5,0.2,1,0.2,1.5l-0.2,2.9l-0.2,2.5
		c0,0-0.3,0-2,0L100.9,253.2z M101.1,249.2l-0.7,0.3c-1.7,0.6-2.4,1.4-2.5,2.1c0,0.3,0,0.5,0.2,0.7c0.2,0.2,0.4,0.3,0.6,0.2
		c0.8-0.1,1.6-0.5,2.2-1L101.1,249.2z"></path><path class="st8" d="M107,245.4l0.1-1.5h10.3l-0.1,1.5H107z M106.8,248.7l0.1-1.5h10.3l-0.1,1.5H106.8z"></path><path class="st8" d="M123.8,257.2c-1.9-2.1-2.8-4.8-2.7-7.6c0.2-2.8,1.4-5.3,3.4-7.3h1.3c-1.3,1.3-5,7.4-0.8,14.9H123.8z"></path><path class="st8" d="M132.7,253.1v-0.5c-0.5,0.3-0.9,0.5-1.4,0.7c-0.5,0.2-1,0.3-1.6,0.3c-1.1-0.1-1.9-0.9-2-2c0-0.7,0.4-1.3,1-1.6
		c0.9-0.5,1.8-1,2.8-1.4l1.4-0.5V248c0-0.3,0-0.7,0-1c-0.1-0.2-0.2-0.4-0.4-0.5c-0.3-0.2-0.7-0.2-1-0.2c-0.6,0-1.2,0.2-1.7,0.5
		l-0.7-0.7c0.8-0.5,1.7-0.7,2.7-0.7c0.7,0,1.4,0.1,2.1,0.4c0.4,0.2,0.8,0.5,1,0.9c0.2,0.5,0.2,1,0.2,1.5l-0.1,2.9l-0.1,2.5
		c0,0-0.3,0-2,0L132.7,253.1z M132.9,249.2l-0.7,0.3c-1.7,0.6-2.4,1.3-2.4,2.1c0,0.3,0,0.5,0.2,0.7c0.2,0.2,0.4,0.3,0.6,0.2
		c0.8-0.1,1.6-0.5,2.2-1C132.8,250.8,132.9,250,132.9,249.2L132.9,249.2z"></path><path class="st8" d="M137.5,257.2c1.3-1.3,4.9-7.4,0.7-14.9h1.2c1.9,2.1,2.9,4.8,2.8,7.6c-0.2,2.8-1.4,5.3-3.3,7.3L137.5,257.2z"></path><path class="st8" d="M148.3,241h0.7c-0.1,1.8-0.1,3.6-0.2,5.4c0.8-0.5,1.6-0.8,2.6-0.8c1.1,0,2.2,0.4,2.9,1.2c0.7,0.8,1,1.9,0.9,3
		c0,1.1-0.4,2.1-1.2,2.9c-0.9,0.8-2,1.2-3.2,1.2c-0.9,0-1.7-0.3-2.4-0.9v0.8h-1.9L147,241H148.3z M151,246.6c-0.9,0-1.7,0.4-2.3,1
		l-0.2,4.2c0.1,0.3,0.5,0.5,0.8,0.8c0.4,0.3,0.8,0.4,1.2,0.4c0.7,0,1.4-0.3,1.8-0.8c0.5-0.7,0.8-1.6,0.8-2.5
		c0.1-0.8-0.1-1.6-0.5-2.3C152.2,246.8,151.6,246.5,151,246.6L151,246.6z"></path><path class="st8" d="M164.5,253.3v-0.5c-0.5,0.3-0.9,0.5-1.4,0.7c-0.5,0.2-1,0.3-1.6,0.3c-1.1-0.1-1.9-0.9-2-2c0-0.7,0.4-1.3,1-1.6
		c0.9-0.6,1.8-1,2.8-1.4l1.4-0.5v-0.2c0-0.3,0-0.7,0-1c-0.1-0.2-0.2-0.4-0.4-0.5c-0.3-0.2-0.7-0.2-1-0.2c-0.6,0-1.2,0.1-1.7,0.5
		l-0.7-0.7c0.8-0.5,1.7-0.7,2.6-0.7c0.7,0,1.4,0.1,2.1,0.4c0.4,0.2,0.8,0.5,1,0.9c0.2,0.5,0.2,1,0.2,1.5c0,1-0.1,2-0.1,3l-0.1,2.6
		c0,0-0.3,0-2,0L164.5,253.3z M164.7,249.3l-0.7,0.3c-1.7,0.6-2.4,1.3-2.4,2.1c0,0.3,0.1,0.5,0.2,0.7c0.2,0.2,0.4,0.3,0.6,0.2
		c0.8-0.1,1.5-0.4,2.2-0.9L164.7,249.3z"></path><path class="st8" d="M171.1,257.9h-1.5c0.9-2.1,1.8-4.2,2.7-6.3h2.2C173.4,253.8,172.2,255.9,171.1,257.9z"></path><path class="st8" d="M180.5,254.1c-0.4,0-0.8-0.2-1.1-0.4c-0.3-0.3-0.4-0.6-0.4-1c0-0.4,0.2-0.7,0.4-0.9c0.3-0.3,0.7-0.4,1.1-0.4
		c0.4,0,0.8,0.1,1.1,0.4c0.5,0.5,0.5,1.3,0,1.8c0,0-0.1,0.1-0.1,0.1C181.3,254,180.9,254.1,180.5,254.1z"></path><path class="st8" d="M188.4,254.2c-0.4,0-0.8-0.2-1.1-0.4c-0.3-0.3-0.4-0.6-0.4-1c0-0.4,0.2-0.7,0.4-1c0.3-0.3,0.7-0.4,1.1-0.4
		c0.4,0,0.8,0.1,1.1,0.4c0.5,0.5,0.6,1.3,0.1,1.9c0,0-0.1,0.1-0.1,0.1C189.2,254.1,188.8,254.2,188.4,254.2z"></path><path class="st8" d="M196.4,254.4c-0.4,0-0.7-0.2-1-0.4c-0.3-0.3-0.4-0.6-0.4-1c0-0.4,0.1-0.8,0.4-1c0.3-0.3,0.7-0.4,1.1-0.4
		c0.4,0,0.8,0.2,1.1,0.4c0.5,0.5,0.5,1.4,0,1.9c0,0-0.1,0.1-0.1,0.1C197.2,254.2,196.8,254.4,196.4,254.4z"></path><path class="st8" d="M202.2,258.6h-1.4c0.9-2.1,1.7-4.3,2.6-6.4h2.2C204.4,254.3,203.3,256.5,202.2,258.6z M204.4,247.1
		c-0.8,0-1.4-0.6-1.5-1.4c0-0.4,0.2-0.7,0.4-1c0.6-0.6,1.5-0.6,2.1,0c0.3,0.3,0.4,0.6,0.4,1c0,0.4-0.2,0.7-0.5,1
		C205.2,246.9,204.8,247,204.4,247.1z"></path><path class="st8" d="M214.5,253.9v-0.5c-0.5,0.3-0.9,0.5-1.4,0.7c-0.5,0.2-1,0.3-1.6,0.3c-1.1-0.1-2-1-2.1-2.1c0-0.7,0.4-1.4,1-1.7
		c0.9-0.6,1.8-1.1,2.8-1.4l1.4-0.5v-0.2c0-0.4,0-0.7-0.1-1.1c-0.1-0.2-0.2-0.4-0.4-0.5c-0.3-0.2-0.7-0.2-1-0.2
		c-0.6,0-1.2,0.2-1.7,0.5l-0.7-0.7c0.8-0.5,1.7-0.8,2.6-0.8c0.7,0,1.4,0.1,2.1,0.4c0.4,0.2,0.8,0.6,1,1c0.2,0.5,0.2,1,0.2,1.6
		c0,1,0,2.1,0,3.1s0,1.8,0,2.7c0,0-0.3,0-2-0.1L214.5,253.9z M214.6,249.7l-0.7,0.3c-1.7,0.6-2.4,1.4-2.4,2.2c0,0.3,0.1,0.6,0.2,0.8
		c0.2,0.2,0.4,0.3,0.6,0.3c0.8-0.1,1.5-0.5,2.2-1C214.5,251.4,214.6,250.6,214.6,249.7z"></path><path class="st8" d="M221.1,258.8h-1.5l2.6-6.6h2.2C223.3,254.5,222.2,256.7,221.1,258.8z"></path><path class="st8" d="M230.2,241h0.7c0,1.9,0,3.9,0,5.8c0.7-0.6,1.6-0.9,2.5-0.9c1.1,0,2.2,0.4,3,1.3c0.7,0.9,1.1,2.1,1,3.3
		c0.1,1.1-0.3,2.3-1.1,3.1c-0.8,0.9-1.9,1.3-3.1,1.2c-0.9,0-1.8-0.3-2.4-0.9v0.9h-2l0.1-13.8L230.2,241z M233.1,247
		c-0.9,0.1-1.7,0.4-2.3,1.1c0,1.5,0,3,0,4.6c0.1,0.3,0.5,0.6,0.8,0.9c0.4,0.3,0.8,0.4,1.2,0.4c0.7,0,1.4-0.3,1.8-0.9
		c0.5-0.8,0.8-1.8,0.7-2.7c0.1-0.9-0.1-1.8-0.6-2.5C234.3,247.3,233.7,247,233.1,247z"></path><path class="st8" d="M242.8,247.4c-0.4,0-0.8-0.2-1.1-0.5c-0.3-0.3-0.4-0.6-0.4-1c0-0.4,0.2-0.7,0.4-1c0.6-0.6,1.6-0.6,2.1,0
		c0.3,0.3,0.4,0.6,0.4,1C244.3,246.7,243.6,247.4,242.8,247.4L242.8,247.4z M242.8,255.1c-0.4,0-0.8-0.2-1.1-0.5
		c-0.3-0.3-0.4-0.6-0.4-1c0-0.4,0.2-0.7,0.4-1c0.6-0.6,1.6-0.5,2.1,0.1c0.3,0.3,0.4,0.6,0.4,1c0,0.4-0.2,0.7-0.4,1
		C243.6,255,243.2,255.1,242.8,255.1L242.8,255.1z"></path><path class="st8" d="M253.8,254.5V254c-0.4,0.3-0.9,0.5-1.4,0.8c-0.5,0.2-1,0.3-1.6,0.4c-1.1-0.2-2-1.1-2.1-2.2
		c0-0.7,0.3-1.4,0.9-1.8c0.9-0.6,1.8-1.1,2.8-1.5l1.3-0.5v-0.2c0-0.4,0-0.8-0.1-1.1c-0.1-0.2-0.2-0.4-0.4-0.5
		c-0.3-0.2-0.6-0.3-1-0.2c-0.6,0-1.2,0.2-1.7,0.5l-0.7-0.7c0.8-0.5,1.7-0.8,2.6-0.8c0.7,0,1.4,0.1,2.1,0.4c0.4,0.2,0.8,0.6,1,1
		c0.2,0.5,0.3,1.1,0.2,1.6v3.2c0,0.9,0,1.9,0,2.8c0,0-0.3,0-2-0.1L253.8,254.5z M253.8,250.2l-0.7,0.3c-1.6,0.6-2.3,1.4-2.3,2.3
		c0,0.3,0.1,0.6,0.2,0.8c0.2,0.2,0.4,0.3,0.6,0.3c0.8-0.1,1.5-0.5,2.1-1V250.2z"></path><path class="st8" d="M259.5,246v-1.6l10.3,0.1c0,0.6,0,1.1,0,1.6L259.5,246z M259.5,249.6V248l10.3,0.1c0,0.6,0,1.1,0,1.6
		L259.5,249.6z"></path><path class="st8" d="M275.2,241h0.7l0.1,6.1c1.7-1.4,4.1-1.2,5.5,0.4c0.8,1,1.2,2.2,1.1,3.5c0.1,1.2-0.3,2.4-1,3.3
		c-0.8,0.9-1.9,1.4-3.1,1.3c-0.9,0-1.8-0.3-2.4-1v1h-2c0-4.9-0.1-9.8-0.1-14.6H275.2z M278.2,247.3c-0.9,0-1.7,0.5-2.3,1.1
		c0,1.6,0,3.2,0,4.8c0.1,0.3,0.5,0.6,0.8,0.9c0.4,0.3,0.8,0.5,1.3,0.5c0.7,0,1.4-0.3,1.8-0.9c0.5-0.9,0.7-1.9,0.7-2.9
		c0-0.9-0.2-1.8-0.7-2.6C279.4,247.7,278.9,247.4,278.2,247.3L278.2,247.3z"></path><path class="st8" d="M298.6,255.2v-0.6c-0.4,0.3-0.9,0.6-1.4,0.8c-0.5,0.2-1,0.4-1.5,0.4c-1.1-0.2-2-1.1-2.1-2.3
		c-0.1-0.7,0.3-1.5,0.9-1.9c0.8-0.6,1.8-1.2,2.7-1.6l1.3-0.6v-0.2c0-0.4,0-0.8-0.1-1.2c-0.1-0.2-0.2-0.4-0.5-0.5
		c-0.3-0.2-0.6-0.3-1-0.3c-0.6,0-1.2,0.2-1.7,0.6c-0.2-0.2-0.5-0.5-0.7-0.8c0.8-0.6,1.7-0.8,2.6-0.8c0.7,0,1.4,0.1,2.1,0.5
		c0.4,0.3,0.8,0.6,1,1.1c0.2,0.6,0.3,1.1,0.3,1.7c0,1.1,0,2.3,0,3.4l0,2.9c0,0-0.3,0-2-0.1L298.6,255.2z M298.5,250.6l-0.7,0.3
		c-1.6,0.7-2.3,1.5-2.3,2.4c0,0.3,0.1,0.6,0.3,0.9c0.2,0.2,0.4,0.3,0.6,0.3c0.8-0.1,1.5-0.5,2.1-1.1
		C298.6,252.5,298.6,251.6,298.5,250.6z"></path><path class="st8" d="M305.4,260.7H304c0.8-2.4,1.6-4.8,2.4-7.2h2.2C307.5,255.8,306.5,258.3,305.4,260.7z"></path><path class="st8" d="M313.9,241.1h0.7c0,2.1,0.1,4.3,0.1,6.4c0.7-0.6,1.6-1,2.5-1c1.2,0,2.3,0.5,3,1.4c0.8,1,1.2,2.3,1.1,3.6
		c0.1,1.2-0.2,2.4-1,3.4c-0.8,0.9-1.9,1.4-3.1,1.4c-0.9,0-1.8-0.3-2.4-1c0,0.3,0,0.7,0,1h-2c-0.1-5.1-0.2-10.1-0.3-15.2L313.9,241.1
		z M317,247.6c-0.9,0.1-1.7,0.5-2.2,1.2c0,1.7,0.1,3.3,0.1,5c0.2,0.4,0.5,0.7,0.8,0.9c0.4,0.3,0.8,0.5,1.3,0.5c0.7,0,1.4-0.4,1.7-1
		c0.5-0.9,0.7-2,0.6-3c0-1-0.2-1.9-0.7-2.7C318.2,247.9,317.6,247.6,317,247.6L317,247.6z"></path><path class="st8" d="M326.7,248c-0.4,0-0.8-0.2-1.1-0.5c-0.3-0.3-0.4-0.7-0.5-1.1c0-0.4,0.1-0.8,0.4-1.1c0.3-0.3,0.6-0.5,1-0.5
		c0.4,0,0.8,0.2,1.1,0.5c0.3,0.3,0.5,0.7,0.5,1.1c0,0.4-0.1,0.8-0.4,1.1C327.5,247.8,327.1,248,326.7,248z M326.9,256.4
		c-0.4,0-0.8-0.2-1.1-0.5c-0.3-0.3-0.4-0.7-0.4-1.1c0-0.4,0.1-0.8,0.4-1.1c0.3-0.3,0.6-0.5,1-0.5c0.4,0,0.8,0.2,1.1,0.5
		c0.3,0.3,0.5,0.7,0.5,1.1c0,0.4-0.1,0.8-0.3,1.2C327.7,256.3,327.3,256.5,326.9,256.4L326.9,256.4z"></path><path class="st8" d="M337.9,255.7c0-0.2,0-0.4,0-0.6c-0.4,0.3-0.9,0.6-1.4,0.8c-0.5,0.2-1,0.4-1.5,0.4c-1.2,0-2.1-1.5-2.2-2.4
		c-0.1-0.8,0.3-1.5,0.9-1.9c0.8-0.7,1.7-1.2,2.7-1.6l1.3-0.6v-0.2c0-0.4,0-0.8-0.1-1.2c-0.1-0.2-0.3-0.4-0.5-0.6
		c-0.3-0.2-0.6-0.3-1-0.3c-0.6,0-1.2,0.2-1.7,0.6l-0.8-0.8c1.4-1,3.2-1.1,4.7-0.4c0.5,0.3,0.8,0.6,1,1.1c0.2,0.6,0.3,1.2,0.3,1.8
		c0,1.2,0.1,2.3,0.1,3.5l0.1,3c0,0-0.3,0-2,0C338,256.1,338,255.9,337.9,255.7z M337.8,251l-0.7,0.3c-1.6,0.7-2.3,1.6-2.3,2.5
		c0,0.3,0.1,0.6,0.3,0.9c0.2,0.2,0.4,0.3,0.6,0.3c0.8-0.2,1.5-0.6,2.1-1.1L337.8,251z"></path><path class="st8" d="M343.3,246.5c0-0.6,0-1.2,0-1.8h10.3l0.1,1.8L343.3,246.5z M343.5,250.4c0-0.6,0-1.2,0-1.8h10.4l0.1,1.8
		L343.5,250.4z"></path><path class="st8" d="M358.9,241.1h0.7l0.2,6.6c0.7-0.6,1.6-1,2.5-1c1.2,0,2.3,0.5,3,1.4c0.8,1.1,1.2,2.3,1.2,3.7
		c0.1,1.2-0.2,2.5-1,3.5c-0.7,0.9-1.9,1.5-3.1,1.4c-0.9,0-1.8-0.3-2.4-1v1h-2l-0.5-15.6L358.9,241.1z M362.1,247.8
		c-0.9,0.1-1.7,0.5-2.2,1.2l0.2,5.1c0.2,0.4,0.5,0.7,0.9,1c0.4,0.3,0.8,0.5,1.3,0.5c0.7,0,1.4-0.4,1.7-1c0.5-0.9,0.7-2,0.6-3.1
		c0-1-0.2-2-0.7-2.8C363.4,248.2,362.8,247.8,362.1,247.8L362.1,247.8z"></path><path class="st8" d="M376.2,255.9v-0.6c-0.4,0.3-0.9,0.6-1.4,0.9c-0.5,0.3-1,0.4-1.5,0.4c-1.2,0-2.2-1.5-2.2-2.4
		c-0.1-0.8,0.2-1.5,0.9-2c0.8-0.7,1.7-1.2,2.7-1.6l1.3-0.6v-0.2c0-0.4-0.1-0.8-0.1-1.2c-0.1-0.2-0.2-0.4-0.5-0.6
		c-0.3-0.2-0.7-0.3-1-0.3c-0.6,0-1.2,0.2-1.7,0.6l-0.8-0.8c0.7-0.6,1.7-0.9,2.6-0.9c0.7,0,1.4,0.1,2.1,0.5c0.5,0.3,0.8,0.6,1.1,1.1
		c0.2,0.6,0.3,1.2,0.3,1.8l0.1,3.6l0.1,3.1c0,0-0.3,0-2,0C376.2,256.3,376.2,256.1,376.2,255.9z M376,251.1l-0.7,0.3
		c-1.6,0.7-2.3,1.6-2.2,2.6c0,0.3,0.1,0.6,0.3,0.9c0.2,0.2,0.4,0.3,0.6,0.3c0.8-0.2,1.5-0.6,2.1-1.2L376,251.1z"></path><path class="st8" d="M381.4,260.8c1.2-1.6,4.2-9-0.8-18.1h1.2c2.1,2.6,3.3,5.9,3.5,9.2c0.1,3.2-0.8,6.3-2.6,8.9H381.4z"></path><path class="st8" d="M389.9,261.3h-1.5l2.1-7.5h2.2C391.8,256.3,390.9,258.8,389.9,261.3z"></path><path class="st8" d="M400.7,260.7c-2.1-2.6-3.4-5.8-3.5-9.2c-0.1-3.1,0.8-6.3,2.6-8.8h1.3c-1.1,1.6-4.1,9,0.9,18H400.7z"></path><path class="st8" d="M406.3,241.1h0.7c0.1,2.2,0.2,4.3,0.3,6.5c0.7-0.6,1.5-1,2.5-1c1.2,0,2.3,0.5,3.1,1.4c0.8,1,1.3,2.3,1.2,3.6
		c0.2,1.2-0.2,2.5-0.9,3.5c-0.7,0.9-1.9,1.5-3,1.5c-0.9,0-1.8-0.3-2.4-1c0,0.3,0,0.7,0,1h-1.9c-0.3-5.2-0.5-10.3-0.8-15.5
		L406.3,241.1z M409.6,247.7c-0.9,0.1-1.7,0.5-2.2,1.2c0.1,1.7,0.2,3.4,0.3,5.1c0.2,0.4,0.5,0.7,0.9,0.9c0.4,0.3,0.8,0.5,1.3,0.4
		c0.7,0,1.4-0.4,1.7-1c0.5-0.9,0.6-2,0.5-3c0-1-0.3-1.9-0.8-2.8C410.9,248.1,410.2,247.7,409.6,247.7z"></path><path class="st8" d="M416.8,260.5c1.1-1.6,4.1-8.9-1-17.8h1.2c2.1,2.5,3.4,5.7,3.6,9c0.2,3.1-0.7,6.2-2.5,8.8L416.8,260.5z"></path><path class="st8" d="M425.3,260.9h-1.5c0.7-2.5,1.4-4.9,2-7.4h2.2C427.2,255.9,426.3,258.4,425.3,260.9z"></path><path class="st8" d="M436.1,260.1c-2.2-2.5-3.5-5.6-3.6-8.9c-0.2-3.1,0.7-6.1,2.5-8.6h1.3c-1.1,1.5-4,8.8,1.1,17.4L436.1,260.1z"></path><path class="st8" d="M440.7,254.7c-0.9-0.9-1.4-2.1-1.5-3.4c-0.2-1.2,0.2-2.5,1-3.4c0.7-0.9,1.8-1.4,3-1.3c1,0,2,0.3,2.8,1
		l-0.6,0.7c-0.5-0.4-1.1-0.6-1.7-0.6c-0.8-0.1-1.5,0.3-1.8,1c-0.4,0.8-0.6,1.7-0.5,2.6c0,0.9,0.3,1.8,0.8,2.6c0.4,0.7,1.2,1,2,0.9
		c0.6,0,1.2-0.2,1.6-0.6l0.7,0.7c-0.7,0.7-1.7,1-2.7,1C442.7,255.9,441.6,255.5,440.7,254.7z"></path><path class="st8" d="M449.1,259.7c1.1-1.6,4-8.6-1.1-17.1h1.2c2.1,2.4,3.4,5.4,3.7,8.6c0.2,3-0.7,6-2.4,8.4L449.1,259.7z"></path><path class="st8" d="M49,304.9c-0.4,0.1-0.7-0.1-1-0.3c-0.3-0.2-0.4-0.6-0.4-1c0-0.4,0.2-0.8,0.5-1.1c0.3-0.3,0.7-0.5,1.1-0.6
		c0.4-0.1,0.8,0.1,1,0.3c0.3,0.2,0.4,0.6,0.3,1c0,0.4-0.2,0.8-0.5,1.1C49.8,304.6,49.4,304.8,49,304.9z"></path><path class="st8" d="M57.1,304c-0.4,0-0.7-0.1-1-0.3c-0.3-0.2-0.4-0.6-0.4-1c0-0.4,0.2-0.7,0.5-1c0.3-0.3,0.7-0.5,1.1-0.5
		c0.4,0,0.7,0.1,1,0.3c0.3,0.2,0.4,0.6,0.3,1c0,0.4-0.2,0.8-0.5,1C57.9,303.8,57.5,304,57.1,304z"></path><path class="st8" d="M63,307.3l-1.5,0.1c1-2.2,2-4.5,3-6.7l2.2-0.2C65.5,302.8,64.2,305.1,63,307.3z"></path><path class="st8" d="M76.2,301.6v-0.5c-0.5,0.3-1,0.6-1.5,0.8c-0.5,0.2-1,0.4-1.6,0.5c-1.1,0-2-0.8-2-1.9c0-0.7,0.4-1.4,1.1-1.8
		c0.9-0.6,1.9-1.2,2.9-1.6l1.4-0.6v-0.2c0-0.3,0-0.7,0-1c-0.1-0.2-0.2-0.4-0.4-0.5c-0.3-0.1-0.7-0.2-1-0.1c-0.6,0-1.3,0.2-1.8,0.6
		l-0.7-0.6c0.8-0.6,1.7-0.9,2.7-0.9c0.7-0.1,1.4,0,2.1,0.3c0.4,0.2,0.8,0.5,1,0.9c0.1,0.5,0.2,1,0.2,1.5c-0.1,1-0.1,2-0.2,3
		l-0.2,2.6c0,0-0.3,0-2,0.1L76.2,301.6z M76.5,297.6l-0.7,0.3c-1.7,0.7-2.5,1.5-2.5,2.3c0,0.3,0,0.5,0.2,0.7
		c0.2,0.2,0.4,0.2,0.6,0.2c0.8-0.2,1.6-0.6,2.3-1.1C76.4,299.1,76.4,298.3,76.5,297.6L76.5,297.6z"></path><path class="st8" d="M82.8,305.7l-1.5,0.1c1-2.2,2-4.3,2.9-6.5l2.2-0.1C85.2,301.4,84,303.6,82.8,305.7z"></path><path class="st8" d="M92.8,288.3h0.7c-0.1,1.8-0.2,3.6-0.3,5.4c0.8-0.6,1.7-0.9,2.6-0.9c1.9-0.3,3.7,1.1,3.9,3c0,0.4,0,0.7,0,1.1
		c0,1.1-0.5,2.2-1.3,2.9c-0.9,0.8-2,1.3-3.2,1.3c-0.9,0.1-1.7-0.2-2.4-0.8l-0.1,0.9l-2,0.1l0.8-13L92.8,288.3z M95.5,293.8
		c-0.9,0.1-1.7,0.5-2.4,1.1l-0.3,4.2c0.1,0.3,0.5,0.5,0.8,0.8c0.4,0.2,0.8,0.4,1.3,0.3c0.7,0,1.4-0.3,1.8-0.9
		c0.6-0.7,0.9-1.6,0.8-2.6c0.1-0.8-0.1-1.6-0.5-2.3C96.7,294,96.1,293.8,95.5,293.8z"></path><path class="st8" d="M105.4,293.8c-0.4,0-0.8-0.1-1.1-0.4c-0.3-0.2-0.4-0.6-0.4-0.9c0-0.4,0.2-0.7,0.5-1c0.3-0.3,0.7-0.4,1.1-0.4
		c0.4,0,0.8,0.1,1.1,0.4c0.3,0.2,0.4,0.6,0.4,0.9c0,0.4-0.2,0.8-0.5,1C106.2,293.6,105.8,293.8,105.4,293.8z M105,300.9
		c-0.4,0-0.7-0.1-1-0.4c-0.3-0.2-0.4-0.6-0.4-0.9c0-0.4,0.2-0.8,0.5-1c0.3-0.3,0.7-0.4,1.1-0.4c0.4,0,0.8,0.1,1.1,0.4
		c0.3,0.2,0.4,0.6,0.4,0.9c0,0.4-0.2,0.8-0.5,1C105.8,300.7,105.4,300.9,105,300.9L105,300.9z"></path><path class="st8" d="M116.3,300v-0.5c-0.5,0.3-1,0.5-1.5,0.7c-0.5,0.2-1,0.3-1.6,0.4c-1.1-0.1-1.9-0.9-2-1.9c0-0.7,0.4-1.3,1-1.6
		c0.9-0.6,1.9-1,2.9-1.4l1.4-0.5v-0.2c0-0.3,0-0.7,0-1c-0.1-0.2-0.2-0.4-0.4-0.5c-0.3-0.2-0.7-0.2-1-0.2c-0.6,0-1.2,0.2-1.8,0.5
		l-0.7-0.6c0.8-0.5,1.8-0.8,2.7-0.8c0.7,0,1.4,0.1,2.1,0.4c0.4,0.2,0.8,0.5,1,0.9c0.2,0.5,0.2,1,0.2,1.5c-0.1,1-0.1,1.9-0.2,2.9
		l-0.1,2.5c0,0-0.3,0-2,0L116.3,300z M116.5,296.1l-0.7,0.3c-1.7,0.6-2.4,1.4-2.5,2.1c0,0.3,0,0.5,0.2,0.7c0.2,0.2,0.4,0.2,0.6,0.2
		c0.8-0.1,1.6-0.5,2.2-1C116.4,297.6,116.4,296.8,116.5,296.1L116.5,296.1z"></path><path class="st8" d="M122.5,292.2l0.1-1.5c3.5,0,7,0,10.5,0c0,0.5,0,1-0.1,1.5C129.5,292.2,126,292.2,122.5,292.2z M122.3,295.5
		l0.1-1.5c3.5,0,7,0,10.5,0l-0.1,1.5C129.3,295.5,125.8,295.5,122.3,295.5z"></path><path class="st8" d="M138.8,287.9h0.7l-0.2,5.4c0.8-0.5,1.7-0.8,2.6-0.8c1.1,0,2.2,0.4,3,1.2c0.7,0.8,1.1,1.9,1,3
		c0,1.1-0.4,2.1-1.2,2.9c-0.9,0.8-2,1.2-3.2,1.1c-0.9,0-1.7-0.3-2.4-0.9v0.8h-2c0.2-4.3,0.4-8.5,0.6-12.8L138.8,287.9z M141.5,293.4
		c-0.9,0-1.7,0.4-2.4,1c-0.1,1.4-0.1,2.8-0.2,4.2c0.1,0.3,0.5,0.5,0.8,0.8c0.4,0.3,0.8,0.4,1.3,0.4c0.7,0,1.4-0.3,1.8-0.8
		c0.5-0.7,0.8-1.6,0.8-2.5c0.1-0.8-0.1-1.6-0.6-2.3C142.7,293.7,142.1,293.4,141.5,293.4z"></path><path class="st8" d="M161.9,300.7v-0.5c-0.5,0.2-0.9,0.5-1.4,0.6c-0.5,0.2-1,0.3-1.6,0.3c-1.1-0.1-1.9-0.9-2.1-2
		c0-0.7,0.4-1.3,1-1.6c0.9-0.5,1.9-1,2.9-1.3l1.4-0.4v-0.2c0-0.3,0-0.7,0-1c-0.1-0.2-0.2-0.4-0.4-0.5c-0.3-0.2-0.7-0.3-1.1-0.3
		c-0.6,0-1.2,0.1-1.8,0.5l-0.7-0.7c0.8-0.5,1.8-0.7,2.7-0.6c0.7,0,1.4,0.2,2.1,0.5c0.4,0.2,0.8,0.6,1,1c0.2,0.5,0.2,1,0.2,1.5
		c0,1-0.1,2-0.1,3l-0.1,2.5c0,0-0.3,0-2-0.1L161.9,300.7z M162.1,296.7l-0.7,0.2c-1.7,0.5-2.4,1.2-2.5,2c0,0.3,0.1,0.5,0.2,0.8
		c0.2,0.2,0.4,0.3,0.6,0.3c0.8-0.1,1.6-0.4,2.2-0.9C162,298.3,162,297.5,162.1,296.7L162.1,296.7z"></path><path class="st8" d="M168.6,305.6l-1.5-0.1l2.7-6.2l2.2,0.1L168.6,305.6z"></path><path class="st8" d="M178.1,288.9h0.7l-0.1,5.5c0.8-0.5,1.7-0.7,2.6-0.7c1.1,0,2.2,0.5,3,1.3c0.7,0.9,1.1,2,1,3.2
		c0,1.1-0.4,2.1-1.2,2.9c-0.9,0.8-2,1.1-3.2,1c-0.9,0-1.8-0.4-2.4-1v0.9l-2-0.1c0.1-4.4,0.2-8.7,0.4-13.1L178.1,288.9z M181,294.7
		c-0.9,0-1.7,0.3-2.4,0.9l-0.1,4.3c0.2,0.3,0.5,0.6,0.8,0.8c0.4,0.3,0.8,0.4,1.3,0.5c0.7,0.1,1.4-0.2,1.8-0.8
		c0.5-0.7,0.8-1.6,0.8-2.5c0.1-0.8-0.1-1.7-0.6-2.4C182.2,295.1,181.6,294.8,181,294.7L181,294.7z"></path><path class="st8" d="M190.9,295.5c-0.4,0-0.8-0.2-1.1-0.5c-0.3-0.3-0.4-0.6-0.4-1c0-0.4,0.2-0.7,0.4-1c0.3-0.3,0.7-0.4,1.1-0.4
		c0.4,0,0.8,0.2,1.1,0.5c0.3,0.3,0.4,0.6,0.4,1c0,0.4-0.2,0.8-0.5,1C191.6,295.4,191.3,295.5,190.9,295.5z M190.7,302.8
		c-0.4,0-0.8-0.2-1.1-0.5c-0.3-0.3-0.4-0.6-0.4-1c0-0.4,0.2-0.7,0.5-0.9c0.3-0.3,0.7-0.4,1.1-0.4c0.4,0,0.8,0.2,1.1,0.5
		c0.3,0.3,0.4,0.6,0.4,1c0,0.4-0.2,0.8-0.5,1C191.5,302.7,191.1,302.8,190.7,302.8z"></path><path class="st8" d="M202,302.8v-0.5c-0.5,0.3-0.9,0.5-1.4,0.6c-0.5,0.2-1,0.3-1.6,0.3c-1.1-0.2-2-1.1-2.1-2.2c0-0.7,0.4-1.3,1-1.6
		c0.9-0.5,1.9-0.9,2.9-1.2l1.4-0.4v-0.2c0-0.4,0-0.7-0.1-1.1c-0.1-0.2-0.2-0.4-0.4-0.5c-0.3-0.2-0.6-0.3-1-0.3
		c-0.6-0.1-1.2,0.1-1.7,0.4l-0.7-0.7c0.8-0.5,1.8-0.7,2.7-0.6c0.7,0,1.4,0.2,2.1,0.5c0.4,0.2,0.8,0.6,1,1c0.2,0.5,0.2,1,0.2,1.6
		l-0.1,3.1c0,0.9,0,1.8,0,2.6c0,0-0.3,0-2-0.2L202,302.8z M202.1,298.7l-0.7,0.2c-1.7,0.5-2.4,1.2-2.4,2c0,0.3,0.1,0.6,0.2,0.8
		c0.2,0.2,0.4,0.3,0.6,0.3c0.8-0.1,1.6-0.4,2.2-0.9C202,300.3,202,299.5,202.1,298.7L202.1,298.7z"></path><path class="st8" d="M207.9,295.1v-1.5c3.5,0.2,7,0.4,10.5,0.6v1.5C214.9,295.5,211.4,295.3,207.9,295.1z M207.9,298.5V297
		l10.5,0.7v1.6C214.9,298.9,211.4,298.7,207.9,298.5z"></path><path class="st8" d="M224.1,291.3h0.3h0.4c0,1.9,0,3.9-0.1,5.8c0.8-0.5,1.7-0.8,2.6-0.7c1.2,0.1,2.2,0.6,3,1.5
		c0.8,0.9,1.1,2.1,1.1,3.3c0.2,2.1-1.4,3.9-3.5,4.1c-0.3,0-0.6,0-0.8,0c-0.9,0-1.8-0.4-2.4-1.1v0.9l-2-0.1l0.1-13.7L224.1,291.3z
		 M227,297.4c-0.9,0-1.7,0.3-2.3,0.9c0,1.5,0,3,0,4.5c0.1,0.3,0.5,0.6,0.8,0.9c0.4,0.3,0.8,0.5,1.3,0.5c0.7,0.1,1.4-0.2,1.8-0.8
		c0.5-0.8,0.8-1.7,0.7-2.7c0.1-0.9-0.1-1.8-0.6-2.5C228.3,297.8,227.7,297.4,227,297.4L227,297.4z"></path><path class="st8" d="M243.3,310.3c1.2-1.3,4.7-7.8,0.1-16.3l1.2,0.1c2,2.4,3.1,5.4,3.1,8.6c0,2.9-1.1,5.7-3.1,7.8L243.3,310.3z"></path><path class="st8" d="M251.9,311.5l-1.5-0.1l2.6-6.7l2.2,0.2C254.1,307.1,253,309.3,251.9,311.5z"></path><path class="st8" d="M262.9,311.9c-2-2.5-3.1-5.6-3.2-8.8c0-2.9,1.1-5.8,3-8l1.3,0.1c-1.2,1.4-4.6,8,0,16.7L262.9,311.9z"></path><path class="st8" d="M268,307.2c-0.9-0.9-1.3-2.1-1.3-3.4c-0.1-1.2,0.4-2.4,1.2-3.2c0.8-0.8,2-1.2,3.1-1.1c1,0,2,0.5,2.8,1.2
		l-0.7,0.6c-0.5-0.4-1.1-0.6-1.7-0.7c-0.7-0.1-1.5,0.2-1.9,0.8c-0.5,0.7-0.7,1.6-0.6,2.5c0,0.9,0.2,1.8,0.7,2.6
		c0.4,0.7,1.1,1.1,1.9,1.1c0.6,0.1,1.2-0.1,1.7-0.4c0.2,0.2,0.5,0.5,0.7,0.7c-0.8,0.6-1.8,0.9-2.8,0.8
		C269.9,308.6,268.8,308.1,268,307.2z"></path><path class="st8" d="M276.2,313c1.2-1.4,4.6-8.2-0.1-17l1.2,0.1c2,2.5,3.2,5.6,3.2,8.9c0,3-1,5.9-3,8.1L276.2,313z"></path><path class="st8" d="M284.9,314.2l-1.5-0.1c0.8-2.3,1.6-4.6,2.5-6.9l2.2,0.2C287,309.6,285.9,311.9,284.9,314.2z"></path><path class="st8" d="M294.3,310.4c-0.4,0-0.8-0.2-1.1-0.6c-0.3-0.3-0.4-0.7-0.4-1.1c0-0.4,0.1-0.8,0.4-1c0.3-0.3,0.7-0.4,1.1-0.4
		c0.9,0.1,1.5,0.8,1.5,1.7c0,0.4-0.1,0.8-0.4,1.1C295.1,310.3,294.7,310.4,294.3,310.4z"></path><path class="st8" d="M302.4,311c-0.4,0-0.8-0.2-1.1-0.6c-0.3-0.3-0.4-0.7-0.5-1.1c0-0.8,0.5-1.4,1.3-1.5c0.1,0,0.1,0,0.2,0
		c0.4,0,0.8,0.2,1.1,0.5c0.3,0.3,0.4,0.7,0.5,1.1c0,0.8-0.6,1.5-1.3,1.5C302.5,311,302.4,311,302.4,311z"></path><path class="st8" d="M308.6,315.9l-1.5-0.1c0.8-2.4,1.6-4.7,2.4-7.1l2.2,0.1C310.7,311.1,309.6,313.5,308.6,315.9z"></path><path class="st8" d="M321.4,311.3v-0.6c-0.4,0.3-0.9,0.5-1.4,0.8c-0.5,0.2-1,0.3-1.6,0.3c-1.2-0.3-2.1-1.2-2.2-2.4
		c-0.1-0.7,0.3-1.5,0.9-1.9c0.9-0.6,1.8-1.1,2.8-1.4l1.4-0.5v-0.2c0-0.4,0-0.8-0.1-1.2c-0.1-0.2-0.3-0.4-0.5-0.6
		c-0.3-0.2-0.7-0.3-1.1-0.3c-0.6-0.1-1.2,0.1-1.7,0.5c-0.2-0.3-0.5-0.5-0.8-0.8c0.8-0.5,1.7-0.8,2.7-0.7c0.7,0,1.5,0.2,2.1,0.5
		c0.5,0.3,0.8,0.7,1.1,1.1c0.2,0.6,0.3,1.2,0.3,1.8l0.1,3.5c0,1,0,2,0.1,3c0,0-0.3,0-2-0.1C321.4,311.7,321.4,311.5,321.4,311.3z
		 M321.3,306.6l-0.7,0.3c-1.7,0.6-2.4,1.4-2.3,2.4c0,0.3,0.1,0.6,0.3,0.9c0.2,0.2,0.4,0.3,0.7,0.3c0.8-0.1,1.6-0.5,2.2-1
		C321.3,308.5,321.3,307.5,321.3,306.6L321.3,306.6z"></path><path class="st8" d="M333.4,311.9v-0.6c-0.4,0.3-0.9,0.6-1.4,0.8c-0.5,0.2-1,0.3-1.6,0.3c-1.2-0.3-2.1-1.2-2.2-2.5
		c-0.1-0.8,0.3-1.5,0.9-1.9c0.9-0.6,1.8-1.1,2.8-1.5l1.4-0.5v-0.2c0-0.4,0-0.8-0.1-1.2c-0.1-0.2-0.2-0.4-0.5-0.6
		c-0.3-0.2-0.7-0.3-1.1-0.3c-0.6-0.1-1.2,0.1-1.7,0.5l-0.8-0.8c0.8-0.5,1.7-0.8,2.7-0.8c0.7,0,1.5,0.2,2.1,0.5
		c0.5,0.3,0.8,0.7,1.1,1.1c0.2,0.6,0.3,1.2,0.3,1.8c0,1.2,0.1,2.3,0.1,3.5c0,1,0,2,0.1,3c0,0-0.3,0-2-0.1
		C333.4,312.3,333.4,312.1,333.4,311.9z M333.3,307.2l-0.7,0.3c-1.7,0.6-2.3,1.5-2.3,2.4c0,0.3,0.1,0.6,0.3,0.9
		c0.2,0.2,0.4,0.3,0.7,0.3c0.8-0.1,1.6-0.5,2.2-1C333.4,309.1,333.3,308.1,333.3,307.2z"></path><path class="st8" d="M338.6,317c1.2-1.5,4.4-8.8-0.5-17.9h1.2c2.1,2.6,3.3,5.9,3.4,9.2c0.1,3.1-0.9,6.2-2.8,8.7L338.6,317z"></path><path class="st8" d="M347.3,317.9l-1.5,0c0.8-2.5,1.5-4.9,2.3-7.4l2.2,0.1C349.3,313,348.3,315.4,347.3,317.9z"></path><path class="st8" d="M358.3,317.6c-2.1-2.6-3.3-5.9-3.5-9.3c-0.1-3.2,0.9-6.2,2.8-8.8h1.3c-1.2,1.6-4.4,8.9,0.6,18L358.3,317.6z"></path><path class="st8" d="M364.3,298.1h0.7l0.2,6.5c0.7-0.6,1.6-1,2.5-1c1.2,0,2.3,0.5,3.1,1.4c0.8,1.1,1.2,2.3,1.2,3.7
		c0.1,1.2-0.2,2.5-1,3.5c-0.8,0.9-1.9,1.5-3.1,1.4c-0.9,0-1.8-0.4-2.5-1v1h-2c-0.2-5.2-0.4-10.4-0.6-15.6L364.3,298.1z M367.5,304.8
		c-0.9,0.1-1.7,0.5-2.3,1.2c0.1,1.7,0.1,3.4,0.2,5.1c0.2,0.4,0.5,0.7,0.9,1c0.4,0.3,0.8,0.5,1.3,0.5c0.7,0,1.4-0.4,1.8-1
		c0.5-0.9,0.7-2,0.6-3c0-1-0.2-2-0.8-2.8C368.8,305.2,368.2,304.8,367.5,304.8L367.5,304.8z"></path><path class="st8" d="M374.7,317.9c1.2-1.6,4.3-9-0.7-18.1h1.2c2.1,2.6,3.4,5.9,3.5,9.2c0.1,3.2-0.8,6.3-2.7,8.9H374.7z"></path><path class="st8" d="M383.4,318.4h-1.5c0.7-2.5,1.5-5,2.2-7.5h2.2C385.4,313.4,384.4,315.9,383.4,318.4z"></path><path class="st8" d="M394.4,317.7c-2.2-2.6-3.4-5.8-3.6-9.1c-0.1-3.2,0.8-6.3,2.6-8.9h1.3c-1.1,1.6-4.3,9.1,0.8,18L394.4,317.7z"></path><path class="st8" d="M399.2,312.1c-0.9-0.9-1.4-2.2-1.4-3.5c-0.1-1.3,0.3-2.6,1.1-3.6c0.7-0.9,1.8-1.4,3-1.4c1-0.1,2,0.3,2.8,1
		l-0.6,0.8c-0.5-0.4-1.1-0.6-1.7-0.6c-0.8,0-1.5,0.4-1.9,1.1c-0.8,1.8-0.7,3.8,0.3,5.5c0.4,0.7,1.2,1.1,2,1c0.6,0,1.2-0.2,1.6-0.7
		l0.7,0.7c-0.7,0.7-1.7,1.1-2.7,1.1C401.1,313.4,400,313,399.2,312.1z"></path><path class="st8" d="M407.6,317.3c1.2-1.7,4.2-9.1-0.9-18h1.2c2.2,2.5,3.4,5.7,3.6,9c0.1,3.2-0.8,6.3-2.6,8.9L407.6,317.3z"></path><path class="st8" d="M416.3,317.4l-1.5,0.1c0.7-2.5,1.4-5,2.1-7.6l2.2-0.1C418.2,312.3,417.3,314.9,416.3,317.4z"></path><path class="st8" d="M425.5,312.2c-0.4,0-0.8-0.1-1.1-0.4c-0.6-0.6-0.7-1.6-0.1-2.2c0.3-0.3,0.6-0.5,1-0.5c0.4,0,0.8,0.1,1.1,0.4
		c0.3,0.3,0.5,0.7,0.5,1.1c0,0.4-0.1,0.9-0.4,1.2C426.3,312,425.9,312.2,425.5,312.2z"></path><path class="st8" d="M435.4,315.4c-2.2-2.4-3.5-5.4-3.7-8.7c-0.2-3.1,0.7-6.3,2.5-8.8l1.3-0.1c-1.1,1.6-4.1,9.1,1.1,17.5
		L435.4,315.4z"></path><path class="st8" d="M440.1,309.7c-0.9-0.9-1.5-2.1-1.5-3.3c-0.2-1.3,0.2-2.5,1-3.5c0.7-0.9,1.8-1.5,3-1.6c1-0.1,2,0.1,2.8,0.8
		l-0.6,0.8c-0.5-0.3-1.1-0.5-1.7-0.4c-0.8,0-1.5,0.5-1.9,1.1c-0.4,0.8-0.6,1.8-0.5,2.7c0,0.9,0.3,1.8,0.8,2.5c0.5,0.6,1.2,0.9,2,0.8
		c0.6-0.1,1.2-0.3,1.6-0.8l0.7,0.6c-0.7,0.7-1.7,1.2-2.7,1.3C442.1,310.8,441,310.4,440.1,309.7z"></path><path class="st8" d="M45.3,355c-0.4,0.1-0.8,0-1.1-0.2c-0.3-0.2-0.4-0.6-0.4-0.9c0-0.4,0.2-0.8,0.5-1.1c0.3-0.3,0.7-0.6,1.1-0.7
		c0.4-0.1,0.8,0,1.1,0.2c0.3,0.2,0.4,0.6,0.4,0.9c0,0.4-0.2,0.8-0.5,1.1C46.1,354.7,45.7,354.9,45.3,355z"></path><path class="st8" d="M53.5,353.4c-0.4,0.1-0.8,0-1.1-0.2c-0.3-0.2-0.4-0.6-0.4-0.9c0-0.4,0.2-0.8,0.5-1.1c0.3-0.3,0.7-0.5,1.1-0.6
		c0.4-0.1,0.8,0,1.1,0.2c0.3,0.2,0.4,0.6,0.4,0.9c0,0.4-0.2,0.8-0.5,1.1C54.3,353.1,54,353.3,53.5,353.4z"></path><path class="st8" d="M59.5,356.3l-1.5,0.3c1-2.3,2-4.6,3-6.9l2.3-0.4C62,351.6,60.8,353.9,59.5,356.3z"></path><path class="st8" d="M73,349.7v-0.5c-0.5,0.3-1,0.6-1.5,0.9c-0.5,0.3-1.1,0.5-1.6,0.6c-1,0.1-1.9-0.6-2-1.6c0,0,0-0.1,0-0.1
		c0-0.7,0.4-1.4,1.1-1.8c0.9-0.7,1.9-1.3,3-1.8l1.4-0.7v-0.2c0-0.3,0-0.7,0-1c-0.1-0.2-0.2-0.3-0.4-0.4c-0.3-0.1-0.7-0.2-1.1-0.1
		c-0.7,0.1-1.3,0.3-1.8,0.7l-0.7-0.6c0.8-0.6,1.7-1,2.7-1.1c0.7-0.1,1.4-0.1,2.1,0.1c0.4,0.1,0.8,0.4,1,0.8c0.2,0.5,0.2,1,0.2,1.5
		l-0.2,3L75,350c0,0-0.3,0-2,0.2V349.7z M73.3,345.7l-0.7,0.4c-1.8,0.8-2.5,1.7-2.6,2.5c0,0.3,0,0.5,0.2,0.7
		c0.2,0.1,0.4,0.2,0.7,0.2c0.8-0.2,1.6-0.7,2.3-1.3L73.3,345.7z"></path><path class="st8" d="M77.8,353.2c3.5-4.4,3.9-10.4,1-15.2l1.2-0.1c1.9,2,2.9,4.7,2.7,7.4c-0.3,2.9-1.6,5.6-3.6,7.7L77.8,353.2z"></path><path class="st8" d="M86.6,352.8l-1.5,0.1c1-2.2,2-4.3,3-6.5l2.3-0.2L86.6,352.8z"></path><path class="st8" d="M97.8,351.5c-1.9-2-2.9-4.7-2.8-7.4c0.3-2.8,1.5-5.5,3.6-7.5l1.3-0.1c-3.5,4.3-3.8,10.3-0.9,14.9L97.8,351.5z"></path><path class="st8" d="M103.2,346.7c-0.8-0.7-1.2-1.8-1.1-2.9c0-1.2,0.6-2.3,1.4-3c0.9-0.8,2-1.2,3.2-1.2c1-0.1,2,0.2,2.8,0.8
		l-0.7,0.6c-0.5-0.3-1.1-0.5-1.7-0.5c-0.8,0-1.5,0.3-2,0.9c-0.5,0.7-0.8,1.5-0.8,2.3c-0.1,0.8,0.1,1.6,0.5,2.2
		c0.5,0.6,1.2,0.9,1.9,0.8c0.6,0,1.2-0.2,1.7-0.6l0.7,0.6c-0.8,0.6-1.8,0.9-2.9,1C105.2,347.8,104.1,347.4,103.2,346.7z"></path><path class="st8" d="M111.3,350.9c1.3-1.4,5.2-7.5,0.8-14.9h1.2c1.9,2,2.9,4.7,2.8,7.5c-0.2,2.8-1.5,5.4-3.5,7.3H111.3z"></path><path class="st8" d="M120.2,351.3h-1.5l2.9-6.2h2.3L120.2,351.3z"></path><path class="st8" d="M130,347.5c-0.4,0-0.8-0.2-1.1-0.4c-0.3-0.2-0.4-0.6-0.4-0.9c0-0.4,0.2-0.7,0.5-0.9c0.3-0.3,0.7-0.4,1.1-0.4
		c0.4,0,0.8,0.1,1.1,0.4c0.3,0.2,0.4,0.6,0.4,1c0,0.4-0.2,0.8-0.5,1C130.8,347.4,130.4,347.5,130,347.5z"></path><path class="st8" d="M138.2,347.7c-0.4,0-0.8-0.2-1.1-0.5c-0.3-0.3-0.4-0.6-0.4-1c0-0.4,0.2-0.7,0.5-0.9c0.3-0.2,0.7-0.4,1.1-0.4
		c0.4,0,0.8,0.2,1.1,0.4c0.3,0.2,0.4,0.6,0.4,1c0,0.4-0.2,0.7-0.5,0.9C139,347.5,138.6,347.7,138.2,347.7z"></path><path class="st8" d="M144.3,351.7l-1.5-0.1c0.9-2,1.9-4.1,2.8-6.1l2.3,0.1C146.7,347.7,145.5,349.7,144.3,351.7z"></path><path class="st8" d="M157.6,347.9v-0.5c-0.5,0.2-1,0.4-1.5,0.6c-0.5,0.2-1.1,0.3-1.6,0.2c-1.1-0.1-2-1-2.1-2.1c0-0.7,0.4-1.3,1-1.6
		c0.9-0.5,1.9-0.9,2.9-1.2l1.4-0.4v-0.2c0-0.3,0-0.7,0-1c-0.1-0.2-0.2-0.4-0.4-0.5c-0.3-0.2-0.7-0.3-1.1-0.3
		c-0.6-0.1-1.2,0.1-1.8,0.4l-0.7-0.7c0.8-0.5,1.8-0.7,2.8-0.6c0.7,0,1.5,0.2,2.1,0.5c0.4,0.2,0.8,0.6,1,1c0.2,0.5,0.2,1,0.2,1.5
		c0,1-0.1,2-0.1,2.9l-0.1,2.5c0,0-0.3,0-2-0.2L157.6,347.9z M157.8,343.9l-0.7,0.2c-1.7,0.5-2.5,1.2-2.5,2c0,0.3,0.1,0.5,0.2,0.8
		c0.2,0.2,0.4,0.3,0.6,0.3c0.8-0.1,1.6-0.4,2.3-0.8C157.7,345.5,157.8,344.7,157.8,343.9L157.8,343.9z"></path><path class="st8" d="M162.6,352.4c1.3-1.2,5-7.2,0.5-15.1l1.2,0.1c2,2.2,3,5,3,7.9c-0.1,2.7-1.3,5.3-3.4,7.2L162.6,352.4z"></path><path class="st8" d="M171.4,353.5l-1.5-0.1l2.8-6.1l2.3,0.2C173.8,349.5,172.6,351.5,171.4,353.5z"></path><path class="st8" d="M182.6,354.1c-2-2.2-3-5.1-3-8.1c0.1-2.7,1.3-5.3,3.3-7.2l1.4,0.1c-1.3,1.3-5,7.2-0.4,15.3L182.6,354.1z"></path><path class="st8" d="M187.9,350c-0.8-0.8-1.3-2-1.2-3.2c0-1.1,0.5-2.2,1.4-2.9c0.9-0.7,2-1,3.2-0.9c1,0.1,2,0.5,2.8,1.2l-0.7,0.6
		c-0.5-0.4-1.1-0.6-1.7-0.7c-0.7-0.1-1.5,0.1-2,0.7c-0.5,0.7-0.7,1.5-0.7,2.3c-0.1,0.8,0.2,1.7,0.6,2.4c0.4,0.6,1.2,1,1.9,1.1
		c0.6,0.1,1.2,0,1.7-0.3l0.7,0.7c-0.8,0.5-1.9,0.7-2.9,0.6C189.9,351.4,188.7,350.8,187.9,350z"></path><path class="st8" d="M196.1,355.6c1.3-1.2,4.9-7.2,0.3-15.5l1.2,0.1c2,2.3,3,5.2,3,8.3c-0.1,2.8-1.2,5.4-3.3,7.3L196.1,355.6z"></path><path class="st8" d="M205,357.1l-1.5-0.2c0.9-2.1,1.8-4.1,2.7-6.2l2.3,0.3C207.3,353,206.1,355.1,205,357.1z"></path><path class="st8" d="M214.7,354.3c-0.4,0-0.8-0.3-1.1-0.6c-0.3-0.3-0.4-0.7-0.4-1c0-0.4,0.2-0.7,0.4-0.9c0.3-0.2,0.7-0.3,1.1-0.3
		c0.4,0,0.8,0.2,1.1,0.6c0.3,0.3,0.4,0.7,0.4,1c0,0.4-0.1,0.8-0.5,1C215.5,354.2,215.1,354.3,214.7,354.3z"></path><path class="st8" d="M222.9,355.3c-0.4,0-0.8-0.3-1.1-0.6c-0.3-0.3-0.4-0.7-0.4-1.1c0-0.4,0.1-0.8,0.4-1c0.3-0.2,0.7-0.3,1.1-0.3
		c0.4,0.1,0.8,0.3,1.1,0.6c0.3,0.3,0.4,0.7,0.4,1.1c0,0.4-0.1,0.8-0.5,1C223.7,355.3,223.3,355.4,222.9,355.3z"></path><path class="st8" d="M229.1,360.3l-1.5-0.2c0.9-2.1,1.8-4.2,2.6-6.3l2.3,0.3C231.4,356.1,230.3,358.2,229.1,360.3z"></path><path class="st8" d="M242.3,357.1v-0.5c-0.5,0.2-0.9,0.4-1.4,0.6c-0.5,0.2-1.1,0.2-1.6,0.2c-1.2-0.3-2-1.2-2.2-2.4
		c-0.1-0.7,0.3-1.4,1-1.7c0.9-0.5,1.9-0.9,2.9-1.1l1.4-0.3v-0.2c0-0.4,0-0.8-0.1-1.1c-0.1-0.2-0.2-0.4-0.4-0.6
		c-0.3-0.2-0.7-0.3-1.1-0.4c-0.6-0.1-1.2,0-1.8,0.3l-0.8-0.8c0.8-0.4,1.8-0.6,2.7-0.4c0.8,0.1,1.5,0.3,2.1,0.7
		c0.5,0.3,0.8,0.7,1.1,1.1c0.2,0.5,0.3,1.1,0.2,1.6c0,1.1,0,2.1,0,3.2s0,1.9,0,2.8c0,0-0.3-0.1-2-0.3L242.3,357.1z M242.3,352.8
		l-0.7,0.2c-1.7,0.4-2.4,1.1-2.4,2c0,0.3,0.1,0.6,0.2,0.8c0.2,0.2,0.4,0.3,0.7,0.4c0.8,0,1.6-0.3,2.2-0.8
		C242.3,354.6,242.3,353.7,242.3,352.8L242.3,352.8z"></path><path class="st8" d="M250.6,344.8h0.3l0.4,0v6c0.8-0.5,1.7-0.7,2.6-0.6c1.2,0.1,2.3,0.7,3.1,1.7c0.8,1,1.2,2.2,1.1,3.5
		c0.1,1.1-0.3,2.3-1.1,3.1c-0.9,0.8-2.1,1.1-3.2,0.9c-1-0.1-1.8-0.6-2.5-1.3v0.9l-2-0.3c0-4.7,0-9.4,0-14.2L250.6,344.8z
		 M253.6,351.3c-0.9-0.1-1.7,0.2-2.4,0.8v4.7c0.2,0.4,0.5,0.7,0.9,1c0.4,0.3,0.8,0.5,1.3,0.6c0.7,0.1,1.4-0.1,1.8-0.7
		c0.5-0.8,0.8-1.8,0.7-2.7c0-0.9-0.2-1.8-0.7-2.6C255,351.8,254.4,351.4,253.6,351.3L253.6,351.3z"></path><path class="st8" d="M271.3,361.8c-0.4-0.1-0.8-0.3-1.1-0.6c-0.3-0.3-0.4-0.7-0.4-1.1c0-0.4,0.1-0.7,0.4-1c0.3-0.3,0.7-0.4,1.1-0.3
		c0.4,0.1,0.8,0.3,1.1,0.6c0.3,0.3,0.4,0.7,0.4,1.1c0,0.4-0.1,0.8-0.5,1C272.1,361.8,271.7,361.9,271.3,361.8z"></path><path class="st8" d="M279.6,362.9c-0.4-0.1-0.8-0.3-1.1-0.6c-0.3-0.3-0.4-0.7-0.4-1.1c0-0.4,0.1-0.7,0.4-1c0.3-0.3,0.7-0.4,1.1-0.3
		c0.4,0.1,0.8,0.3,1.1,0.6c0.3,0.3,0.4,0.7,0.4,1.1c0,0.4-0.1,0.8-0.4,1C280.3,362.8,280,363,279.6,362.9z"></path><path class="st8" d="M296.2,368.9c-2.1-2.6-3.3-5.9-3.3-9.2c-0.1-3,1-5.9,3-8.1l1.4,0.1c-1.2,1.4-4.6,8.1,0.2,17.3L296.2,368.9z"></path><path class="st8" d="M305.1,365.2c0-0.2,0-0.4,0-0.6c-0.5,0.3-0.9,0.5-1.4,0.7c-0.5,0.2-1.1,0.3-1.6,0.2c-1.2-0.3-2.1-1.3-2.2-2.5
		c-0.1-0.7,0.3-1.4,0.9-1.8c0.9-0.5,1.8-1,2.8-1.3l1.4-0.4v-0.2c0-0.4,0-0.8-0.1-1.2c-0.1-0.2-0.3-0.4-0.5-0.6
		c-0.3-0.2-0.7-0.3-1.1-0.4c-0.6-0.1-1.2,0-1.8,0.4l-0.8-0.9c0.8-0.5,1.8-0.7,2.7-0.5c0.8,0.1,1.5,0.3,2.2,0.7
		c0.5,0.3,0.8,0.7,1.1,1.2c0.2,0.6,0.3,1.2,0.3,1.8l0.1,3.4c0,1,0,2,0,3c0,0-0.3-0.1-2-0.2L305.1,365.2z M305.1,360.6l-0.7,0.2
		c-1.7,0.5-2.4,1.3-2.4,2.2c0,0.3,0.1,0.6,0.3,0.9c0.2,0.2,0.4,0.3,0.7,0.4c0.8,0,1.6-0.4,2.2-0.9
		C305.1,362.5,305.1,361.5,305.1,360.6L305.1,360.6z"></path><path class="st8" d="M310.3,370.6c1.2-1.4,4.6-8.3-0.3-17.5l1.2,0.1c2.1,2.6,3.3,5.9,3.4,9.3c0.1,3-1,6-3,8.3L310.3,370.6z"></path><path class="st8" d="M319.2,372.1l-1.5-0.2c0.8-2.4,1.6-4.7,2.4-7.1l2.3,0.2C321.3,367.4,320.2,369.7,319.2,372.1z"></path><path class="st8" d="M330.4,372.6c-2.1-2.7-3.3-5.9-3.4-9.3c-0.1-3.1,0.9-6.1,2.9-8.5l1.4,0.1c-1.2,1.5-4.5,8.5,0.4,17.8
		L330.4,372.6z"></path><path class="st8" d="M336.7,353.7h0.3h0.4l0.2,6.5c0.7-0.6,1.6-0.9,2.6-0.8c1.2,0.1,2.4,0.6,3.1,1.6c0.8,1.1,1.2,2.4,1.2,3.7
		c0.1,1.2-0.2,2.4-1,3.4c-0.8,0.9-2,1.4-3.2,1.2c-1,0-1.9-0.5-2.5-1.2v1l-2-0.2c-0.1-5.1-0.3-10.2-0.4-15.4L336.7,353.7z
		 M339.9,360.5c-0.9,0-1.8,0.4-2.3,1.1c0,1.7,0.1,3.4,0.1,5.1c0.2,0.4,0.5,0.7,0.9,1c0.4,0.3,0.8,0.5,1.3,0.5
		c0.7,0.1,1.4-0.3,1.8-0.9c0.9-1.8,0.8-4-0.1-5.8C341.3,360.9,340.6,360.5,339.9,360.5z"></path><path class="st8" d="M347.1,373.8c1.2-1.5,4.5-8.7-0.5-18l1.2,0.1c2.1,2.7,3.4,5.9,3.5,9.3c0.1,3.1-0.9,6.2-2.8,8.6L347.1,373.8z"></path><path class="st8" d="M356,374.9l-1.5-0.1c0.8-2.5,1.5-4.9,2.3-7.4l2.3,0.1C358,370,357,372.5,356,374.9z"></path><path class="st8" d="M367.1,374.8c-2.2-2.6-3.4-5.9-3.5-9.3c-0.1-3.2,0.9-6.3,2.8-8.8h1.4c-1.2,1.6-4.5,8.9,0.6,18.1H367.1z"></path><path class="st8" d="M372.1,369.4c-0.9-1-1.4-2.3-1.4-3.6c-0.1-1.3,0.3-2.6,1.1-3.5c0.8-0.9,1.9-1.4,3.1-1.3c1.1,0,2.1,0.4,2.9,1.1
		l-0.7,0.7c-0.5-0.4-1.1-0.6-1.7-0.6c-0.8-0.1-1.5,0.3-1.9,1c-0.4,0.8-0.6,1.8-0.6,2.7c0,1,0.3,1.9,0.8,2.7c0.4,0.7,1.2,1,2,1
		c0.6,0,1.2-0.2,1.7-0.6l0.7,0.7c-0.8,0.7-1.8,1.1-2.8,1C374.1,370.7,372.9,370.3,372.1,369.4z"></path><path class="st8" d="M380.6,374.9c1.2-1.6,4.4-9-0.7-18.1h1.2c2.2,2.6,3.4,5.8,3.6,9.2c0.1,3.2-0.9,6.3-2.8,8.9H380.6z"></path><path class="st8" d="M389.5,375.4H388l2.2-7.6l2.3-0.1C391.5,370.3,390.5,372.9,389.5,375.4z"></path><path class="st8" d="M398.9,370.5c-0.4,0-0.8-0.2-1.1-0.5c-0.6-0.6-0.7-1.6-0.1-2.3c0.3-0.3,0.7-0.5,1.1-0.5c0.4,0,0.8,0.1,1.1,0.4
		c0.3,0.3,0.5,0.7,0.5,1.1c0,0.4-0.1,0.9-0.4,1.2C399.7,370.2,399.3,370.4,398.9,370.5z"></path><path class="st8" d="M407.2,370c-0.4,0-0.8-0.1-1.1-0.4c-0.3-0.3-0.5-0.7-0.5-1.1c0-0.4,0.1-0.8,0.4-1.2c0.3-0.3,0.7-0.5,1.1-0.5
		c0.4,0,0.8,0.1,1.1,0.4c0.3,0.3,0.5,0.7,0.5,1.1c0,0.4-0.1,0.9-0.4,1.2C408,369.8,407.6,370,407.2,370z"></path><path class="st8" d="M413.7,374.2l-1.5,0.1c0.7-2.6,1.5-5.1,2.2-7.7l2.3-0.2L413.7,374.2z"></path><path class="st8" d="M426.5,367.5v-0.6c-0.4,0.4-0.9,0.7-1.4,1c-0.5,0.3-1,0.5-1.6,0.6c-1.2,0-2.2-0.9-2.3-2.1
		c-0.1-0.8,0.2-1.6,0.9-2.1c0.8-0.7,1.8-1.4,2.8-1.9l1.4-0.7v-0.2c0-0.4-0.1-0.8-0.2-1.2c-0.1-0.2-0.3-0.4-0.5-0.5
		c-0.3-0.2-0.7-0.2-1.1-0.1c-0.6,0-1.3,0.3-1.7,0.8l-0.8-0.7c0.7-0.7,1.7-1,2.7-1.1c0.7-0.1,1.5,0,2.2,0.2c0.5,0.2,0.9,0.6,1.1,1
		c0.2,0.6,0.3,1.1,0.4,1.7c0.1,1.1,0.1,2.3,0.2,3.5l0.2,3c0,0-0.4,0-2,0.2L426.5,367.5z M426.2,362.8l-0.7,0.4
		c-1.7,0.9-2.4,1.8-2.3,2.8c0,0.3,0.1,0.6,0.3,0.9c0.2,0.2,0.4,0.2,0.7,0.2c0.8-0.3,1.6-0.7,2.2-1.4
		C426.4,364.7,426.3,363.7,426.2,362.8z"></path><path class="st8" d="M438.8,365.8v-0.6c-0.4,0.4-0.9,0.7-1.4,1c-0.5,0.3-1,0.5-1.6,0.6c-1.2,0-2.2-0.8-2.3-2
		c-0.1-0.8,0.2-1.6,0.9-2.1c0.8-0.8,1.8-1.4,2.8-2l1.4-0.8v-0.2c0-0.4-0.1-0.8-0.2-1.2c-0.1-0.2-0.3-0.4-0.5-0.5
		c-0.3-0.1-0.7-0.2-1.1-0.1c-0.7,0.1-1.3,0.4-1.7,0.8l-0.8-0.7c0.7-0.7,1.7-1.1,2.6-1.2c0.7-0.1,1.5-0.1,2.2,0.1
		c0.5,0.2,0.9,0.5,1.1,0.9c0.2,0.5,0.3,1.1,0.4,1.7l0.2,3.4c0.1,1,0.1,2,0.2,3c0,0-0.4,0-2,0.3L438.8,365.8z M438.5,361.2l-0.7,0.4
		c-1.7,1-2.3,1.9-2.3,2.8c0,0.3,0.1,0.6,0.3,0.8c0.2,0.2,0.4,0.2,0.7,0.2c0.8-0.3,1.6-0.8,2.2-1.5
		C438.6,363.1,438.5,362.1,438.5,361.2z"></path><path class="st8" d="M446.1,370l-1.5,0.3c0.7-2.6,1.4-5.1,2.1-7.7l2.3-0.4C448,364.8,447,367.4,446.1,370z"></path><path class="st8" d="M443.5,352.4l0.4,0h0.1v0.3h-0.1l-0.3,0h-0.1v-0.3H443.5z M454,367.9l-1.5,0.3c-0.2-0.2-0.4-0.5-0.4-0.7
		c-0.3-5.1-0.7-10.3-1-15.4v-0.8l0.3-0.1l1.5-0.3l2.1-0.4c0,0.4,0,0.7,0.1,1.1l-1.9,0.3c0.3,4.9,0.7,9.9,1,14.8l1.8-0.4
		c0,0.4,0,0.7,0.1,1.1L454,367.9z"></path><path class="st8" d="M47.9,403.3c-2.4-4.4-4.7-8.8-7.1-13.2c1-0.3,2-0.6,3-0.8c2.4,4.5,4.7,8.9,7.2,13.2L47.9,403.3z"></path><path class="st8" d="M56.4,401.2c-2.4-4.4-4.8-8.8-7.1-13.3l3-0.7c2.4,4.5,4.8,8.9,7.2,13.3C58.4,400.7,57.4,401,56.4,401.2z"></path><path class="st8" d="M68.9,397.9v-0.5c-0.5,0.4-1,0.7-1.5,1c-0.5,0.3-1.1,0.5-1.7,0.7c-0.9,0.2-1.8-0.4-2-1.3c0-0.1,0-0.2,0-0.3
		c0.1-0.8,0.5-1.5,1.1-1.9c0.9-0.7,1.9-1.4,3-1.9l1.5-0.8v-0.2c0-0.3,0-0.7,0-1c-0.1-0.2-0.2-0.3-0.4-0.4c-0.4-0.1-0.7-0.1-1.1,0
		c-0.7,0.1-1.3,0.4-1.8,0.8l-0.7-0.5c0.8-0.7,1.8-1.1,2.9-1.3c0.7-0.2,1.5-0.2,2.2,0c0.4,0.1,0.8,0.4,1,0.8c0.2,0.5,0.2,1,0.2,1.5
		c-0.1,1-0.1,2-0.2,3l-0.1,2.6c0,0-0.3,0-2.1,0.3V397.9z M69.2,393.9l-0.7,0.4c-1.8,0.9-2.6,1.8-2.6,2.6c0,0.3,0,0.5,0.2,0.7
		c0.2,0.1,0.4,0.2,0.7,0.1c0.9-0.3,1.6-0.8,2.3-1.4L69.2,393.9z"></path><path class="st8" d="M79.8,396.9c-2.4-4.5-4.8-9.1-7.2-13.6c1-0.2,2-0.3,3-0.5c2.4,4.5,4.9,9.1,7.3,13.6L79.8,396.9z"></path><path class="st8" d="M92.3,394.8v-0.5c-0.5,0.3-1,0.6-1.5,0.8c-0.5,0.3-1.1,0.4-1.7,0.5c-1,0.1-2-0.7-2.1-1.7c0,0,0,0,0,0
		c0-0.7,0.4-1.4,1.1-1.8c0.9-0.7,1.9-1.2,3-1.7l1.4-0.6v-0.2c0-0.3,0-0.7,0-1c0-0.1-0.2-0.3-0.4-0.4c-0.3-0.1-0.7-0.2-1.1-0.1
		c-0.7,0-1.3,0.3-1.8,0.7c-0.2-0.2-0.5-0.4-0.7-0.6c0.8-0.6,1.8-0.9,2.8-1c0.7-0.1,1.5,0,2.2,0.2c0.4,0.2,0.8,0.4,1,0.8
		c0.2,0.5,0.2,1,0.2,1.5l-0.2,2.9l-0.2,2.5c0,0-0.3,0-2.1,0.2L92.3,394.8z M92.6,390.8l-0.7,0.3c-1.8,0.8-2.6,1.6-2.6,2.4
		c0,0.3,0,0.5,0.2,0.7c0.2,0.1,0.4,0.2,0.7,0.2c0.9-0.2,1.6-0.6,2.3-1.2L92.6,390.8z"></path><path class="st8" d="M98.8,386.6l0.1-1.5c3.6-0.2,7.3-0.4,10.9-0.5l-0.1,1.4C106.1,386.1,102.4,386.3,98.8,386.6z M98.6,389.8
		l0.1-1.5c3.6-0.2,7.3-0.4,10.9-0.5l-0.1,1.5C105.9,389.4,102.2,389.6,98.6,389.8z"></path><path class="st8" d="M116.6,397.6c-2-2-3-4.7-2.9-7.5c0.2-2.8,1.5-5.4,3.6-7.3h1.4c-1.3,1.3-5.2,7.5-0.8,14.9L116.6,397.6z"></path><path class="st8" d="M126,393.6v-0.5c-0.5,0.3-1,0.5-1.5,0.7c-0.5,0.2-1.1,0.3-1.7,0.3c-1.1,0-2-0.9-2.1-2c0-0.7,0.4-1.3,1.1-1.6
		c0.9-0.6,2-1,3-1.3l1.4-0.5v-0.2c0-0.3,0-0.7,0-1c-0.1-0.2-0.2-0.4-0.4-0.5c-0.3-0.2-0.7-0.3-1.1-0.2c-0.6,0-1.3,0.1-1.8,0.5
		l-0.7-0.7c0.9-0.5,1.8-0.7,2.8-0.7c0.7,0,1.5,0.1,2.2,0.4c0.4,0.2,0.8,0.5,1,0.9c0.2,0.5,0.2,1,0.2,1.5l-0.1,2.9l-0.1,2.5
		c0,0-0.3,0-2.1-0.1L126,393.6z M126.2,389.7l-0.7,0.2c-1.8,0.6-2.5,1.3-2.6,2.1c0,0.3,0.1,0.5,0.2,0.7c0.2,0.2,0.4,0.2,0.7,0.2
		c0.8-0.1,1.6-0.4,2.3-0.9L126.2,389.7z"></path><path class="st8" d="M131,397.8c1.4-1.3,5.2-7.3,0.7-14.9h1.3c2,2.1,3,4.9,2.9,7.7c-0.2,2.8-1.4,5.3-3.5,7.2H131z"></path><path class="st8" d="M142.4,382h0.3h0.4c-0.1,1.8-0.1,3.6-0.2,5.4c0.8-0.5,1.7-0.7,2.7-0.7c1.2,0,2.3,0.5,3.1,1.4
		c0.7,0.9,1.1,2,1,3.1c0,1.1-0.4,2.1-1.3,2.8c-0.9,0.8-2.1,1.1-3.4,1c-0.9,0-1.8-0.4-2.5-1v0.8l-2.1-0.1c0.2-4.3,0.4-8.6,0.6-12.9
		L142.4,382z M145.2,387.7c-0.9,0-1.8,0.3-2.4,0.9c-0.1,1.4-0.1,2.8-0.2,4.2c0.1,0.3,0.5,0.5,0.8,0.8c0.4,0.3,0.8,0.4,1.3,0.5
		c0.7,0.1,1.4-0.2,1.9-0.7c0.6-0.7,0.9-1.6,0.8-2.5c0.1-0.8-0.1-1.7-0.6-2.4C146.5,388.1,145.9,387.7,145.2,387.7L145.2,387.7z"></path><path class="st8" d="M159.6,395.6v-0.5c-0.5,0.2-1,0.4-1.5,0.6c-0.5,0.2-1.1,0.2-1.6,0.2c-1.1-0.2-2-1-2.1-2.2
		c0-0.7,0.4-1.3,1.1-1.6c1-0.5,2-0.9,3-1.1l1.4-0.4v-0.2c0-0.3,0-0.7-0.1-1c-0.1-0.2-0.2-0.4-0.4-0.5c-0.3-0.2-0.7-0.3-1.1-0.3
		c-0.6-0.1-1.3,0-1.8,0.4l-0.7-0.7c0.9-0.4,1.8-0.6,2.8-0.5c0.8,0,1.5,0.2,2.2,0.6c0.4,0.2,0.8,0.6,1,1c0.2,0.5,0.2,1,0.2,1.5
		c0,1-0.1,2-0.1,3l-0.1,2.5c0,0-0.4-0.1-2.1-0.2L159.6,395.6z M159.7,391.6l-0.7,0.2c-1.8,0.4-2.5,1.1-2.6,1.9
		c0,0.3,0.1,0.5,0.2,0.8c0.2,0.2,0.4,0.3,0.7,0.3c0.8,0,1.6-0.3,2.3-0.8C159.6,393.2,159.7,392.4,159.7,391.6L159.7,391.6z"></path><path class="st8" d="M166.5,400.9l-1.6-0.2c0.9-2,1.9-4,2.8-6l2.3,0.3L166.5,400.9z"></path><path class="st8" d="M176.4,398.2c-0.4,0-0.8-0.3-1.1-0.6c-0.3-0.3-0.4-0.6-0.4-1c0-0.4,0.2-0.7,0.5-0.9c0.3-0.2,0.7-0.3,1.1-0.3
		c0.4,0.1,0.8,0.3,1.1,0.6c0.3,0.3,0.4,0.6,0.4,1c0,0.4-0.2,0.7-0.5,0.9C177.2,398.2,176.8,398.3,176.4,398.2z"></path><path class="st8" d="M184.9,399.4c-0.4-0.1-0.8-0.3-1.1-0.6c-0.3-0.3-0.4-0.6-0.4-1c0-0.4,0.2-0.7,0.5-0.9c0.3-0.2,0.7-0.3,1.1-0.2
		c0.4,0.1,0.8,0.3,1.1,0.6c0.3,0.3,0.4,0.6,0.4,1c0,0.4-0.2,0.7-0.5,0.9C185.6,399.3,185.2,399.4,184.9,399.4z"></path><path class="st8" d="M193.2,400.6c-0.4-0.1-0.8-0.3-1.1-0.6c-0.3-0.3-0.4-0.6-0.4-1c0-0.4,0.2-0.7,0.5-0.9c0.3-0.2,0.7-0.3,1.1-0.2
		c0.4,0.1,0.8,0.3,1.1,0.6c0.3,0.3,0.4,0.7,0.4,1c0,0.4-0.2,0.7-0.5,0.9C194,400.6,193.6,400.7,193.2,400.6z"></path><path class="st8" d="M199.4,405.8l-1.5-0.2c0.9-2,1.8-4,2.7-6l2.3,0.4L199.4,405.8z M201.8,394.5c-0.4-0.1-0.8-0.3-1.1-0.6
		c-0.3-0.3-0.4-0.7-0.4-1c0-0.4,0.2-0.7,0.5-0.9c0.3-0.2,0.7-0.3,1.1-0.2c0.4,0.1,0.8,0.3,1.1,0.6c0.3,0.3,0.4,0.7,0.4,1.1
		c0,0.4-0.2,0.7-0.5,0.9C202.5,394.5,202.1,394.6,201.8,394.5z"></path><path class="st8" d="M212.4,403v-0.5c-0.5,0.2-1,0.4-1.5,0.5c-0.5,0.1-1.1,0.2-1.6,0.1c-1.1-0.3-2-1.3-2.2-2.4c0-0.7,0.4-1.3,1-1.6
		c0.9-0.4,1.9-0.7,2.9-0.9l1.4-0.3v-0.2c0-0.4,0-0.7-0.1-1.1c-0.1-0.2-0.3-0.4-0.5-0.6c-0.3-0.2-0.7-0.4-1.1-0.4
		c-0.6-0.1-1.2-0.1-1.8,0.2l-0.8-0.8c0.9-0.4,1.9-0.5,2.8-0.3c0.8,0.1,1.5,0.4,2.2,0.8c0.4,0.3,0.8,0.7,1.1,1.1
		c0.2,0.5,0.3,1.1,0.2,1.6c0,1,0,2.1,0,3.1s0,1.8,0,2.7c0,0-0.4-0.1-2.1-0.4L212.4,403z M212.4,398.8l-0.7,0.1
		c-1.8,0.3-2.5,1-2.5,1.8c0,0.3,0.1,0.6,0.2,0.8c0.2,0.2,0.4,0.3,0.7,0.4c0.8,0,1.6-0.2,2.3-0.6
		C212.4,400.6,212.4,399.7,212.4,398.8L212.4,398.8z"></path><path class="st8" d="M219.4,409.1l-1.6-0.3l2.7-6.1l2.3,0.4C221.7,405.1,220.6,407.1,219.4,409.1z"></path><path class="st8" d="M228.9,392.9l0.3,0l0.4,0.1c0,1.9,0,3.9,0,5.8c0.8-0.4,1.8-0.6,2.7-0.4c1.2,0.2,2.4,0.9,3.2,1.8
		c0.8,1,1.2,2.2,1.1,3.5c0.1,1.1-0.3,2.2-1.2,2.9c-0.9,0.7-2.2,1-3.3,0.7c-1-0.1-1.9-0.6-2.5-1.4v0.9l-2.1-0.4l0.1-13.8L228.9,392.9
		z M232,399.4c-0.9-0.1-1.7,0.1-2.4,0.7v4.6c0.2,0.4,0.5,0.7,0.9,1c0.4,0.3,0.8,0.6,1.3,0.7c0.7,0.2,1.4,0,1.9-0.6
		c0.6-0.7,0.8-1.7,0.7-2.6c0.1-0.9-0.2-1.8-0.7-2.6C233.3,399.9,232.7,399.5,232,399.4L232,399.4z"></path><path class="st8" d="M242.2,401.6c-0.4-0.1-0.8-0.3-1.1-0.7c-0.3-0.3-0.4-0.7-0.4-1.1c0-0.4,0.1-0.8,0.4-1c0.3-0.2,0.7-0.3,1.1-0.2
		c0.4,0.1,0.8,0.3,1.1,0.6c0.3,0.3,0.4,0.7,0.5,1.1c0,0.4-0.2,0.8-0.5,1C243,401.5,242.6,401.6,242.2,401.6z M242.2,409.3
		c-0.4-0.1-0.8-0.3-1.1-0.7c-0.3-0.3-0.4-0.7-0.4-1.1c0-0.4,0.2-0.7,0.5-0.9c0.3-0.2,0.7-0.3,1.1-0.2c0.4,0.1,0.8,0.3,1.1,0.6
		c0.3,0.3,0.4,0.7,0.5,1.1c0,0.4-0.2,0.8-0.5,1C243,409.3,242.6,409.4,242.2,409.3L242.2,409.3z"></path><path class="st8" d="M253.9,410.8v-0.5c-0.5,0.2-1,0.4-1.5,0.5c-0.5,0.1-1.1,0.2-1.6,0.1c-1.2-0.4-2-1.4-2.2-2.6
		c-0.1-0.7,0.3-1.4,1-1.6c0.9-0.4,1.9-0.8,2.9-1l1.4-0.3v-0.2c0-0.4,0-0.8-0.1-1.1c-0.1-0.2-0.3-0.5-0.5-0.6
		c-0.3-0.2-0.7-0.4-1.1-0.4c-0.6-0.2-1.2-0.1-1.8,0.2l-0.8-0.9c0.9-0.4,1.8-0.5,2.8-0.3c0.8,0.1,1.5,0.4,2.2,0.8
		c0.5,0.3,0.8,0.7,1.1,1.2c0.2,0.5,0.3,1.1,0.3,1.7v3.2c0,0.9,0,1.9,0,2.8c0,0-0.4-0.1-2.1-0.4L253.9,410.8z M253.9,406.4l-0.7,0.1
		c-1.8,0.3-2.5,1-2.5,1.9c0,0.3,0.1,0.6,0.2,0.9c0.2,0.2,0.4,0.3,0.7,0.4c0.8,0,1.6-0.2,2.3-0.6
		C253.9,408.2,253.9,407.3,253.9,406.4L253.9,406.4z"></path><path class="st8" d="M259.9,403.3v-1.6l10.9,2c0,0.5,0,1.1,0,1.6C267.2,404.7,263.5,404,259.9,403.3z M259.9,407v-1.6l10.9,2
		c0,0.5,0,1.1,0,1.6L259.9,407z"></path><path class="st8" d="M276.5,401.2h0.3l0.4,0.1c0,2,0,4.1,0,6.1c0.8-0.5,1.8-0.6,2.7-0.5c1.3,0.2,2.4,0.9,3.2,1.9
		c0.8,1.1,1.2,2.3,1.2,3.7c0.1,1.1-0.3,2.3-1.1,3.1c-0.9,0.8-2.1,1.1-3.3,0.8c-1-0.2-1.9-0.7-2.5-1.4v1l-2.1-0.4
		c0-4.9,0-9.7-0.1-14.6L276.5,401.2z M279.7,408.1c-0.9-0.1-1.7,0.1-2.4,0.7c0,1.6,0,3.2,0,4.8c0.2,0.4,0.5,0.7,0.9,1
		c0.4,0.4,0.8,0.6,1.3,0.7c0.7,0.2,1.4-0.1,1.9-0.6c0.5-0.8,0.8-1.8,0.7-2.8c0-1-0.2-1.9-0.7-2.8C281,408.6,280.4,408.2,279.7,408.1
		L279.7,408.1z"></path><path class="st8" d="M301.2,419.4v-0.6c-0.5,0.2-1,0.4-1.5,0.6c-0.5,0.2-1.1,0.2-1.6,0.1c-1.2-0.4-2.1-1.4-2.3-2.6
		c-0.1-0.7,0.3-1.4,1-1.7c0.9-0.5,1.9-0.9,2.9-1.1l1.4-0.3v-0.2c0-0.4,0-0.8-0.1-1.2c-0.1-0.2-0.3-0.5-0.5-0.6
		c-0.3-0.2-0.7-0.4-1.1-0.4c-0.6-0.1-1.2,0-1.8,0.3l-0.8-0.9c0.8-0.4,1.8-0.6,2.8-0.4c0.8,0.1,1.5,0.4,2.2,0.8
		c0.5,0.3,0.8,0.7,1.1,1.2c0.2,0.6,0.3,1.2,0.3,1.8l0.1,3.4c0,1,0,2,0,2.9c0,0-0.4-0.1-2.1-0.4L301.2,419.4z M301.2,414.8l-0.7,0.2
		c-1.7,0.4-2.5,1.1-2.4,2c0,0.3,0.1,0.6,0.3,0.9c0.2,0.2,0.4,0.4,0.7,0.4c0.8,0,1.6-0.3,2.2-0.7
		C301.2,416.7,301.2,415.7,301.2,414.8L301.2,414.8z"></path><path class="st8" d="M308.4,425.9l-1.5-0.2c0.8-2.3,1.7-4.6,2.5-6.9l2.3,0.4C310.6,421.4,309.5,423.6,308.4,425.9z"></path><path class="st8" d="M317.4,407.5h0.3l0.4,0c0,2.1,0.1,4.3,0.1,6.4c0.8-0.5,1.7-0.7,2.6-0.6c1.3,0.2,2.4,0.8,3.2,1.8
		c0.8,1.1,1.2,2.4,1.2,3.7c0.1,1.2-0.3,2.4-1.1,3.3c-0.9,0.9-2.1,1.2-3.3,1c-1-0.1-1.9-0.6-2.5-1.4c0,0.3,0,0.7,0,1l-2.1-0.3
		c-0.1-5.1-0.2-10.1-0.3-15.2L317.4,407.5z M320.6,414.5c-0.9-0.1-1.8,0.2-2.4,0.9c0,1.7,0.1,3.3,0.1,5c0.2,0.4,0.5,0.7,0.9,1
		c0.4,0.3,0.8,0.6,1.3,0.6c0.7,0.1,1.4-0.1,1.9-0.7c0.5-0.9,0.8-1.9,0.7-2.9c0-1-0.2-2-0.7-2.8C322,415,321.4,414.6,320.6,414.5
		L320.6,414.5z"></path><path class="st8" d="M330.9,416.1c-0.4-0.1-0.9-0.3-1.1-0.6c-0.3-0.3-0.4-0.7-0.5-1.2c0-0.4,0.1-0.8,0.4-1.1
		c0.3-0.3,0.7-0.4,1.1-0.4c0.4,0.1,0.8,0.3,1.1,0.6c0.3,0.3,0.5,0.7,0.5,1.2c0,0.8-0.5,1.4-1.3,1.4
		C331.1,416.1,331,416.1,330.9,416.1L330.9,416.1z M331.1,424.5c-0.4-0.1-0.9-0.3-1.1-0.6c-0.3-0.3-0.5-0.7-0.5-1.2
		c0-0.7,0.5-1.4,1.3-1.4c0.1,0,0.2,0,0.2,0c0.4,0.1,0.8,0.3,1.1,0.6c0.3,0.3,0.5,0.7,0.5,1.2c0,0.4-0.1,0.8-0.4,1.1
		C331.9,424.5,331.5,424.6,331.1,424.5z"></path><path class="st8" d="M342.8,425v-0.6c-0.5,0.3-0.9,0.5-1.5,0.7c-0.5,0.2-1.1,0.3-1.6,0.2c-1.2-0.3-2.1-1.3-2.3-2.6
		c-0.1-0.8,0.3-1.5,0.9-1.9c0.9-0.6,1.9-1,2.9-1.3l1.4-0.4v-0.2c0-0.4-0.1-0.8-0.1-1.2c-0.1-0.2-0.3-0.5-0.5-0.6
		c-0.3-0.2-0.7-0.3-1.1-0.4c-0.6-0.1-1.3,0.1-1.8,0.4l-0.8-0.9c0.8-0.5,1.8-0.7,2.8-0.6c0.8,0,1.5,0.3,2.2,0.7
		c0.5,0.3,0.8,0.7,1.1,1.2c0.2,0.6,0.3,1.2,0.3,1.8l0.1,3.5l0.1,3c0,0-0.4-0.1-2.1-0.2L342.8,425z M342.7,420.3l-0.7,0.2
		c-1.7,0.5-2.4,1.3-2.4,2.3c0,0.3,0.1,0.6,0.3,0.9c0.2,0.2,0.4,0.3,0.7,0.4c0.8-0.1,1.6-0.4,2.2-0.9
		C342.7,422.2,342.7,421.2,342.7,420.3L342.7,420.3z"></path><path class="st8" d="M348.5,416.3l-0.1-1.8c3.6,0.3,7.3,0.5,10.9,0.8l0.1,1.8C355.8,416.8,352.2,416.6,348.5,416.3z M348.6,420.2
		l-0.1-1.8c3.6,0.3,7.3,0.6,10.9,0.8l0.1,1.8C355.9,420.7,352.3,420.5,348.6,420.2L348.6,420.2z"></path><path class="st8" d="M365,411.9h0.3h0.4l0.2,6.5c0.7-0.6,1.7-0.9,2.6-0.9c1.2,0,2.4,0.6,3.2,1.5c0.8,1,1.3,2.4,1.3,3.7
		c0.1,1.2-0.2,2.5-1,3.5c-0.8,0.9-2,1.4-3.2,1.3c-1,0-1.9-0.4-2.6-1.1c0,0.3,0,0.7,0,1l-2.1-0.1l-0.5-15.6L365,411.9z M368.3,418.7
		c-0.9,0-1.8,0.4-2.4,1.1l0.2,5.1c0.2,0.4,0.5,0.7,0.9,1c0.4,0.3,0.9,0.5,1.4,0.5c0.7,0,1.5-0.3,1.8-1c0.5-0.9,0.7-2,0.6-3
		c0-1-0.2-2-0.8-2.8C369.7,419.1,369,418.8,368.3,418.7L368.3,418.7z"></path></g></svg>