<svg transform="scale(1)" version="1.1" id="Layer_1" xmlns="http://www.w3.org/2000/svg"
     xmlns:xlink="http://www.w3.org/1999/xlink" x="0px" y="0px" viewBox="0 0 500 500" xml:space="preserve"
     class="show_show__wrapper__graphic__5Waiy "><title>React</title>
    <style type="text/css">
	.st0{fill:#F2EBEB;}
	.st1{fill:#000001;}
	.st2{fill:#A04040;}
	.st3{fill:#EA8383;}
	.st4{fill:#469F78;}
	.st5{clip-path:url(#SVGID_2_);}
	.st6{fill:#FFFFFF;}
	.st7{fill:#87CCDB;}
	.st8{fill:#469F78;}
</style>
    <g id="bubble"><circle class="st0" cx="423.3" cy="252" r="7.1"></circle>
        <circle class="st0" cx="394.9" cy="171.5" r="7.7"></circle>
        <circle class="st0" cx="97.9" cy="281.6" r="10.2"></circle>
        <circle class="st0" cx="211.3" cy="426.6" r="5.6"></circle>
        <circle class="st0" cx="203.6" cy="77.7" r="7.7"></circle></g>
    <g id="thumbs-up"><path class="st0" d="M91.7,427.4c3.4,0.2,6.8,0.9,10,2.2c4.5,2,29.7,3,29.1-1.1l-0.6-4c0,0,3.8-2.8,0.6-9c0,0,4.3-8.5,1.3-10.6
		s-14.2-3.1-14.2-3.1s3.7-12.6-1.6-16.6s-2.2,8.1-7.3,14.2s-16.3,6.5-16.3,6.5L91.7,427.4z"></path>
        <path class="st0" d="M85.6,431.3c0,0,7.7-0.7,7.7-1.7s1-26.1,1-26.1h-8.7V431.3z"></path>
        <path class="st0" d="M370.9,118.4c3.4,0.2,6.8,0.9,10,2.2c4.5,2,29.7,2.9,29.1-1.1l-0.6-4c0,0,3.8-2.8,0.6-9c0,0,4.3-8.4,1.3-10.6
		S397,92.7,397,92.7s3.8-12.7-1.6-16.7s-2.2,8.1-7.3,14.2s-16.3,6.5-16.3,6.5L370.9,118.4z"></path>
        <path class="st0" d="M364.8,122.3c0,0,7.7-0.7,7.7-1.7s1-26.1,1-26.1h-8.6L364.8,122.3z"></path></g>
    <g id="hands"><g id="hands-2"><path class="st1" d="M79.3,75.7c0,0-80.5-11.9-60.1,82.5S137.6,88.4,79.3,75.7z"></path><path
            class="st1" d="M409,329.6c0,0,32.8-42.4,62.6-33.7s4.7,115-56.4,127.2S409,329.6,409,329.6z"></path><path
            class="st2" d="M220.3,153.8c0,0,43.9-43.7,52.1-44.6s48.9,43.8,35.1,52.8S220.3,153.8,220.3,153.8z"></path><path
            class="st3"
            d="M188.2,221.2c0,0-4.4,224.5,244.3,180c0,0,48.9-20.9,45.6-74.4c0,0-177.9,38.3-188.8-119.3L188.2,221.2z"></path><path
            class="st2" d="M317,221.3c0,0,3-2.8,8.3-11.6s-1.6-19-1.6-19s13.7-13.6,11.8-21.2s-29.4-35.6-65.4-24.6
			C164.8,177.1,85.2,77.7,85.2,77.7c-40.4-15.7-60,39.9-60,39.9C132.4,305,295.3,266.8,295.3,266.8S338.3,257.8,317,221.3z"></path><path
            class="st3"
            d="M195.5,155.8c0,0,3.4,49.4,12.4,48c22.7-3.7,23.1-58.8,10.7-62.4S195.5,134.9,195.5,155.8z"></path><path
            class="st3" d="M233.8,199.6c-8.5,6.2-17.6-49.7-17.6-49.7s-4.6-14.2,26.5-17.6l-5.1,7.1
			C237.6,139.4,257.3,182.6,233.8,199.6z"></path><path class="st3"
                                                                d="M313.4,153.1c0,0-5.4-30.6-11.3-33.1s-57.3,12-54.8,20.8s20.6,16.9,52.4,8.5L313.4,153.1z"></path><path
            class="st3"
            d="M201.8,146.8c0,0-13.6-9.3-22.6-3.9s3.5,59,14.1,50c16.5-13.9,7.6-38.8,7.6-38.8L201.8,146.8z"></path><path
            class="st4" d="M203.3,364.2c0,0,42-47.7,132.4-74.3c0,0,43.8,51.5,142.5,28.8c0,0,11.7,61.8-49.3,88.3
			c0,0-22.6,2.2-39.8,8.2c-16.1,5.6-27.2,17.5-45.6,2.7c-21.7-17.4-25.8,3.6-45.8,6.2s-17.4-53.8-60.3-29.2
			C218.5,405.7,203.3,364.2,203.3,364.2z"></path><g><defs><path id="SVGID_1_" d="M203.3,364.2c0,0,42-47.7,132.4-74.3c0,0,43.8,51.5,142.5,28.8c0,0,11.7,61.8-49.3,88.3
					c0,0-22.6,2.2-39.8,8.2c-16.1,5.6-27.2,17.5-45.6,2.7c-21.7-17.4-25.8,3.6-45.8,6.2s-17.4-53.8-60.3-29.2
					C218.5,405.7,203.3,364.2,203.3,364.2z"></path></defs>
        <clipPath id="SVGID_2_"><use xlink:href="#SVGID_1_" style="overflow: visible;"></use></clipPath>
        <g class="st5"><path class="st6" d="M466.2,491c-0.3,0-0.5-0.2-0.5-0.5l-8.8-306.6c0-0.3,0.2-0.5,0.5-0.5c0.3,0,0.5,0.2,0.5,0.5c0,0,0,0,0,0
					l8.8,306.6C466.7,490.8,466.5,491,466.2,491C466.3,491,466.3,491,466.2,491L466.2,491z"></path>
            <path class="st6" d="M442.6,491c-0.3,0-0.5-0.2-0.5-0.5c0,0,0,0,0,0l-2.8-306.1c0-0.3,0.2-0.5,0.5-0.5l0,0
					c0.3,0,0.5,0.2,0.5,0.5c0,0,0,0,0,0l2.8,306.1C443.1,490.8,442.8,491,442.6,491z"></path>
            <path class="st6" d="M420.6,491c-0.3,0-0.5-0.2-0.5-0.5v-306c0-0.3,0.2-0.5,0.5-0.5s0.5,0.2,0.5,0.5v306
					C421.1,490.8,420.8,491,420.6,491z"></path>
            <path class="st6" d="M399.6,491L399.6,491c-0.3,0-0.5-0.2-0.5-0.5c0,0,0,0,0,0l2.1-306.2c0-0.3,0.2-0.5,0.5-0.5l0,0
					c0.3,0,0.5,0.2,0.5,0.5l-2.1,306.2C400.2,490.8,399.9,491,399.6,491z"></path>
            <path class="st6" d="M377.1,491L377.1,491c-0.3,0-0.5-0.2-0.5-0.5l8.8-306.1c0-0.3,0.2-0.5,0.5-0.5c0.3,0,0.5,0.2,0.5,0.5
					l-8.8,306.1C377.6,490.8,377.4,491,377.1,491C377.1,491,377.1,491,377.1,491z"></path>
            <path class="st6" d="M358,491.1L358,491.1c-0.3,0-0.5-0.2-0.5-0.5l10.9-306.1c0-0.3,0.2-0.5,0.5-0.5c0,0,0,0,0,0
					c0.3,0,0.5,0.2,0.5,0.5c0,0,0,0,0,0l-10.9,306C358.5,490.8,358.3,491.1,358,491.1z"></path>
            <path class="st6" d="M345.8,491.1L345.8,491.1c-0.3,0-0.5-0.2-0.5-0.5l12.1-306.1c0-0.3,0.2-0.5,0.5-0.5c0,0,0.1,0,0.1,0
					c0.3,0,0.5,0.2,0.5,0.5c0,0,0,0,0,0l-12.1,306.1C346.3,490.9,346.1,491.1,345.8,491.1z"></path>
            <path class="st6" d="M335.4,491.1L335.4,491.1c-0.3,0-0.5-0.2-0.5-0.5c0,0,0,0,0,0l8.8-306c0-0.3,0.2-0.5,0.5-0.5c0,0,0,0,0,0
					c0.3,0,0.5,0.2,0.5,0.5l-8.8,306C335.9,490.9,335.7,491.1,335.4,491.1z"></path>
            <path class="st6" d="M534.2,262.8H250.4c-0.3,0-0.5-0.2-0.5-0.5c0-0.3,0.2-0.5,0.5-0.5h283.8c0.3,0,0.5,0.2,0.5,0.5
					C534.7,262.5,534.5,262.8,534.2,262.8z"></path>
            <path class="st6" d="M253.7,250.3c-0.3,0-0.5-0.2-0.5-0.5s0.2-0.5,0.5-0.5l280.1-3.2c0.3,0,0.5,0.2,0.5,0.5
					c0,0.3-0.2,0.5-0.5,0.5L253.7,250.3L253.7,250.3z"></path>
            <path class="st6" d="M533.8,230H317c-0.3,0-0.5-0.2-0.5-0.5c0-0.3,0.2-0.5,0.5-0.5h216.8c0.3,0,0.5,0.2,0.5,0.5
					C534.3,229.8,534.1,230,533.8,230z"></path>
            <path class="st6" d="M533.9,213.2L533.9,213.2L317,211.4c-0.3,0-0.5-0.2-0.5-0.5s0.2-0.5,0.5-0.5l0,0l216.9,1.8
					c0.3,0,0.5,0.2,0.5,0.5C534.4,213,534.2,213.2,533.9,213.2C533.9,213.2,533.9,213.2,533.9,213.2z"></path>
            <path class="st6" d="M533.8,199.1L533.8,199.1L317,191.3c-0.3,0-0.5-0.2-0.5-0.5s0.2-0.5,0.5-0.5l216.8,7.8
					c0.3,0,0.5,0.2,0.5,0.5S534.1,199.1,533.8,199.1L533.8,199.1z"></path>
            <path class="st6" d="M533.8,184L533.8,184l-216.9-9.7c-0.3,0-0.5-0.2-0.5-0.5s0.2-0.5,0.5-0.5l0,0l216.9,9.7
					c0.3,0,0.5,0.2,0.5,0.5S534,184,533.8,184L533.8,184z"></path>
            <path class="st6" d="M533.8,174.3L533.8,174.3l-216.9-10.8c-0.3,0-0.5-0.2-0.5-0.5s0.2-0.5,0.5-0.5l216.8,10.8
					c0.3,0,0.5,0.2,0.5,0.5S534,174.3,533.8,174.3L533.8,174.3z"></path>
            <path class="st6" d="M533.8,162L533.8,162l-216.8-7.8c-0.3,0-0.5-0.2-0.5-0.5c0,0,0,0,0,0c0-0.3,0.2-0.5,0.5-0.5l216.8,7.8
					c0.3,0,0.5,0.2,0.5,0.5C534.2,161.8,534,162,533.8,162z"></path>
            <path class="st6" d="M190.8,333.5c-0.3,0-0.5-0.2-0.5-0.5c0-0.3,0.2-0.5,0.5-0.5c0,0,0,0,0,0l357.1-7.9c0.3,0,0.5,0.2,0.5,0.5
					s-0.2,0.5-0.5,0.5L190.8,333.5L190.8,333.5z"></path>
            <path class="st6" d="M190.8,312.5c-0.3,0-0.5-0.2-0.5-0.5c0,0,0,0,0,0c0-0.3,0.2-0.5,0.5-0.5l356.4-2.5l0,0
					c0.3,0,0.5,0.2,0.5,0.5c0,0.3-0.2,0.5-0.5,0.5L190.8,312.5L190.8,312.5z"></path>
            <path class="st6" d="M547.2,292.9H190.8c-0.3,0-0.5-0.2-0.5-0.5s0.2-0.5,0.5-0.5h356.4c0.3,0,0.5,0.2,0.5,0.5
					C547.7,292.7,547.4,292.9,547.2,292.9z"></path>
            <path class="st6" d="M547.3,276.1L547.3,276.1l-356.5-1.8c-0.3,0-0.5-0.2-0.5-0.5s0.2-0.5,0.5-0.5l0,0l356.5,1.8
					c0.3,0,0.5,0.2,0.5,0.5S547.6,276.1,547.3,276.1z"></path>
            <path class="st6" d="M547.2,262L547.2,262l-356.4-7.8c-0.3,0-0.5-0.2-0.5-0.5c0,0,0,0,0,0c0-0.3,0.2-0.5,0.5-0.5l356.4,7.8
					c0.3,0,0.5,0.2,0.5,0.5C547.6,261.8,547.4,262,547.2,262z"></path>
            <path class="st6" d="M547.1,246.9L547.1,246.9l-356.4-9.7c-0.3,0-0.5-0.2-0.5-0.5c0,0,0,0,0,0c0-0.3,0.2-0.5,0.5-0.5l356.4,9.7
					c0.3,0,0.5,0.2,0.5,0.5S547.4,246.9,547.1,246.9L547.1,246.9z"></path>
            <path class="st6" d="M547.1,237.2L547.1,237.2l-356.4-10.8c-0.3,0-0.5-0.2-0.5-0.5c0,0,0,0,0,0c0-0.3,0.2-0.5,0.5-0.5
					l356.4,10.8c0.3,0,0.5,0.2,0.5,0.5S547.4,237.2,547.1,237.2L547.1,237.2z"></path>
            <path class="st6" d="M547.1,224.9L547.1,224.9l-356.4-7.8c-0.3,0-0.5-0.2-0.5-0.5c0-0.3,0.2-0.5,0.5-0.5l356.4,7.8
					c0.3,0,0.5,0.2,0.5,0.5c0,0,0,0,0,0C547.6,224.7,547.3,224.9,547.1,224.9C547.1,224.9,547.1,224.9,547.1,224.9z"></path>
            <path class="st6" d="M330.8,446.8c-0.3,0-0.5-0.2-0.5-0.5l-8.8-252.6c0-0.3,0.2-0.5,0.5-0.5c0.3,0,0.5,0.2,0.5,0.5c0,0,0,0,0,0
					l8.8,252.6C331.3,446.6,331.1,446.8,330.8,446.8C330.8,446.8,330.8,446.8,330.8,446.8L330.8,446.8z"></path>
            <path class="st6" d="M307.1,446.8c-0.3,0-0.5-0.2-0.5-0.5l-2.8-252.1c0-0.3,0.2-0.5,0.5-0.5c0,0,0,0,0,0c0.3,0,0.5,0.2,0.5,0.5
					c0,0,0,0,0,0l2.8,252.2C307.6,446.6,307.4,446.8,307.1,446.8C307.1,446.8,307.1,446.8,307.1,446.8L307.1,446.8z"></path>
            <path class="st6" d="M285.1,446.8c-0.3,0-0.5-0.2-0.5-0.5V194.2c0-0.3,0.2-0.5,0.5-0.5c0.3,0,0.5,0.2,0.5,0.5v252.2
					C285.6,446.6,285.4,446.8,285.1,446.8z"></path>
            <path class="st6" d="M264.2,446.8L264.2,446.8c-0.3,0-0.5-0.2-0.5-0.5c0,0,0,0,0,0l2.1-252.3c0-0.3,0.2-0.5,0.5-0.5l0,0
					c0.3,0,0.5,0.2,0.5,0.5l-2.1,252.3C264.7,446.6,264.5,446.8,264.2,446.8z"></path>
            <path class="st6" d="M241.6,446.8L241.6,446.8c-0.3,0-0.5-0.2-0.5-0.5c0,0,0,0,0,0l8.8-252.1c0-0.3,0.2-0.5,0.5-0.5c0,0,0,0,0,0
					c0.3,0,0.5,0.2,0.5,0.5c0,0,0,0,0,0l-8.8,252.2C242.1,446.6,241.9,446.8,241.6,446.8C241.6,446.8,241.6,446.8,241.6,446.8z"></path>
            <path class="st6" d="M222.5,446.9L222.5,446.9c-0.3,0-0.5-0.2-0.5-0.5c0,0,0,0,0,0l10.9-252.2c0-0.3,0.2-0.5,0.5-0.5
					c0,0,0,0,0,0c0.3,0,0.5,0.2,0.5,0.5c0,0,0,0,0,0L223,446.4C223,446.7,222.8,446.9,222.5,446.9z"></path>
            <path class="st6" d="M210.4,446.9L210.4,446.9c-0.3,0-0.5-0.2-0.5-0.5c0,0,0,0,0,0L222,194.2c0-0.3,0.2-0.5,0.5-0.5c0,0,0,0,0,0
					c0.3,0,0.5,0.2,0.5,0.5c0,0,0,0,0,0l-12.1,252.2C210.9,446.7,210.6,446.9,210.4,446.9z"></path>
            <path class="st6" d="M199.9,446.9L199.9,446.9c-0.3,0-0.5-0.2-0.5-0.5l8.8-252.2c0-0.3,0.2-0.5,0.5-0.5c0,0,0,0,0,0
					c0.3,0,0.5,0.2,0.5,0.5l-8.8,252.2C200.4,446.7,200.2,446.9,199.9,446.9C199.9,446.9,199.9,446.9,199.9,446.9z"></path>
            <path class="st6" d="M197.5,457.4c-0.3,0-0.5-0.2-0.5-0.5s0.2-0.5,0.5-0.5l357.1-7.9c0.3,0,0.5,0.2,0.5,0.5c0,0,0,0,0,0
					c0,0.3-0.2,0.5-0.5,0.5L197.5,457.4L197.5,457.4z"></path>
            <path class="st6" d="M197.5,436.4c-0.3,0-0.5-0.2-0.5-0.5s0.2-0.5,0.5-0.5l356.4-2.5l0,0c0.3,0,0.5,0.2,0.5,0.5
					s-0.2,0.5-0.5,0.5L197.5,436.4L197.5,436.4z"></path>
            <path class="st6" d="M553.9,416.8H197.5c-0.3,0-0.5-0.2-0.5-0.5s0.2-0.5,0.5-0.5h356.4c0.3,0,0.5,0.2,0.5,0.5
					C554.4,416.6,554.2,416.8,553.9,416.8z"></path>
            <path class="st6" d="M554.1,400L554.1,400l-356.5-1.8c-0.3,0-0.5-0.2-0.5-0.5s0.2-0.5,0.5-0.5l0,0l356.5,1.8
					c0.3,0,0.5,0.2,0.5,0.5S554.3,400,554.1,400z"></path>
            <path class="st6" d="M553.9,385.9L553.9,385.9l-356.4-7.8c-0.3,0-0.5-0.2-0.5-0.5c0,0,0,0,0,0c0-0.3,0.2-0.5,0.5-0.5l356.4,7.8
					c0.3,0,0.5,0.2,0.5,0.5S554.2,385.9,553.9,385.9L553.9,385.9z"></path>
            <path class="st6" d="M553.8,370.8L553.8,370.8l-356.4-9.7c-0.3,0-0.5-0.2-0.5-0.5c0,0,0,0,0,0c0-0.3,0.2-0.5,0.5-0.5l0,0
					l356.4,9.7c0.3,0,0.5,0.2,0.5,0.5S554.1,370.8,553.8,370.8L553.8,370.8z"></path>
            <path class="st6" d="M553.8,361.1L553.8,361.1l-356.4-10.8c-0.3,0-0.5-0.2-0.5-0.5c0,0,0,0,0,0c0-0.3,0.2-0.5,0.5-0.5
					l356.4,10.8c0.3,0,0.5,0.2,0.5,0.5S554.1,361.1,553.8,361.1L553.8,361.1z"></path>
            <path class="st6" d="M553.8,348.8L553.8,348.8L197.4,341c-0.3,0-0.5-0.2-0.5-0.5c0,0,0,0,0,0c0-0.3,0.2-0.5,0.5-0.5l356.4,7.8
					c0.3,0,0.5,0.2,0.5,0.5c0,0,0,0,0,0C554.3,348.6,554.1,348.8,553.8,348.8z"></path></g></g></g>
        <path class="st7" d="M86.5,197.8c0,0-6.5-29.8,15.9-56.6s34.6-21.5,34.6-21.5s25.6,16.9,25.2,16.7l-0.4-0.2
		c0,0-51.1,13.8-44.2,87.4C117.6,223.6,87.4,205.6,86.5,197.8z"></path>
        <path class="st4" d="M80,148.7c0,0-3.9,45.4,46.7,38.6s32.2-76.9-6.3-76.2S80,148.7,80,148.7z"></path>
        <path class="st6" d="M85.3,145.8c0,0-3.4,36.5,40.3,31s27.9-61.9-5.4-61.4S85.3,145.8,85.3,145.8z"></path>
        <path class="st1" d="M108.6,136.9c1.9,1.4,3.8,2.9,5.6,4.3s3.6,3,5.3,4.6l-0.9-0.2c1.9-0.7,3.9-1.3,5.9-2s3.9-1.2,5.9-1.8
		s4-1.1,6-1.6s4-1,6.1-1.4c-1.9,0.9-3.8,1.7-5.7,2.5s-3.9,1.5-5.8,2.2s-3.9,1.4-5.9,2s-3.9,1.3-5.9,1.9l-0.5,0.2l-0.4-0.4
		c-1.7-1.6-3.3-3.3-4.9-5S110.1,138.7,108.6,136.9z"></path>
        <path class="st8" d="M119.8,143.8c0,0-4.8,1.2-3.1,4.2S123.9,148.2,119.8,143.8z"></path>
        <path class="st8" d="M346.4,149.6c-1.1,0.6-2.2,1.1-3.4,1.6c-1.1,0.4-2.3,0.7-3.5,1c-1.2,0.3-2.4,0.5-3.6,0.6
		c-1.2,0.1-2.5,0.1-3.7,0c1.1-0.6,2.2-1.2,3.4-1.6c1.1-0.4,2.3-0.7,3.5-1c1.2-0.3,2.4-0.5,3.6-0.6
		C343.9,149.5,345.1,149.5,346.4,149.6z"></path>
        <path class="st8" d="M338.2,132.3c-0.6,1.4-1.4,2.8-2.2,4.1c-0.8,1.3-1.7,2.6-2.7,3.8s-2,2.4-3,3.5c-1.1,1.1-2.2,2.2-3.5,3.1
		c0.6-1.4,1.4-2.8,2.2-4.1c0.8-1.3,1.7-2.5,2.7-3.8s2-2.4,3-3.5C335.8,134.3,337,133.2,338.2,132.3z"></path>
        <path class="st8" d="M318.2,141.1c-0.2-0.7-0.2-1.5-0.2-2.2c0.1-0.7,0.2-1.4,0.4-2.1c0.2-0.7,0.5-1.3,0.8-1.9
		c0.3-0.7,0.8-1.3,1.4-1.8c0.2,0.7,0.2,1.5,0.2,2.2c-0.1,0.7-0.2,1.4-0.4,2.1c-0.2,0.7-0.5,1.3-0.8,1.9
		C319.2,140,318.7,140.6,318.2,141.1z"></path></g></svg>