<svg width="413" height="413" viewBox="0 0 413 413" fill="none" xmlns="http://www.w3.org/2000/svg">
<rect x="0.943359" y="110.732" width="321" height="321" rx="60" transform="rotate(-20 0.943359 110.732)" fill="#49A3F8" fill-opacity="0.3"/>
<g clip-path="url(#clip0_425_117)">
<path d="M159.862 233.569C160.671 231.933 161.634 230.369 162.598 228.806C163.561 227.242 164.545 225.734 165.585 224.207C166.625 222.679 167.686 221.207 168.767 219.792C169.848 218.377 170.986 216.941 172.257 215.521C171.447 217.156 170.504 218.777 169.521 220.284C168.537 221.791 167.574 223.355 166.533 224.883C165.493 226.411 164.433 227.882 163.351 229.298C162.27 230.713 161.076 232.169 159.862 233.569Z" fill="#469F78"/>
<path d="M150.277 237.057C150.231 236.755 150.241 236.432 150.272 236.165C150.282 235.842 150.369 235.555 150.456 235.268C150.63 234.694 150.804 234.12 151.035 233.525C151.46 232.412 151.962 231.336 152.541 230.295C153.12 229.254 153.699 228.214 154.355 227.209C155.01 226.204 155.743 225.235 156.496 224.322C156.148 225.47 155.646 226.547 155.144 227.624C154.642 228.7 154.14 229.777 153.618 230.797C153.095 231.817 152.516 232.858 151.937 233.899L151.087 235.422C150.923 235.673 150.815 235.904 150.672 236.211C150.451 236.483 150.364 236.77 150.277 237.057Z" fill="#469F78"/>
<path d="M119.788 171.533C120.331 170.569 120.894 169.662 121.591 168.77C122.232 167.898 122.929 167.006 123.61 166.247C124.292 165.488 125.065 164.632 125.88 163.888C126.675 163.089 127.51 162.401 128.366 161.771C127.823 162.735 127.259 163.642 126.562 164.534C125.922 165.406 125.204 166.242 124.543 167.057C123.826 167.893 123.088 168.672 122.329 169.395C121.458 170.159 120.623 170.846 119.788 171.533Z" fill="#469F78"/>
<path d="M108.624 175.597C109.168 174.633 109.844 173.684 110.541 172.792C111.238 171.9 111.935 171.008 112.673 170.228C113.41 169.449 114.184 168.593 114.999 167.849C115.793 167.049 116.685 166.342 117.597 165.69C116.998 166.675 116.378 167.603 115.681 168.495C114.984 169.387 114.287 170.279 113.493 171.079C112.699 171.879 111.981 172.715 111.11 173.479C110.408 174.181 109.516 174.889 108.624 175.597Z" fill="#469F78"/>
<path d="M209.004 122.46C209.004 122.46 206.052 142.945 207.843 148.04C209.633 153.135 212.828 157.527 199.555 170.531C186.282 183.535 187.426 186.502 191.555 193.109C195.683 199.715 186.372 209.745 186.372 209.745C186.372 209.745 161.867 202.765 157.218 187.536C152.57 172.308 154.687 189.352 150.107 182.91C144.245 174.699 127.831 174.161 127.831 174.161C127.831 174.161 148.74 169.679 191.529 121.286C200.773 110.898 210.313 111.321 209.004 122.46Z" fill="#000001"/>
<path d="M230.667 88.652C230.667 88.652 243.356 74.3924 245.282 72.6695C247.209 70.9465 248.45 70.4951 248.394 71.2179C248.337 71.9407 246.252 74.1045 246.252 74.1045C246.252 74.1045 248.426 75.165 247.108 75.5806C247.108 75.5806 248.595 75.8057 248.036 76.9029C247.478 78 246.535 78.9179 246.161 78.4156C245.843 79.2974 245.315 80.128 244.67 80.81C243.778 81.5177 238.029 89.2291 238.029 89.2291L230.667 88.652Z" fill="#EA8383"/>
<path d="M243.619 80.554C243.701 80.0773 243.859 79.6364 243.885 79.1802C243.987 78.7598 244.013 78.3036 243.982 77.8678L243.92 77.6987L244.069 77.5807C244.479 77.3038 244.945 77.0064 245.335 76.673C245.54 76.5346 245.668 76.3603 245.832 76.109C245.924 76.0116 245.96 75.9347 245.975 75.8014C246.032 75.7809 245.991 75.6681 246.032 75.7809C246.073 75.8937 246.129 75.8731 246.052 75.8373C245.842 75.7861 245.632 75.7349 245.386 75.7606C245.14 75.7863 244.894 75.812 244.627 75.7813L243.018 75.9202C243.525 75.7355 244.032 75.5508 244.56 75.4225C244.842 75.3199 245.088 75.2942 245.391 75.248C245.693 75.2017 246.016 75.2119 246.283 75.2426C246.416 75.2579 246.59 75.386 246.596 75.5757C246.637 75.6884 246.621 75.8217 246.529 75.9192C246.457 76.073 246.386 76.2268 246.293 76.3242C246.129 76.5754 245.945 76.7703 245.704 76.9856C245.258 77.3395 244.792 77.6369 244.305 77.878L244.469 77.6268C244.494 77.8728 244.464 78.1394 244.433 78.4059C244.382 78.6161 244.295 78.9032 244.244 79.1134C244.09 79.744 243.854 80.149 243.619 80.554Z" fill="#000001"/>
<path d="M196.573 122.515C196.573 122.515 232.086 84.3045 233.983 83.5504C235.879 82.7963 240.597 87.3367 240.597 87.3367L203.947 130.494L196.573 122.515Z" fill="#000001"/>
<path d="M132.3 204.332L141.692 223.645C141.692 223.645 145.5 222.003 144.987 219.189C144.473 216.375 145.236 213.735 147.861 213.226C150.485 212.718 152.196 209.35 152.8 205.044C153.403 200.738 188.532 161.645 188.532 161.645L184.983 158.212L132.3 204.332Z" fill="#000001"/>
<path d="M117.833 201.425C115.803 202.163 113.671 202.62 111.564 202.621C108.581 202.494 108.924 203.262 109.14 204.206C109.355 205.149 110.042 221.245 109.848 223.869C109.654 226.494 111.873 225.75 112.364 221.485C112.855 217.22 112.757 214.318 114.207 212.514C115.657 210.709 120.937 209.426 120.937 209.426L117.833 201.425Z" fill="#000001"/>
<path d="M177.235 148.326C177.235 148.326 170.55 146.8 163.725 156.819C158.304 164.73 142.708 192.052 120.178 192.781C114.811 192.947 107.89 190.422 108.957 193.353C110.025 196.285 118.61 212.507 118.61 212.507C118.61 212.507 140.319 211.629 187.958 162.173L177.235 148.326Z" fill="#229B66"/>
<path d="M136.924 206.863C135.136 208.088 133.168 208.996 131.133 209.545C128.226 210.156 128.719 210.807 129.16 211.668C129.601 212.529 134.198 227.968 134.686 230.536C135.174 233.104 137.152 231.873 136.561 227.619C135.971 223.364 135.211 220.576 136.103 218.464C136.994 216.351 141.878 213.807 141.878 213.807L136.924 206.863Z" fill="#000001"/>
<path d="M151.966 142.582C151.966 142.582 137.538 150.834 135.734 152.193C133.93 153.552 133.331 154.536 133.977 154.557C134.623 154.577 136.827 153.264 136.827 153.264C136.827 153.264 137.319 155.319 137.955 154.258C137.955 154.258 137.858 155.57 138.914 155.314C139.969 155.057 140.938 154.385 140.548 154.016C141.399 153.898 142.189 153.611 142.86 153.175C143.639 152.508 155.054 147.907 155.054 147.907L151.966 142.582Z" fill="#EA8383"/>
<path d="M207.358 119.165C207.358 119.165 209.794 123.578 209.697 124.89C209.6 126.202 192.698 157.83 187.922 162.251L184.891 158.309L207.358 119.165Z" fill="#F2EBEB"/>
<path d="M207.016 108.754C207.016 108.754 203.318 116.485 203.323 116.675C203.328 116.864 209.004 122.46 209.004 122.46L212.677 112.376C212.677 112.376 218.998 113.779 216.894 106.946C216.894 106.946 220.087 106.422 219.795 106.146C217.672 104.173 215.478 102.354 213.135 100.652C210.93 99.1562 202.74 103.67 202.925 104.879C203.109 106.089 204.418 109.508 207.016 108.754Z" fill="#EA8383"/>
<path d="M207.805 107.764C207.805 107.764 205.692 104.063 204.888 104.484C204.083 104.905 203.971 107.755 207.016 108.753L206.909 111.091C204.346 110.364 202.321 108.483 201.454 105.925C199.95 101.62 202.636 98.4717 210.268 97.1622C210.268 97.1622 205.008 94.288 208.39 91.6522C211.773 89.0163 217.511 95.4839 217.035 97.5088C216.558 99.5338 214.908 100.964 212.786 101.801C210.664 102.637 209.567 102.781 209.66 103.386C209.752 103.99 211.076 106.574 212.265 107.035C213.454 107.496 216.935 107.059 216.935 107.059C216.935 107.059 221.021 110.041 222.319 112.378C223.617 114.715 221.74 114.121 221.74 114.121C221.74 114.121 222.709 114.854 220.659 115.536C218.609 116.219 210.519 113.289 207.805 107.764Z" fill="#A04040"/>
<path d="M210.526 103.836C210.526 103.836 213.478 102.123 214.914 104.666C214.935 104.722 211.849 106.42 210.526 103.836Z" fill="#F2EBEB"/>
<path d="M210.357 103.898C210.69 103.585 211.064 103.385 211.515 103.221C211.966 103.057 212.402 103.026 212.858 103.051C213.315 103.077 213.776 103.292 214.145 103.605C214.514 103.917 214.771 104.271 214.822 104.763C214.273 104.133 213.561 103.753 212.761 103.661C212.361 103.615 211.982 103.626 211.567 103.713C211.244 103.703 210.829 103.79 210.357 103.898Z" fill="#000001"/>
<path d="M213.304 103.4C213.304 103.4 212.479 103.764 213.146 105.245C213.146 105.245 214.607 105.224 214.858 104.686C214.914 104.666 213.966 103.287 213.304 103.4Z" fill="#000001"/>
<path d="M214.116 90.7177C214.89 91.266 215.572 91.9117 216.162 92.6548C216.751 93.3979 217.193 94.2589 217.485 95.238C217.613 95.7659 217.665 96.258 217.66 96.7706C217.598 97.3038 217.46 97.801 217.189 98.283C216.604 99.1341 215.708 99.6521 214.646 99.719C215.374 99.2626 215.964 98.6012 216.343 97.8885C216.589 97.1605 216.604 96.325 216.337 95.592C216.106 94.7821 215.742 93.9569 215.398 93.1881L214.116 90.7177Z" fill="#A04040"/>
<path d="M212.704 100.873C212.596 101.104 212.432 101.355 212.171 101.514C211.966 101.652 211.684 101.755 211.381 101.801C211.392 101.478 211.535 101.171 211.796 101.012C212.094 100.776 212.453 100.709 212.704 100.873Z" fill="#000001"/>
<path d="M212.301 108.362C212.496 108.547 212.691 108.731 212.942 108.895C213.04 108.987 213.116 109.023 213.27 109.095C213.424 109.167 213.521 109.259 213.639 109.408C213.322 109.587 212.886 109.618 212.614 109.398C212.44 109.27 212.322 109.121 212.26 108.952C212.178 108.726 212.209 108.46 212.301 108.362Z" fill="#000001"/>
<path d="M206.722 120.226C206.722 120.226 181.874 163.877 180.531 165.451C179.188 167.025 165.39 153.85 165.999 151.138C166.608 148.426 187.415 129.105 187.415 129.105L152.204 149.902C152.204 149.902 146.175 145.264 147.999 143.962C149.824 142.659 180.928 121.633 190.369 117.047C199.81 112.462 210.179 107.092 206.722 120.226Z" fill="#49A3F8"/>
<path d="M198.367 122.884C194.657 125.32 190.869 127.72 187.061 130.064C183.253 132.407 179.425 134.695 175.575 136.926C171.726 139.157 167.877 141.388 163.951 143.583C160.025 145.778 156.135 147.896 152.148 149.922C155.858 147.486 159.646 145.086 163.454 142.742C167.262 140.399 171.09 138.111 174.939 135.88C178.789 133.649 182.638 131.418 186.564 129.223C190.51 127.084 194.4 124.966 198.367 122.884Z" fill="#000001"/>
<path d="M203.101 112.03C203.101 112.03 207.125 111.332 208.515 115.678C209.906 120.025 207.061 121.507 206.343 120.938C205.626 120.37 206.993 114.828 203.101 112.03Z" fill="#000001"/>
<path d="M198.148 93.3366C198.538 93.7056 198.928 94.0745 199.205 94.4845C199.482 94.8945 199.759 95.3046 200 95.7915C200.22 96.222 200.405 96.7294 200.513 97.201C200.697 97.7084 200.749 98.2005 200.764 98.7695C200.375 98.4006 199.985 98.0316 199.708 97.6216C199.431 97.2116 199.154 96.8016 198.913 96.3147C198.693 95.8841 198.508 95.3767 198.4 94.9051C198.272 94.3772 198.164 93.9056 198.148 93.3366Z" fill="#EA8383"/>
<path d="M190.276 96.9683C191.019 97.0808 191.783 97.2498 192.475 97.5725C193.875 98.0847 195.203 98.7507 196.459 99.5705C197.115 99.9702 197.679 100.467 198.243 100.964C197.5 100.852 196.736 100.683 196.044 100.36C194.644 99.8479 193.316 99.1819 192.06 98.362C191.404 97.9624 190.84 97.4653 190.276 96.9683Z" fill="#EA8383"/>
<path d="M196.194 104.456C195.876 104.635 195.461 104.723 195.081 104.733C194.702 104.743 194.379 104.733 194.036 104.667C193.692 104.6 193.349 104.534 193.021 104.334C192.657 104.211 192.364 103.934 192.072 103.657C192.39 103.478 192.805 103.391 193.184 103.38C193.866 103.324 194.609 103.436 195.225 103.723C195.573 103.979 195.901 104.179 196.194 104.456Z" fill="#EA8383"/>
<path d="M79.8868 158.217C79.8868 158.217 87.9141 140.099 93.4499 138.467C98.9856 136.836 99.0244 146.591 101.71 144.847C104.396 143.103 103.684 129.57 113.449 127.102C123.213 124.633 119.476 140.679 120.378 140.351C121.28 140.023 129.726 133.054 129.615 140.118L79.8868 158.217Z" fill="#F2EBEB"/>
<path d="M253.458 138.461C253.458 138.461 259.733 124.301 264.008 123.064C268.283 121.828 268.357 129.399 270.407 128.014C272.457 126.63 271.941 116.09 279.558 114.212C287.175 112.334 284.251 124.827 284.984 124.56C285.717 124.293 292.308 118.894 292.192 124.363L253.458 138.461Z" fill="#F2EBEB"/>
<path d="M222.429 330.388C222.429 330.388 181.325 235.526 182.826 231.404C184.327 227.282 231.765 213.591 231.765 213.591L268.293 313.951L222.429 330.388Z" fill="#FFCC48"/>
<path d="M292.972 303.691C292.972 303.691 239.228 174.097 240.318 168.848C241.408 163.598 289.314 151.015 289.314 151.015L338.934 287.346L292.972 303.691Z" fill="#BD7FEE"/>
<path d="M150.471 356.706C150.471 356.706 123.978 301.988 125.951 299.162C127.923 296.337 174.946 281.33 174.946 281.33L196.37 340.192L150.471 356.706Z" fill="#02C700"/>
<mask id="mask0_425_117" style="mask-type:luminance" maskUnits="userSpaceOnUse" x="240" y="151" width="99" height="153">
<path d="M292.972 303.691C292.972 303.691 239.228 174.097 240.318 168.848C241.408 163.598 289.314 151.015 289.314 151.015L338.934 287.346L292.972 303.691Z" fill="white"/>
</mask>
<g mask="url(#mask0_425_117)">
<path d="M148.432 152.576L147.783 153.585L361.558 291.046L362.207 290.036L148.432 152.576Z" fill="white"/>
<path d="M155.789 146.638L155.149 147.653L367.374 281.415L368.013 280.399L155.789 146.638Z" fill="white"/>
<path d="M211.343 164.97L210.694 165.98L374.003 270.99L374.652 269.98L211.343 164.97Z" fill="white"/>
<path d="M218.554 153.701L217.898 154.706L380.544 260.855L381.2 259.85L218.554 153.701Z" fill="white"/>
<path d="M226.371 141.609L225.693 142.599L385.943 252.328L386.621 251.338L226.371 141.609Z" fill="white"/>
<path d="M232.934 131.279L232.25 132.264L391.774 243.137L392.458 242.151L232.934 131.279Z" fill="white"/>
<path d="M237.175 124.78L236.486 125.762L395.616 237.326L396.305 236.344L237.175 124.78Z" fill="white"/>
<path d="M240.77 119.112L240.092 120.102L400.341 229.831L401.019 228.841L240.77 119.112Z" fill="white"/>
<path d="M76.0149 166.464L75.3838 167.485L347.395 335.67L348.026 334.649L76.0149 166.464Z" fill="white"/>
<path d="M84.1977 153.729L83.5542 154.742L352.913 325.887L353.557 324.874L84.1977 153.729Z" fill="white"/>
<path d="M91.8297 141.906L91.1807 142.915L359.611 315.519L360.26 314.51L91.8297 141.906Z" fill="white"/>
<path d="M99.0223 130.655L98.3691 131.662L366.183 305.442L366.836 304.435L99.0223 130.655Z" fill="white"/>
<path d="M107.518 118.548L106.849 119.543L372.251 298.08L372.921 297.085L107.518 118.548Z" fill="white"/>
<path d="M113.444 108.202L112.773 109.197L377.405 287.684L378.076 286.69L113.444 108.202Z" fill="white"/>
<path d="M117.618 101.676L116.945 102.669L381.148 281.754L381.821 280.761L117.618 101.676Z" fill="white"/>
<path d="M121.952 95.985L121.282 96.9807L386.684 275.518L387.354 274.522L121.952 95.985Z" fill="white"/>
<path d="M32.9099 244.683L32.2788 245.704L304.29 413.888L304.921 412.868L32.9099 244.683Z" fill="white"/>
<path d="M41.0854 231.942L40.4419 232.955L309.801 404.1L310.445 403.087L41.0854 231.942Z" fill="white"/>
<path d="M48.7188 220.124L48.0698 221.134L316.5 393.738L317.149 392.729L48.7188 220.124Z" fill="white"/>
<path d="M55.9125 208.864L55.2593 209.871L323.073 383.651L323.726 382.644L55.9125 208.864Z" fill="white"/>
<path d="M64.1942 196.924L63.5244 197.92L328.927 376.457L329.597 375.461L64.1942 196.924Z" fill="white"/>
<path d="M70.3341 186.415L69.6631 187.41L334.294 365.897L334.965 364.902L70.3341 186.415Z" fill="white"/>
<path d="M74.5082 179.89L73.835 180.884L338.038 359.969L338.712 358.975L74.5082 179.89Z" fill="white"/>
<path d="M78.6434 174.445L77.9736 175.44L343.376 353.977L344.046 352.982L78.6434 174.445Z" fill="white"/>
</g>
<path d="M141.378 360.144L168.036 350.058L194.771 340.008L248.267 320.154L301.922 300.561L328.78 290.85L355.679 281.251L328.965 291.357L302.23 301.407L248.734 321.261L195.079 340.854L168.241 350.622L141.378 360.144Z" fill="#000001"/>
<path d="M231.814 150.042C231.66 149.971 231.506 149.899 231.352 149.827C230.281 149.515 229.071 149.7 228.159 150.351C226.59 151.305 226.058 153.35 226.976 154.996C227.355 155.688 227.976 156.164 228.704 156.41L228.781 156.446C230.606 157.25 232.805 156.45 233.665 154.604C233.881 154.143 233.942 153.61 233.891 153.117C233.654 151.416 232.716 150.416 231.814 150.042Z" fill="#F2EBEB"/>
<path d="M154.48 97.7374C154.326 97.6657 154.172 97.594 154.019 97.5223C152.947 97.2099 151.737 97.3948 150.825 98.0461C149.257 99 148.724 101.045 149.642 102.691C150.022 103.383 150.642 103.859 151.37 104.105L151.447 104.141C153.272 104.945 155.471 104.145 156.332 102.299C156.547 101.838 156.608 101.305 156.557 100.812C156.264 99.1312 155.326 98.1319 154.48 97.7374Z" fill="#F2EBEB"/>
<path d="M125.94 261.239C125.786 261.167 125.632 261.096 125.479 261.024C124.407 260.712 123.197 260.896 122.285 261.548C120.717 262.502 120.184 264.547 121.102 266.192C121.482 266.884 122.102 267.361 122.83 267.607L122.907 267.643C124.732 268.447 126.931 267.647 127.792 265.801C128.007 265.339 128.068 264.806 128.017 264.314C127.704 262.577 126.842 261.613 125.94 261.239Z" fill="#F2EBEB"/>
<path d="M269.185 88.1691C269.031 88.0973 268.878 88.0256 268.724 87.9539C267.652 87.6415 266.443 87.8264 265.53 88.4777C263.962 89.4316 263.429 91.4771 264.327 93.066C264.707 93.7579 265.327 94.2344 266.075 94.5366L266.152 94.5725C267.977 95.3768 270.176 94.5764 271.037 92.7308C271.252 92.2694 271.334 91.7926 271.262 91.2441C271.005 89.4859 270.087 88.543 269.185 88.1691Z" fill="#F2EBEB"/>
</g>
<defs>
<clipPath id="clip0_425_117">
<rect width="300" height="300" fill="white" transform="translate(14.8394 117.212) rotate(-20)"/>
</clipPath>
</defs>
</svg>
