<svg transform="scale(1)" version="1.1" id="Layer_1" xmlns="http://www.w3.org/2000/svg" xmlns:xlink="http://www.w3.org/1999/xlink" x="0px" y="0px" viewBox="0 0 500 500" xml:space="preserve" class="show_show__wrapper__graphic__5Waiy "><title>React</title><style type="text/css">
	.st0{fill:#F3CB5C;}
	.st1{fill:#A04040;}
	.st2{fill:#000001;}
	.st3{fill:#87CCDB;}
	.st4{clip-path:url(#SVGID_2_);}
	.st5{fill:#FFFFFF;}
	.st6{fill:#EA8383;}
	.st7{fill:#469F78;}
</style><g id="hand-1"><path class="st0" d="M52.9,99.4c0,0-6.8-12.9-12.4-10.5s3,23.1,3,23.1L52.9,99.4z"></path><path class="st1" d="M55,240.1c0,0-20.3-70.8-16.8-90s4.8-36.3,3.1-49.4S52,94,57.2,102.5s9.9,42,9.9,42s15.7-30,28-34.8
		s18.9,3,13.6,14.4c0,0,6.2-6.7,14.1-3.1s7,14.8,7,14.8s18.5-3,13.4,13.9c0,0,12.9-2.7,12.6,11.3S118,234.6,118,234.6L55,240.1z"></path><path class="st2" d="M85,127c-0.8,3.4-1.7,6.9-2.3,10.3c-0.7,3.4-1.2,6.9-1.6,10.4c-0.2,1.7-0.2,3.4-0.1,5.2c0,0.8,0.2,1.6,0.4,2.4
		c0.2,0.7,0.5,1.4,1,1.9l0.2,0.2l0.2,0.1c0.1,0.1,0.2,0.1,0.4,0.2c0.3,0.1,0.6,0.1,0.9,0c0.7-0.2,1.4-0.5,2.1-0.9
		c1.4-1,2.7-2.1,3.8-3.3c2.4-2.5,4.6-5.2,6.6-8.1c2.1-2.8,4-5.8,5.8-8.8s3.5-6.1,5-9.3c1.6-3.1,2.8-6.5,3.4-9.9
		c-0.1,1.8-0.4,3.5-0.9,5.2c-0.5,1.7-1,3.4-1.7,5.1c-1.3,3.3-2.8,6.5-4.5,9.7c-3.3,6.3-7.5,12.2-12.3,17.5c-1.3,1.3-2.7,2.5-4.2,3.6
		c-0.8,0.6-1.8,1-2.8,1.2c-0.6,0.1-1.2,0.1-1.8-0.1c-0.3-0.1-0.6-0.2-0.8-0.4c-0.1-0.1-0.3-0.2-0.4-0.2l-0.3-0.3
		c-0.7-0.8-1.2-1.7-1.4-2.8c-0.2-0.9-0.3-1.9-0.4-2.8c0-1.8,0.1-3.6,0.3-5.4C80.7,140.5,82.5,133.6,85,127z"></path><path class="st2" d="M87.4,161.1c-0.5,1.6-0.9,3.3-1.1,5c-0.2,1.7-0.2,3.4,0.2,5c0.3,1.5,1.4,2.9,2.8,3.6c1.5,0.6,3.1,0.9,4.7,0.7
		c1.6-0.2,3.2-0.6,4.6-1.4c1.5-0.8,2.9-1.6,4.2-2.7c2.7-2,5.2-4.3,7.5-6.8c2.4-2.4,4.6-5,6.7-7.7c2.1-2.7,4.1-5.5,5.9-8.3
		c1.8-2.9,3.4-5.9,4.8-9c0.7-1.6,1.2-3.2,1.6-4.8c0.4-1.6,0.4-3.4,0-5c0.6,1.6,0.8,3.4,0.5,5.1c-0.3,1.7-0.7,3.4-1.2,5.1
		c-1.2,3.3-2.6,6.4-4.4,9.4c-3.5,6-7.7,11.6-12.5,16.6c-2.4,2.5-5,4.8-7.9,6.9c-1.4,1-3,1.9-4.6,2.7c-1.6,0.8-3.4,1.3-5.2,1.3
		c-1.9,0.1-3.7-0.3-5.3-1.2c-0.8-0.5-1.5-1.1-2.1-1.9c-0.5-0.8-0.8-1.7-1-2.6c-0.3-1.8-0.2-3.5,0.2-5.3
		C86.1,164.3,86.7,162.7,87.4,161.1z"></path><path class="st2" d="M100.8,178c-0.3,0.6-0.5,1.3-0.6,1.9c-0.2,0.6-0.2,1.3,0,1.9c0.3,1.3,1.6,1.8,2.9,1.8c1.3,0,2.7-0.1,4-0.5
		c1.3-0.3,2.5-0.8,3.7-1.4c2.4-1.3,4.6-2.8,6.8-4.5c2.1-1.7,4.2-3.5,6.2-5.3c4-3.7,7.8-7.7,11.4-11.9c1.8-2.1,3.5-4.2,5.1-6.5
		c1.7-2.2,3-4.6,3.9-7.2c-0.2,1.4-0.6,2.7-1.2,4c-0.6,1.3-1.2,2.5-1.9,3.7c-1.4,2.4-3,4.7-4.7,6.9c-3.4,4.4-7.2,8.6-11.2,12.4
		c-4.1,3.8-8.5,7.4-13.6,9.8c-1.3,0.6-2.7,1-4.1,1.3c-1.4,0.3-2.9,0.3-4.3,0.1c-0.8-0.1-1.5-0.3-2.1-0.7c-0.7-0.4-1.1-1.1-1.2-1.9
		C99.5,180.6,99.9,179.2,100.8,178z"></path><path class="st2" d="M146.4,174.2c-2.7,2.8-5.6,5.4-8.7,7.8c-3.1,2.4-6.4,4.5-9.9,6.3c-1.8,0.9-3.7,1.6-5.7,2
		c-1.1,0.2-2.2,0.2-3.2,0c-1.2-0.2-2.2-0.7-3-1.6c-0.7-0.9-1.1-2-1-3.2c0.1-1,0.3-2,0.6-3c0.7-1.8,1.6-3.6,2.8-5.1
		c-0.8,1.7-1.5,3.6-1.9,5.4c-0.4,1.8-0.5,3.8,0.6,4.9c0.6,0.5,1.3,0.9,2.1,0.9c0.8,0.1,1.7,0.1,2.5-0.1c1.8-0.4,3.5-1.1,5.2-1.9
		c3.4-1.7,6.7-3.7,9.9-5.8C140,178.6,143.2,176.4,146.4,174.2z"></path><path class="st0" d="M84.3,149.5c0.9-1.2,2.5-1.6,3.8-0.9c2.2,1,5,2.8,5,4.7c0,3-8.5,12.3-14,10.8
		C74.8,162.9,81.2,153.6,84.3,149.5z"></path><path class="st0" d="M94.5,160.5c1.4-1.5,3.6-1.9,5.5-1.1c2.2,0.9,4.7,2.5,4.7,5.1c0,4.7-10.5,15-16.4,14.1s-1.9-6.8-0.1-10.2
		C90,165.6,92.1,162.9,94.5,160.5z"></path><path class="st0" d="M109.4,169.5c0,0,7.6,1,6.8,5.7s-14,15.2-17.9,10.9S109.4,169.5,109.4,169.5z"></path><path class="st0" d="M121.1,176c0,0,5.1,1.5,4.2,4.6s-9.2,10.6-11.7,9.4S114.9,177.8,121.1,176z"></path><path class="st3" d="M167.5,357.1c0,0-39.5-118.9-49.5-122.6s-55.8,3-63,5.6s10.2,116.4,10.2,116.4L167.5,357.1z"></path><g><defs><path id="SVGID_1_" d="M167.5,357.1c0,0-39.5-118.9-49.5-122.6s-55.8,3-63,5.6s10.2,116.4,10.2,116.4L167.5,357.1z"></path></defs><clipPath id="SVGID_2_"><use xlink:href="#SVGID_1_" style="overflow: visible;"></use></clipPath><g class="st4"><path class="st5" d="M0.6,444.2c-0.3,0-0.5-0.2-0.6-0.5l-37.8-310.2c0-0.3,0.2-0.6,0.5-0.6c0,0,0,0,0,0c0.3,0,0.6,0.2,0.6,0.5
				L1.1,443.6C1.2,443.9,1,444.2,0.6,444.2L0.6,444.2z"></path><path class="st5" d="M23.3,442.3c-0.3,0-0.5-0.2-0.6-0.5l-40.3-309.9c0-0.3,0.2-0.6,0.5-0.6c0.3,0,0.6,0.2,0.6,0.5l40.3,309.9
				C23.8,442,23.6,442.2,23.3,442.3L23.3,442.3z"></path><path class="st5" d="M37.6,441c-0.3,0-0.5-0.2-0.6-0.5L-4.7,130.7c0-0.3,0.2-0.6,0.5-0.6c0.3-0.1,0.6,0.1,0.6,0.4c0,0,0,0,0,0
				l41.7,309.8C38.1,440.7,37.9,441,37.6,441L37.6,441z"></path><path class="st5" d="M50,439.9c-0.3,0-0.5-0.2-0.6-0.5L11.6,129.3c0-0.3,0.2-0.6,0.5-0.6c0.3,0,0.6,0.2,0.6,0.5l37.8,310.2
				C50.5,439.6,50.3,439.9,50,439.9L50,439.9z"></path><path class="st5" d="M366.2,260.2l-491.3,43.2c-0.3,0-0.6-0.2-0.6-0.5c0,0,0,0,0,0c0-0.3,0.2-0.6,0.5-0.6l491.3-43.2
				c0.3,0,0.6,0.2,0.6,0.5c0,0,0,0,0,0C366.7,259.9,366.5,260.2,366.2,260.2z"></path><path class="st5" d="M359.2,245.6L359.2,245.6L-126,284.4c-0.3,0-0.6-0.2-0.6-0.5c0-0.3,0.2-0.6,0.5-0.6l0,0l485.2-38.9
				c0.3,0,0.5,0.3,0.5,0.6C359.6,245.3,359.5,245.5,359.2,245.6L359.2,245.6z"></path><path class="st5" d="M247.5,230.6l-375.3,33c-0.3,0-0.6-0.2-0.6-0.5c0,0,0,0,0,0c0-0.3,0.2-0.6,0.5-0.6l375.4-33
				c0.3-0.1,0.6,0.1,0.6,0.4c0.1,0.3-0.1,0.6-0.4,0.6C247.6,230.6,247.5,230.6,247.5,230.6L247.5,230.6z"></path><path class="st5" d="M-129.8,243.3c-0.3,0-0.5-0.2-0.6-0.5c0-0.3,0.2-0.6,0.5-0.6c0,0,0,0,0,0l375.3-35.3l0,0
				c0.3,0,0.5,0.2,0.5,0.5c0,0.3-0.2,0.5-0.4,0.5L-129.8,243.3L-129.8,243.3z"></path><path class="st5" d="M-131.2,226.2c-0.3,0-0.5-0.2-0.6-0.5c0-0.3,0.2-0.6,0.5-0.6l374.5-42.5c0.3,0,0.6,0.2,0.6,0.5c0,0,0,0,0,0
				c0,0.3-0.2,0.6-0.5,0.6L-131.2,226.2L-131.2,226.2z"></path><path class="st5" d="M-132.7,207.8c-0.3,0-0.5-0.2-0.6-0.5c0-0.3,0.2-0.6,0.5-0.6l374.3-44.8c0.3,0,0.6,0.2,0.6,0.5
				c0,0.3-0.2,0.6-0.5,0.6L-132.7,207.8L-132.7,207.8z"></path><path class="st5" d="M-133.7,196c-0.3,0-0.5-0.2-0.6-0.5c0-0.3,0.2-0.6,0.5-0.6l374.2-46.1c0.3,0,0.5,0.2,0.6,0.5
				c0,0.3-0.2,0.6-0.5,0.6L-133.7,196L-133.7,196z"></path><path class="st5" d="M-135,181.2c-0.3,0-0.5-0.2-0.6-0.5c0-0.3,0.2-0.6,0.5-0.6c0,0,0,0,0,0l374.5-42.5l0,0
				c0.3-0.1,0.6,0.1,0.6,0.4c0.1,0.3-0.1,0.6-0.4,0.6c0,0-0.1,0-0.1,0L-135,181.2z"></path><path class="st5" d="M78.8,462c-0.3,0-0.5-0.2-0.6-0.5L34.5,127.3c0-0.3,0.2-0.6,0.5-0.6c0,0,0,0,0,0c0.3-0.1,0.5,0.1,0.6,0.4
				c0,0,0,0,0,0.1l43.7,334.3C79.3,461.7,79.1,462,78.8,462L78.8,462z"></path><path class="st5" d="M97.9,460.3L97.9,460.3c-0.3,0-0.6-0.2-0.6-0.5L71.7,131c0-0.3,0.2-0.5,0.5-0.6l0,0c0.3,0,0.6,0.2,0.6,0.5
				l25.7,328.8C98.4,460,98.2,460.3,97.9,460.3C97.9,460.3,97.9,460.3,97.9,460.3z"></path><path class="st5" d="M124,458c-0.3,0-0.6-0.2-0.6-0.5c0,0,0,0,0,0L94.4,129c0-0.3,0.3-0.5,0.6-0.5c0.3,0,0.5,0.2,0.5,0.4
				l28.9,328.5C124.5,457.7,124.3,457.9,124,458z"></path><path class="st5" d="M148.7,455.8c-0.3,0-0.5-0.2-0.6-0.5L116.7,127c0-0.3,0.2-0.6,0.5-0.6c0,0,0,0,0,0l0,0
				c0.3,0,0.5,0.2,0.6,0.5c0,0,0,0,0,0l31.4,328.4C149.2,455.6,149,455.8,148.7,455.8C148.7,455.9,148.7,455.9,148.7,455.8
				L148.7,455.8z"></path><path class="st5" d="M175.3,453.5c-0.3,0-0.5-0.2,5.3,8.6l-39.3-327.5c-5.9-9.4-5.7-9.7-5.4-9.7s0.6,0.2,6.4,9.6L181.7,462
				C175.9,453.2,175.7,453.5,175.3,453.5L175.3,453.5z"></path><path class="st5" d="M198,451.5c-0.3,0-0.5-0.2-0.6-0.5l-41.9-327.3c0-0.3,0.2-0.6,0.5-0.6c0,0,0,0,0,0l0,0
				c0.3,0,0.5,0.2,0.6,0.5L198.4,451C198.5,451.2,198.3,451.5,198,451.5L198,451.5z"></path><path class="st5" d="M212.3,450.3c-0.3,0-0.5-0.2-0.6-0.5l-43.2-327.2c0-0.3,0.2-0.6,0.5-0.6c0.3,0,0.6,0.2,0.6,0.5l43.2,327.2
				C212.8,450,212.6,450.2,212.3,450.3C212.3,450.3,212.3,450.3,212.3,450.3L212.3,450.3z"></path><path class="st5" d="M224.6,449.2c-0.3,0-0.5-0.2-0.6-0.5l-39.3-327.5c0-0.3,0.2-0.6,0.5-0.6c0,0,0,0,0,0c0.3,0,0.6,0.2,0.6,0.5
				l39.3,327.5C225.1,448.9,224.9,449.2,224.6,449.2L224.6,449.2z"></path><path class="st5" d="M283.5,402.5L283.5,402.5l-422.8,29.2c-0.3,0-0.6-0.2-0.6-0.5c0,0,0,0,0,0c0-0.3,0.2-0.5,0.5-0.6l0,0
				l422.8-29.2c0.3,0,0.5,0.2,0.6,0.5C284.1,402.2,283.8,402.5,283.5,402.5C283.6,402.5,283.6,402.5,283.5,402.5z"></path><path class="st5" d="M281.7,381.1L281.7,381.1l-421.5,34.6c-0.3,0-0.6-0.2-0.6-0.5c0,0,0,0,0,0c0-0.3,0.2-0.6,0.5-0.6l0,0
				l421.5-34.6c0.3,0,0.6,0.2,0.6,0.5c0,0,0,0,0,0C282.2,380.8,282,381.1,281.7,381.1z"></path><path class="st5" d="M279.9,361.2l-421.3,37.1c-0.3,0-0.6-0.2-0.6-0.5c0,0,0,0,0,0c0-0.3,0.2-0.5,0.5-0.6l421.3-37.1
				c0.3,0,0.6,0.2,0.6,0.5S280.2,361.2,279.9,361.2z"></path><path class="st5" d="M-143,381.3c-0.3,0-0.6-0.2-0.6-0.5c0-0.3,0.2-0.6,6.3,8.5l421.3-39l-5.8-9.1c0.3,0,0.5,0.2,0.6,0.5
				c0,0.3-0.2,0.6,5.4,9.7l-421.3,39L-143,381.3z"></path><path class="st5" d="M-144.1,367c-0.3,0-0.5-0.2-0.6-0.5c0-0.3,0.2-0.6,0.5-0.6c0,0,0,0,0,0l420.6-45l0,0c0.3,0,0.5,0.2,0.6,0.5
				c0,0.3-0.2,0.6-0.5,0.6L-144.1,367L-144.1,367z"></path><path class="st5" d="M-145.4,351.5c-0.3,0-0.6-0.2-0.6-0.5c0-0.3,0.2-0.6,0.5-0.6l420.4-47l0,0c0.3,0,0.5,0.2,0.6,0.5
				c0,0.3-0.2,0.6-0.5,0.6L-145.4,351.5L-145.4,351.5z"></path><path class="st5" d="M-146.2,341.7c-0.3,0-0.5-0.2-0.6-0.5c0-0.3,0.2-0.6,0.5-0.6l420.3-48c0.3-0.1,0.6,0.1,0.6,0.4
				s-0.1,0.6-0.4,0.6c0,0-0.1,0-0.1,0L-146.2,341.7L-146.2,341.7z"></path><path class="st5" d="M-147.3,329.2c-0.3,0-0.6-0.2-0.6-0.5c0,0,0,0,0,0c0-0.3,0.2-0.6,0.5-0.6l420.5-45l0,0
				c0.3,0,0.6,0.2,0.6,0.5c0,0.3-0.2,0.6-0.5,0.6L-147.3,329.2L-147.3,329.2z"></path></g></g><path class="st3" d="M74,91.7c0.9,0.5,1.6,1.1,2.3,1.9c0.6,0.7,1.1,1.5,1.5,2.3c0.4,0.8,0.8,1.7,1,2.6c0.2,1,0.3,2,0.2,3
		c-0.9-0.5-1.6-1.1-2.3-1.9c-0.6-0.7-1.1-1.5-1.5-2.3c-0.4-0.8-0.8-1.7-1-2.6C73.9,93.7,73.9,92.7,74,91.7z"></path><path class="st3" d="M106.1,81.8c0.3,1,0.4,2,0.4,3c-0.1,1.9-0.6,3.7-1.5,5.3c-0.5,0.9-1.1,1.7-1.9,2.3c-0.3-1-0.4-2-0.4-3
		c0-0.9,0.2-1.8,0.4-2.7c0.3-0.9,0.6-1.7,1.1-2.6C104.6,83.2,105.3,82.4,106.1,81.8z"></path><path class="st3" d="M121.2,112.2c0.5-1,1.1-1.9,1.9-2.7c1.4-1.5,3.2-2.7,5.1-3.5c1-0.4,2.1-0.7,3.2-0.8c-0.5,1-1.1,1.9-1.9,2.7
		c-1.4,1.5-3.2,2.7-5.1,3.5C123.4,111.9,122.3,112.2,121.2,112.2z"></path></g><g id="hand-3"><path class="st6" d="M341.5,232.2c0,0,1.8-73.6,10.9-90.9S367.8,108,370.2,95s12.1-3.2,14.6,6.5s-3.1,43.1-3.1,43.1
		s23.9-23.9,37.1-24.8s17.1,8.6,8.6,17.8c0,0,7.9-4.6,14.4,1.3s2.3,16.2,2.3,16.2s18.6,2.7,8.6,17.3c0,0,13.1,1.3,8.6,14.6
		s-58,58.8-58,58.8L341.5,232.2z"></path><path class="st2" d="M404,133.2c-1.8,3-3.6,6.1-5.3,9.2c-1.7,3.1-3.2,6.2-4.6,9.4c-0.7,1.6-1.2,3.2-1.6,4.9
		c-0.2,0.8-0.3,1.6-0.4,2.4c-0.1,0.7,0.1,1.4,0.4,2.1l0.1,0.2c0,0.1,0.1,0.1,0.1,0.1c0.1,0.1,0.2,0.2,0.3,0.3
		c0.3,0.1,0.5,0.2,0.8,0.2c0.8,0,1.5-0.1,2.2-0.3c1.6-0.5,3.2-1.2,4.6-2c3-1.7,6-3.6,8.7-5.8c2.8-2.1,5.5-4.4,8.1-6.7
		s5.1-4.8,7.5-7.4c2.5-2.5,4.6-5.4,6.2-8.5c-0.6,1.7-1.4,3.3-2.4,4.8c-1,1.5-2,2.9-3.1,4.4c-2.2,2.8-4.6,5.4-7.2,7.9
		c-5.1,5-10.8,9.4-16.9,13c-1.6,0.9-3.3,1.6-5.1,2.2c-1,0.3-2,0.4-3,0.3c-0.6-0.1-1.2-0.3-1.7-0.6c-0.3-0.2-0.5-0.4-0.7-0.6
		c-0.1-0.1-0.2-0.2-0.3-0.4l-0.2-0.4c-0.4-1-0.6-2-0.5-3.1c0.1-0.9,0.2-1.9,0.5-2.8c0.5-1.7,1.1-3.4,1.9-5.1
		C395.8,144.8,399.6,138.7,404,133.2z"></path><path class="st2" d="M396,166.4c-1,1.4-1.9,2.9-2.6,4.4c-0.7,1.5-1.2,3.1-1.3,4.8c-0.1,1.6,0.4,3.1,1.6,4.2c1.2,1,2.7,1.8,4.3,2.1
		c1.6,0.3,3.2,0.3,4.8,0c1.6-0.3,3.2-0.7,4.8-1.3c3.2-1.1,6.3-2.5,9.2-4.2c3-1.6,5.9-3.4,8.7-5.4c2.8-1.9,5.5-4,8.1-6.2
		c2.6-2.2,5-4.6,7.3-7.1c1.1-1.3,2.1-2.7,3-4.1c0.9-1.5,1.4-3.1,1.5-4.8c0.1,1.7-0.2,3.5-1,5.1c-0.8,1.6-1.7,3.1-2.7,4.5
		c-2.1,2.8-4.4,5.3-7,7.7c-5.1,4.7-10.8,8.7-16.9,12.1c-3.1,1.7-6.3,3.1-9.6,4.2c-1.7,0.6-3.4,1-5.2,1.2c-1.8,0.3-3.7,0.2-5.5-0.2
		c-1.8-0.5-3.4-1.4-4.8-2.7c-0.7-0.7-1.1-1.5-1.4-2.4c-0.2-0.9-0.3-1.8-0.2-2.8c0.3-1.8,0.9-3.5,1.8-5
		C393.9,169.1,394.9,167.7,396,166.4z"></path><path class="st2" d="M403.8,186.6c-0.5,0.5-0.9,1.1-1.2,1.7c-0.3,0.6-0.5,1.2-0.6,1.9c-0.1,1.3,1,2.2,2.3,2.6
		c1.3,0.4,2.6,0.7,3.9,0.7c1.3,0.1,2.6,0,4-0.2c2.7-0.5,5.3-1.3,7.8-2.3c2.5-1,5-2,7.5-3.2c4.9-2.4,9.7-5,14.4-7.9
		c2.3-1.5,4.6-3,6.8-4.7c2.3-1.6,4.2-3.5,5.9-5.7c-0.6,1.3-1.4,2.4-2.4,3.4c-0.9,1-1.9,2.1-2.9,3c-2.1,1.9-4.2,3.6-6.5,5.2
		c-4.6,3.2-9.4,6-14.4,8.5c-5,2.3-10.3,4.5-15.9,5.2c-1.4,0.2-2.9,0.2-4.3,0c-1.4-0.2-2.8-0.6-4.1-1.1c-0.7-0.3-1.3-0.8-1.8-1.3
		c-0.5-0.6-0.7-1.4-0.6-2.2C401.8,188.6,402.6,187.4,403.8,186.6z"></path><path class="st2" d="M448.4,196.6c-3.4,1.9-7,3.5-10.6,4.8c-3.7,1.4-7.5,2.4-11.3,3.1c-2,0.3-4,0.4-6,0.2c-1.1-0.1-2.1-0.5-3.1-1
		c-1-0.5-1.9-1.4-2.3-2.4c-0.4-1.1-0.4-2.3,0-3.3c0.4-1,0.9-1.9,1.5-2.7c1.2-1.6,2.6-2.9,4.2-4.1c-1.3,1.4-2.4,3-3.4,4.6
		c-0.9,1.6-1.6,3.5-0.9,4.9c0.4,0.7,1,1.2,1.7,1.5c0.8,0.4,1.6,0.6,2.5,0.6c1.8,0.1,3.7,0,5.5-0.3c3.8-0.6,7.5-1.5,11.1-2.6
		C441,198.8,444.7,197.7,448.4,196.6z"></path><path class="st0" d="M411.2,358.3c0,0,25.5-72.1,12.3-108.2c-3.7-10-89-21.4-96.6-21.1s-15.6,129.3-15.6,129.3L411.2,358.3z"></path><path class="st5" d="M355.7,232.3c-0.1,2.2-0.1,4.4,0.1,6.6c0.2,2.2,0.6,4.3,1.1,6.5c1,4.2,2.5,8.3,4.6,12.2
		c2.2,3.7,4.8,7.2,7.9,10.3l2.4,2.1l1.2,1.1c0.4,0.3,0.9,0.6,1.3,1l2.6,1.9c0.9,0.6,1.8,1.1,2.8,1.7c3.8,2.1,7.9,3.3,12.2,3.5
		c1.1,0.1,2.1,0,3.2,0s2.1-0.2,3.2-0.4c2.1-0.3,4.2-0.9,6.3-1.6c4.1-1.4,8-3.4,11.6-5.9c3.7-2.4,7.1-5.2,10.3-8.3
		c-1.4,1.7-2.9,3.3-4.6,4.8c-1.6,1.5-3.3,2.9-5.1,4.3c-3.6,2.7-7.5,4.9-11.7,6.5c-2.1,0.8-4.3,1.4-6.5,1.8c-1.1,0.2-2.2,0.3-3.4,0.4
		s-2.3,0.1-3.4,0c-4.6-0.2-9-1.5-13.1-3.6c-1-0.6-2-1.1-2.9-1.8l-2.7-2c-0.5-0.3-0.9-0.6-1.4-1l-1.2-1.1L368,269
		c-3.1-3.2-5.8-6.9-7.9-10.9c-2-4-3.4-8.3-4.2-12.7C355.1,241.1,355,236.6,355.7,232.3z"></path><path class="st5" d="M319.9,272.3c8.1,4.8,15.7,10.3,22.9,16.4c3.6,3,7,6.2,10.4,9.5s6.5,6.8,9.5,10.5c3,3.7,5.7,7.5,8.2,11.5
		c2.5,4,4.7,8.2,6.4,12.6c1.8,4.4,3.1,9,3.8,13.6c0.6,4.7,0.6,9.4,0,14.1c0.4-9.3-1.4-18.6-5.3-27.1c-0.9-2.1-2-4.2-3-6.2l-1.7-3
		c-0.6-1-1.2-2-1.8-3c-2.5-3.9-5.2-7.7-8.2-11.2c-5.9-7.2-12.4-13.9-19.4-20.1c-3.5-3.1-7-6.1-10.7-9.1
		C327.4,277.8,323.7,275,319.9,272.3z"></path><path class="st5" d="M348.4,353.3c-0.2-2.9-0.2-5.7,0.1-8.6c0.3-2.9,0.7-5.7,1.4-8.5c4-17.2,15.3-31.8,31-39.9
		c2.6-1.4,5.4-2.3,8.3-2.9c1.5-0.3,3-0.4,4.5-0.3c1.5,0.1,3,0.3,4.5,0.8c2.9,0.9,5.5,2.5,7.6,4.7c2.1,2.1,3.8,4.5,5.1,7.1
		c2.6,5.1,4.6,10.6,5.7,16.3c1.2,5.6,1.9,11.3,2.1,17c-0.6-5.7-1.6-11.3-3-16.8c-1.3-5.5-3.4-10.8-6.1-15.8c-1.3-2.4-3-4.6-5-6.6
		c-1.9-1.9-4.3-3.3-6.9-4.1c-2.6-0.7-5.3-0.8-8-0.3c-2.7,0.6-5.3,1.5-7.8,2.8c-5,2.6-9.6,5.9-13.6,9.8c-1,1-2,2-3,3
		s-1.9,2.1-2.8,3.2c-1.8,2.2-3.4,4.5-4.8,6.9c-2.9,4.9-5.2,10.1-6.7,15.5C349.4,341.9,348.5,347.6,348.4,353.3z"></path><path class="st3" d="M397.5,98.7c0.8,0.6,1.5,1.3,2,2.2c0.5,0.8,0.9,1.6,1.2,2.4c0.3,0.9,0.5,1.8,0.6,2.7c0.1,1,0.1,2-0.2,3
		c-0.8-0.6-1.5-1.3-2-2.2c-0.5-0.8-0.9-1.6-1.2-2.4c-0.3-0.9-0.5-1.8-0.6-2.7C397.2,100.7,397.3,99.7,397.5,98.7z"></path><path class="st3" d="M434.1,99.3c0.1,0.9,0,1.9-0.2,2.8c-0.2,0.8-0.6,1.6-1,2.3c-0.4,0.7-0.9,1.4-1.5,2c-0.6,0.7-1.4,1.2-2.3,1.6
		c-0.1-0.9,0-1.9,0.2-2.8c0.2-0.8,0.6-1.6,1-2.3c0.4-0.7,0.9-1.4,1.5-2C432.5,100.2,433.3,99.6,434.1,99.3z"></path><path class="st3" d="M445.6,131c0.8-0.8,1.8-1.5,2.8-2c1-0.5,2-0.9,3-1.1c1-0.3,2.1-0.5,3.2-0.5c1.1-0.1,2.3,0,3.4,0.3
		c-0.8,0.8-1.8,1.5-2.8,2c-1.9,1-4,1.5-6.2,1.6C447.8,131.4,446.7,131.3,445.6,131z"></path></g><g id="hand-2"><path class="st6" d="M202.1,308.6c0,0-14.5-100.4-20.6-123.2s2.3-24.8,14.5-12.6s18.2,32.4,18.2,32.4s11.9-16.7,20.7-18.8
		s34-4.8,36,5.8c0,0,25.6-4.2,15.8,14.6c0,0,23.4-2.7,12.2,13.9c0,0,15-1.5,8.1,18.2s-30.6,77.4-30.6,77.4L202.1,308.6z"></path><path class="st2" d="M247.1,196.1c3.2-1.3,6.4-2.3,9.8-3.1c3.3-0.8,6.7-1.4,10.2-1.8c1.7-0.2,3.4-0.3,5.1-0.4c1.7,0,3.5,0,5.2,0.2
		c1.7,0.2,3.4,0.5,5.1,1c1.7,0.5,3.2,1.3,4.5,2.5c-1.5-0.8-3.1-1.3-4.7-1.6c-1.7-0.3-3.3-0.4-5-0.4c-3.3,0-6.7,0.2-10,0.6
		C260.5,194,253.8,195.2,247.1,196.1z"></path><path class="st2" d="M267.1,208.6c2.8-0.9,5.6-1.6,8.5-2.1c2.9-0.5,5.7-0.8,8.6-1c2.9-0.2,5.9-0.1,8.8,0.3c1.5,0.2,2.9,0.6,4.3,1.1
		c1.4,0.5,2.7,1.5,3.4,2.8c-1-1-2.3-1.7-3.7-1.9c-1.4-0.3-2.8-0.4-4.2-0.5c-2.8-0.1-5.7,0-8.5,0.2s-5.7,0.4-8.6,0.6
		S270,208.5,267.1,208.6z"></path><path class="st2" d="M286.5,222.7c1.7-0.9,3.4-1.6,5.3-2.1c1.8-0.5,3.7-0.8,5.6-1c1.9-0.2,3.9-0.1,5.8,0.4c1,0.3,1.9,0.7,2.7,1.4
		c0.8,0.7,1.3,1.6,1.3,2.6c-0.9-1.8-2.6-2.3-4.3-2.5c-1.8-0.1-3.6-0.1-5.3,0.1C293.9,221.9,290.3,222.5,286.5,222.7z"></path><path class="st2" d="M208.5,214.6c0.9-2.4,2-4.7,3.2-6.9c1.2-2.2,2.6-4.3,4.1-6.4c1.5-2.1,3.1-4,4.9-5.8c1.8-1.9,3.9-3.4,6.2-4.4
		c-1.8,1.7-3.5,3.5-5,5.5c-1.5,1.9-3,3.9-4.5,5.9C214.5,206.5,211.7,210.6,208.5,214.6z"></path><polygon class="st7" points="193.1,418.2 202.1,308.6 276.4,316.2 286.5,418.2 	"></polygon><polygon class="st5" points="267.1,318 267.4,320 267.2,320 	"></polygon><polygon class="st5" points="268,324 268.6,328.1 267.8,328.2 267.5,324.1 	"></polygon><polygon class="st5" points="269.2,332.2 269.7,336.2 268.4,336.4 268.1,332.3 	"></polygon><polygon class="st5" points="270.3,340.3 270.8,344.4 269.2,344.6 268.8,340.5 	"></polygon><polygon class="st5" points="271.3,348.5 271.8,352.5 270,352.7 269.5,348.6 	"></polygon><polygon class="st5" points="272.3,356.6 272.7,360.7 270.8,360.9 270.4,356.8 	"></polygon><rect class="st5" x="271.4" y="364.9" transform="matrix(0.9941 -0.1085 0.1085 0.9941 -38.2098 31.7311)" width="2" height="4.1"></rect><polygon class="st5" points="274.1,373 274.5,377 272.6,377.2 272.1,373.2 	"></polygon><polygon class="st5" points="274.9,381.1 275.3,385.2 273.5,385.4 273.1,381.3 	"></polygon><polygon class="st5" points="275.7,389.3 276,393.4 274.6,393.6 274,389.5 	"></polygon><polygon class="st5" points="276.4,397.5 276.7,401.6 275.7,401.7 275.1,397.6 	"></polygon><polygon class="st5" points="277.1,405.7 277.4,409.8 276.8,409.8 276.2,405.8 	"></polygon><polygon class="st5" points="277.6,413.9 277.8,415.9 277.4,413.9 	"></polygon><path class="st3" d="M211.7,166.8c1.3,0.7,2.4,1.6,3.4,2.6c1,1,1.9,2,2.8,3.1c0.8,1.1,1.6,2.3,2.2,3.5c0.7,1.3,1.2,2.6,1.6,4
		c-1.3-0.7-2.4-1.6-3.4-2.6c-1-1-1.9-2-2.8-3.1c-0.8-1.1-1.6-2.3-2.2-3.5C212.5,169.5,212,168.2,211.7,166.8z"></path><path class="st3" d="M256.7,143.6c0.4,1.4,0.7,2.8,0.7,4.3c0.1,1.4,0,2.8-0.1,4.2c-0.1,1.4-0.4,2.8-0.7,4.1c-0.4,1.4-0.9,2.7-1.6,4
		c-0.4-1.4-0.7-2.8-0.8-4.3c-0.2-2.8,0.1-5.6,0.9-8.3C255.4,146.2,256,144.9,256.7,143.6z"></path><path class="st3" d="M287.3,184.9c0.7-1.5,1.5-2.9,2.5-4.1c1.9-2.5,4.2-4.7,6.7-6.6c1.3-1,2.7-1.8,4.2-2.5
		c-0.7,1.5-1.5,2.9-2.5,4.1c-1.9,2.5-4.2,4.7-6.7,6.6C290.1,183.4,288.7,184.3,287.3,184.9z"></path></g></svg>