<svg transform="scale(1)" version="1.1" id="Layer_1" xmlns="http://www.w3.org/2000/svg" xmlns:xlink="http://www.w3.org/1999/xlink" x="0px" y="0px" viewBox="0 0 500 500" xml:space="preserve" class="show_show__wrapper__graphic__5Waiy "><title>React</title><style type="text/css">
	.st0{fill:#000001;}
	.st1{fill:#87CCDB;}
	.st2{fill:#469F78;}
	.st3{fill:#EA8383;}
	.st4{fill:#F3CB5C;}
	.st5{fill:#FFFFFF;}
	.st6{fill:#F2EBEB;}
</style><g id="planet"><path class="st0" d="M201.6,277.4c0,0-143.6,41.9-114.4,0s63.9-59.8,16.2-75.7s-17.6-76.7,86-126.5s96.8-29.2,71.5,0
		s18.8,3.2,72.6-17.3s129.6-2.3,54.9,61.1s-52,64.5-9.8,51.5S404.8,266.2,201.6,277.4z"></path><path class="st1" d="M318.8,98.5c0,0-17.3-3.2-17.9,16.7s19.8,23.1,28.9,15.3S337.3,99.1,318.8,98.5z"></path><path class="st2" d="M318.2,115.1c-0.1,0-0.3,0-0.4,0c-0.7-0.2-1-0.9-1.3-1.6c-0.2-0.7-0.7-1.3-1.3-1.8c-0.7-0.4-2,0.4-3.1,1.1
		c-1.4,0.8-2.7,1.7-3.9,1.3c-0.7-0.3-1.1-0.9-1.3-1.6c-1.5-4.2,4.6-9,4.8-9.2l0,0c3.3-2.1,6.5-1.6,8.5,1.4s2.4,7.7,0.1,9.4
		C319.7,114.7,319,115,318.2,115.1z M314.9,110.6c0.3,0,0.6,0.1,0.9,0.2c0.8,0.5,1.4,1.3,1.7,2.2c0.2,0.5,0.4,1,0.7,1s0.6,0,1.7-0.8
		c1.7-1.2,1.5-5.3-0.3-8c-1-1.5-3.2-3.6-7.1-1.1c-0.3,0.3-5.7,4.6-4.5,8c0.2,0.5,0.4,0.8,0.7,0.9c0.7,0.2,1.9-0.5,3-1.2
		C312.6,111.2,313.7,110.7,314.9,110.6L314.9,110.6z"></path><path class="st2" d="M316.7,134.5l-0.9-0.5c0.5-0.9,1.7-3.8,1-5.3c-0.3-0.6-1-1-1.6-1c-4-0.6-5.6,4.2-5.6,4.4l-1-0.3
		c0-0.1,1.9-5.8,6.8-5.1c1,0.1,1.9,0.7,2.4,1.6C318.9,130.6,316.8,134.4,316.7,134.5z"></path><path class="st2" d="M328.2,128.1c-1.3,0-2.9-2.1-4.1-4.2c-1.6-2.9,0.5-5.7,1.9-6.8l0,0c0.4-0.2,1.5-1,2.2-0.4
		c1,0.8-0.1,3.6-0.8,5.2c-0.3,0.7,0,1.2,0.7,2c0.8,0.7,1.3,1.8,1.2,2.9c-0.1,1-0.6,1.3-1,1.4L328.2,128.1z M326.6,117.8
		c-0.3,0.2-3.2,2.8-1.6,5.6s2.9,3.8,3.2,3.7c0,0,0.2-0.2,0.2-0.5c0.1-0.8-0.4-1.4-1-2.1s-1.5-1.7-0.9-3.1c1-2.2,1.2-3.8,1-4
		C327.6,117.4,327.4,117.3,326.6,117.8z"></path><path class="st3" d="M319.9,196.4c0,0-7.2,1.7-4,9.4s11.5,5.5,13.7,0.9S327.1,193.4,319.9,196.4z"></path><path class="st2" d="M154.4,234c0,0-14.3,3.4-8,18.9s23.1,11,27.4,1.8S168.9,228.2,154.4,234z"></path><path class="st4" d="M186.8,122.3c0,0-11.3-22.4-34.4-5.9s-9.1,42.5,7.7,46S202.1,143.9,186.8,122.3z"></path><path class="st5" d="M154.5,115c1.1,1.3,2.1,2.7,3.2,3.9s2.2,2.6,3.3,3.8c2.3,2.5,4.6,5,7.1,7.2c1.2,1.1,2.5,2.2,3.8,3.2
		c1.3,1,2.7,2,4.1,2.8c1.4,0.8,3,1.5,4.6,2c1.6,0.5,3.3,0.7,5,0.5c-1.7,0.4-3.4,0.3-5.1-0.1c-1.7-0.4-3.3-1-4.8-1.8
		c-3-1.6-5.8-3.7-8.3-6c-2.5-2.3-4.9-4.8-7-7.4C158.3,120.6,156.3,117.9,154.5,115z"></path><path class="st5" d="M151.5,122.1c1,1.7,2.1,3.3,3.2,4.9c1.1,1.6,2.3,3.1,3.5,4.7c2.4,3,5,5.9,7.8,8.5c1.4,1.3,2.9,2.6,4.4,3.8
		s3.1,2.2,4.8,3.2c3.3,2,7,3.4,10.7,4.2c-1.9-0.2-3.9-0.6-5.7-1.2c-1.9-0.6-3.7-1.4-5.4-2.3c-3.4-1.9-6.6-4.2-9.5-6.9
		c-2.8-2.7-5.4-5.6-7.7-8.8C155.3,128.9,153.2,125.6,151.5,122.1z"></path><path class="st5" d="M142.3,133.4c2.9,1.9,5.6,4.1,8,6.6c1.3,1.2,2.3,2.7,3.2,4.2c0.4,0.8,0.7,1.6,0.9,2.5c0.3,0.8,0.7,1.5,1.2,2.1
		c1.2,1.2,2.6,2.2,4.1,2.8c1.6,0.8,3.1,1.7,4.4,2.9c1.3,1.1,2.8,1.9,4.4,2.4c1.7,0.5,3.4,0.7,5.1,0.7c-3.5,0.5-7.1-0.4-10-2.5
		c-1.3-1-2.8-1.9-4.4-2.6c-1.7-0.7-3.1-1.7-4.4-3c-0.6-0.7-1.1-1.5-1.3-2.4c-0.1-0.4-0.3-0.9-0.4-1.2c-0.1-0.4-0.3-0.8-0.5-1.1
		c-0.8-1.5-1.8-2.9-2.9-4.1c-1.1-1.3-2.4-2.5-3.6-3.7S143.6,134.5,142.3,133.4z"></path><path class="st4" d="M191.1,144.9c1.8,2.2,3.5,4.5,5.1,6.8c1.6,2.4,3,4.9,4.1,7.5c0.6,1.3,1,2.7,1.2,4.2c0.3,1.5,0.1,3.1-0.6,4.5
		c-0.2,0.4-0.4,0.7-0.7,1c-0.3,0.3-0.7,0.6-1.2,0.7c-0.8,0.2-1.6,0.3-2.4,0.2c-1.5-0.2-2.9-0.5-4.3-0.9c-5.4-1.9-10.6-4.3-15.5-7.2
		c-5-2.8-9.7-5.9-14.4-9.1s-9.2-6.7-13.5-10.4c-4.4-3.7-8.4-7.7-12.1-12.1c-1.9-2.2-3.4-4.7-4.7-7.3c-0.7-1.3-1.1-2.8-1.1-4.3
		c0-0.4,0-0.8,0.1-1.2c0-0.2,0.1-0.4,0.2-0.6c0.1-0.2,0.1-0.4,0.3-0.6c0.4-0.7,1-1.3,1.7-1.6c1.4-0.6,2.8-0.9,4.3-0.9
		c1.4,0,2.9,0.1,4.3,0.3c2.8,0.4,5.6,1.1,8.3,2c-2.7-0.7-5.5-1.2-8.3-1.5c-1.4-0.1-2.8-0.2-4.2-0.1c-1.4,0.1-2.7,0.4-3.9,1
		c-1.1,0.6-1.7,1.8-1.6,3.1c0.1,1.3,0.5,2.6,1.2,3.8c1.3,2.5,2.9,4.7,4.7,6.8c3.7,4.2,7.8,8.1,12.1,11.6c4.3,3.6,8.8,7,13.4,10.2
		s9.4,6.3,14.2,9.1c4.8,2.9,9.8,5.4,15.1,7.4c1.3,0.5,2.6,0.8,3.9,1c0.6,0.1,1.2,0.1,1.8-0.1c0.2-0.1,0.5-0.2,0.6-0.3
		c0.2-0.2,0.4-0.4,0.6-0.7c0.6-1.1,0.8-2.4,0.6-3.7c-0.2-1.4-0.5-2.7-1-4C197.4,154.3,194.3,149.5,191.1,144.9z"></path><path class="st4" d="M168.2,172.9c2,3,3.8,6.1,5.5,9.3c1.7,3.2,3.2,6.5,4.4,9.9c0.6,1.7,1.1,3.5,1.5,5.2c0.4,1.8,0.5,3.7,0.4,5.5
		c-0.1,1-0.3,1.9-0.7,2.8c-0.4,0.9-1,1.7-1.8,2.4c-1.6,1.2-3.5,1.9-5.4,1.9c-3.7,0.1-7.4-0.5-10.9-1.7c-3.5-1.1-6.8-2.4-10.1-3.9
		c-3.3-1.5-6.5-3.1-9.7-4.7s-6.4-3.4-9.5-5.1c-6.2-3.6-12.4-7.4-18.3-11.5c-6-4.1-11.7-8.5-17-13.4c-5.3-4.9-10.3-10.2-13.8-16.6
		c-0.4-0.8-0.8-1.6-1.2-2.5c-0.4-0.8-0.7-1.7-0.9-2.6c-0.6-1.8-0.7-3.6-0.4-5.5c0.4-1.8,1.6-3.4,3.3-4.3c1.6-0.8,3.5-1.2,5.3-1.1
		c-1.8,0.1-3.5,0.6-5.1,1.4c-1.5,0.9-2.6,2.4-2.9,4.1c-0.2,1.7,0,3.5,0.6,5.1c0.3,0.8,0.6,1.7,1,2.4c0.4,0.8,0.8,1.6,1.3,2.3
		c3.6,6.1,8.7,11.2,14,16c10.7,9.4,22.8,17.2,35.2,24.2c3.1,1.8,6.2,3.5,9.4,5.1s6.3,3.3,9.6,4.8c3.2,1.5,6.5,2.8,9.9,3.9
		c1.7,0.5,3.4,1,5.1,1.4c1.7,0.4,3.4,0.5,5.1,0.5c1.7,0,3.3-0.5,4.6-1.4c1.2-1.1,2-2.6,2.2-4.2c0.4-3.4-0.5-6.9-1.5-10.3
		C174.9,185.6,171.9,179,168.2,172.9z"></path></g><g id="rocket"><path class="st4" d="M235.1,347c0,0-4,72.5-7.8,67.6s-3.2-56.3-19.8-25.7s-16.2,27.6-24.5,13.8s-47.9,46.4-46.4,50.4
		s253.3,1,259.2-2.5s-11.8-48.4-28.6-32.1s-38,24.2-38-0.5s-13.8-70.1-27.6-46.4s-13.6,46.9-21.8,42.4s-12.9-65.3-12.9-65.3
		L235.1,347z"></path><path class="st6" d="M219.1,344.5c0,0-16.2-76.3-11.5-123.1s36.9-107.8,42.4-105s30.8,33.2,37.9,92.3s-8.7,135.8-8.7,135.8
		S247.2,355.6,219.1,344.5z"></path><path class="st5" d="M216.5,321.7c5.4,0.5,10.9,0.9,16.3,1.3s10.9,0.7,16.3,0.8c2.7,0,5.4,0.1,8.2,0c1.4,0,2.7,0,4.1-0.1
		s2.7-0.1,4.1-0.2c5.4-0.3,10.8-0.9,16.2-1.9c-5.2,1.7-10.6,2.9-16.1,3.4c-5.5,0.6-11,0.8-16.5,0.6c-5.5-0.1-11-0.5-16.4-1.2
		C227.2,323.9,221.8,322.9,216.5,321.7z"></path><path class="st5" d="M239.7,346.5c-0.6-1.8-1.1-3.6-1.5-5.5c-0.4-1.8-0.7-3.7-0.9-5.5s-0.4-3.7-0.5-5.6c-0.1-1.9-0.1-3.8,0.1-5.7
		c0.6,1.8,1.1,3.6,1.5,5.5c0.4,1.8,0.7,3.7,0.9,5.5s0.4,3.7,0.5,5.6C239.9,342.7,239.8,344.6,239.7,346.5z"></path><path class="st5" d="M263.6,346.5c-0.4-1.8-0.7-3.6-0.8-5.4c-0.1-1.8-0.2-3.6-0.2-5.4s0.1-3.6,0.2-5.4c0.1-1.8,0.4-3.6,0.8-5.4
		c0.4,1.8,0.6,3.6,0.8,5.4c0.1,1.8,0.2,3.6,0.2,5.4s-0.1,3.6-0.2,5.4C264.2,342.9,264,344.7,263.6,346.5z"></path><path class="st1" d="M276.9,161.3c-10.1-28.1-23.2-43-26.9-44.9c-3.2-1.6-15.3,18.3-25.9,44.4C234.4,164.1,254.8,168.5,276.9,161.3
		z"></path><path class="st2" d="M247.6,195.9c-1.2,0.2-2.4,0.5-3.6,1.1c-4.8,2.4-17.4,10.8-14.1,29.6c4,23,34.2,22.2,40.3,3.2
		C276,211.5,263.2,194,247.6,195.9z"></path><path class="st6" d="M247.8,201.2c-1,0.1-1.9,0.4-2.8,0.9c-3.7,1.9-13.7,8.5-11.1,23.4c3.2,18.2,27,17.5,31.7,2.5
		C270.2,213.5,260.1,199.6,247.8,201.2z"></path><path class="st5" d="M243,225.1c0.7-1.3,1.6-2.6,2.6-3.8c0.9-1.2,1.9-2.3,2.9-3.4s2.1-2.1,3.3-3.1c1.1-1,2.4-1.9,3.7-2.7
		c-0.7,1.3-1.6,2.6-2.6,3.8c-0.9,1.2-1.9,2.3-2.9,3.4s-2.1,2.1-3.3,3.1C245.6,223.4,244.3,224.3,243,225.1z"></path><path class="st5" d="M246.3,231c0.7-1.3,1.6-2.6,2.6-3.8c0.9-1.2,1.9-2.3,2.9-3.4s2.1-2.1,3.3-3.1c1.1-1,2.4-1.9,3.7-2.7
		c-0.7,1.3-1.6,2.6-2.5,3.8c-0.9,1.2-1.9,2.3-3,3.4s-2.1,2.1-3.3,3.1C248.8,229.3,247.5,230.2,246.3,231z"></path><path class="st1" d="M288.2,278.8c0,0,34.5,79.3,29.2,81.1s-38.2-15.4-38.2-15.4L288.2,278.8z"></path><path class="st1" d="M209,278.8c0,0-37.8,79.3-27.7,79.3s37.8-13.6,37.8-13.6L209,278.8z"></path><path class="st0" d="M248.5,278.8c0,0-0.3,84.7,2.7,84.7s1.1-81.6,1.8-84.7S248.5,278.8,248.5,278.8z"></path><path class="st5" d="M227.1,166c-2.7,5.9-4.9,12-6.5,18.2c-1.7,6.2-3.1,12.5-4.1,18.9c-1.9,12.8-2.8,25.7-2.6,38.6l0.2,9.7
		c0.2,3.2,0.5,6.4,0.7,9.6c0.3,6.5,1.4,12.8,2.1,19.3l0.3,2.4c0.1,0.8,0.3,1.6,0.4,2.4l0.8,4.8l1.6,9.6c1.3,6.3,2.8,12.6,4,19
		c-0.9-3.1-1.7-6.2-2.5-9.4s-1.7-6.3-2.5-9.4l-1.9-9.5l-1-4.8c-0.1-0.8-0.3-1.6-0.5-2.4l-0.4-2.4c-0.5-3.2-1-6.4-1.4-9.6
		c-0.2-1.6-0.5-3.2-0.6-4.8l-0.4-4.9c-0.2-3.2-0.6-6.5-0.8-9.7l-0.3-9.8c-0.1-13,1-26,3.2-38.8c1.2-6.4,2.7-12.7,4.6-18.9
		C221.5,177.8,224,171.7,227.1,166z"></path><path class="st6" d="M159.8,374c-0.4-5.3-0.6-10.6-0.8-15.9s-0.2-10.6-0.2-15.9s0.1-10.6,0.2-15.9s0.4-10.6,0.8-15.9
		c0.4,5.3,0.6,10.6,0.8,15.9s0.2,10.6,0.2,15.9s-0.1,10.6-0.2,15.9S160.2,368.7,159.8,374z"></path><path class="st6" d="M343,396.4c-0.7-4.8-1.3-9.5-1.7-14.3s-0.8-9.6-1.2-14.4s-0.6-9.6-0.7-14.4s-0.3-9.6-0.2-14.4
		c0.7,4.8,1.3,9.5,1.7,14.3s0.8,9.6,1.2,14.4s0.6,9.6,0.7,14.4S343.1,391.6,343,396.4z"></path><path class="st6" d="M356.8,316c0.4,2.6,0.7,5.2,0.8,7.8c0.2,2.6,0.2,5.2,0.2,7.7s-0.1,5.2-0.2,7.7c-0.1,2.6-0.4,5.2-0.8,7.7
		c-0.4-2.6-0.6-5.2-0.8-7.7s-0.2-5.2-0.2-7.7s0.1-5.2,0.2-7.7C356.1,321.2,356.4,318.6,356.8,316z"></path><path class="st6" d="M144.8,363.5c0.4,3.6,0.6,7.2,0.8,10.8s0.2,7.2,0.2,10.8s-0.1,7.2-0.2,10.8s-0.4,7.2-0.8,10.8
		c-0.4-3.6-0.6-7.2-0.8-10.8s-0.2-7.2-0.2-10.8s0.1-7.2,0.2-10.8S144.4,367.1,144.8,363.5z"></path></g></svg>