<svg transform="scale(1)" version="1.1" id="Layer_1" xmlns="http://www.w3.org/2000/svg" xmlns:xlink="http://www.w3.org/1999/xlink" x="0px" y="0px" viewBox="0 0 500 500" xml:space="preserve" class="show_show__wrapper__graphic__5Waiy "><title>React</title><style type="text/css">
	.st0{fill:#000001;}
	.st1{opacity:0.74;}
	.st2{fill:#F2EBEB;}
	.st3{fill:#87CCDB;}
	.st4{fill:#FFFFFF;}
	.st5{opacity:0.71;}
	.st6{fill:#EA8383;}
	.st7{fill:#469F78;}
	.st8{fill:#A04040;}
	.st9{fill:#f7f7f7;}
	.st10{opacity:0.66;}
	.st11{clip-path:url(#SVGID_2_);}
</style><g id="tube-3"><path class="st0" d="M387.6,266.7c0,0,27.5-1.3,28.8,0s-5.4,23-5.4,23s-13.2,2.2-16.3,0S387.6,266.7,387.6,266.7z"></path><g class="st1"><path class="st2" d="M385.5,353.2c0,0-35.5,10.7-29.8,46.2s54.4,49.5,78.9,26s18.4-61.5-15.4-72.2c0,0-2.2-64.4-2.6-67.2
			s-30.2-2.1-30.2-2.1L385.5,353.2z"></path></g><path class="st3" d="M365.4,393.8c0,0,77.7-2.6,77.7,0s-2.8,29-33.2,35.6S365.9,415.3,365.4,393.8z"></path><path class="st4" d="M408.4,424.4c-0.5,0-1-0.1-1.5-0.3c-2.1-0.9-3-3.6-4.1-6.8c-0.6-1.9-1.3-3.7-2.2-5.5c-1.2-2.2-1.4-4.1-0.7-5.7
		c0.9-1.6,2.4-2.8,4.1-3.2l0,0c5.7-1.2,9.5,3.3,11.1,7.5c1.7,4.7,1.2,10.6-3.1,12.8C410.9,423.9,409.7,424.3,408.4,424.4z
		 M404.4,404c-1.5,0.4-2.7,1.3-3.4,2.6c-0.6,1.3-0.4,2.9,0.6,4.8c0.9,1.8,1.6,3.7,2.2,5.7c1,2.9,1.8,5.5,3.5,6.1
		c1,0.4,2.5,0.2,4.3-0.8c3.8-2,4.2-7.3,2.6-11.6C412.8,407,409.4,402.9,404.4,404L404.4,404z"></path><path class="st4" d="M379.7,408.5c-1.2,0-2.4-0.3-3.5-0.9c-1.6-0.6-2.9-1.9-3.4-3.6c-0.3-1.4,0.1-2.9,0.9-4.1l0.2-0.1
		c0,0,5.7-2.9,8.5,1.7c1.4,2.2,1.5,4.5,0.2,5.9C381.8,408.1,380.8,408.5,379.7,408.5z M374.4,400.6c-0.6,0.9-0.9,2.1-0.7,3.2
		c0.5,1.4,1.5,2.4,2.9,2.9c2.3,1.1,4.2,1.1,5.2,0s0.8-2.9-0.3-4.7C379.3,398.4,375.2,400.2,374.4,400.6z"></path><path class="st4" d="M425.5,412.3c-0.4,0-0.7-0.1-1.1-0.2c-1.2-0.4-2.1-1.3-2.4-2.5c-1.1-3.9,4-10.4,4.2-10.6l0.1-0.1
		c2.2-1.9,3.5-1.6,4.1-1.1c2,1.6,1.1,7.7-1,11.3C428.3,411.2,426.9,412.3,425.5,412.3z M427,399.7c-0.4,0.5-5,6.4-4,9.7
		c0.3,0.9,0.9,1.5,1.8,1.8c1.8,0.6,3.2-1.3,3.9-2.5c2-3.5,2.6-8.9,1.2-10C429.1,398,427.8,399,427,399.7L427,399.7z"></path></g><g id="tube-2"><g class="st5"><path class="st2" d="M438.1,388.9v7.1c0,0-14.7,40.5-12.9,41s43.8,2.7,44.5,0S457,394.3,457,394.3l1.1-4.5L438.1,388.9z"></path></g><path class="st6" d="M437.3,407H459c0,0,6.7,24.4,5.7,24.9s-32,1.5-32.8,0S437.3,407,437.3,407z"></path><path class="st4" d="M446,388.9c0,0-0.8,32.6,0,34s1,1.1,1.3,2.6s-0.1,5.5,1.3,4.8s1.1-5.4,1.1-5.4c1.3-0.9,2.2-2.4,2.2-4
		c0-2.8,1.3-31.5,1.3-31.5L446,388.9z"></path><path class="st0" d="M432.3,388.6c0,0-1-12.4,0-13.7s7-8.2,18.6-6.2s13.7,8.4,13.7,9.8v11.6L432.3,388.6z"></path><path class="st4" d="M434.1,377.9c2.2,1.4,4.5,2.6,7,3.5c0.6,0.2,1.2,0.4,1.8,0.6s1.2,0.4,1.8,0.5s1.2,0.3,1.9,0.4l0.9,0.1l0.9,0.1
		c0.6,0.1,1.3,0.1,1.9,0.1c0.6,0,1.3,0,1.9,0c1.3,0,2.5-0.2,3.8-0.4c1.2-0.2,2.4-0.6,3.6-1.1c1.2-0.5,2.2-1.3,2.9-2.4
		c-0.4,1.3-1.2,2.5-2.4,3.3c-1.1,0.8-2.4,1.4-3.7,1.8c-2.6,0.7-5.4,1-8.1,0.8c-2.7-0.2-5.4-1-7.8-2.2
		C438,381.6,435.8,380,434.1,377.9z"></path><path class="st7" d="M445.3,376.4v-17.9c0,0-7-7.5-2-13.9s16.9-2.5,14.4,5.7s-4.5,8.6-4.5,8.6l1.5,19L445.3,376.4z"></path><path class="st0" d="M439.3,411c3.3,0.7,6.6,1.2,9.9,1.5c1.6,0.1,3.2-0.1,4.7-0.5c1.6-0.5,3-1.3,4.1-2.5c-0.3,0.9-0.7,1.6-1.4,2.3
		c-0.6,0.7-1.4,1.2-2.2,1.6c-1.7,0.8-3.5,1.1-5.3,1c-1.8-0.1-3.5-0.4-5.2-1C442.3,412.9,440.7,412.1,439.3,411z"></path><path class="st0" d="M438.1,396c-0.9,3.5-1.8,7-2.7,10.4s-2,6.9-2.9,10.4s-2,6.9-3.1,10.3s-2.1,6.8-3.2,10.2l-0.9-1.3
		c5.5,0,11,0.1,16.5,0.3c2.7,0.1,5.5,0.2,8.2,0.3s5.5,0.2,8.2,0.4c-2.7,0.2-5.5,0.3-8.2,0.4s-5.5,0.2-8.2,0.3
		c-5.5,0.1-11,0.2-16.5,0.3h-1.3l0.4-1.3c1-3.4,2.1-6.8,3.2-10.3c1.1-3.4,2.2-6.8,3.4-10.2s2.3-6.8,3.5-10.2S436.8,399.4,438.1,396z
		"></path></g><g id="character"><path class="st3" d="M55.5,311.6c0,0-31,129-24.2,133.3s163.4,13.3,168.7,11.4s0-186,0-186L55.5,311.6z"></path><g id="character-2"><path class="st0" d="M187,247.2c0,0,59.6,75.3,70.2,75.3c30.1,0,72.2-116.1,73-118.2s-22-16.3-25.9-12.1
			c-14.6,15.8-29.9,30.7-46,44.9c0,0-50-69.2-82.2-72.1C174.3,164.9,187,247.2,187,247.2z"></path><path class="st8" d="M304.3,192.3c0,0,9.5-23.2,6-37.7s6.5-8.7,10.1,2c0,0,12.4-25.8,13.9-33.5s12.2-1-0.3,27.7
			c2.8-3.7,5.2-7.7,7-12c2.7-6.7,9.6-4.8,4.5,10.6s-6,16.2-6,16.2s4.1-7.3,5.6-12.9s8.6-3,2.8,15s-17.5,35.8-19.2,38.8
			S304.3,192.3,304.3,192.3z"></path><path class="st0" d="M326.1,179.3c0.5-1,0.8-2,1.1-3c0.3-1,0.5-2,0.6-3.1c0.2-2.1,0-4.2-0.5-6.2c-0.3-1-0.7-2-1.2-2.9
			c-0.2-0.5-0.5-0.9-0.7-1.4c-0.3-0.4-0.6-0.9-0.9-1.3c-0.3-0.4-0.6-0.9-1-1.3l-1-1.2c-0.7-0.8-1.5-1.5-2.2-2.3
			c0.9,0.6,1.7,1.3,2.6,2l1.1,1.2c0.4,0.4,0.7,0.8,1.1,1.2c1.4,1.7,2.4,3.7,3.1,5.8c0.6,2.1,0.7,4.4,0.3,6.6
			C328.3,175.5,327.4,177.5,326.1,179.3z"></path><circle class="st0" cx="301.5" cy="202.8" r="2.4"></circle><path class="st0" d="M321.9,222.2c-2.2-0.6-4.4-1.4-6.5-2.3c-2.1-0.9-4.2-1.9-6.2-3.1c-2-1.1-3.9-2.4-5.8-3.8
			c-1.8-1.4-3.6-2.9-5.1-4.6c1,0.7,1.8,1.4,2.8,2s1.9,1.3,2.8,1.9c1.9,1.2,3.8,2.4,5.8,3.6s4,2.2,6,3.3c1,0.5,2,1,3.1,1.5
			S320.9,221.7,321.9,222.2z"></path><path class="st3" d="M200,317.5H79.6c0,0-29.4-146.3,12.3-164.9c0,0,50.7-13.3,108.7,21.7c5.6,3.4,9,9.5,9,16
			C209.5,218.4,201.1,273.3,200,317.5z"></path><path class="st8" d="M169.4,76.3c0,0,10.9,33.4,9.6,34s-5.4-0.5-5.4-0.5s5.5,23.4,0.4,55.2c0,0-34.2-2.5-50.3-16.4
			c0,0-1.4-82.7,5.5-85.5C136.1,60.4,169.4,76.3,169.4,76.3z"></path><path class="st9" d="M133,85.8c0,0,4.5,16.5,2.8,19.6s-11.8-5.1-11.8-5.1s-3.7-37.8,0-42.7s81.9,21,75.5,24.2s-30.2-5.5-30.2-5.5
			l-24.6-0.9C144.8,75.4,139.9,84,133,85.8z"></path><path class="st8" d="M124.7,100.7c0,0-12.4-5.1-9.1-16s14.2,10.2,14.2,10.2L124.7,100.7z"></path><path class="st2" d="M147.8,93.6c0,0,11.2-4.8,15.9,4.7c0.3,0.7,0.1,1.5-0.6,1.9c-0.1,0-0.1,0.1-0.2,0.1
			C159.4,101.2,150.7,102.7,147.8,93.6z"></path><path class="st0" d="M147.2,93.5c1.5-0.8,3.2-1.3,4.9-1.5c1.7-0.3,3.5-0.2,5.2,0.2c1.7,0.4,3.3,1.3,4.5,2.6c1.2,1.2,2,2.8,2.4,4.5
			c-0.7-1.5-1.6-2.9-2.9-3.9c-1.2-1-2.7-1.8-4.2-2.2c-1.6-0.4-3.2-0.5-4.8-0.4C150.5,92.8,148.8,93.1,147.2,93.5z"></path><path class="st0" d="M157.9,92.9c0,0-6.1,6.7-0.9,8c6.5,1.5,8.4-0.8,6.5-4C162.1,94.9,160.2,93.5,157.9,92.9z"></path><path class="st0" d="M149.6,110.4c0.6,1.1,1.4,2.1,2.5,2.8c0.5,0.3,1.1,0.6,1.6,0.8c0.3,0.1,0.6,0.2,1,0.4
			c0.4,0.1,0.7,0.3,1.1,0.4c-0.3,0.2-0.7,0.4-1.1,0.5c-0.4,0.1-0.8,0.2-1.2,0.2c-0.9,0-1.7-0.2-2.5-0.6c-0.8-0.5-1.4-1.2-1.7-2.1
			C149.1,112,149.2,111.1,149.6,110.4z"></path><path class="st9" d="M145.8,88.3c1.2-1,2.7-1.7,4.2-2.1c3-0.9,6.2-0.9,9.2-0.1c1.5,0.4,3,1.1,4.2,2c-1.5,0.2-3,0.3-4.5,0.4
			c-1.4,0-2.9,0.1-4.3,0.1h-4.3C148.9,88.5,147.4,88.4,145.8,88.3z"></path><path class="st3" d="M141.7,287.5l4.1,45.2c0,0-115.3,6.5-114.5-11.3c0.8-17.8,39.5-170,60.6-168.9s-0.1,121.6-0.1,121.6
			L141.7,287.5z"></path><path class="st0" d="M160.3,163.2c1.4,3.9,2.4,7.9,3.2,12c0.8,4.1,1.3,8.2,1.6,12.3c0.2,2.1,0.2,4.1,0.3,6.2v3.1
			c0,1,0,2.1-0.1,3.1c-0.2,4.1-0.7,8.3-1.5,12.3c0-4.1,0.1-8.2,0-12.3s-0.3-8.2-0.6-12.2s-0.7-8.1-1.2-12.2S160.9,167.3,160.3,163.2
			z"></path><path class="st4" d="M141.7,282.4c-4.1-0.9-8.3-1.9-12.4-2.8s-8.2-1.9-12.4-2.9c-8.2-2-16.5-4-24.7-6l-0.9-0.2l0.2-0.9
			c1.8-7.4,3.5-14.8,5.2-22.2c1.7-7.4,3.4-14.8,5-22.3l2.4-11.2c0.8-3.7,1.5-7.5,2.2-11.2c0.7-3.7,1.3-7.5,1.9-11.2
			c0.3-1.9,0.5-3.8,0.6-5.7c0.2-1.9,0.2-3.8,0-5.7c0.7,3.8,0.3,7.6,0,11.4s-0.8,7.6-1.4,11.4c-1.1,7.6-2.5,15.1-4,22.5
			s-3.1,14.9-4.8,22.4s-3.5,14.8-5.3,22.2l-0.7-1.1c8.2,2.2,16.4,4.4,24.5,6.6c4.1,1.1,8.2,2.2,12.2,3.4S137.6,281.2,141.7,282.4z"></path><path class="st8" d="M141.7,287.5c0,0,44.8-2.5,49.1-2.2s49.2,46.4,48.4,50.2s-12.6-1.6-12.6-1.6s-0.8,5.4-7.2,2.9
			c0,0-12.1,2-20.7,0.6s-25-4.8-25-4.8h-27.9L141.7,287.5z"></path><path class="st8" d="M209.7,317.5c0,0,14.4,17.6,23.5,18.7"></path><path class="st0" d="M209.7,317.5c1.9,1.7,3.8,3.4,5.6,5.1s3.7,3.5,5.6,5.1c0.9,0.9,1.9,1.7,2.8,2.5s1.9,1.6,2.9,2.3
			c1.9,1.6,4.1,2.8,6.5,3.7c-2.6-0.1-5.2-0.9-7.4-2.4c-2.2-1.3-4.3-2.9-6.2-4.6c-1.9-1.7-3.7-3.6-5.4-5.5
			C212.5,321.8,211,319.7,209.7,317.5z"></path><path class="st8" d="M206.4,327.5c0,0,14.7,15.3,19,8.7"></path><path class="st0" d="M206.4,327.5c1.6,1.1,3.2,2.2,4.7,3.3s3.1,2.2,4.6,3.3c1.5,1,3.1,1.9,4.8,2.7c0.8,0.3,1.7,0.5,2.5,0.5
			c0.9,0,1.8-0.4,2.4-1.1c-0.4,1-1.2,1.7-2.2,2c-1,0.3-2.1,0.3-3.1,0c-2-0.5-3.8-1.3-5.4-2.5c-1.6-1.1-3.1-2.4-4.5-3.8
			C208.7,330.6,207.4,329.2,206.4,327.5z"></path><polygon class="st4" points="123.8,148.7 164.6,258.8 174.4,162.8 		"></polygon><path class="st4" d="M123.8,148.7c-1.2,4.6-2.6,9.1-3.9,13.7l-2,6.8l-2,6.8l-0.4-0.9l8.7,4.3l0.6,0.3l-0.1,0.6l-2.1,12.5
			l-2.2,12.5l-0.2-0.8l8.7,11.8l8.7,11.9l8.6,11.9c2.8,4,5.7,8,8.4,12c-3.1-3.8-6.1-7.6-9.2-11.5l-9-11.6l-8.9-11.6l-8.8-11.7
			l-0.3-0.3l0.1-0.4l2.2-12.5l2.2-12.5l0.5,0.9l-8.6-4.5l-0.6-0.3l0.2-0.6l2.3-6.7l2.4-6.8C120.6,157.6,122.1,153.1,123.8,148.7z"></path><path class="st4" d="M174.4,162.8c2.9,3.4,5.6,7,8.4,10.4s5.5,7,8.3,10.6l0.4,0.6l-0.6,0.5c-3.7,3.2-7.5,6.4-11.2,9.6l0.2-1.2
			l5.7,10.7l5.6,10.8l0.2,0.4l-0.2,0.4c-3.3,6.1-6.6,12.2-10,18.3c-1.7,3-3.4,6.1-5.1,9.1s-3.4,6-5.2,9c1.5-3.1,3-6.3,4.5-9.4
			s3.1-6.2,4.6-9.4c3.1-6.2,6.3-12.4,9.5-18.6v0.9l-5.7-10.7l-5.6-10.8l-0.4-0.7l0.6-0.5c3.8-3.1,7.6-6.2,11.5-9.3l-0.1,1.1
			c-2.6-3.6-5.2-7.2-7.8-10.9C179.5,170.2,176.9,166.5,174.4,162.8z"></path></g><g class="st1"><path class="st7" d="M137.1,87.6c0,0,35.6,0.9,36.4,9.1s-5.1,17.4-20.4,15.8S137.1,87.6,137.1,87.6z"></path></g><path class="st2" d="M294.1,86.5c0,0,27.7-10.8,29-8.9c0.9,1.7,1.5,3.6,1.7,5.5c0,0-24.1,8-27.5,8.4S294.1,86.5,294.1,86.5z"></path><path class="st2" d="M298.5,91.4c0,0,27.6,87.8,31.6,97.1s11.2,14.7,19.8,10.2S321.7,84.3,321.7,84.3L298.5,91.4z"></path><path class="st7" d="M316.5,139.9c0,0,18-6.5,18.8-3.9s16.6,52,11.2,57.1S333.8,197.3,316.5,139.9z"></path><path class="st0" d="M298.1,91.6c1.8-1,3.7-1.8,5.7-2.6c1.9-0.7,3.9-1.4,5.8-2s4-1.1,6-1.6c2-0.5,4.1-0.8,6.1-1.1
		c-1.8,1-3.7,1.8-5.7,2.6c-1.9,0.8-3.9,1.4-5.8,2s-4,1.1-6,1.6C302.2,91,300.2,91.3,298.1,91.6z"></path><path class="st4" d="M344.7,183.6c-0.8-8.6-2.5-17.1-5-25.4c-4.1-13.5-1.9-0.3,0,7.4S344.7,183.6,344.7,183.6z"></path><path class="st8" d="M335.1,121.2c0,0-10.1,10.5-9.5,16.7s13.8-7.1,14-8.3S336.9,121,335.1,121.2z"></path><path class="st8" d="M342.6,136.2c0,0-10.5,10.7-9.9,16.9s11.8-6.9,12-8.1S344.4,136.1,342.6,136.2z"></path><path class="st4" d="M144.1,416.1c-0.2,0-0.5,0-0.7-0.1c-1,0-1.9-0.7-2.3-1.6c-0.6-1.9,1.7-4.4,2-4.6l0.1-0.1h0.1
		c2.5-0.7,3.6,0.2,4,0.8c0.8,1.2,0.8,2.7,0,3.8C146.7,415.4,145.5,416.1,144.1,416.1z M143.8,410.5c-0.6,0.7-2,2.5-1.7,3.5
		c0.1,0.5,0.7,0.8,1.6,0.9c1.1,0.2,2.3-0.3,2.9-1.3c0.6-0.8,0.6-1.8,0.1-2.7C146.1,410.3,145.1,410.2,143.8,410.5z"></path><path class="st4" d="M148.4,391.1c-0.2,0-0.5,0-0.7-0.1c-1.3-0.2-2.1-0.8-2.3-1.6c-0.6-1.9,1.7-4.4,2-4.7l0.1-0.1h0.1
		c2.5-0.7,3.6,0.2,4,0.8c0.8,1.2,0.8,2.7,0,3.8C150.9,390.4,149.7,391.1,148.4,391.1z M148,385.6c-0.6,0.7-2,2.5-1.7,3.5
		c0.1,0.5,0.7,0.8,1.6,0.9c1.1,0.2,2.3-0.3,2.9-1.3c0.6-0.8,0.6-1.9,0.1-2.7C150.4,385.4,149.4,385.2,148,385.6L148,385.6z"></path><path class="st4" d="M152.5,367.2c-0.2,0-0.5,0-0.7-0.1c-1,0-1.9-0.7-2.3-1.6c-0.6-1.9,1.7-4.4,2-4.6l0.1-0.1h0.1
		c2.5-0.7,3.6,0.2,4.1,0.8c0.8,1.2,0.8,2.7,0,3.8C155.1,366.5,153.9,367.2,152.5,367.2z M152.1,361.7c-0.6,0.7-2,2.5-1.7,3.5
		c0.1,0.5,0.7,0.8,1.6,0.9c1.1,0.2,2.3-0.3,2.9-1.3c0.6-0.8,0.6-1.9,0.1-2.7C154.5,361.5,153.5,361.3,152.1,361.7L152.1,361.7z"></path><path class="st4" d="M79.8,408.1c-0.3-1.8-0.3-3.7-0.3-5.5c0-1.8,0.1-3.6,0.3-5.5s0.4-3.6,0.6-5.4l0.4-2.7l0.5-2.7l0.2-0.9l0.8,0.1
		l18.9,2.8l9.4,1.4l4.7,0.7c1.6,0.2,3.2,0.5,4.7,0.6c-3.2-0.1-6.4-0.4-9.5-0.7s-6.3-0.6-9.5-1c-6.3-0.7-12.7-1.4-19-2.2l1-0.7
		l-0.3,2.7l-0.3,2.8c-0.2,1.8-0.5,3.6-0.7,5.4s-0.6,3.6-0.9,5.4C80.5,404.6,80.1,406.3,79.8,408.1z"></path><path class="st4" d="M120.2,395.6c0.1,1.7,0.1,3.5,0,5.2c-0.1,1.7-0.3,3.5-0.5,5.2s-0.5,3.4-0.9,5.1s-0.8,3.4-1.3,5.1
		c-0.3-1.7-0.4-3.5-0.2-5.3c0.1-1.7,0.2-3.5,0.5-5.2c0.2-1.7,0.6-3.4,1-5.1C119.1,398.9,119.6,397.2,120.2,395.6z"></path><path class="st4" d="M40,329.6c8.8,1.6,17.7,3.1,26.5,4.4s17.7,2.4,26.6,3.2c4.4,0.4,8.9,0.7,13.4,0.8s8.9,0.2,13.4,0
		c4.4-0.1,8.9-0.6,13.3-1.3c4.4-0.7,8.7-2,12.7-4c-3.9,2.3-8.1,4-12.5,5c-4.4,1-8.9,1.6-13.4,1.9c-9,0.6-18,0.4-27-0.4
		c-9-0.8-17.9-2-26.7-3.6S48.6,332.1,40,329.6z"></path><path class="st4" d="M155.8,426.1c0.3-7.3,0.8-14.6,1.4-21.8c0.6-7.3,1.2-14.5,2-21.8s1.5-14.5,2.4-21.7s1.9-14.5,3-21.7
		c-0.3,7.3-0.8,14.6-1.4,21.8c-0.6,7.3-1.3,14.5-2,21.8s-1.5,14.5-2.4,21.7S156.9,418.9,155.8,426.1z"></path></g><g id="tube-1"><g class="st10"><path class="st2" d="M325.4,345.2c0,0-63,83.6-62.5,90.2s138.9,7.7,146.9,1.2s-62.1-91.4-62.1-91.4s-0.6-44.5,0.1-48.5
			s10.6-15.1,10.6-15.1h-40.2c0,0,7,12,7,14.9S325.4,345.2,325.4,345.2z"></path></g><path class="st7" d="M314.5,378.6c0,0-44.1,54.9-39.1,54.1s127.3,8.3,129.1,0s-37.1-54.1-37.1-54.1H314.5z"></path><path class="st4" d="M315.7,383.2c3.9,1.3,7.8,2.4,11.8,3.2c3.9,0.8,7.9,1.4,11.9,1.6c4,0.2,8,0,12-0.8c2-0.4,3.9-0.9,5.8-1.6
		c1.9-0.7,3.8-1.5,5.6-2.5c-1.6,1.3-3.3,2.5-5.2,3.4c-1.9,0.9-3.8,1.7-5.8,2.2c-2,0.5-4.1,0.9-6.2,1.1c-2.1,0.2-4.2,0.2-6.2,0.1
		c-4.2-0.2-8.3-0.9-12.3-2.1C323,386.8,319.2,385.2,315.7,383.2z"></path><path class="st0" d="M318.2,281.6c2.9,2.1,6.2,3.7,9.6,4.9c3.4,1.1,6.9,1.7,10.4,1.6c1.8,0,3.5-0.2,5.2-0.5
		c0.9-0.1,1.7-0.4,2.6-0.6s1.7-0.5,2.5-0.8c3.4-1.2,6.7-2.8,9.8-4.6c-2.7,2.5-5.8,4.6-9.2,6.1c-3.4,1.5-7.2,2.4-10.9,2.4
		c-3.8,0.1-7.5-0.7-11-2.2C323.9,286.5,320.8,284.3,318.2,281.6z"></path><path class="st0" d="M262.8,435.5c0,0.4,0.4,0.6,0.7,0.7c0.3,0.2,0.6,0.3,1,0.4c0.7,0.2,1.3,0.3,2,0.5c1.3,0.2,2.7,0.4,4,0.6
		c2.7,0.3,5.4,0.5,8.2,0.6c5.5,0.3,10.9,0.4,16.4,0.5c10.9,0.1,21.9,0.1,32.8,0s21.9-0.4,32.8-0.7s21.9-0.6,32.8-1.2
		c5.5-0.3,10.9-0.6,16.3-1.2c0.7-0.1,1.3-0.2,2-0.3l0.5-0.1h0.2h0c0,0,0.1,0,0,0c-0.3,0.1-0.6,0.4-0.6,0.8c0,0.2,0,0.2,0,0.2
		s0-0.1-0.1-0.2l-0.2-0.4c-0.7-1.1-1.4-2.3-2.2-3.4c-1.5-2.3-3.1-4.5-4.6-6.8c-6.2-9-12.6-17.9-19-26.7l-38.4-53.2l-0.1-0.1v-0.2
		l0-12.1l0.1-12.1l0.1-12.1c0-2,0.1-4,0.2-6.1s0.1-4,0.4-6c-0.2,2-0.2,4-0.2,6.1v6.1l0.1,12.1l0.5,24.3l-0.1-0.3
		c13.1,17.5,26.1,35.1,39,52.8c6.4,8.9,12.8,17.7,19.1,26.7c1.6,2.2,3.1,4.5,4.7,6.8c0.8,1.1,1.5,2.3,2.2,3.5l0.3,0.5
		c0.1,0.2,0.2,0.5,0.3,0.7c0,0.1,0,0.2,0,0.3c0,0.4-0.3,0.8-0.7,0.9l-0.2,0h-0.1l-0.3,0.1l-0.5,0.1c-0.7,0.1-1.4,0.2-2.1,0.3
		c-5.5,0.6-11,0.8-16.4,1.1c-21.9,1-43.8,1.4-65.6,1.3c-10.9,0-21.9-0.1-32.8-0.5c-5.5-0.2-10.9-0.5-16.4-0.9
		c-2.7-0.2-5.5-0.4-8.2-0.8c-1.4-0.2-2.7-0.4-4.1-0.7c-0.7-0.1-1.3-0.3-2-0.5c-0.3-0.1-0.6-0.3-0.9-0.4
		C263.2,436,262.9,435.8,262.8,435.5z"></path><g><defs><path id="SVGID_1_" d="M314.5,378.6c0,0-44.1,54.9-39.1,54.1s127.3,8.3,129.1,0s-37.1-54.1-37.1-54.1H314.5z"></path></defs><clipPath id="SVGID_2_"><use xlink:href="#SVGID_1_" style="overflow: visible;"></use></clipPath><g class="st11"><path class="st4" d="M418.2,473H418l-216.1-68c-0.3-0.1-0.4-0.3-0.3-0.6c0,0,0,0,0,0c0.1-0.3,0.4-0.4,0.6-0.3c0,0,0,0,0,0
				l216.1,68c0.3,0.1,0.4,0.4,0.3,0.6c0,0,0,0,0,0C418.6,472.9,418.4,473,418.2,473z"></path><path class="st4" d="M422.5,457.7c0,0-0.1,0-0.1,0l-216.8-64c-0.3-0.1-0.4-0.4-0.3-0.6c0.1-0.3,0.4-0.4,0.6-0.3l216.8,64
				c0.3,0.1,0.4,0.4,0.3,0.6C422.9,457.6,422.7,457.7,422.5,457.7z"></path><path class="st4" d="M426.6,443.5c0,0-0.1,0-0.1,0l-217.3-62.2c-0.3-0.1-0.4-0.4-0.3-0.6c0.1-0.3,0.3-0.4,0.6-0.3c0,0,0,0,0,0
				l217.3,62.2c0.3,0.1,0.4,0.4,0.3,0.6C427,443.3,426.8,443.5,426.6,443.5z"></path><path class="st4" d="M430.5,430h-0.1l-217.8-60.9c-0.3-0.1-0.4-0.4-0.4-0.6c0.1-0.3,0.4-0.4,0.6-0.4L430.6,429
				c0.3,0,0.5,0.3,0.4,0.6S430.7,430,430.5,430z"></path><path class="st4" d="M434.6,415.4h-0.1l-218.9-56.5c-0.3-0.1-0.4-0.3-0.4-0.6s0.3-0.4,0.6-0.4l218.9,56.5
				c0.3,0.1,0.4,0.3,0.4,0.6c0,0,0,0,0,0C435.1,415.3,434.9,415.4,434.6,415.4z"></path><path class="st4" d="M438.2,403.1h-0.1L218.8,348c-0.3-0.1-0.4-0.3-0.4-0.6c0,0,0,0,0,0c0.1-0.3,0.3-0.4,0.6-0.4l219.3,55.1
				c0.3,0.1,0.4,0.3,0.4,0.6C438.6,403,438.4,403.1,438.2,403.1z"></path><path class="st4" d="M440.4,395.3h-0.1l-219.5-54.4c-0.3-0.1-0.4-0.3-0.4-0.6c0.1-0.3,0.3-0.4,0.6-0.4l219.5,54.4
				c0.3,0,0.5,0.3,0.4,0.6S440.7,395.3,440.4,395.3L440.4,395.3z"></path><path class="st4" d="M442.4,388.6h-0.1L223.3,332c-0.3-0.1-0.4-0.3-0.4-0.6s0.3-0.4,0.6-0.4l218.9,56.5c0.3,0,0.5,0.3,0.4,0.6
				S442.6,388.5,442.4,388.6L442.4,388.6z"></path><path class="st4" d="M243.6,470.5h-0.1c-0.3-0.1-0.4-0.3-0.3-0.6c0,0,0,0,0,0l52.4-183.1c0.1-0.3,0.4-0.4,0.6-0.4
				c0.3,0.1,0.4,0.4,0.4,0.6L244,470.1C243.9,470.3,243.8,470.4,243.6,470.5z"></path><path class="st4" d="M232.5,467h-0.1c-0.3-0.1-0.4-0.4-0.3-0.6l54-180.1c0.1-0.3,0.4-0.4,0.6-0.4c0.3,0.1,0.4,0.4,0.4,0.6
				l-54,180.1C232.9,466.9,232.7,467,232.5,467z"></path><path class="st4" d="M220.3,463.5h-0.1c-0.3-0.1-0.4-0.4-0.3-0.6l40-139.9c0.1-0.3,0.3-0.4,0.6-0.4c0,0,0,0,0,0
				c0.3,0.1,0.4,0.4,0.3,0.6l-40,139.9C220.8,463.4,220.6,463.5,220.3,463.5z"></path><path class="st4" d="M208.4,460.2h-0.1c-0.3-0.1-0.4-0.3-0.4-0.6c0,0,0,0,0,0l38.7-140.3c0.1-0.3,0.4-0.4,0.6-0.4
				c0.3,0.1,0.4,0.4,0.4,0.6l-38.8,140.3C208.8,460,208.6,460.2,208.4,460.2z"></path><path class="st4" d="M198.4,457.3h-0.1c-0.3-0.1-0.4-0.3-0.4-0.6l34.5-141.5c0.1-0.3,0.3-0.4,0.6-0.4c0.3,0.1,0.4,0.3,0.4,0.6
				l-34.5,141.5C198.9,457.1,198.7,457.3,198.4,457.3z"></path><path class="st4" d="M187.7,454.2h-0.1c-0.3-0.1-0.4-0.3-0.4-0.6l33.1-141.9c0.1-0.3,0.3-0.5,0.6-0.4c0.3,0.1,0.5,0.3,0.4,0.6
				l0,0l-33.2,141.9C188.1,454,187.9,454.2,187.7,454.2z"></path><path class="st4" d="M180.8,452.2h-0.1c-0.3-0.1-0.4-0.3-0.4-0.6c0,0,0,0,0,0l32.4-142.1c0.1-0.3,0.3-0.5,0.6-0.4
				c0.3,0.1,0.5,0.3,0.4,0.6l0,0l-32.4,142.1C181.2,452,181,452.2,180.8,452.2z"></path><path class="st4" d="M172.1,449.7H172c-0.3-0.1-0.4-0.3-0.4-0.6l34.5-141.5c0.1-0.3,0.3-0.4,0.6-0.4c0.3,0.1,0.4,0.3,0.4,0.6
				l-34.5,141.5C172.5,449.5,172.3,449.7,172.1,449.7z"></path><path class="st4" d="M285.7,492c0,0-0.1,0-0.1,0c-0.3-0.1-0.4-0.4-0.3-0.6c0,0,0,0,0,0l71.5-228.8c0.1-0.3,0.4-0.4,0.6-0.4
				s0.4,0.4,0.4,0.6l-71.5,228.8C286.2,491.9,285.9,492,285.7,492z"></path><path class="st4" d="M274.7,488.4c0,0-0.1,0-0.1,0c-0.3-0.1-0.4-0.3-0.3-0.6c0,0,0,0,0,0l67.5-229.4c0.1-0.3,0.4-0.4,0.6-0.3
				c0.3,0.1,0.4,0.4,0.3,0.6l-67.5,229.4C275.1,488.3,274.9,488.4,274.7,488.4z"></path><path class="st4" d="M262.5,484.9c0,0-0.1,0-0.1,0c-0.3-0.1-0.4-0.3-0.3-0.6c0,0,0,0,0,0l65.8-229.9c0.1-0.3,0.3-0.4,0.6-0.4
				c0,0,0,0,0,0c0.3,0.1,0.4,0.3,0.3,0.6c0,0,0,0,0,0L263,484.6C262.9,484.8,262.8,484.9,262.5,484.9z"></path><path class="st4" d="M250.6,481.6h-0.1c-0.3-0.1-0.4-0.4-0.3-0.6l64.5-230.4c0.1-0.3,0.4-0.4,0.6-0.4c0.3,0.1,0.4,0.4,0.4,0.6
				l-64.5,230.4C251,481.5,250.8,481.6,250.6,481.6z"></path><path class="st4" d="M240.6,478.7h-0.1c-0.3-0.1-0.4-0.3-0.4-0.6c0,0,0,0,0,0l60.2-231.6c0.1-0.3,0.3-0.4,0.6-0.4
				s0.4,0.3,0.4,0.6l-60.3,231.5C241.1,478.5,240.9,478.7,240.6,478.7z"></path><path class="st4" d="M229.9,475.5h-0.1c-0.3-0.1-0.4-0.3-0.4-0.6c0,0,0,0,0,0L288.3,243c0.1-0.3,0.3-0.4,0.6-0.4c0,0,0,0,0,0
				c0.3,0.1,0.4,0.3,0.4,0.6c0,0,0,0,0,0l-58.9,231.9C230.3,475.4,230.1,475.5,229.9,475.5z"></path><path class="st4" d="M223,473.6h-0.1c-0.3-0.1-0.4-0.3-0.4-0.6c0,0,0,0,0,0l58.2-232.2c0.1-0.3,0.3-0.4,0.6-0.4
				c0.3,0.1,0.4,0.3,0.4,0.6l-58.1,232.1C223.4,473.4,223.2,473.6,223,473.6z"></path><path class="st4" d="M214.3,471.1h-0.1c-0.3-0.1-0.4-0.3-0.4-0.6c0,0,0,0,0,0l60.2-231.6c0.1-0.3,0.4-0.4,0.6-0.4
				c0.3,0.1,0.4,0.4,0.4,0.6l-60.3,231.5C214.7,470.9,214.5,471.1,214.3,471.1z"></path><path class="st4" d="M411.8,376.6h-0.1l-177.8-57c-0.3-0.1-0.4-0.4-0.3-0.6c0.1-0.3,0.4-0.4,0.6-0.4l177.8,57
				c0.3,0.1,0.4,0.4,0.3,0.6c0,0,0,0,0,0C412.2,376.4,412,376.6,411.8,376.6z"></path><path class="st4" d="M416.2,361.3H416l-178.5-53c-0.3-0.1-0.4-0.4-0.3-0.6c0.1-0.3,0.3-0.4,0.6-0.3c0,0,0,0,0,0l178.5,53
				c0.3,0.1,0.4,0.4,0.3,0.6C416.6,361.2,416.4,361.3,416.2,361.3z"></path><path class="st4" d="M420.2,347.1h-0.1l-179-51.2c-0.3-0.1-0.4-0.4-0.4-0.6c0.1-0.3,0.4-0.4,0.6-0.4l179,51.2
				c0.3,0.1,0.4,0.3,0.4,0.6C420.7,346.9,420.5,347.1,420.2,347.1z"></path><path class="st4" d="M424.1,333.6c0,0-0.1,0-0.1,0l-179.5-49.9c-0.3-0.1-0.4-0.3-0.4-0.6c0,0,0,0,0,0c0.1-0.3,0.4-0.4,0.6-0.3
				l179.5,49.9c0.3,0.1,0.4,0.4,0.4,0.6C424.5,333.5,424.3,333.6,424.1,333.6z"></path><path class="st4" d="M428.3,319.1h-0.1l-180.7-45.6c-0.3-0.1-0.4-0.3-0.4-0.6c0.1-0.3,0.3-0.4,0.6-0.4l0,0L428.4,318
				c0.3,0.1,0.4,0.3,0.4,0.6C428.7,318.9,428.5,319.1,428.3,319.1z"></path><path class="st4" d="M431.8,306.7h-0.1l-181-44.2c-0.3-0.1-0.4-0.3-0.4-0.6c0.1-0.3,0.3-0.4,0.6-0.4l181,44.2
				c0.3,0.1,0.4,0.3,0.4,0.6C432.3,306.6,432.1,306.7,431.8,306.7z"></path><path class="st4" d="M434.1,298.9L434.1,298.9l-181.4-43.4c-0.3-0.1-0.4-0.3-0.4-0.6c0.1-0.3,0.3-0.4,0.6-0.4c0,0,0,0,0,0
				l181.3,43.4c0.3,0.1,0.4,0.3,0.4,0.6c0,0,0,0,0,0C434.5,298.8,434.3,298.9,434.1,298.9z"></path><path class="st4" d="M436,292.2h-0.1l-180.7-45.6c-0.3-0.1-0.4-0.3-0.4-0.6c0.1-0.3,0.3-0.4,0.6-0.4c0,0,0,0,0,0l180.7,45.5
				c0.3,0.1,0.4,0.3,0.4,0.6c0,0,0,0,0,0C436.4,292,436.2,292.2,436,292.2z"></path><path class="st4" d="M372.4,521.6c0,0-0.1,0-0.1,0c-0.3-0.1-0.4-0.4-0.3-0.6l71.5-228.8c0.1-0.3,0.4-0.4,0.6-0.3
				c0.3,0.1,0.4,0.4,0.3,0.6l-71.5,228.8C372.8,521.4,372.6,521.6,372.4,521.6z"></path><path class="st4" d="M361.4,517.9h-0.1c-0.3-0.1-0.4-0.4-0.3-0.6l67.5-229.5c0.1-0.3,0.4-0.4,0.6-0.3c0.3,0.1,0.4,0.4,0.3,0.6
				c0,0,0,0,0,0l-67.5,229.4C361.9,517.8,361.7,517.9,361.4,517.9z"></path><path class="st4" d="M349.3,514.5h-0.1c-0.3-0.1-0.4-0.4-0.3-0.6l65.8-230c0.1-0.3,0.3-0.4,0.6-0.4c0,0,0,0,0,0
				c0.3,0.1,0.4,0.4,0.3,0.6l-65.8,230C349.7,514.3,349.5,514.5,349.3,514.5z"></path><path class="st4" d="M337.3,511.2h-0.1c-0.3-0.1-0.4-0.3-0.4-0.6c0,0,0,0,0,0l64.5-230.4c0.1-0.3,0.3-0.4,0.6-0.4
				c0.3,0.1,0.4,0.3,0.4,0.6c0,0,0,0,0,0l-64.5,230.4C337.8,511,337.6,511.1,337.3,511.2z"></path><path class="st4" d="M327.4,508.2h-0.1c-0.3-0.1-0.4-0.3-0.4-0.6c0,0,0,0,0,0L387.1,276c0.1-0.3,0.3-0.4,0.6-0.4
				c0.3,0.1,0.4,0.3,0.4,0.6c0,0,0,0,0,0l-60.2,231.6C327.8,508,327.6,508.2,327.4,508.2z"></path><path class="st4" d="M316.6,505.1h-0.1c-0.3-0.1-0.4-0.3-0.4-0.6c0,0,0,0,0,0l58.9-231.9c0.1-0.3,0.3-0.4,0.6-0.4
				s0.4,0.3,0.4,0.6l-58.9,231.9C317.1,504.9,316.9,505.1,316.6,505.1z"></path><path class="st4" d="M309.7,503.1h-0.1c-0.3-0.1-0.4-0.3-0.4-0.6c0,0,0,0,0,0l58.1-232.2c0.1-0.3,0.3-0.4,0.6-0.3
				c0.3,0.1,0.4,0.3,0.4,0.6c0,0,0,0,0,0l-58.1,232.1C310.2,502.9,310,503.1,309.7,503.1z"></path><path class="st4" d="M301,500.6h-0.1c-0.3-0.1-0.4-0.3-0.4-0.6c0,0,0,0,0,0l60.2-231.6c0.1-0.3,0.3-0.4,0.6-0.4s0.4,0.3,0.4,0.6
				l-60.3,231.5C301.5,500.4,301.3,500.6,301,500.6z"></path></g></g><path class="st3" d="M344.7,270.7c1.8-2.2,3.3-4.7,4.5-7.3c0.5-1.1,0.5-2.4,0-3.5c-0.3-0.5-0.7-0.9-1.2-1.2
		c-0.1-0.1-0.3-0.2-0.4-0.2l-0.5-0.3l-0.5-0.3l-0.5-0.4c-0.7-0.6-1.2-1.2-1.6-2c-0.4-0.7-0.6-1.6-0.8-2.4c-0.2-1.6-0.1-3.1,0.3-4.7
		c0.7-2.9,2-5.6,3.8-8.1c-1,2.7-1.8,5.5-2.3,8.4c-0.2,1.3-0.2,2.7,0,4.1c0.1,0.6,0.3,1.2,0.6,1.8c0.3,0.5,0.7,1,1.2,1.4l0.4,0.3
		l0.4,0.2l0.5,0.3c0.2,0.1,0.4,0.2,0.5,0.3c0.8,0.5,1.4,1.2,1.8,2c0.4,0.8,0.5,1.7,0.4,2.6c-0.1,0.8-0.3,1.6-0.7,2.4
		c-0.7,1.4-1.5,2.7-2.6,3.8C347.1,268.8,345.9,269.8,344.7,270.7z"></path><path class="st3" d="M335.5,274.2c1.8-2.2,3.3-4.7,4.4-7.3c0.5-1.1,0.5-2.4,0-3.5c-0.3-0.5-0.7-0.9-1.2-1.2
		c-0.1-0.1-0.3-0.2-0.4-0.2l-0.5-0.3l-0.5-0.3l-0.5-0.4c-0.7-0.6-1.2-1.2-1.6-2c-0.4-0.7-0.6-1.6-0.8-2.4c-0.2-1.6-0.1-3.1,0.3-4.7
		c0.7-2.9,2-5.7,3.8-8.1c-1,2.7-1.8,5.5-2.3,8.4c-0.2,1.3-0.2,2.7,0,4.1c0.1,0.6,0.3,1.2,0.6,1.8c0.3,0.5,0.7,1,1.2,1.4l0.4,0.3
		l0.4,0.2l0.5,0.3c0.2,0.1,0.4,0.2,0.5,0.3c0.8,0.5,1.4,1.2,1.8,2c0.4,0.8,0.5,1.7,0.4,2.6c-0.1,0.8-0.3,1.6-0.7,2.4
		c-0.7,1.4-1.5,2.6-2.6,3.8C337.8,272.4,336.7,273.4,335.5,274.2z"></path></g><g id="bubble"><circle class="st2" cx="375.2" cy="51.1" r="7.1"></circle><circle class="st2" cx="423.7" cy="119.6" r="7.7"></circle><circle class="st2" cx="222.3" cy="120.8" r="10.2"></circle><circle class="st2" cx="297.1" cy="51.1" r="7.7"></circle><circle class="st2" cx="404.5" cy="189.8" r="7.1"></circle></g></svg>