<svg width="165" height="166" viewBox="0 0 165 166" fill="none" xmlns="http://www.w3.org/2000/svg">
<path d="M86.8418 154.178V155.69H77.8361V154.178H81.4668V144.053H83.2168V154.178H86.8418Z" fill="#1B1B1B"/>
<path d="M68.2858 147.768L69.5259 142.737L71.1754 143.144L68.3906 154.442L66.7632 154.041L67.7993 149.837L67.6945 149.811C67.3835 150.218 66.9907 150.506 66.5163 150.674C66.0419 150.841 65.4756 150.844 64.8172 150.682C64.2361 150.539 63.7581 150.294 63.383 149.948C63.0043 149.601 62.7538 149.161 62.6317 148.628C62.505 148.097 62.5287 147.479 62.7027 146.773L64.0312 141.383L65.6807 141.789L64.4012 146.981C64.248 147.602 64.2892 148.123 64.5249 148.544C64.7596 148.969 65.162 149.251 65.7321 149.392C66.122 149.488 66.4917 149.491 66.8415 149.402C67.1875 149.312 67.4882 149.128 67.7437 148.852C67.9945 148.578 68.1752 148.217 68.2858 147.768Z" fill="#1B1B1B"/>
<path d="M54.4952 137.401L50.4395 145.128L48.9352 144.339L52.9909 136.611L54.4952 137.401ZM49.054 145.922C49.3156 146.059 49.4945 146.264 49.5908 146.537C49.682 146.812 49.6633 147.072 49.5348 147.316C49.4046 147.565 49.2014 147.727 48.9254 147.805C48.6443 147.884 48.3729 147.855 48.1113 147.718C47.8497 147.581 47.6733 147.375 47.5822 147.1C47.4859 146.827 47.5029 146.567 47.6331 146.318C47.7616 146.073 47.9664 145.911 48.2476 145.832C48.5236 145.755 48.7924 145.785 49.054 145.922Z" fill="#1B1B1B"/>
<path d="M39.5517 133.745L42.9879 129.866L44.2595 130.993L38.4723 137.525L37.2517 136.444L38.1936 135.381L38.1128 135.309C37.6561 135.522 37.1746 135.591 36.6684 135.517C36.1593 135.441 35.6595 135.185 35.169 134.751C34.7238 134.356 34.4169 133.917 34.2481 133.434C34.0768 132.953 34.061 132.448 34.2008 131.919C34.3405 131.39 34.649 130.856 35.1262 130.318L38.8073 126.163L40.0789 127.289L36.5335 131.291C36.114 131.765 35.9096 132.244 35.9201 132.729C35.9282 133.217 36.1477 133.652 36.5786 134.034C36.8735 134.295 37.1923 134.463 37.535 134.539C37.8748 134.613 38.2206 134.585 38.5724 134.456C38.9189 134.328 39.2453 134.091 39.5517 133.745Z" fill="#1B1B1B"/>
<path d="M30.0636 120.318L28.3633 121.505L28.1954 121.262L23.1807 120.498L22.0252 118.824L27.7384 119.7L27.8901 119.92L30.0636 120.318ZM33.3874 119.922L23.8109 126.532L22.8458 125.134L32.4223 118.524L33.3874 119.922ZM30.2566 115.386L28.6183 120.314L26.9761 120.026L29.072 113.67L30.2566 115.386Z" fill="#1B1B1B"/>
<path d="M17.2858 90.0859C17.3233 90.3942 17.2464 90.6726 17.0553 90.9209C16.8604 91.1697 16.6068 91.313 16.2947 91.3509C15.9864 91.3884 15.7097 91.3094 15.4647 91.114C15.2159 90.9191 15.0728 90.6675 15.0353 90.3592C14.9979 90.0508 15.0766 89.7722 15.2715 89.5235C15.4627 89.2751 15.7125 89.1322 16.0208 89.0948C16.2276 89.0697 16.4239 89.0993 16.6096 89.1835C16.7912 89.2645 16.943 89.3835 17.0651 89.5403C17.1871 89.6972 17.2607 89.8791 17.2858 90.0859Z" fill="#1B1B1B"/>
<path d="M18.6059 54.6115C18.2447 54.592 17.9037 54.6207 17.5828 54.6975C17.2598 54.7695 16.963 54.8898 16.6924 55.0586C16.4182 55.2261 16.1755 55.4439 15.9644 55.7123C15.7546 55.9771 15.5812 56.2901 15.4442 56.6513C15.2118 57.264 15.1599 57.8763 15.2884 58.4882C15.4169 59.1 15.7314 59.6649 16.2317 60.1828C16.7299 60.6958 17.4182 61.1189 18.2965 61.452C19.1784 61.7865 19.9783 61.9258 20.6963 61.8699C21.4143 61.8141 22.0256 61.5962 22.5302 61.2164C23.0348 60.8366 23.408 60.3279 23.6498 59.6904C23.8741 59.0989 23.9491 58.5379 23.8748 58.0074C23.8019 57.4733 23.5915 57.0026 23.2437 56.5952C22.8936 56.1829 22.4193 55.8633 21.8208 55.6363L22.0617 55.2415L20.881 58.3547L19.5263 57.8409L21.1482 53.5643L22.386 54.0337C23.2998 54.3803 24.0193 54.876 24.5444 55.5208C25.0674 56.1607 25.3817 56.8916 25.4872 57.7135C25.5941 58.5318 25.481 59.3802 25.1479 60.2585C24.7745 61.2431 24.2201 62.0214 23.4847 62.5932C22.7506 63.1615 21.8888 63.495 20.8994 63.5937C19.9064 63.6911 18.8361 63.5222 17.6886 63.087C16.8209 62.7579 16.0874 62.342 15.4881 61.8392C14.8888 61.3365 14.4309 60.7759 14.1144 60.1576C13.7958 59.5344 13.6211 58.8788 13.5904 58.1906C13.5575 57.4975 13.6747 56.7986 13.942 56.0938C14.165 55.5059 14.4593 54.9916 14.8249 54.5509C15.1919 54.1067 15.61 53.7467 16.0791 53.4709C16.5497 53.1916 17.0542 53.0042 17.5928 52.9087C18.1278 52.8118 18.6784 52.818 19.2446 52.9274L18.6059 54.6115Z" fill="#1B1B1B"/>
<path d="M30.6047 49.1624L23.4223 44.2047L24.3551 42.8533L25.496 43.6409L25.5477 43.5661C25.2515 43.1683 25.1068 42.7278 25.1135 42.2446C25.1193 41.7561 25.2675 41.3015 25.558 40.8806C25.6182 40.7933 25.6923 40.6926 25.7803 40.5785C25.8705 40.4612 25.9439 40.3715 26.0006 40.3094L27.338 41.2325C27.2836 41.2778 27.1976 41.3657 27.0799 41.4962C26.9591 41.6246 26.8493 41.7604 26.7503 41.9038C26.5222 42.2343 26.389 42.5773 26.3507 42.9329C26.3114 43.2832 26.3632 43.6181 26.5062 43.9377C26.6461 44.2552 26.8719 44.5215 27.1836 44.7367L31.5698 47.7642L30.6047 49.1624Z" fill="#1B1B1B"/>
<path d="M41.6515 36.6067C41.0391 37.1493 40.3803 37.4824 39.6752 37.6061C38.97 37.7298 38.2677 37.6511 37.5683 37.37C36.8688 37.0889 36.2202 36.6109 35.6224 35.9361C35.0221 35.2585 34.6232 34.5541 34.426 33.8231C34.2287 33.092 34.234 32.3839 34.4418 31.6988C34.6496 31.0137 35.0597 30.3999 35.6721 29.8573C36.2845 29.3148 36.9433 28.9817 37.6485 28.8579C38.3536 28.7342 39.0572 28.8144 39.7591 29.0983C40.4611 29.3823 41.1122 29.8631 41.7125 30.5407C42.3104 31.2155 42.7066 31.917 42.9014 32.6452C43.0962 33.3735 43.0897 34.0801 42.8818 34.7652C42.674 35.4503 42.2639 36.0641 41.6515 36.6067ZM40.7101 35.5355C41.107 35.1838 41.343 34.7875 41.4179 34.3466C41.4929 33.9057 41.4383 33.4556 41.2541 32.9964C41.0727 32.5346 40.7961 32.0939 40.4244 31.6743C40.0552 31.2575 39.6523 30.9313 39.2157 30.6956C38.7795 30.4545 38.3368 30.3432 37.8875 30.3617C37.4383 30.3801 37.0152 30.5651 36.6183 30.9168C36.2185 31.271 35.981 31.6712 35.9057 32.1174C35.8332 32.5612 35.8889 33.0153 36.0728 33.4799C36.257 33.9392 36.5337 34.3772 36.903 34.794C37.2747 35.2136 37.6775 35.5425 38.1112 35.7808C38.5477 36.0165 38.9893 36.1237 39.4361 36.1024C39.8856 36.0786 40.3103 35.8896 40.7101 35.5355Z" fill="#1B1B1B"/>
<path d="M50.8861 29.5471L44.5563 23.0129L46.1109 22.197L50.6037 27.0772L50.6791 27.0376L49.2201 20.5652L50.7746 19.7493L55.2492 24.607L55.3247 24.5674L53.8637 18.1281L55.4182 17.3122L57.205 26.2306L55.6706 27.036L51.1726 22.2804L51.0569 22.3412L52.4155 28.7444L50.8861 29.5471Z" fill="#1B1B1B"/>
<path d="M82.6728 17.0398C82.3622 17.0398 82.0952 16.9299 81.8717 16.7102C81.6482 16.4867 81.5365 16.2178 81.5365 15.9034C81.5365 15.5928 81.6482 15.3277 81.8717 15.108C82.0952 14.8845 82.3622 14.7727 82.6728 14.7727C82.9834 14.7727 83.2505 14.8845 83.474 15.108C83.6974 15.3277 83.8092 15.5928 83.8092 15.9034C83.8092 16.1117 83.7562 16.303 83.6501 16.4773C83.5478 16.6477 83.4115 16.7841 83.241 16.8864C83.0705 16.9886 82.8812 17.0398 82.6728 17.0398Z" fill="#1B1B1B"/>
<path d="M117.113 18.1519L111.706 28.4554L110.151 27.6395L115.559 17.336L117.113 18.1519Z" fill="#1B1B1B"/>
<path d="M125.118 31.308L121.682 35.1866L120.41 34.06L126.198 27.5276L127.418 28.6089L126.476 29.6722L126.557 29.7437C127.014 29.531 127.495 29.4616 128.002 29.5356C128.511 29.6122 129.01 29.8677 129.501 30.3022C129.946 30.6966 130.253 31.1355 130.422 31.6191C130.593 32.0998 130.609 32.6046 130.469 33.1336C130.329 33.6626 130.021 34.1965 129.544 34.7352L125.863 38.8903L124.591 37.7637L128.136 33.7618C128.556 33.2883 128.76 32.809 128.75 32.324C128.742 31.8361 128.522 31.4012 128.091 31.0194C127.796 30.7582 127.478 30.5897 127.135 30.5138C126.795 30.4404 126.449 30.4681 126.098 30.5967C125.751 30.725 125.425 30.962 125.118 31.308Z" fill="#1B1B1B"/>
<path d="M136.132 43.0351L131.868 45.9787L130.903 44.5806L138.085 39.6229L139.011 40.965L137.842 41.7719L137.904 41.8607C138.398 41.7634 138.882 41.8113 139.356 42.0043C139.832 42.2005 140.256 42.5682 140.628 43.1075C140.966 43.5969 141.159 44.0966 141.207 44.6064C141.259 45.1142 141.153 45.6081 140.891 46.0883C140.629 46.5685 140.201 47.013 139.609 47.4219L135.04 50.5753L134.075 49.1771L138.476 46.1399C138.996 45.7806 139.309 45.3642 139.415 44.8907C139.524 44.4151 139.415 43.9403 139.088 43.4665C138.864 43.1423 138.595 42.9024 138.28 42.7467C137.968 42.5941 137.626 42.5382 137.253 42.5789C136.886 42.6205 136.513 42.7726 136.132 43.0351Z" fill="#1B1B1B"/>
<path d="M139.698 60.7693C139.408 60.0043 139.33 59.2702 139.465 58.567C139.599 57.8638 139.922 57.2351 140.432 56.6808C140.943 56.1265 141.62 55.6895 142.463 55.3698C143.31 55.0488 144.11 54.9256 144.863 55.0004C145.617 55.0752 146.277 55.3312 146.844 55.7685C147.411 56.2057 147.839 56.8068 148.129 57.5718C148.419 58.3368 148.497 59.071 148.363 59.7741C148.229 60.4773 147.904 61.1068 147.39 61.6624C146.875 62.2181 146.195 62.6564 145.348 62.9774C144.505 63.2971 143.709 63.4189 142.959 63.3428C142.209 63.2666 141.551 63.0099 140.984 62.5727C140.417 62.1355 139.988 61.5343 139.698 60.7693ZM141.034 60.2689C141.222 60.7648 141.509 61.1259 141.894 61.3523C142.28 61.5788 142.72 61.6873 143.215 61.6779C143.711 61.6721 144.221 61.5698 144.745 61.371C145.266 61.1736 145.714 60.9125 146.089 60.5879C146.469 60.2655 146.73 59.8911 146.872 59.4645C147.014 59.0379 146.991 58.5767 146.803 58.0808C146.614 57.5815 146.324 57.2175 145.933 56.9888C145.544 56.7637 145.1 56.6548 144.6 56.6619C144.105 56.6713 143.598 56.7747 143.077 56.9722C142.553 57.171 142.102 57.4309 141.726 57.7519C141.351 58.0765 141.094 58.4514 140.955 58.8767C140.818 59.3055 140.844 59.7695 141.034 60.2689Z" fill="#1B1B1B"/>
<path d="M152.609 78.4439L143.564 76.3542L143.345 74.5493L151.626 70.35L151.846 72.1606L145.446 75.1642L145.456 75.2544L152.389 76.6334L152.609 78.4439Z" fill="#1B1B1B"/>
<path d="M143.285 89.3914C143.352 88.8424 143.514 88.3583 143.771 87.9393C144.031 87.5207 144.373 87.2054 144.796 86.9934C145.218 86.7852 145.713 86.7156 146.28 86.7845C146.769 86.8439 147.16 86.9867 147.453 87.2131C147.746 87.4395 147.965 87.7236 148.111 88.0656C148.256 88.4076 148.352 88.7818 148.398 89.188C148.444 89.5942 148.467 90.0053 148.466 90.4211C148.463 90.9473 148.461 91.3744 148.459 91.7023C148.461 92.0307 148.499 92.2737 148.571 92.4313C148.643 92.5889 148.781 92.6801 148.984 92.7047L149.024 92.7095C149.516 92.7693 149.915 92.6766 150.219 92.4312C150.523 92.1895 150.709 91.7961 150.775 91.2509C150.844 90.6831 150.772 90.2203 150.56 89.8626C150.351 89.5091 150.102 89.2518 149.812 89.0907L150.366 87.5496C150.869 87.8015 151.261 88.1276 151.54 88.5279C151.823 88.9323 152.009 89.3804 152.098 89.872C152.191 90.364 152.206 90.8714 152.143 91.394C152.101 91.74 152.015 92.1016 151.885 92.4789C151.758 92.8603 151.567 93.2073 151.312 93.5197C151.056 93.8358 150.716 94.0788 150.291 94.2485C149.869 94.4186 149.343 94.4653 148.711 94.3886L142.958 93.6901L143.158 92.0431L144.342 92.1869L144.351 92.1192C144.146 91.9837 143.951 91.7941 143.767 91.5504C143.583 91.3068 143.442 91.0054 143.345 90.6463C143.247 90.2872 143.227 89.8689 143.285 89.3914ZM144.594 89.9224C144.538 90.3886 144.582 90.7984 144.726 91.1517C144.869 91.5087 145.079 91.7918 145.355 92.0008C145.634 92.2141 145.945 92.3415 146.287 92.383L147.404 92.5186C147.351 92.4511 147.309 92.3277 147.277 92.1484C147.249 91.9732 147.229 91.7743 147.218 91.5516C147.211 91.3294 147.205 91.1131 147.2 90.9026C147.199 90.6926 147.197 90.5169 147.195 90.3755C147.193 90.0433 147.16 89.736 147.095 89.4533C147.03 89.1745 146.915 88.943 146.75 88.759C146.589 88.5791 146.358 88.4709 146.057 88.4344C145.64 88.3837 145.305 88.4996 145.053 88.7819C144.805 89.0646 144.652 89.4448 144.594 89.9224Z" fill="#1B1B1B"/>
<path d="M147.108 109.852L145.833 109.368L147.523 104.911L148.798 105.395L147.108 109.852ZM150.3 107.331L149.698 108.92L141.979 105.992C141.67 105.875 141.421 105.834 141.23 105.866C141.043 105.901 140.894 105.98 140.782 106.104C140.672 106.232 140.585 106.383 140.519 106.557C140.47 106.684 140.437 106.799 140.418 106.902C140.4 107.004 140.386 107.084 140.376 107.141L138.955 106.93C138.955 106.825 138.969 106.68 138.998 106.497C139.024 106.312 139.083 106.091 139.176 105.835C139.328 105.414 139.55 105.053 139.842 104.751C140.135 104.449 140.487 104.248 140.897 104.148C141.308 104.049 141.759 104.092 142.252 104.279L150.3 107.331Z" fill="#1B1B1B"/>
<path d="M132.707 117.549C133.195 116.841 133.767 116.336 134.423 116.034C135.079 115.736 135.779 115.639 136.522 115.743C137.266 115.851 138.011 116.163 138.756 116.677C139.491 117.185 140.045 117.77 140.417 118.431C140.787 119.096 140.958 119.785 140.93 120.498C140.901 121.214 140.656 121.906 140.196 122.573C139.916 122.978 139.578 123.325 139.181 123.612C138.785 123.9 138.339 124.096 137.843 124.201C137.348 124.305 136.81 124.287 136.232 124.145C135.656 124.005 135.042 123.711 134.391 123.261L133.895 122.919L137.836 117.209L138.884 117.932L135.888 122.272C136.256 122.526 136.634 122.676 137.021 122.722C137.411 122.77 137.782 122.716 138.134 122.559C138.485 122.404 138.785 122.147 139.034 121.785C139.305 121.392 139.445 120.983 139.454 120.556C139.464 120.135 139.37 119.738 139.171 119.366C138.973 119 138.695 118.693 138.336 118.445L137.518 117.88C137.038 117.549 136.571 117.351 136.119 117.287C135.664 117.226 135.242 117.287 134.853 117.47C134.468 117.655 134.134 117.952 133.852 118.36C133.669 118.625 133.54 118.892 133.464 119.162C133.391 119.434 133.377 119.703 133.42 119.967C133.463 120.231 133.567 120.483 133.734 120.722L132.582 121.881C132.265 121.506 132.055 121.08 131.952 120.604C131.849 120.132 131.858 119.635 131.98 119.112C132.103 118.593 132.345 118.073 132.707 117.549Z" fill="#1B1B1B"/>
<path d="M112.47 140.669C112.745 140.525 113.033 140.498 113.333 140.588C113.635 140.682 113.859 140.869 114.005 141.147C114.149 141.422 114.173 141.709 114.078 142.007C113.984 142.309 113.799 142.532 113.524 142.676C113.249 142.821 112.961 142.846 112.659 142.752C112.359 142.661 112.137 142.478 111.992 142.203C111.895 142.019 111.854 141.825 111.866 141.621C111.878 141.423 111.935 141.239 112.039 141.069C112.142 140.899 112.286 140.766 112.47 140.669Z" fill="#1B1B1B"/>
</svg>
