<svg transform="scale(1)" version="1.1" id="Layer_1" xmlns="http://www.w3.org/2000/svg" xmlns:xlink="http://www.w3.org/1999/xlink" x="0px" y="0px" viewBox="0 0 500 500" xml:space="preserve" class="show_show__wrapper__graphic__5Waiy "><title>React</title><style type="text/css">
	.st0{fill:#000001;}
	.st1{fill:#A04040;}
	.st2{fill:#EA8383;}
	.st3{fill:#F3CB5C;}
	.st4{fill:#F2EBEB;}
	.st5{fill:#469F78;}
	.st6{fill:#FFFFFF;}
	.st7{fill:#87CCDB;}
</style><g id="character-3"><path class="st0" d="M133.3,184.6c-15.8-3.5-32.8,17.8-29.3,34.8s17.5,16,27.4,13.6s19.9-36.6,19.9-36.6s5.5-1.9,2.5-6.8
		c-1.7-2.8-5.1-4.1-8.2-3.1c0,0,2-4-1.9-5.4C135.8,178.1,133.3,184.6,133.3,184.6z"></path><path class="st1" d="M134.6,210.4c0,0,0-9-5.5-4.6s4.2,10.2,3.6,11.7c-1.1,3.2-8.2,20.5-8,25.2c0,0.5,14.2,12,21,12.2
		c1.9,0.1-1.5-3.6-2.4-13.7c-0.4-4.7,1.5-3.8,8.5-8.3c9.8-6.3,6.7-17.4,6.7-17.4s10.4-4.4,10.3-6.1s-8.9-7.7-13.1-11.6
		s-12-7.8-12-7.8s0.8,4.7-2.4,6.3c0,0,0.6,5.2-2.8,5.8c0,0,0.8,5-2.3,4.7C136.1,207,136.3,210.3,134.6,210.4z"></path><path class="st2" d="M143.7,219.2c0.6-0.8,1.8-1.1,2.7-0.6c1.5,0.9-1,4.8-3.4,4.2S143.7,219.2,143.7,219.2z"></path><path class="st0" d="M143.4,217c0.3,0.6,0.6,1.1,0.9,1.6c0.3,0.4,0.6,0.8,0.9,1.1c0.4,0.3,0.8,0.7,1.2,0.9l0.7,0.5
		c0.3,0.2,0.6,0.4,0.8,0.6c-0.3,0.2-0.7,0.3-1,0.4c-0.4,0-0.7,0-1.1,0c-0.8-0.1-1.5-0.5-2-1c-0.6-0.6-0.9-1.3-1-2.1
		C142.8,218.4,142.9,217.6,143.4,217z"></path><path class="st0" d="M143.6,201.9c0.2-0.7,0.6-1.3,1.2-1.7c0.6-0.4,1.2-0.7,1.9-0.8c0.7-0.1,1.5,0,2.1,0.2c0.7,0.3,1.2,0.8,1.5,1.5
		c-0.8,0.1-1.3,0-1.9,0.1s-1,0.1-1.5,0.2C146.1,201.5,145.1,201.8,143.6,201.9z"></path><path class="st0" d="M146.1,205.1c0.8-0.6,2-0.6,2.8,0c0.4,0.3,0.7,0.7,0.9,1.1c0.2,0.5,0.2,1,0.1,1.5c-0.4-0.1-0.8-0.3-1.2-0.5
		c-0.3-0.1-0.6-0.3-0.9-0.5c-0.3-0.2-0.5-0.4-0.8-0.6C146.7,205.8,146.4,205.4,146.1,205.1z"></path><path class="st0" d="M146.6,210.7c-0.3-0.1-0.6-0.3-0.8-0.5c-0.1-0.2-0.2-0.4-0.1-0.6c0.1-0.2,0.2-0.4,0.4-0.5
		c0.3-0.2,0.6-0.2,0.9,0c0.1,0.2,0.3,0.5,0.4,0.7c0.1,0.1,0.1,0.2,0.1,0.3s-0.1,0.1-0.3,0.2C147.1,210.5,146.8,210.6,146.6,210.7z"></path><path class="st0" d="M144.6,210.6c-0.3-0.1-0.6-0.3-0.8-0.5c-0.1-0.2-0.2-0.4-0.1-0.6c0.1-0.2,0.2-0.4,0.4-0.5
		c0.3-0.2,0.6-0.2,0.9,0c0.1,0.2,0.3,0.5,0.5,0.7c0.1,0.1,0.1,0.2,0.1,0.3s-0.1,0.1-0.3,0.2C145.2,210.4,144.9,210.5,144.6,210.6z"></path><path class="st0" d="M101.6,203c0,0-3.6-4.9-12.1-2.6s-26.3,13.8-26.3,13.8s2.2,13,9.5,14.2C72.7,228.4,103.2,213.5,101.6,203z"></path><path class="st1" d="M141.9,190.1c-0.5,2.3-1.4,4.5-2.8,6.4c-0.7,1.1-1.7,2-2.8,2.6c-1.1,0.5-2.3,0.4-3.3-0.2
		c-0.3-0.1-0.6-0.3-0.8-0.5c-0.7-0.4-1.2-1.1-1.4-1.9c-0.1-0.6,0-1.2,0.3-1.6c0.4-0.5,1-0.8,1.6-0.7c0.2,0,0.4,0.1,0.6,0.2
		c0.2,0.2,0.3,0.3,0.4,0.6c0,0.1,0.1,0.2,0.1,0.3v0.1v0.3c0,0.3,0,0.7-0.1,1c-0.1,0.6-0.3,1.2-0.6,1.8c-0.3,0.6-0.6,1.1-1.1,1.6
		c-0.5,0.5-1,0.8-1.6,1.1c-1.2,0.3-2.5,0.2-3.5-0.4c1.1,0.2,2.2,0,3.1-0.5c0.8-0.5,1.4-1.4,1.6-2.3c0.1-0.5,0.2-1,0.3-1.5
		c0-0.2,0-0.5,0-0.7v-0.1l0,0c0,0,0,0.1,0,0.1c0.1,0.2,0.2,0.3,0.4,0.3h0.1c0,0,0-0.1,0,0c0.2,0.3,0.4,0.5,0.7,0.7
		c0.4,0.3,0.7,0.5,1.2,0.6c0.4,0.1,0.7,0.1,1.1-0.1c0.9-0.4,1.7-1,2.3-1.8C139.3,193.9,140.7,192.1,141.9,190.1z"></path><path class="st1" d="M110.9,203.5c2.6-1.4,4.9-3.3,6.7-5.6c0.8-1.1,1.3-2.4,1.6-3.8c0.1-0.3,0.1-0.6,0.1-0.9c0-0.1,0-0.2,0-0.3
		c0,0,0,0.1,0.2,0.2s0.3,0,0.2,0c-0.1,0-0.1,0.1-0.2,0.1c-0.1,0.1-0.2,0.2-0.2,0.4c0-0.1,0-0.1-0.1-0.1l0,0l0.1,0.1l0.2,0.1
		c0.2,0.2,0.4,0.3,0.7,0.3c0.5,0.1,1,0.1,1.4-0.2c0.5-0.3,1-0.8,1.3-1.3c0.4-0.6,0.7-1.2,1-1.9c0.6-1.5,1.7-2.8,3-3.7
		c1.3-0.9,2.8-1.4,4.4-1.4c-1.4,0.4-2.7,1.2-3.8,2.2c-1,1-1.7,2.2-2.2,3.5c-0.3,0.8-0.6,1.5-1,2.2c-0.4,0.8-1,1.5-1.7,2
		c-0.9,0.6-1.9,0.8-2.9,0.5c-0.5-0.1-0.9-0.3-1.3-0.6c-0.1-0.1-0.2-0.2-0.3-0.2l-0.1-0.1l-0.2-0.2c-0.2-0.4-0.4-0.8-0.3-1.2
		c0.1-0.6,0.4-1.2,0.8-1.6c0.2-0.2,0.5-0.4,0.7-0.5c0.4-0.2,0.9-0.2,1.3-0.1c0.5,0.2,0.8,0.6,0.9,1.1c0.1,0.3,0.1,0.5,0.1,0.8
		c0,0.4-0.1,0.9-0.2,1.3c-0.4,1.6-1.1,3.1-2.2,4.4C116.8,201.2,114,202.8,110.9,203.5z"></path><path class="st1" d="M101.6,203c-1.7-0.3-3.4-0.4-5.1-0.5c-1.7-0.1-3.3,0.1-4.9,0.5c-0.4,0.1-0.8,0.2-1.1,0.4s-0.7,0.3-1,0.5
		l-0.4,0.3c-0.2,0.1-0.3,0.2-0.4,0.4c-0.3,0.3-0.5,0.6-0.7,0.9c-1,1.4-2.1,2.8-3.3,4.1c-0.6,0.7-1.4,1.3-2.1,1.8
		c-0.8,0.5-1.7,0.9-2.6,1.2c-0.9,0.2-1.9,0.3-2.8,0.3c-0.4,0-0.9-0.1-1.3-0.1s-0.8-0.1-1.2-0.1c-1.6,0-3.3,0.3-4.8,0.9
		c-0.8,0.3-1.5,0.6-2.2,1.1c-0.4,0.2-0.7,0.5-1,0.8c-0.3,0.3-0.6,0.7-0.3,1c-0.2-0.1-0.3-0.4-0.2-0.6c0.1-0.2,0.1-0.4,0.3-0.6
		c0.3-0.4,0.6-0.7,0.9-1c0.7-0.6,1.4-1.1,2.2-1.5c1.6-0.9,3.3-1.4,5.2-1.5c0.5,0,0.9,0,1.4,0h1.2c0.8,0,1.6-0.1,2.3-0.4
		c0.7-0.2,1.4-0.6,2-1c0.6-0.4,1.2-1,1.8-1.5c1.1-1.2,2.2-2.5,3.2-3.9c0.3-0.4,0.6-0.7,1-1.1c0.2-0.2,0.4-0.3,0.6-0.5l0.6-0.4
		c0.4-0.2,0.9-0.4,1.3-0.6c0.5-0.1,0.9-0.3,1.4-0.3c1.8-0.3,3.6-0.2,5.3,0.1C98.3,201.8,100,202.3,101.6,203z"></path><path class="st1" d="M93.1,209.4c-1.4,0.6-2.7,1.5-3.7,2.7c-0.5,0.6-1,1.1-1.4,1.8l-0.3,0.5l-0.4,0.5c-0.3,0.3-0.6,0.6-0.9,0.9
		c-2.6,2.1-5.6,3.5-8.9,4.1c-0.9,0.2-1.8,0.2-2.7,0.1c-0.4-0.1-0.7-0.2-1-0.4c-0.1-0.1-0.2-0.2-0.3-0.3c-0.1-0.1-0.2-0.3-0.2-0.4
		c-0.1-0.2-0.1-0.5,0-0.8c0-0.1,0-0.2,0.1-0.3l0.1-0.2c0.1-0.1,0.1-0.2,0.2-0.4c0.1-0.2,0.3-0.4,0.5-0.6c0.4-0.4,1-0.7,1.6-0.8
		c1.2-0.1,2.3,0.8,2.4,2c0,0.1,0,0.2,0,0.3c0,0.5-0.2,1.1-0.5,1.5c-0.5,0.7-1.2,1.3-2.1,1.7c-0.7,0.4-1.5,0.7-2.3,0.9
		c-1.6,0.4-3.2,0.4-4.8,0c1.5,0,3.1-0.3,4.5-0.9c0.7-0.3,1.4-0.6,2-1.1c0.6-0.3,1-0.8,1.4-1.4c0.1-0.2,0.2-0.5,0.2-0.7
		c0-0.2-0.1-0.3-0.2-0.4c-0.1-0.1-0.2-0.1-0.4-0.1c-0.2,0.1-0.3,0.2-0.5,0.3c-0.1,0.2-0.2,0.3-0.3,0.5c0,0,0,0,0-0.1s0-0.1,0-0.1
		c0-0.1,0-0.1-0.1-0.1c0,0-0.1-0.1-0.2-0.1c-0.1-0.1,0,0,0.1,0c0.7,0.1,1.3,0,2-0.1c1.5-0.3,2.9-0.7,4.3-1.3c1.4-0.5,2.8-1.2,4-2.1
		c0.3-0.2,0.6-0.4,0.8-0.7L87,213c0.6-0.6,1.2-1.1,1.8-1.6C90,210.3,91.5,209.6,93.1,209.4z"></path><path class="st0" d="M143.3,189.6c0.7,0.3,1.3,0.9,1.7,1.6c0.4,0.7,0.7,1.5,0.7,2.2c0.1,0.8-0.1,1.7-0.6,2.4
		c-0.4,0.7-1.1,1.2-1.9,1.5c0.2-0.7,0.3-1.3,0.4-2c0-0.6,0-1.1,0-1.7C143.7,192.4,143.4,191.2,143.3,189.6z"></path><path class="st0" d="M99.5,201.9c-2.7-0.2-5.5-0.3-8.2-0.2c-2.7,0.1-5.3,0.4-7.9,1.1c-1.3,0.3-2.5,0.8-3.7,1.3
		c-1.3,0.6-2.6,1.2-3.9,1.6c-1.4,0.5-2.8,0.7-4.3,0.6c-0.7-0.1-1.4-0.2-2-0.2c-0.7,0-1.3,0.2-1.9,0.5c0.5-0.5,1.1-0.9,1.8-1.1
		c0.7-0.1,1.4-0.1,2.1-0.2c1.3-0.2,2.6-0.6,3.7-1.1c1.2-0.5,2.4-1.2,3.6-1.8c1.3-0.7,2.6-1.2,4-1.6c2.8-0.7,5.6-0.9,8.4-0.7
		C94.1,200.3,96.9,200.9,99.5,201.9z"></path><path class="st0" d="M75,229.2c1.3-0.2,2.6-0.5,3.9-1c1.2-0.5,2.2-1.2,2.9-2.2c0.2-0.2,0.3-0.5,0.4-0.8c0.1-0.2,0.3-0.6,0.4-0.9
		c0.3-0.7,0.7-1.3,1.2-1.9c0.9-1.1,2.1-2.1,3.3-2.9c0.6-0.4,1.3-0.7,1.9-1s1.3-0.6,1.8-0.8c1.1-0.7,2.2-1.4,3.2-2.3
		c1-0.8,2-1.7,2.8-2.7c0.4-0.5,0.8-1,1-1.6c0.3-0.6,0.2-1.3-0.3-1.7c0.3,0.1,0.6,0.4,0.8,0.7c0.1,0.4,0.2,0.7,0.1,1.1
		c-0.1,0.7-0.4,1.4-0.8,2c-0.7,1.2-1.6,2.3-2.6,3.3c-1,1-2.1,1.9-3.3,2.7c-0.7,0.4-1.3,0.7-1.9,1s-1.2,0.6-1.7,0.9
		c-1.1,0.6-2.1,1.4-2.9,2.3c-0.4,0.5-0.8,1-1.1,1.5c-0.2,0.3-0.3,0.5-0.5,0.9c-0.2,0.4-0.4,0.7-0.7,1c-1,1.1-2.4,1.8-3.8,2.1
		C77.8,229.4,76.4,229.5,75,229.2z"></path><path class="st3" d="M103.3,201.1c0.4,0.9,0.6,1.9,0.7,2.9c0,1-0.1,2-0.4,3c-0.3,1-0.7,1.9-1.4,2.7c-0.6,0.8-1.5,1.4-2.5,1.7
		c0.5-0.8,0.9-1.6,1.2-2.5c0.3-0.8,0.6-1.6,0.8-2.5C102.1,204.6,102.7,202.8,103.3,201.1z"></path><path class="st1" d="M129.4,221.6c-0.2,1-0.6,2-1,3c-0.4,1.1-1.1,2-2,2.8c-0.3,0.2-0.7,0.4-1.1,0.4c-0.4,0-0.9-0.1-1.3-0.3
		c-0.3-0.2-0.5-0.4-0.7-0.6l-0.6-0.5c-0.6-0.6-1.3-1-2.1-1.2c-0.8,0-1.6,0.3-2.2,0.8c-0.4,0.3-0.8,0.5-1.2,0.8
		c-0.5,0.4-1,0.7-1.6,0.9c-0.7,0.3-1.5,0.2-2.2-0.2c-0.5-0.4-0.8-1-0.9-1.7c-0.2-1.1-0.2-2.2,0-3.2c0.2,1,0.5,2,0.9,2.9
		c0.2,0.4,0.4,0.7,0.7,0.9c0.3,0.1,0.6,0,0.8-0.1c0.4-0.2,0.7-0.5,1-0.8c0.4-0.4,0.8-0.7,1.2-1.1c0.5-0.4,1-0.7,1.5-0.9
		c0.6-0.3,1.3-0.4,2-0.3c0.7,0.1,1.3,0.3,1.9,0.7c0.5,0.3,0.9,0.7,1.4,1.1l0.6,0.5c0.2,0.2,0.4,0.4,0.5,0.4c0.1,0,0.1,0.1,0.2,0.1
		c0.1,0,0.3,0,0.4-0.1c0.8-0.5,1.5-1.2,2-1.9C128.2,223.3,128.8,222.4,129.4,221.6z"></path><path class="st1" d="M125.9,207c-1.7,0.5-3.4,1.2-5,2c-0.7,0.4-1.4,0.9-2,1.4c-0.2,0.3-0.4,0.6-0.6,0.9l-0.1,0.2
		c0,0.1,0,0.2-0.1,0.2c0,0.2-0.1,0.3-0.1,0.6c-0.2,1.1-0.7,2.1-1.6,2.9c-0.8,0.7-1.7,1.2-2.8,1.5c-1,0.3-2,0.3-3,0.2
		c-1-0.1-1.9-0.5-2.6-1.2c0.8,0.3,1.7,0.4,2.6,0.2c0.8-0.1,1.7-0.3,2.4-0.7c1.5-0.5,2.6-1.7,2.9-3.2l0.2-0.8c0-0.1,0.1-0.3,0.1-0.4
		l0.2-0.4c0.1-0.3,0.3-0.5,0.5-0.7c0.2-0.2,0.4-0.4,0.6-0.6c0.8-0.7,1.7-1.2,2.7-1.5C122,207,124,206.8,125.9,207z"></path><path class="st3" d="M145,244c-2.9,1.2-5,3.8-5.6,6.9l-6.6-2.5c0,0-13.5-9.5-26.5-2.1c0,0-3.8,16.1-8.7,31.3l3.8,54.6l56.5-2.1
		c0,0-1.9-15.5,0-17.2s9.6-8.6,9.6-17.3v-13.3C167.6,282.4,154.9,244.3,145,244z"></path><path class="st1" d="M223.8,298.3c-3.3-15.6-62.2-56.1-72.8-55.6c-2.1,0-4.1,0.5-6,1.3c7.8,3.6,22.6,38.4,22.6,38.4l23.3,16
		l-21.5,28.1l14.1,7.1C183.5,333.6,227.1,314,223.8,298.3z"></path><path class="st1" d="M174.8,343.1c0,0,12-1.1,13.5,0s-4.2,4.1-4.2,4.1s6.8-0.9,6.8,1.2s-13.7,5.3-13.7,5.3l-5.6-5.5L174.8,343.1z"></path><path class="st1" d="M174.9,321l-14.7,14.7l7,19c0.2,0.6,3.3,0,3.3,0s18.4,6.1,19,4.5s-3.7-6.5-7.1-7.1c-2.6-0.6-5.1-1.5-7.5-2.6
		v-8l10.7-9.5L174.9,321z"></path><path class="st0" d="M167.4,341.4c0.5,2.1,1,4.2,1.5,6.2c0.3,1,0.5,2,0.8,3c0.2,1,0.6,1.9,1,2.8c0.1,0.1,0.1,0.2,0.2,0.3
		c0,0,0,0-0.1,0h0.1l0.4,0.1l1.5,0.5c1,0.4,2,0.7,3,1.1c2,0.7,4,1.6,5.9,2.6c-2.1-0.2-4.3-0.6-6.4-1.1c-1.1-0.2-2.1-0.5-3.1-0.8
		l-1.5-0.4l-0.4-0.1c-0.1,0-0.2,0-0.2-0.1c-0.1-0.1-0.3-0.1-0.4-0.2c-0.3-0.3-0.6-0.6-0.8-0.9c-0.5-1-0.8-2.2-1-3.3
		c-0.2-1.1-0.4-2.1-0.5-3.2C167.1,345.7,167.1,343.5,167.4,341.4z"></path><path class="st1" d="M92.3,149.6c0,0-1.7-16.6,2.6-23.2s-2.2-5.2-5.9-0.4c0,0-2.7-14.4-2.3-18.4s-6.6-2.2-4.4,13.6
		c0,0-1.9-7.6-2.3-11.3s-4.6-3.7-4.2,4.6c0.1,4.4,0.5,8.8,1.1,13.2c0,0-2.3-8.2-2.2-11.2s-4.3-2.7-4,7s5.1,24.1,5.6,25.8
		S92.3,149.6,92.3,149.6z"></path><path class="st0" d="M82,136.3c-0.7-1-1.1-2.3-0.9-3.6c0.1-1.3,0.6-2.5,1.4-3.6c0.8-1,1.8-1.8,2.9-2.3c0.6-0.2,1.1-0.4,1.7-0.6
		c0.6-0.1,1.2-0.2,1.8-0.2c-0.4,0.4-0.9,0.8-1.4,1.1c-0.4,0.4-0.9,0.7-1.3,1.1c-0.8,0.7-1.6,1.4-2.2,2.2
		C82.7,132.1,82,134.1,82,136.3z"></path><path class="st4" d="M176.4,387.3c-1.7-14.8-18.4-57.2-18.4-57.2l-56.5,2.1c0,0-18,27.8-19.7,50.1s12.4,62.1,12.4,62.1H132l4.3-52
		l8.2,52h31.9C176.4,444.5,178.1,402.1,176.4,387.3z"></path><path class="st0" d="M132,444.5c0-2.2,0.1-4.4,0.2-6.5s0.2-4.4,0.3-6.5c0.2-4.4,0.5-8.7,0.8-13s0.6-8.7,1-13s0.7-8.7,1.2-13v-0.1
		v-0.1c1.5-4.1,3-8.1,4.6-12.2c0.8-2,1.6-4,2.4-6c0.8-2,1.6-4,2.5-6c-0.6,2.1-1.2,4.2-1.9,6.2s-1.3,4.2-1.9,6.2
		c-1.3,4.1-2.7,8.3-4.1,12.4l0.1-0.2c-0.3,4.3-0.6,8.7-1,13s-0.7,8.7-1.2,13s-0.9,8.6-1.4,13c-0.2,2.2-0.5,4.3-0.8,6.5
		C132.6,440.1,132.3,442.3,132,444.5z"></path><path class="st3" d="M120.3,245c0,0,2.6-5.5,4.5-5.2s20.2,2.5,20.2,2.5s3.3,30.4,0,31.7S120.3,245,120.3,245z"></path><path class="st1" d="M97.7,277.6c0,0-21.5-124.4-21.6-128.4s12.8-13,12.8-13L116,243.5C116,243.5,104.4,273.1,97.7,277.6z"></path></g><g id="character-2"><path class="st1" d="M328.2,269.4c0,0-11,43.3-8.2,49.7s31.9,34.4,31.9,34.4V273L328.2,269.4z"></path><polygon class="st5" points="428.9,333 433,435.6 336.4,435.6 346.4,337 	"></polygon><path class="st0" d="M428.9,333l-82.5,4c0,0-14-98.5-10-106.5s37.2-14.4,50.6-13.5s34.1,20.2,36.3,32.2S428.9,333,428.9,333z"></path><path class="st0" d="M366.9,356.5c1,1.6,1.9,3.2,2.8,4.9l2.8,4.9c1.8,3.3,3.6,6.6,5.4,9.9l0.1,0.1v0.2c0.4,4.9,0.8,9.8,1.2,14.8
		s0.7,9.9,1,14.8s0.5,9.9,0.7,14.8c0.1,2.5,0.2,4.9,0.2,7.4s0.1,4.9,0.1,7.4c-0.3-2.5-0.6-4.9-0.9-7.4s-0.5-4.9-0.8-7.4
		c-0.5-4.9-0.9-9.8-1.3-14.8c-0.4-4.9-0.8-9.9-1.1-14.8s-0.6-9.9-0.9-14.8l0.1,0.3c-1.7-3.4-3.3-6.8-4.9-10.2l-2.4-5.1
		C368.4,359.9,367.6,358.2,366.9,356.5z"></path><path class="st2" d="M389.1,220.6c0,0-5.4-58.1-9-59.4s-32.1,3.1-32.7,6.8c-2.6,15.4-9.9,22.9-5,24.7c4.3,1.6,6.9,0,6.9,0
		s0.5,15.1,3.9,16.2s9-0.3,9-0.3l-3.4,20.5C358.8,229,382.6,221.7,389.1,220.6z"></path><path class="st3" d="M370,189.1c0,0,12.2,13.9,15.5,13.6s-0.1-42.4-2.6-44.6s-33.1-12.5-37.5-10.5s0.8,7.9,0.8,7.9
		s-11.4-1.9-13.2,2.8s10.1,7.4,15.5,8.6s16.5-0.2,16.5-0.2s-3.3,9.5-2.1,11.4s5,3.8,5,3.8s2-7.4,5.5-5.3S374.6,189.5,370,189.1z"></path><path class="st0" d="M361.4,190.9c0.3,0.5,0.5,1.2,0.5,1.8c0,0.6-0.2,1.3-0.5,1.8c-0.4,0.6-1,1.1-1.6,1.3c-0.7,0.2-1.4,0-1.9-0.4
		c0.4-0.3,0.9-0.6,1.2-1c0.2-0.3,0.5-0.6,0.7-0.9l0.7-1.1C360.7,191.8,361,191.3,361.4,190.9z"></path><path class="st3" d="M357,175.9c0.2-0.7,0-1.4-0.4-2.1c-0.4-0.6-0.9-1.1-1.6-1.3c-0.7-0.3-1.4-0.3-2.1-0.1
		c-0.7,0.2-1.3,0.6-1.7,1.1c0.5,0.3,1.1,0.6,1.6,0.8c0.5,0.2,0.8,0.4,1.2,0.5C354.9,175.2,355.6,175.4,357,175.9z"></path><path class="st0" d="M371.7,207.5c-1.4,0.6-2.9,1.2-4.5,1.5c-1.5,0.4-3.1,0.6-4.6,0.8c-1.6,0.2-3.2,0.2-4.7,0.2
		c-1.6,0-3.2-0.4-4.7-1.1c1.5-0.1,3.1-0.2,4.6-0.5c1.5-0.2,3-0.4,4.6-0.6s3.1-0.3,4.6-0.4C368.5,207.4,370.1,207.4,371.7,207.5z"></path><path class="st0" d="M357.8,179.9c-0.4,0.4-0.8,0.8-1.3,1.1c-0.4,0.3-0.7,0.6-1.1,0.8s-0.8,0.5-1.2,0.7c-0.5,0.3-1,0.5-1.5,0.7
		c-0.1-0.6,0-1.3,0.3-1.8c0.3-0.5,0.7-1,1.2-1.3C355.3,179.3,356.7,179.3,357.8,179.9z"></path><path class="st2" d="M406.9,107.7c0,0-1.4-19.3-8.1-25.2s1.6-6.6,7.3-2.5c0,0,0.3-17.1-1.1-21.5s7.8-4.8,8.4,13.8
		c0,0,0.8-9.2,0.5-13.5s4.9-5.7,6.2,3.7c0.8,5.1,1.2,10.2,1.4,15.3c0,0,1.1-10.1,0.4-13.4s4.8-4.5,6.5,6.4s-1.2,28.9-1.5,31
		S406.9,107.7,406.9,107.7z"></path><path class="st0" d="M416.8,89.2c-0.2-1.3-0.6-2.5-1.3-3.6c-0.6-1-1.4-1.9-2.4-2.5c-1-0.7-2.1-1.3-3.3-1.7
		c-0.6-0.2-1.2-0.4-1.9-0.7c-0.7-0.2-1.3-0.4-1.9-0.7c0.7-0.1,1.4-0.2,2.1-0.3c0.7,0,1.4,0,2.1,0.1c1.4,0.2,2.8,0.8,4,1.6
		c1.3,0.9,2.2,2.1,2.7,3.6C417.4,86.3,417.4,87.8,416.8,89.2z"></path><path class="st2" d="M422.4,253.6c0,0,5.3-147.4,4.5-151.9s-18.7-10.2-18.7-10.2l-10.9,130C397.3,221.5,413.1,250.9,422.4,253.6z"></path><path class="st0" d="M389.1,216.3l7.7-34.8c0,0,37.2,2.6,36.2,5.7c-1.6,5.3-4.3,13-7.5,86.2C410.6,264.6,389.4,249.3,389.1,216.3z"></path><path class="st0" d="M336.4,230.5c-0.4,1.6-7.7,22.3-15.7,51.3l19,3.7L336.4,230.5z"></path></g><g id="welcome"><path class="st0" d="M71.6,130.6c1.2,1.5,2.9,2.6,4.7,3.3c0.9,0.3,1.9,0.3,2.9,0.1c0.9-0.2,1.8-0.7,2.6-1.3
		c1.5-1.2,2.7-2.8,3.6-4.5c0.9-1.7,1.7-3.5,2.3-5.3c0.7-1.8,1.2-3.7,1.7-5.6c0.6-1.9,1.5-3.6,2.7-5.2c2.3-3.2,5.5-5.8,9.1-7.3
		c3.6-1.5,7.6-2.3,11.5-2.4c3.9-0.1,7.9,0.3,11.7,1.1c7.6,1.6,15.2,3.3,22.8,4.8s15.3,2.8,22.9,4s15.4,2.2,23.1,3.1
		c15.4,1.7,30.9,2.6,46.4,2.6c31,0.1,62.2-3.6,91.7-13.1c29.5-9.4,57.1-25.4,78.9-47.7c-10.6,11.4-22.8,21.3-36,29.5
		c-13.3,8.2-27.5,14.8-42.3,19.7c-14.8,4.9-30.1,8.4-45.5,10.5c-15.5,2.1-31.1,3.2-46.7,3.1c-15.6-0.1-31.2-1-46.6-2.8
		c-7.7-0.9-15.5-1.9-23.1-3.2c-7.7-1.2-15.4-2.7-23-4.3c-7.6-1.6-15.2-3.4-22.8-5.1c-3.8-0.8-7.6-1.3-11.4-1.2
		c-3.8,0-7.7,0.7-11.2,2.1c-3.6,1.4-6.7,3.8-9,6.9c-1.1,1.5-2.1,3.3-2.7,5.1c-0.6,1.8-1.1,3.7-1.8,5.6c-0.7,1.8-1.5,3.6-2.4,5.3
		c-0.9,1.7-2.2,3.3-3.7,4.5c-0.8,0.6-1.7,1-2.7,1.2c-1,0.2-2,0.1-2.9-0.1C74.4,133.3,72.7,132.2,71.6,130.6z"></path><path class="st5" d="M106.4,141.4c0,0,8-41.1,11.7-41.4s31.6,2.6,32.8,7.3s-5.3,44.8-9.9,43.7s-9.7-11.7-15-11.3
		S105.7,144.9,106.4,141.4z"></path><path class="st5" d="M154.5,148.4c0,0,6.2-38.8,9.7-39.1s24.2,1.9,25.8,3.8s-0.8,41.4-3.6,41.5s-11.5-9.1-14.4-8.9
		S152.9,151,154.5,148.4z"></path><path class="st5" d="M201.1,153.3c0,0,0.7-36.9,3.4-37.4s26.2,0,27.9,0.7s5.2,42.7,2.8,42.9s-15.6-12.1-18.5-10.8
		S198.8,157.2,201.1,153.3z"></path><path class="st5" d="M265.7,146c0,0-15.4,11.9-16.9,9.9s-0.9-38.8,1.9-39.2s25.4-1.3,27.5-1.5s11.1,35.5,9.1,36.8
		S265.7,146,265.7,146z"></path><path class="st5" d="M426.8,99.3c0,0-24.4-34-27.8-32.8S371.3,82,372.2,86.7s23.4,38.6,27.1,35.7s4-14.7,9-16.5
		S428.9,102.2,426.8,99.3z"></path><path class="st5" d="M379.1,125.8c0,0-12.7-34.2-16.2-33.9s-25.8,7.3-27.1,9.5s7.5,38.7,10.2,38.3s12.3-12.7,15.3-13
		S381.1,128.1,379.1,125.8z"></path><path class="st5" d="M332,143.3c0,0-7-36.2-9.8-36.3s-25.8,4.5-27.4,5.5s5,39.2,7.4,39s10.5-11,13.6-10.1S334.9,146.8,332,143.3z"></path><path class="st6" d="M117.2,111.1c0,0,2.8-0.4,3.6,0.8s2.8,17.2,3.5,17s5.7-8.8,6.8-9.2s1.9-0.1,2,0.6s2.4,10.9,2.4,10.9
		s8.9-14.3,9.6-14.2s1.7-0.2,1.7,0.1s-12.5,19-13,18.9l-1.4-0.3l-1.3-12.3c0,0-6.8,9.8-8,10.4c-0.6,0.4-1.4,0.2-1.7-0.4
		C121.4,133.4,116.6,111,117.2,111.1z"></path><path class="st6" d="M170.1,118.4c0,0,12.1,1.7,12.3,2.2s0,1.6-0.6,1.8s-8.5-1.4-8.5-1.4l-1.2,6.9c0,0,5.8,0.7,5.7,1.3l-0.2,1.4
		c0,0-5.7-1-5.8-0.5s-1.4,8.1-1.4,8.1s8.7,1.4,8.7,1.8s0.2,1.6-0.6,1.6s-12.1-2.3-12.1-2.6S169.2,118.9,170.1,118.4z"></path><path class="st6" d="M211.5,122.1c0,0,3.8-0.4,3.8,0.3s0.6,19.4,0.6,19.4s11.1-1.2,11.2-0.5s0.2,1.8,0.2,1.8s-15.4,1.1-15.5,0.2
		S211.5,122.1,211.5,122.1z"></path><path class="st6" d="M271.4,124.9c0.4-0.4,0.7-0.9,0.8-1.4c0.1-0.7-4.3-3.8-9-2.2s-7.3,4.7-6.8,11.6s5.5,9.9,11,9.2s6.5-3.7,6.1-4
		l-1.2-1c-1.1,1.9-3.1,3.1-5.3,3.1c-4,0.3-7.4-2.8-7.2-9.8S267.2,120.8,271.4,124.9z"></path><path class="st6" d="M321.6,123c-2.8-6.4-8.8-7.5-10.6-7.2c0,0-7.8,0.3-9.7,9.1s6.5,13.2,11.8,12.1S324.5,129.4,321.6,123z
		 M312.7,134.1c-3.4,0.7-8.9-2.5-7.7-8.7s6.2-6.3,6.2-6.3c1.2-0.2,5,0.6,6.8,5.2C319.9,128.8,316.1,133.4,312.7,134.1L312.7,134.1z"></path><path class="st6" d="M347.8,125.7c0,0-7.4-19.1-7.2-19.7s2.2-1.4,3.4-0.9s12.1,12.2,12.1,12.2s0.3-16.8,1.1-17.4s2.8-2.2,3.2-1.2
		s8.5,19.3,7.3,20.1s-3.2,1.9-3.5,0.8s-5.7-15.5-5.7-15.5s-0.8,16.7-1.4,17.8s-1.3,0.5-1.8,0l-12.2-12.7c0,0,6.6,15.3,6.3,16
		S347.8,125.7,347.8,125.7z"></path><path class="st6" d="M385,87.3c0,0,9.7-7.5,10.1-7.3s1.2,1.1,0.9,1.7s-6.9,5.1-6.9,5.1l4.1,5.7c0,0,4.5-3.7,4.9-3.2l0.8,1.1
		c0,0-4.7,3.4-4.4,3.8l4.8,6.6c0,0,7-5.3,7.3-5s1.3,1,0.7,1.5s-10.1,7.1-10.4,6.9S384.7,88.3,385,87.3z"></path><path class="st3" d="M176.4,80c-0.4-2-0.2-4.1,0.5-6c0.7-2,2.5-3.5,4.6-4c0.5-0.1,1-0.1,1.6-0.2l1.6,0.1c1.1,0.1,2.1,0.4,3.1,0.8
		c1.9,0.9,3.6,2.3,4.7,4.2c1.1,1.8,1.8,3.9,2,6c0,0.6,0,1.1-0.1,1.7c-0.1,0.7-0.4,1.4-0.9,1.9c-0.4,0.3-0.9,0.5-1.4,0.4
		c-0.4,0-0.8-0.2-1.1-0.4c-0.6-0.3-1-0.8-1.4-1.3c-0.4-0.6-0.6-1.2-0.6-1.9c0-0.6,0.1-1.3,0.3-1.8c0.5-1.1,1.1-2,2-2.7
		c1.7-1.5,3.8-2.4,6-2.5c2.3-0.1,4.5,0.6,6.2,2.1c0.8,0.7,1.5,1.5,2.1,2.4c0.6,0.8,1.2,1.7,1.7,2.6c0.5,0.9,1,1.8,1.4,2.8
		c0.4,1,0.7,2.1,0.8,3.2c0,0.7-0.1,1.3-0.4,1.9c-0.1,0.2-0.2,0.3-0.4,0.5c-0.2,0.1-0.3,0.3-0.5,0.4l-0.6,0.2c-0.2,0-0.4,0-0.6,0.1
		c-0.3,0-0.7-0.1-1-0.2l-0.2-0.1c-0.1,0-0.2-0.1-0.3-0.2c-0.3-0.2-0.4-0.4-0.5-0.7c-0.1-0.4-0.1-0.8,0-1.2c0.1-0.3,0.2-0.6,0.4-0.8
		c1.1-1.8,2.7-3.3,4.7-4.2c1.9-1,4-1.4,6.1-1.1c1,0.2,2.1,0.5,3,1c0.9,0.5,1.8,1.1,2.5,1.7c1.5,1.4,2.7,2.9,3.7,4.7
		c-1.1-1.6-2.5-3.1-4-4.3c-0.8-0.6-1.6-1.1-2.5-1.4c-0.9-0.4-1.8-0.6-2.7-0.7c-1.9-0.1-3.8,0.3-5.4,1.3c-1.6,0.9-3,2.2-3.9,3.8
		c-0.1,0.2-0.2,0.4-0.2,0.5c0,0.1,0,0.2,0,0.2c0,0,0-0.1-0.1-0.1l0,0h0.1c0.1,0.1,0.3,0.1,0.4,0.1c0.2,0,0.4-0.1,0.5-0.3
		c0.1-0.3,0.2-0.7,0.2-1c-0.1-0.9-0.3-1.7-0.7-2.5c-0.4-0.9-0.8-1.7-1.3-2.5c-0.5-0.8-1.1-1.6-1.6-2.4c-0.5-0.7-1.1-1.4-1.8-2
		c-1.3-1.2-3.1-1.7-4.8-1.6c-1.8,0.1-3.5,0.8-4.8,2c-0.7,0.5-1.2,1.2-1.5,2c-0.3,0.6-0.3,1.4,0.1,2c0.2,0.3,0.4,0.5,0.8,0.7
		c0.1,0.1,0.2,0.1,0.3,0.1l0,0c0.2-0.2,0.3-0.5,0.3-0.8c0.1-0.4,0.1-0.9,0.1-1.3c-0.1-1.9-0.7-3.6-1.6-5.2c-0.9-1.6-2.3-2.9-3.9-3.8
		c-0.8-0.4-1.7-0.7-2.6-0.8l-1.4-0.2l-1.4,0.1c-1.9,0.3-3.5,1.5-4.3,3.2c-0.4,0.9-0.7,1.8-0.8,2.8C176.4,78,176.4,79,176.4,80z"></path><path class="st2" d="M208.6,171.5c1.2,0.7,2.1,1.7,2.8,2.9c0.8,1.3,0.8,2.9,0.1,4.2c-0.2,0.3-0.4,0.6-0.6,0.9
		c-0.2,0.3-0.5,0.5-0.8,0.8c-0.5,0.5-1.2,0.9-1.8,1.2c-1.4,0.5-2.9,0.7-4.3,0.3c-1.4-0.3-2.8-0.9-3.9-1.7c-0.3-0.2-0.6-0.5-0.9-0.8
		c-0.3-0.4-0.6-0.8-0.7-1.3c-0.1-0.4,0-0.8,0.3-1.1c0.2-0.3,0.5-0.5,0.8-0.6c0.5-0.2,0.9-0.2,1.4-0.1c1,0.1,1.8,0.7,2.3,1.6
		c0.4,0.7,0.6,1.5,0.6,2.3c0.1,1.6-0.4,3.1-1.4,4.4c-1,1.3-2.5,2.1-4.1,2.2c-0.7,0.1-1.5,0-2.2-0.1c-0.7-0.1-1.4-0.2-2-0.4
		c-1.4-0.3-2.8-0.9-4-1.8c-0.2-0.1-0.3-0.3-0.5-0.4l-0.2-0.3l-0.2-0.3c-0.3-0.6-0.2-1.2,0.1-1.8c0.2-0.2,0.4-0.4,0.6-0.6l0.3-0.1
		c0.6-0.3,1.2-0.1,1.6,0.5c0.1,0.2,0.3,0.4,0.3,0.6c0.3,0.7,0.4,1.5,0.4,2.2c0,0.7-0.1,1.4-0.2,2.1c-0.6,2.9-3.2,5-6.1,5
		c-1.4,0-2.7-0.1-4-0.6c1.3,0.2,2.6,0.2,3.9,0c1.2-0.2,2.4-0.7,3.3-1.6c0.9-0.9,1.4-2,1.6-3.2c0.2-1.2,0.1-2.4-0.3-3.5
		c0-0.1-0.1-0.2-0.2-0.2c0-0.1-0.1,0,0.1,0s0.3,0,0.2,0H191c0,0.1-0.1,0.1-0.1,0.1s0,0,0,0.1c0.1,0.2,0.2,0.3,0.4,0.4
		c1,0.6,2.1,1.1,3.3,1.3c0.6,0.1,1.2,0.2,1.9,0.3c0.6,0.1,1.2,0.1,1.8,0.1c1.1-0.1,2-0.6,2.7-1.5c0.7-0.9,1-2,1-3.1
		c0-0.5-0.1-1-0.4-1.5c-0.1-0.3-0.5-0.6-0.8-0.7c-0.2,0-0.4,0-0.6,0c-0.1,0,0,0,0-0.1c0-0.1,0.1-0.1,0.1-0.2c0,0.2,0.1,0.3,0.2,0.4
		c0.2,0.2,0.4,0.4,0.6,0.6c0.9,0.8,2,1.3,3.2,1.6c1.1,0.3,2.4,0.3,3.5,0c0.6-0.2,1.1-0.5,1.6-0.8c0.2-0.2,0.5-0.4,0.7-0.6
		s0.4-0.4,0.6-0.7c0.7-1,0.8-2.3,0.2-3.4c-0.3-0.6-0.6-1.2-1-1.7C209.5,172.4,209.1,171.9,208.6,171.5z"></path><path class="st7" d="M330.2,84.6c0-1.4-0.1-2.8-0.5-4.2c-0.3-1.3-0.9-2.5-1.8-3.5c-0.9-0.9-2.1-1.4-3.4-1.4c-0.2,0-0.3,0-0.5,0
		l-0.5,0.1c-0.3,0-0.6,0.1-1,0.1c-0.6,0.1-1.2,0.3-1.8,0.6c-2.2,1.3-3.9,3.5-4.6,6c-0.4,1.2-0.6,2.5-0.6,3.8c0,0.5,0.1,1.1,0.3,1.6
		l0,0c0,0-0.1,0-0.1,0c0.1-0.1,0.3-0.1,0.4-0.2c0.8-0.7,1-1.8,0.5-2.8c-0.5-1.1-1.3-2.1-2.3-2.8c-1-0.7-2.2-1.2-3.4-1.3
		c-1.2-0.1-2.4,0.3-3.5,0.9c-1.1,0.8-2,1.7-2.7,2.9c-0.8,1.1-1.5,2.3-2.2,3.5c-0.7,1.2-1.1,2.5-1.4,3.8c-0.1,0.6,0,1.3,0.2,1.9
		c0.4,0.6,1.2,0.7,1.8,0.3c-0.3,0.2-0.6,0.3-1,0.3c-0.4,0-0.8-0.2-1-0.5c-0.4-0.6-0.6-1.4-0.5-2.2c0.1-1.4,0.5-2.9,1-4.2
		c0.6-1.3,1.2-2.6,2-3.8c0.7-1.3,1.7-2.5,2.9-3.4c1.3-1,2.9-1.5,4.5-1.4c1.6,0.1,3.1,0.6,4.4,1.5c1.3,0.9,2.4,2.2,3,3.6
		c0.3,0.8,0.5,1.7,0.3,2.6c-0.2,0.9-0.6,1.8-1.4,2.4c-0.4,0.4-0.9,0.6-1.5,0.7c-0.4,0-0.8,0-1.1-0.2c-0.3-0.2-0.5-0.4-0.7-0.7
		c-0.4-0.8-0.6-1.7-0.5-2.5c0-1.5,0.3-3,0.8-4.5c0.5-1.4,1.2-2.8,2.1-4c0.9-1.2,2.2-2.2,3.6-2.9c0.7-0.3,1.4-0.5,2.2-0.7
		c0.4,0,0.8-0.1,1.1-0.1h0.6c0.2,0,0.4,0,0.6,0.1c1.6,0.1,3,0.8,4,2.1c0.9,1.2,1.4,2.6,1.6,4.1C330.5,81.7,330.4,83.2,330.2,84.6z"></path></g><g id="character-1"><polygon class="st3" points="218.5,444.5 218.5,417.5 294.9,417.5 297.5,444.5 	"></polygon><path class="st5" d="M211.2,416.9c0,0,79.7,6.5,91.4,0c0,0-18.3-134-45.7-139.1S214.1,361.3,211.2,416.9z"></path><path class="st2" d="M289.2,323.9c0,0,43.6,29.2,49.9,29.2s62.9-20.2,64.1-20.2s21.1-1.5,21.1-5.8s-3.4-4.6-3.4-4.6s4.9-4,0-6.1
		c0,0,4.6-9.2-2.5-9.2h-14.1c0,0,2.5-9.2,0-9.2s-12.5,19.2-14.4,21.6s-48,10-50,10s-38.3-29.1-38.3-29.1L289.2,323.9z"></path><path class="st0" d="M423.6,328.4c-1.4,1.4-3,2.5-4.7,3.5c-1.8,1-3.7,1.6-5.8,1.8c-1.2,0.1-2.3-0.3-3.3-0.9c-0.6-0.4-1-1.1-1.1-1.8
		c0-0.7,0.2-1.4,0.7-1.9c0.7-0.7,1.6-1.3,2.6-1.7c0.9-0.4,1.8-0.7,2.8-0.9c-0.8,0.6-1.6,1.1-2.3,1.7c-0.7,0.5-1.3,1.1-1.9,1.8
		c-0.2,0.2-0.2,0.5-0.2,0.7c0,0.1,0.2,0.3,0.5,0.5c0.6,0.4,1.4,0.5,2.1,0.5c1.8-0.2,3.5-0.6,5.2-1.2
		C420,329.8,421.8,329.1,423.6,328.4z"></path><path class="st0" d="M422.8,320.3c-1.3,1.8-2.9,3.3-4.7,4.7c-1.8,1.4-3.8,2.5-6,3.2c-1.2,0.3-2.4,0.4-3.6,0.3
		c-0.7-0.1-1.3-0.3-1.9-0.7c-0.3-0.2-0.6-0.5-0.8-0.9c-0.2-0.4-0.3-0.8-0.3-1.2c0.1-1.3,0.7-2.4,1.6-3.3c0.8-0.8,1.6-1.6,2.5-2.2
		c-0.6,0.9-1.2,1.8-1.8,2.7c-0.5,0.8-0.8,1.7-0.8,2.6c0,0.3,0.2,0.5,0.5,0.6c0.4,0.2,0.8,0.3,1.2,0.3c1,0.1,1.9-0.1,2.8-0.3
		c1-0.3,1.9-0.7,2.9-1.1c1-0.4,1.9-1,2.8-1.5C419.1,322.6,420.9,321.5,422.8,320.3z"></path><path class="st0" d="M421.6,308.3c0.7,1.3,1,2.7,0.8,4.1c-0.2,1.5-0.8,2.9-1.9,4l-0.8,0.8c-0.3,0.2-0.6,0.4-0.9,0.6
		c-0.6,0.4-1.2,0.7-1.8,1c-1.2,0.6-2.5,1.2-3.8,1.7c-1.3,0.5-2.6,0.9-4,1.2c-1.4,0.4-2.9,0.5-4.3,0.4c-0.5,0-0.9-0.2-1.3-0.4
		c-0.3-0.2-0.5-0.4-0.6-0.7c-0.1-0.3-0.1-0.6,0-0.9c0.2-0.7,0.4-1.4,0.8-2c0.7-1.2,1.6-2.3,2.6-3.2c-0.7,1.2-1.3,2.4-1.7,3.6
		c-0.2,0.6-0.4,1.2-0.4,1.8c0,0.2,0,0,0.1,0.1c0.2,0.1,0.5,0.1,0.7,0.1c1.3-0.1,2.5-0.3,3.7-0.7c1.3-0.3,2.5-0.8,3.8-1.2
		c1.3-0.4,2.5-1,3.7-1.5c0.6-0.3,1.2-0.5,1.8-0.9l0.8-0.5l0.8-0.5c0.9-0.8,1.6-1.8,2-3C421.8,311,421.9,309.6,421.6,308.3z"></path><path class="st5" d="M265.1,282.2c0,0,5.7-2.9,19,2.3s45.7,34.2,45.7,34.2s-9.9,26.5-12.2,26.5s-45.1-29.1-45.1-29.1L265.1,282.2z"></path><path class="st2" d="M223.7,322c0,0-43.6,29.2-49.9,29.2S111,331,109.8,331s-21.1-1.5-21.1-5.8s3.4-4.6,3.4-4.6s-4.9-4,0-6.1
		c0,0-4.6-9.2,2.4-9.2h14.1c0,0-2.4-9.2,0-9.2s12.5,19.2,14.4,21.6s48,10,50,10s38.3-29.1,38.3-29.1L223.7,322z"></path><path class="st0" d="M89.3,326.5c1.8,0.7,3.6,1.4,5.3,2c1.7,0.7,3.4,1.1,5.2,1.2c0.7,0.1,1.5-0.1,2.1-0.5c0.2-0.1,0.4-0.3,0.5-0.5
		c0-0.3,0-0.5-0.2-0.7c-0.5-0.7-1.2-1.3-1.9-1.9c-0.7-0.6-1.5-1.1-2.3-1.7c1,0.2,1.9,0.5,2.8,0.9c1,0.4,1.8,1,2.6,1.7
		c0.5,0.5,0.8,1.2,0.7,1.9c-0.1,0.7-0.5,1.4-1.1,1.8c-1,0.7-2.1,1-3.3,0.9c-2-0.2-4-0.8-5.8-1.8C92.3,329.1,90.7,327.9,89.3,326.5z"></path><path class="st0" d="M90.2,318.4c1.9,1.2,3.7,2.3,5.5,3.4c0.9,0.5,1.8,1,2.8,1.5c0.9,0.5,1.9,0.8,2.8,1.1c0.9,0.3,1.9,0.4,2.8,0.3
		c0.4,0,0.8-0.1,1.2-0.3c0.3-0.1,0.5-0.3,0.5-0.6c0-0.9-0.3-1.9-0.8-2.6c-0.5-0.9-1.1-1.9-1.7-2.7c0.9,0.6,1.8,1.3,2.5,2.2
		c0.9,0.9,1.5,2,1.6,3.3c0,0.4-0.1,0.8-0.3,1.2c-0.2,0.3-0.5,0.6-0.8,0.9c-0.6,0.4-1.2,0.6-1.9,0.7c-1.2,0.2-2.5,0.1-3.6-0.3
		c-2.2-0.7-4.2-1.8-6-3.2C93.1,321.7,91.5,320.1,90.2,318.4z"></path><path class="st0" d="M91.3,306.4c-0.3,1.3-0.2,2.6,0.2,3.9c0.4,1.2,1.1,2.2,2,3l0.8,0.5l0.8,0.5c0.6,0.3,1.2,0.6,1.8,0.9
		c1.2,0.5,2.4,1,3.7,1.5s2.5,0.9,3.8,1.2c1.2,0.4,2.5,0.6,3.7,0.7c0.2,0,0.5,0,0.7-0.1c0.1-0.1,0.1,0.1,0.1-0.1
		c-0.1-0.6-0.2-1.2-0.4-1.8c-0.5-1.3-1-2.5-1.7-3.6c1,0.9,1.9,2,2.6,3.2c0.4,0.6,0.6,1.3,0.8,2c0.1,0.3,0.1,0.6,0,0.9
		c-0.1,0.3-0.4,0.5-0.6,0.7c-0.4,0.2-0.8,0.4-1.3,0.4c-1.5,0.1-2.9,0-4.3-0.4c-1.4-0.3-2.7-0.7-4-1.2c-1.3-0.5-2.6-1-3.8-1.7
		c-0.6-0.3-1.2-0.7-1.8-1c-0.3-0.2-0.6-0.4-0.9-0.6l-0.8-0.8c-1.1-1.1-1.7-2.5-1.9-4C90.4,309.1,90.7,307.6,91.3,306.4z"></path><path class="st5" d="M247.8,280.3c0,0-5.7-2.9-19.1,2.3s-45.7,34.2-45.7,34.2s9.9,26.5,12.2,26.5s45.1-29.1,45.1-29.1L247.8,280.3z
		"></path><path class="st2" d="M264.8,257.8v31.5c0,0-6,10.3-8.4,11.7s-9.1-13.6-9.1-13.6l1.1-28.4L264.8,257.8z"></path><polygon class="st0" points="247.4,281.4 264.8,279.5 264.8,257.8 247.4,257.8 	"></polygon><path class="st2" d="M270.2,231.9c0,0,2.4-5.2,6-4.1s-0.3,13.9-5,12.8S270.2,231.9,270.2,231.9z"></path><path class="st2" d="M239.1,231c0,0-1.9-5.2-4.8-4.1s0.2,13.9,4,12.8S239.1,231,239.1,231z"></path><path class="st1" d="M255,276.6c0,0,4.7,5.8,8.7-1.5c6.2-11.4,8.1-17.3,8.8-41.2c0.4-12.9,2.1-21.5-1.5-26.2s-14.1-6.1-14.1-6.1
		s-12.7-17.1-23.7-11.5s4.7,22.8,4.7,22.8s-1,15.5-0.3,19.4C237.5,232.3,238.6,284.6,255,276.6z"></path><path class="st2" d="M239.9,215.9c0,0-0.8,10.2-0.8,19.5s1.6,9.6,5.1,8.1s5.7-3.4,7.3-3.4l5.4,0.1c2.6,0.3,5.1,1.2,7.4,2.6
		c2.9,1.8,5.2,2.7,6,0.9s1.4-16.4-0.4-21.6s-3.6-8.3-3.6-11.3C266.2,210.7,247.9,220.3,239.9,215.9z"></path><path class="st0" d="M264.7,247.4c0.5,0.4,0.7,1,0.6,1.6c-0.1,0.6-0.4,1.2-0.9,1.6c-0.5,0.3-1,0.5-1.6,0.6c-0.6,0-1.1-0.2-1.5-0.5
		c0.3-0.4,0.7-0.7,1.1-1c0.3-0.3,0.6-0.4,0.8-0.6C263.7,248.6,264.3,248,264.7,247.4z"></path><path class="st1" d="M259,224.2c0.4-0.7,0.9-1.3,1.6-1.7c0.7-0.4,1.5-0.7,2.3-0.8c0.9-0.1,1.7,0.1,2.5,0.5c0.7,0.4,1.3,1.2,1.4,2
		c-0.7-0.2-1.3-0.4-2-0.5c-0.6-0.1-1.2-0.1-1.7,0C261.9,223.8,260.6,224.1,259,224.2z"></path><path class="st1" d="M249.3,223.5c-1.5-0.1-2.6-0.4-3.7-0.5c-0.5,0-1,0-1.5,0c-0.6,0.1-1.3,0.3-1.9,0.5c0.1-0.8,0.6-1.5,1.2-1.9
		c0.7-0.4,1.5-0.6,2.3-0.6c0.8,0.1,1.5,0.4,2.1,0.8C248.5,222.2,249,222.8,249.3,223.5z"></path><path class="st1" d="M225.2,197c1.4,3.5,3.3,6.7,5.6,9.7c2.2,2.9,5.1,5.2,8.4,6.6c1.6,0.7,3.4,1.1,5.2,1.2c0.4,0,0.9,0,1.3,0
		c0.4,0,0.9,0,1.4,0c0.9-0.1,1.8-0.2,2.7-0.4c3.7-0.8,7.2-2.1,10.5-3.7c-3,2.4-6.5,4.2-10.2,5.3c-3.8,1.2-7.9,1-11.7-0.4
		c-1.8-0.8-3.5-1.8-5.1-3.1c-1.5-1.3-2.8-2.8-3.9-4.4C227.4,204.4,226,200.8,225.2,197z"></path><polyline class="st2" points="254.4,230.3 244.2,241.2 257.5,240 	"></polyline><path class="st0" d="M254.4,230.3c-0.7,1.1-1.4,2.1-2.2,3.1s-1.5,2-2.3,2.9s-1.6,1.9-2.4,2.8s-1.7,1.9-2.5,2.7l-0.8-1.7
		c2.2-0.2,4.4-0.3,6.7-0.3c1.1,0,2.2,0,3.4,0s2.2,0.1,3.4,0.2c-1.1,0.3-2.2,0.5-3.3,0.8s-2.2,0.4-3.3,0.6c-2.2,0.4-4.4,0.6-6.6,0.8
		l-2.5,0.2l1.7-1.9c0.8-0.9,1.7-1.8,2.6-2.7s1.8-1.8,2.7-2.6s1.8-1.7,2.8-2.5S253.3,231.1,254.4,230.3z"></path><path class="st0" d="M243.8,228.8c0.2-0.7,0.7-1.3,1.4-1.6c0.7-0.3,1.5-0.3,2.2,0c0.7,0.2,1.2,0.7,1.7,1.2c0.2,0.3,0.4,0.6,0.5,0.9
		c0.1,0.3,0.2,0.7,0.2,1c-0.3-0.1-0.6-0.2-0.9-0.3c-0.3-0.1-0.5-0.2-0.8-0.4c-0.5-0.2-0.9-0.4-1.3-0.6
		C245.8,228.7,244.7,228.6,243.8,228.8z"></path><path class="st0" d="M265.8,229c-0.6,0-1.2,0-1.9,0.1c-0.5,0.1-0.9,0.2-1.4,0.3c-0.5,0.2-0.9,0.4-1.3,0.7c-0.2,0.1-0.5,0.3-0.8,0.5
		c-0.3,0.2-0.6,0.4-0.9,0.5c0-0.4,0-0.7,0.1-1.1c0.1-0.3,0.2-0.7,0.4-1c0.4-0.7,1-1.2,1.7-1.5c0.8-0.3,1.6-0.3,2.3,0
		C264.9,227.8,265.5,228.3,265.8,229z"></path><path class="st6" d="M229.2,310.2c4.1,0.6,8.2,1.1,12.4,1.5c4.1,0.4,8.2,0.5,12.3,0.5c2.1,0,4.1-0.1,6.1-0.3c2-0.2,4.1-0.5,6-0.9
		c4-0.8,7.9-2.3,11.4-4.5c-3.1,2.9-6.9,5-11,6.1c-4.1,1.1-8.3,1.7-12.5,1.7c-2.1,0-4.2,0-6.3-0.2s-4.2-0.4-6.2-0.7
		C237.3,312.6,233.2,311.6,229.2,310.2z"></path><path class="st6" d="M223.7,333.5c2.5,1,5.1,1.9,7.7,2.7s5.2,1.5,7.8,2.1c5.2,1.2,10.5,1.9,15.9,2.1c2.7,0.1,5.3,0.1,8-0.1
		c1.3-0.1,2.6-0.3,4-0.4s2.6-0.4,3.9-0.7c5.3-1.1,10.3-3,15.1-5.6c-4.4,3.3-9.4,5.7-14.7,7.1c-5.3,1.4-10.9,2-16.4,1.8
		c-2.7-0.1-5.5-0.4-8.2-0.8c-2.7-0.5-5.4-1.1-8-1.8C233.5,338.3,228.5,336.2,223.7,333.5z"></path><path class="st6" d="M215.7,371.3c6.7,1.1,13.4,2,20.1,2.9s13.4,1.4,20.1,1.7c6.7,0.4,13.4,0.2,20-0.6c3.3-0.4,6.6-1.1,9.7-2.2
		c3.2-1,6.1-2.8,8.5-5.2c-2.1,2.7-4.9,4.8-8.1,6.1c-3.2,1.3-6.5,2.3-9.9,2.9c-3.4,0.6-6.7,0.9-10.1,1.1c-3.4,0.1-6.8,0.1-10.2,0
		s-6.8-0.4-10.2-0.8s-6.7-0.8-10.1-1.4C228.9,374.7,222.2,373.2,215.7,371.3z"></path><path class="st6" d="M212.6,398.5c7.3,0.7,14.6,1.2,22,1.6s14.6,0.7,21.9,0.7c7.3,0.1,14.6-0.3,21.8-1.2c3.6-0.4,7.2-1.2,10.7-2.2
		c3.5-0.9,6.9-2.5,9.9-4.6c-2.8,2.5-6,4.4-9.5,5.6c-3.5,1.3-7.1,2.2-10.8,2.8c-3.6,0.6-7.3,1.1-11,1.3c-3.7,0.2-7.4,0.4-11.1,0.4
		c-3.7,0-7.4-0.1-11-0.3s-7.4-0.5-11-0.9C227.1,401,219.8,400,212.6,398.5z"></path><path class="st6" d="M228.8,282.6c0,1.4,0,2.9,0.2,4.3c0.1,1.4,0.4,2.7,0.8,4c0.2,0.6,0.4,1.3,0.7,1.9c0.3,0.6,0.6,1.2,1,1.8
		c0.8,1.2,1.7,2.3,2.6,3.4c-1.5-0.5-2.8-1.3-3.8-2.4c-0.5-0.6-1-1.2-1.4-1.9c-0.4-0.7-0.7-1.4-1-2.2c-0.5-1.5-0.6-3.1-0.5-4.6
		C227.5,285.4,228,283.9,228.8,282.6z"></path><path class="st6" d="M206.4,297.2l3.3,7.5c1.1,2.5,2.2,4.9,3.5,7.3c0.6,1.2,1.3,2.4,2,3.5c0.7,1.1,1.5,2.2,2.3,3.3
		c1.6,2.2,3.7,3.9,6.2,4.9c-1.4-0.1-2.8-0.5-4-1.2c-1.2-0.7-2.4-1.6-3.4-2.6c-2-2-3.6-4.3-4.9-6.9c-1.3-2.5-2.4-5-3.2-7.7
		C207.4,302.7,206.8,300,206.4,297.2z"></path><path class="st6" d="M189.5,311.4c1.1,2.5,2.2,5,3.3,7.4s2.3,4.8,3.6,7.1c0.6,1.1,1.3,2.3,2.1,3.3c0.7,1.1,1.6,2.1,2.5,3
		c1.7,2,4.1,3.3,6.7,3.7c-1.4,0.2-2.8,0.1-4.1-0.4c-1.3-0.5-2.6-1.2-3.6-2.2c-2.1-1.8-3.9-4-5.2-6.5c-1.4-2.4-2.5-4.9-3.3-7.5
		C190.4,316.8,189.8,314.1,189.5,311.4z"></path><path class="st6" d="M277.5,282.6c1.5,1.1,2.6,2.6,3.1,4.3c0.6,1.8,0.8,3.6,0.5,5.5c-0.3,1.8-1.1,3.5-2.1,5
		c-0.5,0.7-1.1,1.4-1.7,2.1c-0.6,0.6-1.3,1.2-2,1.7c0.4-0.8,0.8-1.5,1.2-2.3s0.8-1.5,1.1-2.2c0.7-1.5,1.2-3,1.5-4.6
		c0.3-1.6,0.3-3.2,0-4.7C278.9,285.6,278.4,284.1,277.5,282.6z"></path><path class="st6" d="M289.2,327.3c2.5-5.2,4.7-10.5,6.4-15.9l0.6-2l0.5-2.1c0.2-0.7,0.3-1.4,0.5-2.1s0.3-1.4,0.4-2.1
		c0.5-2.8,0.9-5.7,1.1-8.5c0.6,2.9,0.7,5.8,0.5,8.8c-0.3,2.9-0.9,5.8-1.8,8.6c-0.9,2.8-2,5.5-3.4,8.1
		C292.8,322.7,291.1,325.1,289.2,327.3z"></path><path class="st6" d="M316.3,307c0.3,2.8,0.4,5.7,0.2,8.6c-0.2,2.9-0.6,5.7-1.2,8.5c-0.7,2.8-1.6,5.5-2.7,8.2
		c-1.2,2.6-2.8,5-4.7,7.2c1.3-2.5,2.3-5.1,3.3-7.8c0.9-2.7,1.6-5.4,2.2-8c0.6-2.7,1.1-5.5,1.7-8.2L316.3,307z"></path><path class="st0" d="M448.3,197.3c2.5,10,1.5,20.8-1.8,30.6c-0.4,1.2-0.9,2.4-1.4,3.7l-0.7,1.8l-0.9,1.8c-0.6,1.2-1.1,2.4-1.7,3.5
		l-2,3.4c-0.7,1.1-1.4,2.2-2.1,3.3l-2.2,3.2c-1.5,2.1-3,4.1-4.4,6.3c-2.9,4.2-5.5,8.6-7.9,13.1c-2.4,4.5-4.6,9.1-6.4,13.9
		c-3.7,9.6-6.1,19.6-7.1,29.8c0.3-10.3,2.2-20.6,5.7-30.3c3.6-9.7,8.3-19,14.2-27.5c1.4-2.2,3-4.2,4.5-6.3l2.2-3.1
		c0.7-1.1,1.5-2.1,2.1-3.2l2-3.3c0.6-1.1,1.2-2.2,1.8-3.4l0.9-1.7l0.7-1.8c0.5-1.2,1-2.3,1.4-3.5c1.8-4.8,3-9.7,3.6-14.8
		c0.1-1.3,0.2-2.5,0.3-3.8s0.1-2.6,0.1-3.8C449,202.4,448.7,199.8,448.3,197.3z"></path><path class="st0" d="M414.5,333.5c1.6,2,3,4.1,4,6.4c1.1,2.3,1.9,4.7,2.5,7.2c0.5,2.5,0.7,5.1,0.5,7.7c-0.3,2.6-1.1,5-2.4,7.3
		c0.5-2.4,0.8-4.9,0.8-7.3c-0.1-2.4-0.4-4.8-0.9-7.2c-0.5-2.4-1.2-4.8-2-7.1C416.3,338.2,415.4,335.9,414.5,333.5z"></path><path class="st3" d="M444.7,193.1c0,0-4,2.2,0,4.2s9.4,0,9.4,0l-4.8-4.2c0,0,31.6-20.8,25.1-55.6c-6.1-33.2-29.4-40.2-47.6-25.5
		S400.6,181.1,444.7,193.1z"></path><path class="st0" d="M65.5,257.1c0.9,2.9,1.8,5.8,2.8,8.6s2.1,5.6,3.3,8.4s2.5,5.5,3.9,8.1c1.4,2.7,2.9,5.3,4.5,7.8
		c3.2,5.1,7,9.7,11.4,13.7c2.2,2,4.6,3.7,7.2,5.3c2.6,1.5,5.3,2.8,8.2,3.9c-3-0.7-5.9-1.7-8.6-3c-2.7-1.4-5.3-3.1-7.7-5
		c-2.4-2-4.6-4.1-6.6-6.4c-2-2.3-3.8-4.8-5.5-7.4c-3.3-5.2-6-10.7-8.1-16.4C68,269,66.4,263.1,65.5,257.1z"></path><path class="st0" d="M106.7,319.4c2,2.6,3.7,5.4,5,8.4c0.7,1.5,1.3,3,1.8,4.6c0.5,1.6,0.9,3.2,1.2,4.8c0.7,3.3,0.8,6.6,0.2,9.9
		c-0.3,1.6-0.8,3.2-1.5,4.8c-0.7,1.5-1.7,2.8-2.9,4c1.6-2.7,2.6-5.8,2.8-9c0.1-1.6,0.1-3.1,0-4.7c-0.1-1.6-0.3-3.1-0.6-4.6
		c-0.6-3.1-1.5-6.2-2.5-9.1C109.2,325.4,108,322.4,106.7,319.4z"></path><path class="st7" d="M67.8,252.1c0,0,4.4,1.1,1.1,4s-9,2.5-9,2.5l3.5-5.3c0,0-36.1-11.4-39.4-46.7c-3.1-33.6,17.4-46.7,38.9-37.4
		S106.9,228.5,67.8,252.1z"></path></g></svg>